
<svg width="48" height="48" xmlns="http://www.w3.org/2000/svg" xmlns:xlink="http://www.w3.org/1999/xlink"><defs><path id="a" d="M.331.821h12.163V13H.331z"/></defs><g fill="none" fill-rule="evenodd"><path d="M17.584 34.968l-.008-.015.025.012-.017.003zm-.345-.044l-.027-.05.06-.003c.01.017.03.04.025.05-.004.007-.037.003-.058.003zm-.503-.338l-.019-.023c.001-.006.013-.008.021-.01l.031.035-.033-.002zm-.66-.319c-.007-.006-.01-.015-.016-.023.01.003.024.004.028.008.01.01.013.02.018.03-.01-.004-.022-.008-.03-.015zm-.784-.913l.006-.045c.033.012.067.017.098.035.092.057.186.112.274.176.341.27.734.462 1.096.705a11.143 11.143 0 0 1-1.474-.87zm-.148.277l-.012-.017.025.011-.013.006zm-.277-.567c-.149-.1-.272-.233-.41-.345-.175-.147-.37-.31-.54-.45-.339-.285-.612-.636-.919-.954-.36-.366-.628-.809-.948-1.209-.317-.446-.588-.924-.869-1.395-.224-.49-.5-.964-.678-1.476.033.051.07.1.092.156.151.356.35.691.512 1.043.237.513.557.986.845 1.471.278.36.564.724.851 1.092.32.336.64.671.953.997.425.366.821.768 1.27 1.106.005.004.003.016.01.047-.06-.03-.119-.049-.169-.083zm-.039.376l-.08-.094c.031.004.067 0 .091.016.03.018.05.056.075.085a3.292 3.292 0 0 1-.086-.007zm-.34-.307l-.158-.083s-.004-.022.002-.024c.046-.026.1.022.152.065.01.007.015.021.022.03-.006.005-.013.016-.019.012zm-.343-.258a4.466 4.466 0 0 1-.33-.244c-.06-.049-.11-.114-.194-.203.074.03.113.033.136.055.133.125.265.246.424.311.01.005.036.054.03.058-.016.015-.049.035-.066.023zm-.984-.885c-.012-.015-.01-.04-.012-.059 0-.007.015-.01.023-.007a.627.627 0 0 1 .316.322.743.743 0 0 1-.327-.256zm-.514-.597l.06.058-.05-.03c-.005-.005-.007-.018-.01-.028zm-.668-.785a.12.12 0 0 1-.052-.006c-.008-.002-.02-.017-.029-.028a7.747 7.747 0 0 1-.587-.92l-.207-.312c-.02-.033-.01-.084-.013-.127.027.018.063.03.078.056l.366.614.005-.002c.102.184.228.352.351.523.038.054.063.117.093.176.004.008 0 .024-.005.026zm-1.242-1.999c-.04-.072-.07-.15-.113-.239.16.167.16.165.303.55l-.19-.31zm-.34-.646a2.972 2.972 0 0 1-.388-1.106c.031.034.073.06.091.101.145.336.214.697.39 1.064-.052-.032-.083-.038-.094-.059zm-.489-1.345l.096.23c-.02-.028-.042-.055-.06-.086-.01-.018-.012-.045-.036-.144zm-.024-.258c-.007.015-.029.025-.04.015-.083-.073-.11-.21-.143-.328-.014-.052.01-.117.017-.175l.17.414a.124.124 0 0 1-.004.074zm-.168-.495c-.04-.097-.08-.195-.127-.304.14.093.14.092.127.304zM24.1 9.678l-.005.012-.022-.01.027-.002zm1.01.061a.286.286 0 0 1 .107.031c.194.094.407.103.622.124.175.024.346.074.517.116l.402.115h.001c.075.073.177.117.284.164a12.576 12.576 0 0 0-1.606-.349c-.308-.058-.613-.147-.925-.184-.014 0-.024-.02-.038-.034.215-.017.423.006.635.017zm2.597.703c.008.004.013.013.02.02h-.03c-.01-.009-.015-.02-.023-.03.012.003.024.005.033.01zm.357.125c.091.044.181.091.266.15l-.018.025a2.07 2.07 0 0 0-.266-.134l.018-.04zm8.004 10.138c.02.002.052.035.06.063.023.098.048.2.057.301.007.321.05.635.076.955.004.05 0 .101-.002.151l-.028.015c-.067-.45-.086-.904-.194-1.344l-.006-.037c-.005-.053-.007-.108.037-.104zm.224 2.861l-.029-.473c-.007-.124-.019-.247.033-.364.048.252.046.506-.004.837zm-.062.905l-.08.496a4.84 4.84 0 0 1-.21.983l-.142.426c.1-.336.18-.88.297-1.386.1-.509.15-1 .217-1.24-.01.27-.039.494-.082.721zm-26.773.48l-.026-.236a.322.322 0 0 1 .026.236zm-.14-4.23v-.029l.017.006-.017.023zm-.009 3.415c-.002-.012-.007-.024-.007-.035 0-.01.006-.019.008-.029l.014.03c-.003.012-.009.022-.015.034zm-.068-.706c-.004-.33-.08-.645.01-.948.005.124.011.231.018.37l.048.334c.012.097.015.197-.076.244zm25.98 5.18c.157-.35.342-.698.44-1.065.018-.068.073-.14.114-.208.083-.168.141-.34.161-.526.01-.084.047-.174.072-.262l.062-.219c.035-.138.052-.28.078-.422.05-.216.14-.43.17-.646l.09-.659c.022-.157.042-.315.054-.472.071-.586.02-1.177.051-1.765-.008-.248-.039-.495-.062-.74l-.104-.81c-.024-.265-.09-.509-.13-.763-.032-.267-.194-.468-.284-.7-.007-.016-.037-.032-.044-.025-.017.018-.037.047-.035.076.004.047.023.096.037.145.09.266.148.537.194.815.005.027-.028.074-.05.091-.012.008-.052-.027-.06-.053-.06-.179-.095-.37-.19-.529-.027-.129-.065-.256-.095-.384l-.016-.199c-.005-.046-.02-.124-.038-.135-.017-.009-.023-.019-.034-.029-.014-.049-.023-.098-.037-.147l.03-.069c.041.083.081.162.13.255.005.012.032.013.043.004.01-.009.02-.04.013-.057a4.437 4.437 0 0 0-.239-.672c-.004-.012-.013-.027-.02-.03a.21.21 0 0 0-.068-.023s-.007.042 0 .061c.037.13.133.244.122.388-.022.002-.025.012-.042.016a12.489 12.489 0 0 0-3.185-5.4 12.72 12.72 0 0 0-1.533-1.29l-.434-.39c-.359-.283-.726-.582-1.143-.805-.102-.052-.2-.11-.299-.169-.349-.208-.696-.429-1.078-.58-.547-.265-1.128-.446-1.715-.62-.666-.167-1.346-.333-2.04-.383-.719-.096-1.45-.077-2.177-.04l-.039.001c-.54.025-1.088.055-1.619.205-.078.02-.158.031-.237.044-.856.146-1.692.435-2.492.8-.113.05-.219.094-.335.144-.645.338-1.302.67-1.893 1.108-.579.365-1.062.855-1.577 1.302l-.842.87c-.262.306-.506.63-.755.951-.297.396-.53.836-.795 1.257-.23.438-.44.89-.654 1.34a13.503 13.503 0 0 0-.939 3.727l-.079 1.031c-.048.581.011 1.164.035 1.744l.198 1.296.32 1.271c.107.308.213.621.267.941-.059-.135-.124-.268-.176-.406-.395-1.018-.58-2.099-.729-3.177-.107-1.206-.12-2.444.17-3.63.022-.144.038-.245.06-.37.005-.029-.003-.059-.004-.1-.032.048-.05.077-.096.144l.117-.56c-.037.03-.059.038-.067.056-.099.244-.193.492-.218.766-.02.163-.069.325-.113.484-.008.026-.06.043-.085.037-.019-.004-.027-.059-.042-.086-.045-.074-.084-.054-.106.057l-.042.256c-.074.413-.032.836-.125 1.246-.018.094-.009.201-.01.303.01.375.061.748.08 1.121.013.52.116 1.032.183 1.547.175.878.432 1.734.755 2.568.332.845.768 1.641 1.231 2.42.283.412.59.814.89 1.215.231.32.527.582.795.868.267.287.55.558.854.805a12.666 12.666 0 0 0 2.24 1.632c.482.27.956.562 1.474.765.54.256 1.117.404 1.681.58.79.212 1.59.393 2.401.466.237.023.472.06.71.052l1.215.002a15.569 15.569 0 0 0 1.531-.132l.99-.156c.325-.074.646-.167.968-.25.093-.027.186-.057.274-.09.342-.147.678-.306 1.034-.425.128-.049.256-.1.38-.162.201-.102.393-.197.591-.295l.514-.26c.447-.296.904-.573 1.324-.898.42-.352.87-.66 1.241-1.06l.517-.515c.196-.186.347-.413.521-.618l.258-.31c.314-.353.527-.782.808-1.155.3-.415.492-.892.732-1.333z" fill="#CAF1EF"/><path d="M36.51 25.192c-.026.01-.066.066-.075.105-.062.274-.125.548-.175.825-.079.293-.153.585-.251.88-.193.6-.446 1.18-.703 1.759-.287.548-.562 1.109-.929 1.615a1.213 1.213 0 0 0-.2.49c.043-.03.067-.037.082-.056.354-.438.697-.894.939-1.403l.386-.748.319-.778c.173-.378.278-.782.39-1.18.126-.394.201-.8.268-1.205a.959.959 0 0 0 .019-.197c-.001-.064-.019-.128-.07-.107M36.68 21.744c-.043-.354-.075-.706-.166-1.05-.013-.058-.036-.116-.053-.172l-.047.024c.013.09.02.18.04.267.056.2.09.402.071.616-.004.048.012.102.017.154l.071.744-.006.75c.011.607-.067 1.204-.104 1.813a.299.299 0 0 0-.002.111c.008.026.032.052.051.048.021-.002.063-.05.063-.064-.004-.177.052-.334.09-.498l.003-.041c.021-.306.056-.612.063-.917-.016-.6.001-1.195-.092-1.785M10.133 28.142c-.014-.052-.046-.107-.074-.157-.232-.438-.377-.914-.531-1.385-.039-.111-.061-.227-.093-.338-.116-.431-.312-.844-.342-1.303 0-.02-.021-.051-.035-.062-.011-.01-.037-.002-.039.01a.483.483 0 0 0 0 .126c.055.319.142.632.219.947.121.546.323 1.069.533 1.587.174.445.386.883.579 1.326l.01-.004c.044.094.083.19.134.277a.655.655 0 0 0 .112.122c.014.014.04.015.049.006.01-.008.013-.042.004-.058l-.163-.307c-.146-.251-.289-.503-.363-.787M9.356 19.912c.04-.266.14-.525.18-.783.045-.294.136-.549.247-.8v.003c.105-.38.227-.759.345-1.139.038-.107.07-.218.12-.32.022-.053.041-.107.055-.16.014-.055.02-.114-.03-.1a.187.187 0 0 0-.074.08c-.17.365-.26.764-.409 1.135-.15.361-.229.74-.308 1.12l-.086.328a3.722 3.722 0 0 0-.11.628c-.003.016.017.043.03.045.011 0 .037-.02.04-.037M8.875 22.905c.018-.373-.006-.722-.022-1.082-.002-.033-.022-.06-.046-.117-.073.24-.123.459-.078.697l-.002-.002c.053.15.045.313.05.475.022.395.011.795.083 1.185.004.03.038.078.055.078s.036-.041.043-.074c.03-.137-.008-.277-.022-.426-.028-.243-.077-.5-.06-.734M9.65 17.371v-.002.002zM10.806 15.094c-.09.01-.166.073-.242.206-.336.673-.686 1.35-.913 2.07l.044.015c.194-.53.477-1.025.735-1.527.123-.257.275-.5.376-.764M13.856 11.5a.999.999 0 0 1 .26-.275c.238-.209.519-.37.776-.553.119-.08.239-.163.36-.234.192-.106.183-.117.404-.335-.044.011-.084.014-.116.032-.383.232-.751.488-1.122.746-.28.187-.507.436-.76.656-.024.024-.037.06-.08.13l.279-.17-.001.003zM20.313 8.405c.166-.051.328-.088.493-.068.229.03.418-.05.68-.133-.302-.05-.556-.012-.805.034-.083.02-.175.063-.246.062-.37-.006-.72.15-1.08.22-.034.012-.067.039-.102.059.012.01.018.02.025.019.343-.078.693-.082 1.035-.193M12.177 13.157l.004-.001v-.001c.043-.033.104-.061.124-.097.163-.275.4-.481.632-.687.161-.143.27-.315.385-.48a.43.43 0 0 0-.133.079c-.132.11-.245.247-.376.353-.257.215-.46.48-.673.733a.159.159 0 0 0-.037.073c-.011.067.032.049.074.028M12.289 31.574c-.018-.021-.043-.034-.065-.048-.01-.006-.018-.001-.036 0 .01.029.014.069.035.09.38.387.716.824 1.19 1.198-.02-.07-.02-.085-.026-.091-.39-.357-.732-.765-1.098-1.15M29.997 11.004c0-.002-.003-.002-.004-.004h-.003l.004.003.003.001M30.816 11.747c.014.013.058.021.06.015.007-.022.014-.057-.002-.073-.212-.236-.46-.425-.71-.625-.04-.032-.11-.04-.166-.06.206.3.542.48.818.743M10.847 29.58c-.01-.015-.043-.024-.052-.018-.009.008-.002.04.001.064a.123.123 0 0 0 .02.038c.24.377.474.758.765 1.098.004.005.018 0 .043.001a7.288 7.288 0 0 1-.559-.866c-.065-.11-.143-.213-.218-.317M9.382 18.366c.148-.283.238-.581.284-.896l-.045-.016-.191.443a2.188 2.188 0 0 0-.127.42c-.007.033.009.07.015.108.022-.02.049-.031.064-.06M17.95 35.545l-.637-.258.006-.017c-.17-.069-.335-.137-.516-.209-.012-.005-.033.011-.043.021-.003.004.007.022.018.027.045.032.09.067.14.088.326.14.661.282.998.424.054.023.116.04.117-.006 0-.015-.05-.056-.083-.07M17.075 9.439l-.002-.001c.113-.056.226-.12.343-.166.187-.072.365-.154.631-.293-.146.022-.206.02-.26.04-.268.108-.535.22-.798.34-.067.032-.033.065.017.073l.07.007zM28.856 35.222c.048.007.069.019.085.012l.649-.279c.058-.027.108-.076.156-.117.015-.012.022-.039.015-.049-.008-.009-.044-.016-.057-.009l-.848.442M22.102 36.488c-.03 0-.068.026-.07.044-.001.016.04.05.07.055.244.03.474-.004.703-.053a2.517 2.517 0 0 0-.703-.046M10.882 14.813c-.02.035-.006.09-.008.136l.042-.02c.294-.45.32-.526.367-.733-.18.185-.277.414-.4.617M15.797 10.464c.013-.008.013-.034.014-.052 0-.005-.016-.01-.024-.007a1.313 1.313 0 0 0-.64.461c.268-.14.451-.278.65-.402M14.878 33.899c-.016-.01-.039-.001-.056.004-.006 0-.006.017 0 .023.11.13.242.23.4.282.011.002.027-.027.022-.034l-.139-.14c-.08-.047-.14-.082-.227-.135M21.177 8.602c.018-.006.037-.03.035-.041-.003-.011-.035-.027-.052-.025-.2.026-.4.052-.689.13.294.018.497-.002.706-.064M10.72 15.737l.005-.01-.005.007v.003zM10.726 15.727c.165-.144.308-.321.407-.547.009-.021.005-.064.005-.064-.024.005-.063.012-.076.033-.114.19-.235.38-.336.578M16.465 10.095c.017-.013.031-.04.028-.052-.003-.012-.025-.021-.044-.019-.152.019-.264.107-.413.26a.99.99 0 0 0 .43-.189M9.173 18.984h.001l.001-.003-.002.003zM9.23 19.098c.028-.092-.013-.111-.056-.113-.035.105-.076.211-.105.32-.016.059-.035.147.036.146.042-.117.09-.232.126-.353M18.623 35.82c.039.039.098.08.156.105.113.042.233.083.379.048l-.338-.142c-.114-.043-.23-.042-.197-.01M29.587 10.761h-.003l.005.002-.002-.002" fill="#CAF1EF"/><path d="M29.99 11a.641.641 0 0 0-.4-.237c.055.06.116.124.168.178.085.086.163.097.233.06M15.828 34.541c.17.166.378.28.615.36-.032-.024-.06-.055-.094-.074l-.521-.286M11.86 13.528c.002-.008-.006-.02-.013-.018-.14.039-.196.186-.259.323.112-.076.233-.14.272-.305M16.252 9.836c.008-.01-.005-.039-.017-.037-.078.017-.142.031-.219.05l-.049.09c.068-.01.134-.013.202-.03.024-.007.062-.048.083-.073M32.825 32.438a.388.388 0 0 0-.2.184c-.004.007 0 .019.006.024.005.005.018.009.026.005l.097-.065.104-.124c.005-.005 0-.02-.005-.024a.028.028 0 0 0-.028 0M21.282 36.45c.162.044.305.06.45.043-.274-.079-.273-.079-.45-.044M25.5 36.325l.479-.07v-.05c-.164.025-.331.035-.48.12M23.179 36.514c-.014-.001-.041.021-.041.033 0 .013.029.035.044.036l.237-.002-.004-.046-.236-.021M11.697 14.276c.048-.048.102-.092.143-.146.042-.054.122-.125.064-.18a48.15 48.15 0 0 1-.24.234l.033.092zM11.663 14.185v-.003.003zM19.467 36.069l-.012.037c.053.018.103.039.156.053.114.029.189.016.152-.016a.35.35 0 0 0-.135-.067c-.051-.013-.107-.005-.161-.007M11.237 14.893c.035-.025.074-.043.104-.078.013-.014.009-.063.015-.123-.052.049-.091.078-.121.117-.011.014.001.055.002.084M18.803 8.77l.098-.06c-.041-.004-.083-.01-.121-.015-.009-.001-.026.009-.039.013l-.056.046.079.026a.076.076 0 0 0 .039-.01M17.892 9.372s0 .02.008.021c.058.021.12-.014.18-.052.018-.01.026-.032.046-.058-.04.002-.075-.008-.105.006-.046.02-.087.054-.13.083M17.04 9.8l.167-.077c-.032-.02-.053-.038-.059-.035-.04.025-.098.06-.152.091.014.008.032.025.044.02M12.86 12.852c-.194.09-.257.189-.287.299l.286-.3M20.167 8.705c-.02.004-.052.02-.058.031-.007.012.005.033.02.035.042.008.091.007.13.01.03-.025.055-.04.057-.054.002-.01-.017-.028-.035-.03a.411.411 0 0 0-.114.008M13.132 12.563l.055-.107c-.042.016-.07.02-.094.039-.011.007-.028.053-.023.058.014.01.04.008.062.01M20.197 36.246c-.006.001.009.032.009.032.056.01.117.02.186.03 0 0 .014-.015.009-.019-.017-.014-.04-.034-.06-.037a.8.8 0 0 0-.145-.006M14.41 33.653c.032.02.07.035.125.062-.173-.155-.175-.15-.375-.27.115.106.18.163.25.208M11.832 31.116l.126.142c.003-.025.02-.057.008-.072-.034-.047-.078-.088-.125-.138-.005.037-.015.06-.009.068M14.204 11.59l.15-.149c.008-.007.01-.029.01-.029-.017.001-.042 0-.054.01-.046.044-.113.086-.106.168M28.515 10.13c-.016-.016-.03-.038-.048-.044-.02-.006-.05-.002-.059.008-.007.007.017.027.032.057l.075-.022M22.919 8.104l-.386.009c.219.05.22.05.386-.01M26.484 36.08c.024.014.045.031.054.03.033-.013.063-.032.094-.048-.015-.007-.032-.025-.045-.02-.034.007-.066.023-.103.038M24.758 36.438v.033a1.09 1.09 0 0 0 .152-.03l-.002-.03-.15.027M18.774 9.124l.14-.024c.013-.004.023-.028.047-.057-.064.018-.12.031-.155.041-.013.004-.021.025-.032.04M20.791 36.352c.024.018.037.033.055.037.022.006.05.004.074.004-.004-.01-.007-.03-.015-.031l-.114-.01M12.168 13.61c-.019.015-.046.025-.055.043-.017.029-.023.06-.033.092l.09-.045c0-.037 0-.063-.002-.09M13.918 11.847c.006-.003.018-.036.026-.056l-.053.01-.044.057c.024-.002.047-.002.071-.011M28.296 35.52c.019.002.052.005.057 0 .029-.028.052-.06.077-.088-.04.022-.077.04-.123.067-.008.003-.011.02-.011.02M28.434 35.427l-.004.005a.02.02 0 0 1 .008-.004h-.004zM27.049 35.953h.083l.079-.049c-.02-.004-.048-.015-.06-.01-.037.017-.068.038-.102.059M18.435 9.229c.013-.002.026-.027.039-.041l-.06-.012-.041.043c.02.004.04.014.062.01M33.308 31.91c.013.006.031.018.037.012.018-.017.031-.04.046-.063-.013-.004-.03-.016-.036-.01-.018.017-.03.04-.047.061M18.296 35.72l.012.021.053-.003-.01-.02-.055.001zM31.625 33.493l.02.005c.01-.012.028-.027.045-.043l-.019-.004-.046.042M32.358 32.876a.575.575 0 0 0 .024.005 1.24 1.24 0 0 0 .038-.055.44.44 0 0 1-.023-.004l-.04.054M21.543 8.56c-.003-.003-.019-.001-.03-.003l-.01.019.03.005c.003-.006.013-.015.01-.02M19.375 8.948c.002-.007.008-.017.004-.021-.004-.002-.02 0-.03 0l-.005.033.03-.012zM11.512 14.47l-.001.029.02-.027zM18.404 8.853l-.025-.027-.04.038.028.005zM24.177 36.489l.064.008.01-.02a.825.825 0 0 1-.065-.008l-.01.02M24.44 8.838l-.023.004.018.012zM31.955 33.266l.022-.025-.03.009zM22.28 8.506l-.009.016.03-.003zM19.72 8.872c.01-.003.023-.003.03-.007v-.017c-.01.003-.025.003-.032.007l.001.017M30.943 34.065l-.135.08c.08.029.11-.023.135-.08M30.943 34.065l.006-.004.008-.01a.127.127 0 0 1-.012.01l-.002.004M10.875 14.949l-.06.129a.206.206 0 0 0 .1-.148l-.04.019zM10.816 15.078c-.004.003-.003.008-.007.01 0 .003-.002.005-.003.007l.003-.003.007-.014zM12.356 13.366l-.023.018.013.009zM14.937 11.022l-.026.006.006.015zM30.393 34.444l-.072.043-.005.002h.004l.077-.044-.005-.024zM30.262 34.502l.054-.014a.078.078 0 0 0-.027-.002c-.007.002-.018.01-.027.016M30.97 34.04c.006-.006.008-.013.012-.019l-.026.03.014-.01M21.857 8.54l-.026.008.024.006zM22.94 8.104H22.92h.005zM23.008 8.1c.14.105.319.095.524.053a2.791 2.791 0 0 0-.522-.053l-.07.004h.025l.043-.003zM9.696 17.386h-.001v.001l-.029.081v.001h.001l.029-.083zM30.798 34.137l.004.012.006-.004h-.004l-.006-.008zM30.77 34.105l.027.032-.012-.033z" fill="#CAF1EF"/><path fill="#CAF1EF" d="M30.789 34.084l-.02.021h.016z"/><g transform="translate(31 30.978)"><mask id="b" fill="#fff"><use xlink:href="#a"/></mask><path d="M12.202 12.207l.117.032c.045.012.066.038.055.09-.003.016.015.037.022.057.062-.027.09-.003.096.06.004.05.01.084-.054.112-.055.022.004.084 0 .128 0 .022-.018.06-.025.06-.028-.004-.066-.012-.078-.032-.031-.05-.05-.11-.081-.183-.072.19-.072.19-.167.282-.066-.092-.068-.24-.215-.262-.04.046.008.071.027.101.06.101.042.201-.004.3-.028.061-.102.065-.134.008-.04-.066-.05-.159-.162-.168.006.023.013.043.015.063.006.08-.023.121-.088.103a1.365 1.365 0 0 1-.313-.115c-.077-.043-.137-.113-.238-.069-.015.007-.054-.009-.063-.025-.067-.125-.215-.132-.31-.222-.067-.065-.161-.099-.21-.192-.015-.03-.062-.045-.094-.066-.033-.024-.073-.04-.094-.073a1.717 1.717 0 0 0-.508-.47c-.014-.01-.031-.018-.04-.03-.1-.172-.277-.265-.412-.404-.218-.223-.466-.43-.696-.629-.018-.01-.041-.018-.027-.057.019-.056-.004-.072-.05-.06-.051.01-.068-.014-.078-.046-.016-.048-.045-.083-.071-.122-.005-.007-.016-.01-.031-.006-.041.011-.05-.012-.065-.029-.058-.06-.126-.112-.191-.164-.036-.03-.08-.05-.113-.08-.071-.065-.15-.12-.203-.204-.035-.054-.107-.072-.143-.125-.036-.05-.1-.076-.131-.128-.03-.049-.056-.099-.128-.104-.016-.002-.017-.02-.027-.03a4.975 4.975 0 0 0-.094-.079l-.128-.123-.207-.188c-.011-.01-.005-.039-.018-.047-.034-.023-.035-.08-.1-.072-.02.002-.028-.012-.033-.024a.383.383 0 0 0-.198-.198c-.018-.008-.04-.016-.031-.046.016-.06-.016-.07-.058-.07-.03-.002-.023-.035-.034-.05-.011-.014-.056.007-.073 0-.017-.008-.027-.026-.028-.05-.002-.042-.018-.07-.053-.08-.11-.03-.155-.128-.222-.203l-.177-.17-.366-.398a.39.39 0 0 0-.058-.048c-.018-.014-.043-.02-.058-.038-.102-.114-.21-.234-.31-.348-.032-.035-.076-.057-.11-.09-.022-.025-.033-.058-.05-.085-.012-.02-.013-.054-.04-.056-.077-.007-.102-.065-.143-.107-.026-.02-.065-.052-.09-.074-.045-.042-.09-.084-.13-.13l-.107-.144a.743.743 0 0 0-.145-.135c-.037-.024-.065-.058-.093-.09l-.213-.22a15.04 15.04 0 0 0-.167-.183 12.7 12.7 0 0 0-.21-.195c-.093-.098-.165-.216-.274-.297-.181-.135-.296-.335-.472-.475-.052-.04-.083-.102-.124-.154l-.093-.119a.081.081 0 0 1-.011-.064c.01-.042-.005-.055-.043-.05-.052.008-.081-.004-.057-.072.014-.039-.006-.057-.02-.074l-.238-.284c-.02-.025-.033-.058-.05-.085a1.193 1.193 0 0 0-.158-.192L.684 2.49a1.07 1.07 0 0 1-.286-.575c-.011-.07-.034-.14-.053-.21-.028-.097-.02-.127.075-.174a1.17 1.17 0 0 0 .378-.252c.056-.06.12 0 .19-.013.032-.09.034-.205.162-.243.02-.006.015-.087.032-.13.028-.075.093-.092.155-.045.039.03.07.07.109.096a.476.476 0 0 0 .146.08c.086.025.173.042.239.11a.095.095 0 0 0 .04.023c.278.101.277.101.436.257.046.045.09.094.145.128.245.16.437.381.662.563.019.016.044.03.053.05.077.161.229.243.358.353.127.11.137.074.132.147-.004.017.019.013.03.017.016.006.036.008.049.017.086.07.168.133.248.197l.167.141.014.014c.066.092.15.165.239.234.067.051.127.112.188.17l.318.308.009.01c.128.051.183.178.282.26l.128.102c.02.018.034.043.054.062.017.014.043.036.064.051l.12.102c.02.018.034.043.053.062l.056.051.155.162.177.19a.293.293 0 0 0 .09.062c.046.018.09.038.092.101 0 .017.008.03.024.032.074.006.096.064.139.102l.129.111c.033.03.066.057.095.088.067.071.126.15.197.217.077.072.166.13.246.198.042.035.08.075.117.114.01.012.01.035.019.05.01.016.022.034.038.047.01.01.033.005.042.014.075.096.208.133.265.246.014.028.045.04.066.06l.062.062c.012.011.028.017.038.03l.04.065c.013.022.04.032.036.07-.01.075.043.08.117.067.027-.004.046.006.05.025.01.038.04.056.063.082a.472.472 0 0 1 .087.18c.012.041.058.046.084.07.019.018.086-.009.032.077-.004.007 0 .013.007.011.089-.025.102.027.116.078 0 0 .007.008.015.004.089-.045.083.006.08.055-.002.063.015.104.093.088.067-.014.105.008.079.09-.02.058 0 .08.054.066.06-.016.084.002.077.054-.002.011-.005.024 0 .026.052.02.066.077.125.086.057.008.084.041.099.091.01.036.024.073.059.085.03.01.069.006.077.042.007.03.042.033.036.078-.002.015.016.015.036.007.066-.027.086-.01.065.052-.014.043-.001.061.028.067.117.022.172.107.24.18.01.008.007.031.01.045.004.01.002.031.014.023.086-.055.059.015.087.022.032.008.043.041.06.064l.047.07c.027.047.034.114.119.104.019-.002.023.016.022.034-.004.044-.002.082.057.065h.01c-.004.09.123.045.147.108.022.054.08.073.117.113.02.022.033.05.043.081l.024.118c-.005.001.03.031.057.032.123.004.193.07.232.18.03.087.088.138.179.177a.65.65 0 0 1 .319.284c.038.07.095.13.138.2.032.05.07.084.13.096.099.02.149.087.184.175.039.1.085.193.2.228.174.2.37.38.513.607.019.03.019.078.015.115-.006.053-.01.096.05.12.047.017.074-.006.104-.039.009-.01.047-.012.06-.003.014.011.02.04.02.061.002.014-.013.027-.023.041-.014.018-.046.04-.043.055.019.108-.021.183-.115.233.008.108-.066.108-.142.11-.013 0-.026.016-.054.034.088.114.19.248.258.334.064.078.067.094-.013.143l-.086.045c-.026.015-.054.026-.077.044-.006.006 0 .028 0 .043.013-.002.033.001.036-.006.017-.025.028-.055.04-.083" fill="#000" mask="url(#b)"/></g><path d="M29.305 8.807l.12.027c.048.012.07.037.063.088-.003.018.016.039.025.058.062-.028.09-.005.1.057.007.049.015.083-.051.112-.055.023.008.084.006.127-.001.021-.018.058-.025.058-.03-.003-.07-.009-.081-.029-.033-.049-.055-.106-.09-.178-.066.189-.066.188-.16.284-.068-.088-.075-.235-.224-.249-.037.047.01.07.03.099.065.097.049.194.004.292-.028.06-.101.067-.134.015-.04-.063-.053-.152-.164-.154.006.022.014.041.016.061.009.076-.02.118-.084.105a1.317 1.317 0 0 1-.308-.089c-.075-.036-.134-.098-.23-.046-.014.008-.052-.005-.06-.02-.067-.116-.208-.108-.298-.186-.07-.053-.165-.069-.22-.149-.018-.025-.064-.031-.097-.047-.034-.015-.074-.025-.097-.05a1.447 1.447 0 0 0-.53-.358c-.013-.006-.031-.01-.04-.021-.11-.155-.302-.184-.451-.278-.251-.152-.502-.267-.777-.406-.152-.076-.31-.127-.43-.228a1.536 1.536 0 0 0-.583-.279c-.224-.069-.445-.128-.671-.23-.34-.137-.684-.288-1.047-.368a1.056 1.056 0 0 0-.216-.035c-.18-.004-.35-.057-.531-.103-.676-.115-1.357-.227-2.044-.225a7.217 7.217 0 0 0-1.11.021c-.778.022-1.551.154-2.31.301a9.948 9.948 0 0 0-1.481.442c-.482.134-.923.38-1.38.577-.42.154-.784.405-1.145.656-.083.063-.192.108-.285.167l-.796.599c-.392.277-.72.635-1.084.945-.52.543-1.036 1.098-1.458 1.723-.074.102-.171.191-.243.294a4.653 4.653 0 0 0-.496.849 1.76 1.76 0 0 1-.162.286c-.373.655-.691 1.347-.883 2.081a2.974 2.974 0 0 1-.15.411c-.112.233-.154.474-.185.723-.018.166-.09.309-.121.463-.022.136.005.281-.008.422a2.735 2.735 0 0 1-.078.432 2.26 2.26 0 0 0-.087.76c-.003.81-.01 1.623.088 2.429.052.327.08.66.155.983l.238.967a13.17 13.17 0 0 0 1.879 3.923c.12.162.242.323.365.487.106.152.24.279.365.416.792.978 1.779 1.779 2.809 2.492l1.007.578.688.344c.165.078.327.195.496.234.475.098.904.317 1.373.424l.915.213c.492.064.983.16 1.478.196.479.015.957.1 1.438.056l.804-.035.794-.123a8.52 8.52 0 0 0 1.029-.207 7.311 7.311 0 0 0 1.197-.345 7.87 7.87 0 0 0 1.157-.464c.618-.251 1.182-.611 1.756-.947l.936-.696c.3-.246.575-.521.868-.776.406-.366.754-.792 1.129-1.19.31-.449.69-.854.938-1.342.923-1.556 1.598-3.279 1.814-5.087.095-.527.097-1.066.144-1.601.007-.407-.026-.814-.03-1.222.005-.144-.02-.295-.01-.426a1.457 1.457 0 0 0-.073-.534 2.672 2.672 0 0 1-.126-.737c0-.151-.052-.358-.093-.538-.088-.5-.302-.963-.447-1.447-.185-.471-.403-.929-.618-1.387l-.378-.687c-.162-.285-.172-.342-.233-.43-.35-.484-.65-1.01-1.058-1.453a.99.99 0 0 1-.234-.563c-.006-.071-.024-.14-.04-.208-.02-.098-.011-.129.08-.175.136-.068.27-.134.376-.248.057-.062.119.003.187-.009.035-.091.039-.209.166-.242.022-.006.017-.09.035-.135.028-.075.092-.09.155-.037.038.031.069.074.108.105a.53.53 0 0 0 .147.093c.087.03.175.056.24.13a.117.117 0 0 0 .043.027c.282.128.283.129.443.304.046.051.093.104.146.145.229.209.399.474.606.706.017.019.04.038.049.06.056.182.204.295.319.436.03.029.3.418.413.72.032.08.112.18.17.269.08.128.18.245.24.386.213.453.445.898.638 1.361.167.472.356.938.499 1.419.173.676.363 1.349.443 2.044l.028.195c.13 1.061.145 2.131.086 3.199-.074.801-.165 1.61-.378 2.39-.312 1.388-.858 2.718-1.56 3.953l-.068.112c-.146.27-.291.542-.453.801l-.545.744c-.348.508-.797.932-1.197 1.397-.343.396-.755.726-1.134 1.09-.188.185-.41.331-.622.488l-.63.474c-.403.301-.853.536-1.282.803-.22.143-.467.237-.705.349l-.656.309c-.67.268-1.35.526-2.051.696-.405.092-.804.209-1.215.273l-1.233.174c-.34.026-.663.049-1.043.076a4.814 4.814 0 0 1-1.308-.023 2.316 2.316 0 0 0-.39-.025c-.548.017-1.088-.119-1.632-.184A32.748 32.748 0 0 1 15 34.186l-1.18-.406a16.855 16.855 0 0 1-2.52-1.29 15.73 15.73 0 0 1-2.418-1.826c-.411-.336-.74-.755-1.1-1.142-.082-.104-.2-.244-.288-.354-.118-.164-.23-.316-.342-.473l-.248-.306c-.683-.943-1.284-1.953-1.72-3.041l-.3-.807c-.091-.268-.195-.535-.271-.808l-.116-.446-.152-.701a3.32 3.32 0 0 1-.101-.709c.007-.456-.121-.841-.188-1.257a2.86 2.86 0 0 1-.043-.52c.008-.331-.033-.657-.002-.986.034-.613.07-1.229.215-1.819.082-.351.072-.697.163-1.035.057-.242.058-.525.207-.715a.33.33 0 0 0 .03-.115c.01-.448.214-.858.38-1.275a.454.454 0 0 0 .033-.12c.003-.322.164-.594.339-.871.219-.343.373-.705.532-1.099.135-.342.336-.707.594-.99.187-.207.368-.42.483-.668.134-.272.3-.512.52-.727.047-.04.102-.083.14-.131l.945-1.073c.306-.326.62-.605.963-.878.248-.209.548-.377.79-.586.214-.172.392-.348.649-.5.222-.113.442-.269.683-.369a.979.979 0 0 0 .247-.17c.195-.2.419-.322.704-.382.194-.046.39-.133.593-.245.843-.447 1.776-.746 2.716-.951.126-.03.255-.043.383-.067.084-.015.218-.031.244-.044.192-.129.488-.104.727-.154a5.28 5.28 0 0 1 .85-.102l.792-.022c.514-.029 1.019.061 1.535.014.11-.01.262.008.378.027.276.059.539.133.825.116a.327.327 0 0 1 .063.001c.577.13 1.148.157 1.725.328.505.124 1.005.319 1.507.483.273.086.526.222.776.354l.85.47c.087.053.117.067.142.061.124-.025.217.026.29.127a.336.336 0 0 0 .238.138c.152.03.297.099.412.217.06.062.136.11.2.168.049.042.095.074.159.078.104.007.17.073.226.158.062.098.128.19.253.211.22.185.463.348.65.565.023.031.03.082.03.121 0 .056 0 .102.064.123.049.018.075-.007.102-.043.008-.012.047-.016.06-.005.018.012.027.042.03.065.002.012-.012.028-.021.042-.013.02-.042.043-.038.058.03.113-.004.192-.096.246.018.112-.058.114-.134.119-.013.001-.025.018-.051.038.095.111.196.226.285.331.07.077.075.092-.004.144l-.085.048c-.025.016-.053.027-.076.047-.006.006.002.027.003.042.012-.002.032.001.036-.007.016-.026.025-.056.037-.084" fill="#000"/></g></svg>
