<svg width="48" height="48" viewBox="0 0 48 48" fill="none" xmlns="http://www.w3.org/2000/svg">
<path d="M23.1543 5.61292C23.5747 5.63656 24.1574 5.70535 24.8291 5.8844C26.1787 6.2443 27.8926 7.05151 29.3633 8.81702C30.8192 10.5651 31.5357 12.8806 32.2305 14.8395C32.9604 16.8973 33.6766 18.6116 35.0156 19.7282C38.2066 22.3883 40.3199 24.5031 42.9658 27.15L44.1787 28.3629L17.8389 35.65L17.8399 35.651C15.6786 36.285 14.4115 36.5921 13.6553 36.6422C13.2907 36.6663 12.8184 36.6521 12.418 36.3756C11.9743 36.0688 11.8684 35.6118 11.8311 35.4528C11.7175 34.9689 11.7799 34.4871 11.8848 34.0651C11.9906 33.6395 12.1639 33.1847 12.3516 32.7262C12.7396 31.7781 13.2274 30.718 13.669 29.3619C14.5345 26.7035 15.1909 22.9652 14.043 17.653C13.525 15.2559 13.8439 12.7284 15.1953 10.5455C16.5494 8.35865 18.8852 6.60433 22.2442 5.64808L22.335 5.62268L22.4297 5.6139H22.4336L22.4395 5.61292C22.4437 5.61259 22.4494 5.61236 22.4551 5.61194C22.4668 5.61109 22.4821 5.61004 22.5 5.60901C22.5368 5.60691 22.5871 5.60454 22.6485 5.60315C22.7718 5.60038 22.944 5.60111 23.1543 5.61292Z" fill="#EDFFE9"/>
<path d="M18.0461 5.46877C21.7446 4.57587 24.7016 4.99715 26.9894 6.40431C29.3542 7.85893 30.8423 10.2658 31.7346 12.9141C33.4371 17.9673 36.0146 20.5134 38.3322 22.2725C38.9216 22.7198 39.4966 23.1175 40.0529 23.502C40.6018 23.8813 41.144 24.2559 41.632 24.6348C42.6018 25.3877 43.4913 26.2584 43.9094 27.4824C44.3875 28.8833 44.3745 30.1001 43.8312 31.1113L43.715 31.3106L43.6574 31.3945C43.3469 31.7954 42.7765 31.904 42.3371 31.6299C41.8978 31.3557 41.7452 30.7959 41.9689 30.3408L42.0187 30.251L42.1027 30.0957C42.2857 29.7042 42.3516 29.1108 42.0168 28.1299C41.7911 27.4688 41.2819 26.8961 40.4045 26.2149C39.969 25.8768 39.4758 25.5359 38.9152 25.1485C38.362 24.7661 37.7527 24.3449 37.1232 23.8672C34.5647 21.9253 31.6968 19.0697 29.8381 13.5528C29.0344 11.1676 27.7705 9.23494 25.9406 8.10939C24.1337 6.99799 21.613 6.57377 18.0734 7.52248C18.0498 7.52881 18.0258 7.53257 18.0021 7.53713C14.864 8.45464 13.1024 9.99342 12.1926 11.7695C11.232 13.6452 11.1323 15.9537 11.6379 18.4326C12.8009 24.1337 11.8328 28.0181 10.6691 30.9629C10.3829 31.6873 10.0846 32.3531 9.81464 32.957C9.54115 33.5689 9.30088 34.1077 9.10663 34.6153C8.71647 35.6348 8.57252 36.3889 8.7121 37.0869C8.88316 37.9419 9.15551 38.4212 9.42304 38.6953C9.6788 38.9574 10.0053 39.1097 10.4514 39.169C10.9188 39.2309 11.491 39.1858 12.175 39.0567C12.8573 38.9278 13.5803 38.7301 14.3586 38.5215L37.3273 32.3653L37.4269 32.3438C37.9275 32.2625 38.4179 32.5719 38.5519 33.0723C38.6858 33.5726 38.4157 34.0857 37.9416 34.2656L37.8449 34.2969L33.1232 35.5615C32.2772 38.6224 30.2201 41.1357 27.2365 41.9356C24.2524 42.7354 21.2131 41.5885 18.9504 39.3604L14.8762 40.4531C14.125 40.6545 13.3191 40.8764 12.5461 41.0225C11.7749 41.1681 10.963 41.2538 10.1896 41.1514C9.39526 41.0461 8.62274 40.7385 7.99237 40.0928C7.37359 39.4587 6.97147 38.5807 6.75116 37.4795C6.49955 36.2214 6.80469 35.0339 7.23847 33.9004C7.45621 33.3315 7.72171 32.7397 7.98944 32.1406C8.26079 31.5335 8.5399 30.9055 8.8078 30.2276C9.86103 27.5622 10.7475 24.0775 9.67792 18.834C9.12044 16.1011 9.17026 13.2836 10.4123 10.8584C11.6707 8.40154 14.0664 6.51487 17.8488 5.50099C17.9146 5.48341 17.9806 5.47284 18.0461 5.46877ZM21.2834 38.7354C22.9797 40.0078 24.923 40.4838 26.718 40.0029C28.5132 39.5217 29.9599 38.1374 30.7932 36.1865L21.2834 38.7354Z" fill="#007782"/>
</svg>
