<svg width="32" height="32" viewBox="0 0 32 32" fill="none" xmlns="http://www.w3.org/2000/svg">
<g clip-path="url(#clip0_630_37068)">
<path d="M1 22.5571L8.57 31.1471L25.19 27.1371L23.8 8.76712L6.62 7.97711L1 22.5571Z" fill="#FDDCDC"/>
<path d="M24.479 15.6271C24.219 14.1471 24.059 12.6571 23.899 11.1771C23.769 9.68712 23.639 8.19711 23.569 6.70712C23.529 5.95712 23.509 5.20712 23.529 4.45712L23.549 3.88711C23.559 3.71711 23.549 3.57712 23.549 3.42712C23.549 3.13712 23.489 2.88709 23.409 2.71709C23.319 2.55709 23.229 2.45712 23.069 2.39712C22.909 2.34712 22.659 2.3371 22.409 2.4371C21.879 2.6171 21.389 3.11711 21.049 3.82711C20.809 3.06711 21.059 2.0971 21.809 1.4771C22.179 1.1771 22.689 0.957103 23.269 1.0071C23.859 1.0271 24.429 1.42711 24.729 1.88711C25.359 2.80711 25.249 3.85709 25.249 4.49709C25.239 5.22709 25.199 5.96712 25.159 6.70712L24.889 11.1571C24.769 12.6371 24.659 14.1271 24.479 15.6271Z" fill="#171717"/>
<path d="M27.5198 30.1671C26.6498 28.0871 26.2498 25.8671 26.1098 23.6271C25.9798 21.3871 26.0798 19.1271 26.4098 16.9071C26.7498 14.6871 27.3398 12.5171 28.0598 10.4071C28.2298 9.8971 28.4698 9.32711 28.6298 8.88711C28.7898 8.48711 28.8098 8.08711 28.6698 7.76711C28.5298 7.44711 28.1698 7.17711 27.7498 7.16711C27.3198 7.13711 26.8698 7.45709 26.6198 7.96709C26.5898 7.40709 26.9498 6.73709 27.6398 6.52709C28.2998 6.31709 29.1098 6.55711 29.5698 7.16711C30.0598 7.77711 30.0798 8.5771 29.9498 9.2271L29.5298 10.8471C29.2498 11.8971 28.9898 12.9471 28.7898 13.9971C28.5598 15.0471 28.3598 16.1071 28.2098 17.1671C27.8698 19.2871 27.6598 21.4271 27.6298 23.5871C27.5598 25.7571 27.6098 27.9171 27.5198 30.1671Z" fill="#171717"/>
<path d="M15.6292 10.2871C15.0092 9.38712 14.6592 8.37712 14.3692 7.37712C14.2292 6.87712 14.1092 6.36713 14.0192 5.85713C13.9292 5.33713 13.8092 4.87714 13.7792 4.23714C13.7492 3.62714 13.8292 2.94713 14.2092 2.29713C14.5692 1.64713 15.3192 1.12711 16.0992 1.05711C17.7092 0.887112 18.9392 2.19711 19.2592 3.36711C19.9092 5.39711 20.3392 7.40714 20.6792 9.45714C21.0192 11.4971 21.2492 13.5471 21.3392 15.6271C20.6692 13.6671 20.0792 11.6971 19.4992 9.73714C18.9092 7.77714 18.3592 5.80713 17.6492 3.94713C17.4092 3.16713 16.7792 2.77712 16.2692 2.81712C16.0292 2.84712 15.8292 2.95713 15.6792 3.19713C15.5292 3.43713 15.4392 3.80712 15.4292 4.21712C15.4192 4.59712 15.4892 5.14714 15.5292 5.64714C15.5792 6.15714 15.6092 6.66714 15.6392 7.17714C15.6892 8.19714 15.6892 9.21712 15.6292 10.2871Z" fill="#171717"/>
<path d="M16.9997 23.4471C16.7197 22.6671 16.5297 22.1171 16.3697 21.5471C16.2197 20.9771 16.0197 20.4271 15.6897 19.9471C15.0497 18.9771 14.0197 18.3571 12.8697 18.1571C11.7097 17.9571 10.4597 18.0871 9.23974 18.4371C8.59974 18.6271 7.69975 18.8471 6.77975 18.6471C6.31975 18.5571 5.82975 18.3271 5.41975 17.9571C5.01975 17.5771 4.74975 17.0471 4.66975 16.5071C4.52975 15.3971 5.09974 14.4371 5.78974 13.8571C6.12974 13.5671 6.56974 13.3471 6.83974 13.2071L7.77975 12.7471C9.04975 12.1571 10.3997 11.6071 11.8997 11.3971C13.3797 11.1771 15.0397 11.3971 16.3797 12.1771C17.7297 12.9071 18.7997 14.0771 18.9797 15.6271C17.5597 14.9871 16.7197 14.0971 15.6497 13.5371C14.5797 12.9871 13.3797 12.8771 12.1797 13.1071C10.9797 13.3471 9.76974 13.8371 8.57974 14.4171C8.01974 14.7071 7.27974 15.0371 6.99974 15.2871C6.65974 15.5771 6.49974 15.9671 6.54974 16.2371C6.57974 16.4971 6.74974 16.6971 7.15974 16.7971C7.35974 16.8471 7.60975 16.8471 7.86975 16.8171C8.15975 16.7871 8.34974 16.7271 8.73974 16.6271C10.1397 16.2571 11.6797 16.0771 13.2097 16.4271C14.7297 16.7571 16.1897 17.7271 16.9997 19.0971C17.3997 19.7771 17.6897 20.5171 17.7897 21.2971C17.8697 22.0671 17.6597 22.9171 16.9997 23.4471Z" fill="#171717"/>
<path d="M9.28165 29.9671L9.33165 29.9871H9.34165C9.34165 29.9871 9.34165 29.9871 9.35165 29.9971C9.39165 30.0171 9.25165 30.0871 9.29165 30.0471C9.28165 30.0471 9.27165 30.0471 9.26165 30.0371L9.16165 30.0071L8.98165 29.9371C8.87165 29.8871 8.76165 29.8271 8.66165 29.7671C8.45165 29.6471 8.27165 29.5071 8.10165 29.3671C7.75165 29.0771 7.47165 28.7371 7.22165 28.3771C6.71165 27.6571 6.22165 26.9271 5.76165 26.1571C5.31165 25.3771 4.86165 24.6071 4.55165 23.6371C4.20165 22.6371 4.35165 21.1671 5.42165 20.3071C5.94165 19.8871 6.65165 19.6671 7.33165 19.7671C8.01165 19.8571 8.60165 20.2371 8.99165 20.6771C9.37165 21.0971 9.58165 21.4071 9.84165 21.7771L10.5717 22.8271C11.0417 23.5171 11.5417 24.1571 12.0817 24.6971C12.6217 25.2571 13.1817 25.7171 14.0917 26.0171C13.6817 26.2371 13.1717 26.3171 12.6717 26.2571C12.1817 26.1871 11.7017 26.0071 11.2817 25.7571C10.4417 25.2571 9.82165 24.5571 9.21165 23.8971C8.65165 23.2371 8.07165 22.4771 7.63165 21.9371C7.26165 21.5371 6.88165 21.5171 6.56165 21.7471C6.24165 21.9971 6.08165 22.5471 6.27165 23.1671C6.46165 23.8671 6.82165 24.6271 7.20165 25.3671C7.59165 26.1071 8.02165 26.8371 8.48165 27.5571C8.71165 27.9171 8.92165 28.2871 9.07165 28.6971C9.15165 28.9071 9.21165 29.1171 9.26165 29.3471C9.29165 29.4571 9.30165 29.5771 9.32165 29.6971L9.34165 29.8871V29.9871C9.34165 29.9971 9.34165 30.0071 9.34165 30.0071C9.38165 29.9671 9.24165 30.0371 9.27165 30.0571V30.0471L9.28165 29.9671Z" fill="#171717"/>
</g>
<defs>
<clipPath id="clip0_630_37068">
<rect width="32" height="32" fill="white"/>
</clipPath>
</defs>
</svg>
