<svg xmlns="http://www.w3.org/2000/svg" height="32" width="32">
  <path fill="#88D4D7" d="m7.94523 6.5 21.19667.69421c.7708 0 1.4452.69422 1.3489 1.38843l-.289 19.53716c0 .6942-.6745 1.2893-1.3489 1.2893H9.29411c-.77079 0-1.44523-.4959-1.44523-1.2893L6.5 7.9876C6.5 7.19421 7.17444 6.5 7.94523 6.5Z"/>
  <path fill="#4D4D4D" d="M13.6674 14.504c-.1093.0692-.1723.2084-.2494.3794-.0787.1676-.1781.362-.3249.4576-.1469.104-.3191.1029-.4834.1273-.1657.0126-.3346.0099-.5015-.0063-.6695-.0682-1.3224-.4249-1.746-.9756-.43209-.5424-.63151-1.2718-.5376-1.9662.08887-.6961.4795-1.357 1.0487-1.7769.5658-.4182 1.3102-.6039 2.0008-.483.6925.1074 1.3294.5179 1.7189 1.0849.3963.5637.5486 1.2823.4249 1.9407-.0331.1667-.0745.3248-.1378.4809-.0734.1525-.192.2807-.3505.3693-.3238.1806-.6722.2054-.8622.3679Zm0 0c.2253-.1501.2311-.5131.1746-.7792-.0282-.1373-.0366-.2421-.0217-.3331.0235-.0908.0384-.1818.05-.2711.0329-.3677-.0845-.7344-.3133-1.0016-.2304-.2705-.5521-.4345-.8858-.4753-.339-.0342-.6748.0517-.9415.2551-.5484.3848-.7037 1.2217-.3077 1.8023.193.2886.4986.5063.8588.5847.0875.0166.1803.0266.2748.0315l.1403-.0046c.0457-.0094.0946-.0035.1466.0176.1042.0338.2495.1357.409.1974.0739.0232.1563.0464.2307.0443.066-.0108.1322-.03.1852-.068ZM17.744 20.6398c-.1209-.0425-.2684-.0094-.4516.0366-.1797.0444-.3931.0799-.5611.0265-.1715-.0517-.2791-.1886-.3971-.3037-.1146-.1251-.2121-.2584-.3027-.4034-.3539-.5715-.4721-1.3065-.2993-1.9759.1629-.673.6184-1.2771 1.2288-1.6288.6036-.3568 1.3669-.4509 2.0461-.2576.6793.1933 1.2797.6674 1.6075 1.2892.3415.6152.4054 1.3678.1956 2.0215-.2031.6588-.68 1.2187-1.2744 1.525-.1481.0753-.3046.142-.464.1851-.1644.0328-.3416.0215-.5076-.0538-.3404-.1507-.5744-.4112-.8202-.4607Zm0 0c.2553.0868.5493-.1297.725-.3397.0912-.1066.1666-.1764.2501-.2206.0867-.0375.1668-.0801.2453-.1261.3106-.1994.5268-.5169.5999-.8619.0731-.3451.0078-.6992-.1699-.9908-.1795-.2867-.4547-.5022-.7794-.5851-.642-.1944-1.3964.1887-1.6149.8591-.11.3293-.0925.7062.0627 1.038.0426.0801.0886.1586.1415.2337l.0895.1078c.035.0293.0596.072.0773.1263.0372.1036.0428.281.0959.444.0275.0748.06.1513.1081.2078.0516.0465.1084.0862.1689.1075ZM11.4229 20.4825c-.2449-.8417.2059-1.1503.4783-1.5952l.897-1.2726c.5996-.845 1.2211-1.6795 1.8525-2.5021.6381-.8174 1.2828-1.6295 1.9576-2.4227l1.0022-1.1932c.319-.4087.6647-.7967 1.4092-.8776.1114.7382-.1776 1.1744-.49 1.5882l-.897 1.2726c-.593.8502-1.211 1.6831-1.8408 2.5091-.633.8191-1.2812 1.6329-1.9459 2.4296l-1.0022 1.1933c-.3591.3776-.543.8932-1.4209.8706Z"/>
  <path fill="#4D4D4D" fill-rule="evenodd" d="M23.4008 8.19906c-.5268.02686-.812.30786-.812.64881.1254.23095.2655.47241.7857.51946l.3597.07385.6688.08857c.2973 0 .5371.02483.8078.05782-.0503.26315-.0591.52603-.0624.78743l-.0703 1.875c-.0433.8617-.0528 1.7275-.0624 2.5945v.0004c-.0042.3848-.0085.77-.0157 1.1551.0039.3122.0069.6248.0098.9379v.0002c.0028.3015.0057.6033.0094.9055l-.0618 2.2569c-.0341.9334-.0426 1.8668-.0511 2.8002-.0029.3113-.0076.6226-.0124.9339-.0054.358-.0109.7159-.0134 1.0738-.6863.0047-1.3721.0081-2.0576.0114-1.9124.0094-3.8222.0187-5.732.058l-4.2955.0673c-.2328.0068-.4656.0092-.6984.0116-1.199.0123-2.398.0246-3.597.6443 1.21064.6328 2.4213.6404 3.6319.6479.2212.0014.4424.0028.6635.008l4.2955.0672c1.9146.0393 3.8253.0486 5.7349.058.955.0047 1.9098.0093 2.8645.0178.4432.0084.8097-.3448.8097-.7821v-.0168c0-.622-.0076-1.2439-.0152-1.8659-.0038-.3114-.0075-.6229-.0104-.9344-.0085-.9285-.0169-1.8571-.0506-2.7857l.0137-.365c.0352-.9336.044-1.8721.0527-2.8119v-.0002c.003-.3125.0059-.6252.0098-.9379-.012-.4793-.0183-.96-.0245-1.4414V14.5582c-.01-.7681-.02-1.5381-.0536-2.3082l-.0703-1.875c-.0028-.2234-.0097-.44795-.043-.6728.3745.02649.8402.04584 1.4513.0478h.0198c.3753 0 .6914-.30882.7045-.69825.0198-.68481.0198-1.36963.0066-2.05444l-.0132-1.02726.0001-.00101v-.00005c.0103-.90226.0159-1.38665-.037-1.64671 0-.65453-1.1673-.64842-1.8741-.64473a27.27562 27.27562 0 0 1-.1433.00052l-2.6108-.05097c-1.3761-.04023-10.0209-.08728-11.3971-.09396-.376-.00367-.7515-.00885-1.1267-.01401-.9983-.01375-1.99502-.02748-2.99518-.01286-.45846.00448-.91619.00672-1.37368.00896-.91573.00449-1.83049.00897-2.74816.03134h-.03952c-.35557.00668-.63216.30214-.63216.6647l.01324 2.23569.00656 1.11454c.00163.09219.00204.18438.00245.27668.00122.27736.00245.55568.03707.83779l.01317.11414c.0329.25517.25018.44984.50697.43641.12734-.00526.34093-.00211.59672.00542-.02081.09154-.02536.21897-.02774.43807L4.57811 11.84c-.04328.9973-.05284 1.9993-.0624 3.0028-.00425.4456-.0085.8914-.01571 1.3372.00392.3613.00686.7231.0098 1.0855.00878 1.082.0176 2.1683.05272 3.2545l.07028 2.17c.00898.1379.01022.2762.01146.4147.00525.5846.01053 1.1732.59795 1.7553.57219-.567.58716-1.1402.60203-1.7099.00402-.1537.00802-.3071.02296-.4601l.07029-2.17c.03518-1.0806.04396-2.1668.05276-3.2545.00293-.3617.00585-.7236.00975-1.0855-.01204-.5549-.01828-1.1112-.02453-1.6685-.00996-.8889-.01996-1.7802-.05357-2.6715l-.07034-2.16999c-.00201-.18593-.00664-.30584-.02194-.39383.4291.01776.82072.03321 1.03144.03321C7.80669 9.30939 8.5 9.30385 8.5 9c0-.43549-.3793-.49168-1.22971-.61765l-.00007-.00001-.00018-.00003c-.12591-.01865-.26214-.03883-.40898-.062-.49371-.07789-1.34814-.11176-2.00442-.13777l-.18263-.0073c.00959-.15575.01482-.31158.02001-.4665l.00436-.12713.04614-1.11447.05934-1.54524c.81994.02136 1.63827.03136 2.45779.04137H7.26168c.34149.00417.68318.00835 1.02528.01335 1.10007.02681 2.19594.01934 3.29434.01185.2756-.00188.5514-.00376.8275-.0051 1.3762 0 10.021-.03362 11.3971-.06049l2.9351-.04023c.0954 0 .1972.00273.3018.00554.1124.00301.228.00611.3422.006-.0368.27878-.0554.62258-.0662 1.02888l-.0922 1.02051c-.0468.44229-.0881.8818-.1203 1.32212-.33-.01408-.5565-.0251-.7412-.03409h-.0002c-.5398-.02627-.7235-.0352-2.0933-.05267l-.511.01344-.3598.00668Z" clip-rule="evenodd"/>
</svg>
