<svg width="96" height="96" viewBox="0 0 96 96" fill="none" xmlns="http://www.w3.org/2000/svg">
<g clip-path="url(#clip0_626_47037)">
<path d="M46.5982 78.2701L66.1182 81.0801C67.2882 81.2501 68.4782 80.9401 69.4282 80.2401C70.3782 79.5301 71.0082 78.4701 71.1682 77.3001C71.8782 72.3801 74.1982 67.8401 77.7982 64.3701C85.2782 56.6201 86.1182 44.6101 79.8882 35.9101L78.1282 33.7601C74.5282 29.9501 69.1782 27.3401 64.3682 26.7301C64.2182 26.7101 65.0282 26.8201 64.9082 26.8101C59.6682 26.1401 53.8182 27.2801 49.1482 30.4601C39.7882 36.8401 36.7582 49.2301 41.9682 59.2001C44.4382 63.5401 45.5282 70.0401 44.8182 74.9601L46.5982 78.2701Z" fill="#C0EED0"/>
<path d="M40.0408 13.52C38.4508 13.21 38.7908 12.68 38.6508 12.25C38.5808 11.8 38.5208 11.36 38.4708 10.92C38.3608 10.04 38.3108 9.16 38.3008 8.28C38.3008 7.41 38.3308 6.54 38.3908 5.67L38.4808 4.39C38.4708 3.95 38.5208 3.6 39.6408 3C40.8808 3.27 41.0108 3.79 41.0508 4.23C41.1308 4.68 41.2108 5.13 41.2608 5.58C41.3808 6.47 41.4508 7.36 41.4808 8.24C41.4908 9.12 41.4708 10 41.3908 10.87L41.2808 12.17C41.2508 12.39 41.2708 12.6 41.1908 12.81C41.0808 13.02 40.7808 13.23 40.0408 13.52Z" fill="#8AD0A8"/>
<path d="M26.81 29.9101C25.89 31.3401 25.31 30.8701 24.64 30.8901L22.66 30.7501C21.34 30.6601 20.01 30.5301 18.69 30.3601C17.37 30.1701 16.03 29.9501 14.72 29.6401L12.74 29.1701C12.08 29.0401 11.42 28.8301 11 27.5401C11.89 26.5001 12.54 26.5401 13.19 26.6501L15.16 26.8301C16.48 26.9201 17.79 27.0601 19.11 27.2201C20.43 27.3901 21.75 27.6001 23.07 27.8701C23.73 28.0001 24.39 28.1501 25.05 28.3001C25.67 28.5101 26.41 28.2601 26.81 29.9101Z" fill="#8AD0A8"/>
<path d="M31.1602 20.82C29.4802 21.36 29.1402 20.54 28.4502 20.06L26.5202 18.48C25.2302 17.43 23.9702 16.35 22.7202 15.25C21.4802 14.14 20.2502 13.02 19.0602 11.86L17.2502 10.14C16.6202 9.6 16.0402 9.02 16.1402 7.57C17.5302 7.17 18.2502 7.65 18.9002 8.18L20.9102 9.7C22.2602 10.71 23.5502 11.78 24.8102 12.88C26.0702 13.99 27.2902 15.14 28.4702 16.33C29.0702 16.92 29.6502 17.53 30.2302 18.14C30.7702 18.79 31.6402 19.11 31.1602 20.82Z" fill="#8AD0A8"/>
<path d="M57.0304 77.9299C54.5604 79.2999 52.2404 78.7599 49.8804 78.6899L42.8204 78.2899L42.0504 78.2499C41.9604 78.2599 41.9604 78.2799 41.9904 78.2699C42.0204 78.2499 41.9704 78.2999 41.9804 78.2999C41.9904 78.2999 42.0304 78.2499 42.0404 78.2099C42.0604 78.1699 42.0504 78.1799 42.0404 78.2499L42.0104 78.6699L41.8904 80.4399L41.8304 81.3099C41.8304 81.5599 41.8004 81.8099 41.8204 82.0599C41.8604 84.0699 42.6504 86.0499 43.9304 87.5899C44.2504 87.9799 44.5904 88.3399 44.9704 88.6699C45.1504 88.8399 45.3504 88.9899 45.5504 89.1399C45.5804 89.1599 45.6904 89.2499 45.6604 89.2199C45.6204 89.1799 45.5404 89.1399 45.5004 89.1399L45.7904 89.2099C46.8004 89.4199 47.9804 89.5699 49.1104 89.6899C50.2604 89.8099 51.4104 89.8999 52.5504 89.9599C53.1104 89.9899 53.6904 90.0199 54.1904 89.9999C54.3304 89.9999 54.4304 89.9899 54.5204 89.9799L54.6404 89.9699C54.6104 89.9699 54.5804 89.9799 54.5604 90.0099C54.6904 89.9499 54.9904 89.8099 55.1904 89.6999C56.9504 88.7199 58.3804 87.0599 59.1804 85.1299C59.3904 84.6499 59.5404 84.1499 59.6704 83.6399C59.8004 83.1199 59.9104 82.6699 60.0304 82.0499C60.1604 81.4699 60.3204 80.8899 60.5504 80.3199C60.6404 80.0399 60.7904 79.7199 60.8904 79.5099C61.0004 79.2999 61.0304 79.0299 60.9604 78.6899C61.2704 78.7999 61.5804 79.0799 61.7004 79.4699C61.8204 79.8599 61.8804 80.1199 61.9404 80.4299C62.0804 81.0299 62.1504 81.6299 62.1904 82.2299C62.2304 82.7899 62.2204 83.5099 62.0904 84.1499C61.9704 84.7999 61.7904 85.4299 61.5604 86.0499C60.6604 88.5199 58.9404 90.7199 56.6304 92.1499C56.3204 92.3399 56.0904 92.4699 55.6904 92.6599C55.5304 92.7199 55.3504 92.7699 55.1804 92.8099C55.0404 92.8399 54.9704 92.8399 54.8704 92.8599C54.6704 92.8899 54.4804 92.9099 54.3204 92.9099C53.6404 92.9599 53.0404 92.9499 52.4204 92.9399C51.2004 92.9099 50.0004 92.8199 48.7904 92.7199C47.5804 92.5999 46.4104 92.4899 45.1004 92.2399C44.9304 92.1999 44.7204 92.1499 44.5304 92.0999C44.3504 92.0399 44.1404 91.9499 43.9604 91.8399C43.8004 91.7499 43.8004 91.7299 43.7104 91.6699C43.4304 91.4699 43.1604 91.2699 42.9004 91.0399C42.3804 90.6099 41.9004 90.1199 41.4604 89.5999C39.7304 87.5099 38.7404 84.8299 38.7204 82.1099C38.7004 81.7699 38.7404 81.4299 38.7504 81.0899L38.8204 80.1999L38.9704 78.4399L39.0104 77.9799C39.0304 77.7599 39.0704 77.4699 39.1904 77.1599C39.3104 76.8399 39.5104 76.5399 39.7104 76.3199C39.9204 76.0999 40.0904 75.9499 40.3704 75.7699C40.8904 75.4399 41.5004 75.3199 41.9904 75.3299L42.2104 75.3399L42.3204 75.3499L42.5404 75.3699L42.9804 75.4099L50.0404 76.0999C52.4104 76.3699 54.8004 76.1899 57.0304 77.9299Z" fill="#171717"/>
<path d="M40.8695 69.7899C47.5695 68.7499 54.1995 69.6299 60.7295 70.0199C61.9095 70.0799 63.0695 69.4099 63.6095 68.3799C63.7495 68.1299 63.8495 67.8499 63.9095 67.5699C63.9395 67.4299 63.9595 67.2899 63.9695 67.1399L64.0295 66.4999C64.1095 65.6299 64.2495 64.7599 64.4295 63.8999C65.1395 60.4599 66.6595 57.1899 68.7895 54.3799C69.0695 54.0399 69.3295 53.6799 69.6195 53.3499L70.0495 52.8499L70.4095 52.4099C70.9095 51.8399 71.3295 51.1999 71.7595 50.5699C72.5695 49.2699 73.2096 47.8699 73.7096 46.4199C74.6896 43.5099 74.9896 40.3499 74.6496 37.2699C74.4696 35.7299 74.1595 34.2099 73.6695 32.7499C73.1695 31.2899 72.5195 29.8999 71.7295 28.5799C70.1095 25.9599 67.9195 23.6899 65.3695 21.9099C64.1095 20.9999 62.7496 20.2299 61.3296 19.5899C59.9196 18.9399 58.4395 18.4299 56.9295 18.0899C56.1795 17.8899 55.4096 17.7899 54.6496 17.6699L53.5796 17.5599C53.9196 11.3999 53.6696 15.8499 53.7696 14.4799H53.7995L53.8695 14.4899L54.0196 14.4999L54.1795 14.5099L54.2595 14.5199C54.1095 15.8799 54.6195 11.4699 54.1695 17.6099H54.0295L53.4496 17.5899C51.9095 17.5299 50.3496 17.6499 48.8296 17.9199C45.7796 18.4499 42.8395 19.6399 40.3195 21.3899C37.8295 23.1899 35.6495 25.4899 34.1695 28.2199C31.0995 33.6099 30.6295 40.4299 32.9795 46.2099C33.2795 46.9299 33.5696 47.6599 33.9596 48.3199C34.1496 48.6599 34.3096 48.9899 34.5196 49.3499C34.7396 49.7199 34.9795 50.0799 35.1695 50.4799C35.9895 52.0299 36.6295 53.6599 37.0395 55.3299C37.8695 58.6499 38.1095 62.1599 37.2595 65.4399C36.8595 62.1099 36.0995 58.9699 34.9795 55.9699C34.4095 54.4799 33.7795 53.0199 32.9995 51.6899C32.8095 51.3499 32.5895 51.0199 32.3795 50.6899C32.1695 50.3399 31.9495 49.9299 31.7395 49.5499C31.2795 48.7899 30.9395 47.9799 30.5895 47.1799C27.8695 40.7199 28.2595 33.0199 31.6595 26.8399C33.3095 23.7199 35.7296 21.0499 38.5796 18.9399C41.4696 16.8799 44.8195 15.5299 48.2795 14.8999C50.0095 14.5899 51.7695 14.4399 53.5395 14.4999L54.1996 14.5199C54.1695 14.5199 54.3296 14.5199 54.1396 14.5199C53.7096 20.6599 54.1695 16.2399 53.9895 17.5999L53.9195 17.5899L53.7696 17.5799L53.6095 17.5699L53.5295 17.5599H53.4895C53.5595 16.1799 53.2795 20.6399 53.5995 14.4699L54.3296 14.5299C54.5496 14.5499 54.7795 14.5599 54.9895 14.5899C55.8595 14.7199 56.7395 14.8399 57.5895 15.0499C59.3095 15.4299 60.9796 15.9999 62.5796 16.7199C64.1796 17.4299 65.7196 18.2899 67.1496 19.3099C70.0296 21.3099 72.4995 23.9199 74.3595 26.9399C75.2695 28.4599 76.0195 30.0899 76.5695 31.7699C77.1195 33.4499 77.4695 35.1899 77.6595 36.9399C78.0295 40.4399 77.6596 44.0299 76.5196 47.3799C75.9396 49.0499 75.1796 50.6699 74.2096 52.1699C73.6996 52.8999 73.1995 53.6399 72.5995 54.2999L72.1695 54.8099L71.7795 55.2499C71.5195 55.5299 71.2795 55.8399 71.0395 56.1399C69.1395 58.5799 67.7496 61.4399 67.0796 64.4699C66.9096 65.2299 66.7796 65.9899 66.6996 66.7699L66.6396 67.3699C66.6196 67.6399 66.5695 67.8999 66.5095 68.1699C66.3795 68.6899 66.1895 69.1999 65.9195 69.6699C64.8795 71.5699 62.7195 72.7599 60.5695 72.6199C53.9395 71.9999 47.3695 71.8499 40.8695 69.7899Z" fill="#171717"/>
</g>
<defs>
<clipPath id="clip0_626_47037">
<rect width="96" height="96" fill="white"/>
</clipPath>
</defs>
</svg>
