<svg width="200" height="201" viewBox="0 0 200 201" fill="none" xmlns="http://www.w3.org/2000/svg">
<g clip-path="url(#clip0_58_2225)">
<path fill-rule="evenodd" clip-rule="evenodd" d="M89.18 91.059L89.27 92.959L89.3 94.859L89.47 96.759L89.18 98.659L89.54 100.559L89.42 102.459L89.44 104.369L89.43 106.269L89.42 108.169L89.4 110.069L89.35 111.959L89.33 113.859L89.2 115.759L89.45 117.659L89.31 119.569L89.21 121.469L89.52 123.329L89.16 125.189L89.19 127.049L89.18 128.899L89.43 130.759L89.16 132.619V134.479L89.27 136.339L89.28 138.199L89.31 140.059L89.44 141.919L89.23 143.749L87.45 144.059L85.57 144.429L83.64 144.529L81.78 145.069L79.87 145.319L77.95 145.449L76.03 145.409L74.21 145.539L72.41 145.129L70.61 144.999L68.81 144.719L67.02 144.479L65.22 144.219L63.47 143.719L61.65 143.469L59.92 142.909L58.3 142.039L56.62 141.369L54.98 140.609L53.24 140.019L51.68 139.079L50.07 138.219L48.57 137.199L47.18 136.009L45.75 134.899L44.16 133.969L43.04 132.499L41.47 131.509L40.21 130.199L39.25 128.619L37.99 127.309L36.85 125.899L35.94 124.319L34.64 122.999L33.97 121.279L32.85 119.819L32.14 118.149L31.54 116.419L30.9 114.729L30.23 113.039L29.69 111.309L29.09 109.589L28.79 107.799L28.38 106.029L28.04 104.239L27.95 102.419L28.08 100.589L27.98 98.779L27.73 96.959L27.94 95.149L28.11 93.339L28.61 91.569L28.87 89.779L29.17 87.989L29.5 86.189L30.25 84.519L30.86 82.819L31.55 81.139L32.3 79.489L32.93 77.779L34.02 76.299L34.74 74.619L35.79 73.139L36.97 71.749L38.07 70.309L39.24 68.939L40.22 67.369L41.65 66.219L42.85 64.849L44.14 63.559L45.68 62.569L47.02 61.319L48.64 60.469L50.2 59.539L51.65 58.419L53.37 57.779L54.87 56.719L56.65 56.249L58.3 55.519L59.94 54.699L61.65 54.069L63.5 53.929L65.21 53.289L67.01 53.019L68.77 52.559L70.57 52.269L72.39 52.159H74.22L76.03 52.019L77.82 52.359L79.61 52.289L81.41 52.299L83.18 52.609L84.99 52.589L86.75 52.969L88.53 53.229L90.22 53.879L91.98 54.219L93.7 54.709L95.37 55.359L97.07 55.909L98.8 56.429L100.39 57.249L101.94 58.159L103.59 58.859L105.02 59.959L106.72 60.629L108.17 61.689L109.48 62.939L110.87 64.059L112.07 65.399L113.45 66.559L114.65 67.889L115.67 69.369L116.81 70.749L117.74 72.279L118.7 73.789L119.56 75.359L120.21 77.029L120.91 78.679L121.65 80.289L119.88 80.249L118.1 80.159L116.32 80.119L114.54 80.079L112.76 80.329L110.98 80.189L109.2 80.329L107.43 79.979L105.64 80.009L103.86 80.129L102.07 80.069L100.29 79.999L98.5 79.949L96.72 79.879L94.93 80.029L93.15 80.009L91.36 80.129L89.51 79.879L89.43 81.789L89.53 83.639L89.35 85.489L89.5 87.349L89.35 89.199L89.18 91.059Z" fill="#C7EEEC"/>
<path d="M106.91 81.029L108.75 80.759L110.5 80.959L112.26 80.869L114.02 80.939L115.78 80.899L117.54 80.939L119.29 81.009L121.05 80.949L122.81 80.759L124.55 81.129L126.31 81.069L127.89 81.329L127.61 82.559L125.87 82.639L124.11 82.559L122.34 82.369L120.58 82.319L118.81 82.569L117.04 82.299L115.27 82.609L113.51 82.539L111.75 82.469L109.98 82.619L108.09 82.309L107.65 83.829L107.1 85.229L106.49 87.119L106.21 89.069L106.57 91.009L107.67 92.519L109.4 92.509L111.16 92.859L112.92 92.609L114.68 92.819L116.44 92.719L118.2 92.539L119.95 92.719L121.71 92.589L123.47 92.819L125.22 92.829L126.98 92.809L128.74 92.659L130.5 92.549L132.25 92.489L134.01 92.789L135.76 92.869L137.47 92.499L138.42 90.979L138.66 89.059L138.11 87.199L137.77 85.339L137.07 83.569L136.18 81.929L137.23 80.439L138.18 78.839L138.85 77.089L138.66 75.229L138.35 73.449L137.5 71.819L136.12 70.589L134.26 70.409L132.41 70.499L130.55 70.399L128.71 70.559L126.85 70.599L125.01 70.789L123.16 70.589L121.31 70.599L119.47 70.409L117.62 70.579L115.77 70.619L113.92 70.589L112.07 70.519L110.23 70.559L108.38 70.599L106.86 71.789L106.03 73.499L105.62 75.339L105.56 77.289L106.24 79.119L106.91 81.029Z" fill="#09B1BA"/>
<path d="M156.32 103.509C156.3 97.079 156.22 90.649 155.04 84.219C153.85 90.649 153.78 97.079 153.76 103.509C153.58 126.159 153.42 150.189 153.48 172.799C153.47 172.799 153.46 172.799 153.46 172.799L148.64 172.809C139.02 172.839 119.69 172.949 110.06 173.039C103.63 173.159 97.2 172.789 90.77 174.349C97.2 175.899 103.63 175.539 110.06 175.659C121.96 175.759 141.59 175.889 153.46 175.909H154.67H154.82C155.73 175.959 156.66 175.069 156.61 174.109C156.68 151.059 156.51 126.629 156.32 103.509Z" fill="#09B1BA"/>
<path d="M102.87 144.239C104.85 144.519 106.68 143.149 106.96 141.179C107.24 139.209 105.87 137.369 103.9 137.089C101.92 136.809 100.09 138.179 99.81 140.149C99.52 142.129 100.89 143.959 102.87 144.239Z" fill="#09B1BA"/>
<path d="M102.87 126.809C104.85 127.089 106.68 125.719 106.96 123.749C107.24 121.779 105.87 119.939 103.9 119.659C101.92 119.379 100.09 120.749 99.81 122.719C99.52 124.689 100.89 126.519 102.87 126.809Z" fill="#09B1BA"/>
<path d="M102.87 109.369C104.85 109.649 106.68 108.279 106.96 106.309C107.24 104.339 105.87 102.499 103.9 102.219C101.92 101.939 100.09 103.309 99.81 105.279C99.52 107.259 100.89 109.089 102.87 109.369Z" fill="#09B1BA"/>
<path d="M137.99 139.669C134.34 139.519 130.31 139.369 126.67 139.389C124.15 139.399 121.64 139.439 119.12 139.549L115.35 139.689C114.09 139.699 112.83 139.779 111.58 140.969C112.84 142.159 114.1 142.239 115.35 142.249L119.12 142.389C121.64 142.499 124.15 142.539 126.67 142.549C130.31 142.569 134.33 142.419 137.99 142.269C139.25 142.159 140.51 142.519 141.76 140.959C140.51 139.409 139.25 139.779 137.99 139.669Z" fill="#171717"/>
<path d="M137.99 121.919C134.34 121.769 130.31 121.619 126.67 121.639C124.15 121.649 121.64 121.689 119.12 121.799L115.35 121.939C114.09 121.949 112.83 122.029 111.58 123.219C112.84 124.409 114.1 124.489 115.35 124.499L119.12 124.639C121.64 124.749 124.15 124.789 126.67 124.799C130.31 124.819 134.33 124.669 137.99 124.519C139.25 124.409 140.51 124.769 141.76 123.209C140.51 121.669 139.25 122.039 137.99 121.919Z" fill="#171717"/>
<path d="M137.99 104.489C134.34 104.339 130.31 104.189 126.67 104.209C124.15 104.219 121.64 104.259 119.12 104.369L115.35 104.509C114.09 104.519 112.83 104.599 111.58 105.789C112.84 106.979 114.1 107.059 115.35 107.069L119.12 107.209C121.64 107.319 124.15 107.359 126.67 107.369C130.31 107.389 134.33 107.239 137.99 107.089C139.25 106.979 140.51 107.339 141.76 105.779C140.51 104.239 139.25 104.599 137.99 104.489Z" fill="#171717"/>
<path d="M90.93 81.509H89.72H89.57C88.66 81.459 87.73 82.349 87.78 83.309C87.7 106.359 87.87 130.789 88.06 153.909C88.08 160.339 88.16 166.769 89.34 173.199C90.53 166.769 90.6 160.339 90.62 153.909C90.8 131.259 90.96 107.229 90.9 84.619C90.91 84.619 90.92 84.619 90.92 84.619L95.74 84.609C105.36 84.579 124.69 84.469 134.32 84.379C140.75 84.259 147.18 84.629 153.61 83.069C147.18 81.519 140.75 81.879 134.32 81.759C122.43 81.659 102.8 81.529 90.93 81.509Z" fill="#171717"/>
<path d="M76.9 29.079C94.85 29.049 122.35 28.929 140.38 28.829C149.32 28.739 158.23 29.029 167.11 27.529C158.23 26.029 149.32 26.319 140.38 26.229C123.89 26.139 96.69 26.009 80.24 25.979L76.9 25.969C76.48 25.989 75 25.909 74.62 26.029C73.69 26.269 73.22 27.159 73.3 28.079C73.24 31.599 73.41 35.399 73.57 38.939C73.6 40.049 73.58 41.169 74.86 42.279C76.14 41.169 76.12 40.049 76.15 38.939C76.29 35.999 76.47 31.889 76.43 29.079C76.62 29.079 76.9 29.079 76.9 29.079Z" fill="#171717"/>
<path d="M170.84 87.159C170.81 77.129 170.69 56.959 170.61 46.929C170.51 40.219 170.84 33.519 169.31 26.809C168.8 29.039 168.51 31.269 168.33 33.499C164.8 32.359 161.28 32.639 157.75 32.529C146.55 32.369 134.21 32.269 123.06 32.249C115.35 32.299 107.64 32.289 99.94 32.409L88.37 32.559C84.52 32.569 80.66 32.649 76.81 33.839C80.66 35.029 84.52 35.109 88.37 35.119L99.93 35.259C107.64 35.379 115.35 35.369 123.05 35.419C134.21 35.399 146.51 35.309 157.74 35.139C161.25 35.039 164.75 35.309 168.26 34.189C167.96 38.429 168.07 42.669 168 46.919C167.9 59.329 167.78 79.799 167.75 92.179V93.499C165.03 93.489 162.22 93.629 159.53 93.789C158.69 93.799 157.85 93.919 157.02 95.069C157.86 96.219 158.7 96.339 159.53 96.349L162.04 96.489C164.34 96.619 166.65 96.679 168.96 96.639C169.92 96.749 170.88 95.849 170.86 94.919C170.87 93.179 170.84 88.939 170.84 87.159Z" fill="#171717"/>
<path fill-rule="evenodd" clip-rule="evenodd" d="M155.46 181.739L181.56 153.419C181.82 153.129 181.79 152.679 181.48 152.439L173.04 145.799C172.76 145.579 172.36 145.619 172.13 145.879L155.12 165.079C154.88 165.359 154.45 165.379 154.18 165.129L140.7 153.059C140.43 152.819 140.02 152.839 139.77 153.099L132.46 160.949C132.21 161.219 132.22 161.649 132.5 161.899L154.53 181.769C154.79 182.029 155.21 182.009 155.46 181.739Z" fill="#8AD0A8"/>
<path d="M69.12 42.949C68.92 42.939 68.72 42.909 68.52 42.899C68.28 42.899 68.04 42.929 67.8 42.939C66.72 42.949 65.64 42.979 64.57 43.059C34.01 44.909 12.22 74.759 20.45 104.379C24.11 118.309 34.5 130.269 47.68 136.049C53.39 138.549 59.78 140.109 66.17 140.369C66.55 140.439 66.93 140.499 67.31 140.539C68.38 140.579 69.43 140.499 70.46 140.329C76.99 139.969 83.35 138.169 88.81 134.459C85.59 135.379 82.35 136.179 79.09 136.779C80.2 136.079 81.25 135.329 82.25 134.569C85.58 131.949 88.75 128.959 90.17 124.829C86.61 127.099 83.99 130.049 80.68 132.509C77.5 134.869 73.92 136.839 70.21 137.489C69.64 137.599 69.07 137.639 68.5 137.649C69.32 134.189 69.38 130.719 69.39 127.259L69.44 123.019C71.26 123.029 73.08 123.049 74.9 123.039C76.77 123.099 78.65 123.239 80.53 123.459C82.39 123.669 84.54 124.279 86.38 123.209C84.82 121.319 82.81 121.239 80.9 120.869C78.97 120.549 77.03 120.299 75.07 120.139C73.22 120.059 71.35 119.979 69.49 119.929L69.54 115.409C69.65 108.009 69.65 100.609 69.69 93.209C73.8 93.159 77.91 93.099 81.84 93.019C84.62 92.909 87.39 93.269 90.17 91.709C87.39 90.149 84.62 90.519 81.84 90.399C77.92 90.319 73.8 90.259 69.69 90.209C69.68 82.549 69.62 74.429 69.54 66.489C76.74 66.539 84.04 65.729 90.81 63.229C91.16 63.099 91.51 62.959 91.86 62.809C94.91 67.749 97.23 73.189 99.2 78.869C98.9 72.859 97.04 66.959 94.05 61.669C95.19 60.939 96.2 60.009 96.95 58.759C95.46 58.949 94.15 59.319 92.9 59.749C89.83 54.929 85.8 50.709 81.14 47.499C84.42 48.439 87.7 49.769 90.93 51.509C98.88 55.939 105.41 62.449 110.75 70.119C109.15 65.699 106.55 61.629 103.36 58.099C94.7 48.639 81.94 43.209 69.12 42.949ZM67.63 45.799C66.66 49.249 66.92 52.709 66.83 56.159C66.8 58.499 66.77 60.889 66.74 63.309C60.66 63.229 54.51 62.519 48.68 60.879C49.15 60.129 49.62 59.379 50.13 58.649C54.27 52.849 60.28 46.379 67.63 45.799ZM40.23 93.139C45.78 93.259 51.33 93.249 56.88 93.299C60.01 93.289 63.26 93.279 66.55 93.239C66.59 100.629 66.59 108.019 66.7 115.409L66.75 119.899C63.65 119.909 60.56 120.079 57.52 120.639L54.66 121.129C52.66 121.499 50.68 122.039 48.76 122.719C45.3 117.169 42.91 110.879 41.47 104.599C40.63 100.839 40.18 96.989 40.09 93.119L40.23 93.139ZM40.09 90.289C40.32 80.879 42.74 71.529 47.26 63.299C49.56 64.079 52.01 64.539 53.75 64.989C57.96 65.999 62.36 66.369 66.69 66.459C66.61 74.399 66.56 82.529 66.54 90.179C63.25 90.149 60 90.129 56.88 90.119C51.33 90.169 45.78 90.159 40.23 90.279L40.09 90.289ZM23.43 103.579C16.48 76.509 33.75 53.169 56.8 47.179C53.2 49.849 50.13 53.429 47.63 56.909C46.97 57.869 46.34 58.859 45.73 59.859C44.15 59.139 42.78 58.329 40.82 57.799C41.18 59.749 42.6 61.099 44.44 62.099C39.71 70.739 37.16 80.509 36.93 90.349L31.91 90.439C29.13 90.449 26.36 90.529 23.58 91.719C26.36 92.909 29.13 92.989 31.91 92.999L36.92 93.089C37 97.199 37.49 101.289 38.41 105.299C39.65 110.999 42.21 117.779 45.9 123.869C44.15 124.629 42.46 125.669 41.53 127.639C43.78 127.589 45.39 126.849 47.11 126.139C47.17 126.119 47.23 126.099 47.29 126.069C50.04 130.169 53.32 133.819 57.06 136.459C41.07 132.559 27.54 119.599 23.43 103.579ZM59.69 134.599C56.02 131.999 52.91 128.739 50.32 125.079C52.83 124.409 55.45 124.009 57.99 123.659C60.92 123.209 63.86 123.069 66.8 123.029L66.85 127.259C66.86 130.719 66.92 134.179 67.74 137.639C64.93 137.489 62.16 136.279 59.69 134.599ZM88.09 57.429C88.93 58.459 89.7 59.539 90.45 60.629C90.28 60.689 90.12 60.749 89.95 60.819C83.37 62.919 76.4 63.459 69.53 63.329C69.5 60.909 69.47 58.509 69.44 56.149C69.34 52.679 69.61 49.219 68.62 45.749C76.33 46.179 83.24 51.609 88.09 57.429Z" fill="#007782"/>
<path d="M162.95 41.589C162.79 41.279 162.53 41.029 162.22 40.869C161.97 40.699 161.35 40.699 161.5 40.709C155.57 40.689 144.81 40.769 138.91 40.789L135.73 40.829C135.4 40.829 134.71 40.849 134.39 40.849C133.58 40.799 132.78 41.549 132.82 42.409C132.83 42.769 132.97 55.879 132.98 56.779C132.99 61.019 133.07 65.259 134.26 69.509C135.45 65.269 135.53 61.029 135.54 56.779C135.54 56.049 135.65 47.219 135.69 43.759C142.95 43.829 152.59 43.879 159.97 43.879C159.97 44.359 159.97 44.849 159.97 45.119C159.96 49.219 159.99 59.959 160.01 64.209L160.1 76.939C160.2 81.179 159.81 85.419 161.35 89.669C162.93 85.429 162.58 81.189 162.71 76.949C162.83 70.609 162.98 57.839 163.05 51.499C163.06 49.789 163.11 44.379 163.12 42.749V42.349C163.14 42.499 163.12 41.809 162.95 41.589ZM159.97 42.349C159.97 42.289 159.97 42.269 159.97 42.319C159.97 42.329 159.97 42.349 159.97 42.349ZM161.48 43.869C161.49 43.869 161.5 43.869 161.5 43.869C161.55 43.869 161.53 43.869 161.48 43.869Z" fill="#007782"/>
</g>
<defs>
<clipPath id="clip0_58_2225">
<rect width="200" height="200" fill="white" transform="translate(0 0.458984)"/>
</clipPath>
</defs>
</svg>
