<svg width="200" height="201" viewBox="0 0 200 201" fill="none" xmlns="http://www.w3.org/2000/svg">
<g clip-path="url(#clip0_58_2246)">
<path fill-rule="evenodd" clip-rule="evenodd" d="M177.15 153.679C176.35 153.679 176.35 153.939 175.55 153.939C174.75 153.939 174.75 153.959 173.95 153.959C173.15 153.959 173.15 153.779 172.35 153.779C171.55 153.779 171.55 153.649 170.75 153.649C169.95 153.649 169.95 153.819 169.15 153.819C168.35 153.819 168.35 153.999 167.55 153.999C166.75 153.999 166.75 153.979 165.95 153.979C165.15 153.979 165.15 153.829 164.35 153.829C163.55 153.829 163.55 153.609 162.75 153.609C161.95 153.609 161.95 153.939 161.15 153.939C160.35 153.939 160.35 153.989 159.55 153.989C158.75 153.989 158.75 153.719 157.95 153.719C157.15 153.719 157.15 153.669 156.35 153.669C155.55 153.669 155.55 153.859 154.75 153.859C153.95 153.859 153.95 153.669 153.15 153.669C152.35 153.669 152.35 153.799 151.55 153.799C150.75 153.799 150.75 153.929 149.95 153.929C149.15 153.929 149.15 153.949 148.35 153.949C147.55 153.949 147.55 153.899 146.75 153.899C145.95 153.899 145.95 153.809 145.15 153.809C144.35 153.809 144.35 153.799 143.55 153.799C142.75 153.799 142.75 153.819 141.95 153.819C141.15 153.819 141.15 153.709 140.35 153.709C139.55 153.709 139.55 153.859 138.75 153.859C137.95 153.859 137.95 153.679 137.15 153.679C136.35 153.679 136.35 153.919 135.54 153.919C134.74 153.919 134.74 153.779 133.93 153.779C133.13 153.779 132.47 154.609 132.15 153.869C131.82 153.109 132.95 153.239 133.47 152.599C134 151.959 133.94 151.909 134.47 151.269C135 150.629 135 150.639 135.53 149.999C136.06 149.359 136 149.309 136.53 148.669C137.06 148.029 137.04 148.009 137.57 147.369C138.1 146.729 138 146.649 138.53 146.009C139.06 145.369 139.08 145.389 139.61 144.749C140.14 144.109 140.2 144.159 140.73 143.519C141.26 142.879 141.21 142.849 141.7 142.179C142.16 141.549 142.26 141.629 142.68 140.969C143.09 140.309 143.17 140.359 143.59 139.699C144 139.039 143.54 138.199 144.32 138.259C145.21 138.319 144.73 139.119 145.26 139.849C145.78 140.579 145.96 140.449 146.49 141.179C147.01 141.909 146.8 142.069 147.34 142.779C147.77 143.359 147.76 143.369 148.21 143.929C148.66 144.489 148.93 144.279 149.38 144.839C149.83 145.399 149.61 145.579 150.06 146.139C150.51 146.709 150.71 146.549 151.15 147.119C151.6 147.689 151.59 147.699 152.02 148.279C152.56 148.999 152.47 149.069 152.99 149.789C153.51 150.519 153.16 151.069 154.02 151.309C154.72 151.499 154.52 150.669 155.11 150.249C155.7 149.829 155.76 149.919 156.35 149.499C156.94 149.079 156.94 149.079 157.53 148.659C158.12 148.239 158.14 148.269 158.73 147.839C159.4 147.349 159.43 147.389 160.09 146.889C160.76 146.389 160.79 146.429 161.45 145.939C162.12 145.439 162.17 145.509 162.84 145.009C163.51 144.509 163.98 144.709 164.16 143.899C164.32 143.149 163.5 143.339 163.08 142.699C162.66 142.059 162.68 142.039 162.26 141.399C161.84 140.749 161.99 140.649 161.57 140.009C161.15 139.359 161.15 139.359 160.73 138.709C160.31 138.059 160.11 138.189 159.69 137.539C159.19 136.759 159.49 136.569 158.99 135.779C158.49 134.989 158.4 135.049 157.9 134.259C157.4 133.469 157.38 133.489 156.9 132.689C156.51 132.029 156.66 131.949 156.29 131.279C155.92 130.609 155.65 130.749 155.28 130.079C154.91 129.409 154.31 129.369 154.66 128.689C155.09 127.859 155.66 128.639 156.44 128.129C157.12 127.679 156.89 127.419 157.42 126.799C157.94 126.179 157.85 126.099 158.37 125.479C158.9 124.859 159.05 124.989 159.58 124.369C160.11 123.749 160.06 123.699 160.58 123.079C161.11 122.459 161.26 122.579 161.54 121.809C161.87 120.909 161.57 120.889 161.62 119.929C161.67 118.969 162.1 118.959 161.96 118.009C161.8 116.959 161.71 116.949 161.34 115.949C161.08 115.249 161 115.279 160.72 114.589C160.44 113.899 160.55 113.829 160.19 113.179C159.87 112.589 159.5 112.829 159.1 112.289C158.7 111.749 159.01 111.519 158.61 110.979C158.21 110.439 157.94 110.629 157.61 110.039C157.18 109.269 157.27 109.219 156.91 108.409C156.55 107.599 156.53 107.609 156.17 106.809C155.89 106.189 155.78 106.239 155.5 105.619C155.22 104.999 155.37 104.939 155.18 104.279C154.96 103.499 154.82 103.529 154.69 102.729C154.56 101.929 154.74 101.909 154.46 101.149C154.17 100.359 154.18 100.359 153.76 99.629C153.34 98.899 153.47 98.819 153.04 98.089C152.62 97.359 152.56 97.389 152.14 96.659C151.72 95.929 151.7 95.959 151.06 95.399C150.42 94.839 150.43 94.859 149.65 94.529C148.87 94.199 148.8 94.369 148.01 94.039C147.23 93.709 147.2 93.779 146.42 93.449C145.64 93.119 145.67 93.029 144.89 92.699C144.11 92.369 144.19 92.159 143.41 91.829C142.63 91.499 142.66 91.319 141.84 91.109C141.11 90.919 141.04 91.249 140.29 91.179C139.54 91.109 139.54 91.049 138.79 90.969C138.04 90.899 138.04 90.829 137.29 90.759C136.54 90.689 136.54 90.619 135.79 90.549C135.04 90.479 135.03 90.529 134.28 90.459C133.53 90.389 133.52 90.419 132.77 90.349C132.02 90.279 132.02 90.199 131.27 90.129C130.52 90.059 130.53 90.089 129.79 89.919C129.01 89.739 129.02 89.759 128.27 89.479C127.52 89.199 127.46 89.379 126.71 89.099C125.96 88.819 126.01 88.689 125.26 88.409C124.51 88.129 124.53 88.079 123.78 87.799C123.03 87.519 122.98 87.649 122.23 87.369C121.48 87.089 121.53 86.949 120.78 86.669C120.03 86.389 119.94 86.629 119.19 86.349C118.44 86.069 118.54 85.579 117.75 85.749C116.99 85.909 117.15 86.179 116.6 86.729C116.05 87.279 115.79 87.139 115.47 87.849C115.16 88.539 115.52 88.639 115.47 89.389C115.42 90.139 115.22 90.129 115.17 90.879C115.12 91.629 115.36 91.649 115.31 92.399C115.26 93.149 115.33 93.159 115.28 93.909C115.23 94.659 115.33 94.699 115.05 95.399C114.7 96.259 114.36 96.019 113.79 96.749C113.22 97.479 113.52 97.709 112.95 98.439C112.38 99.169 112.13 98.979 111.61 99.749C111.13 100.459 111.4 100.629 110.97 101.359C110.53 102.099 110.32 101.969 109.89 102.709C109.45 103.449 109.65 103.559 109.21 104.299C108.77 105.039 108.77 105.039 108.34 105.779C107.9 106.519 107.66 106.369 107.22 107.109C106.78 107.849 106.94 107.929 106.58 108.709C106.27 109.389 106.17 109.349 105.94 110.059C105.71 110.779 105.71 110.779 105.48 111.489C105.25 112.209 105.29 112.219 105.06 112.939C104.83 113.659 104.66 113.599 104.43 114.319C104.2 115.039 104.27 115.059 104.04 115.779C103.81 116.499 103.8 116.499 103.57 117.209C103.34 117.929 103.24 117.919 103.11 118.659C102.96 119.509 103.14 119.539 103.09 120.399C103.05 121.259 102.9 121.259 102.85 122.119C102.81 122.979 103.17 122.999 103.13 123.859C103.09 124.719 103.05 124.719 103.01 125.579C102.97 126.439 102.72 126.429 102.68 127.299C102.64 128.159 103.05 128.229 102.81 129.069C102.59 129.839 102.37 129.769 101.97 130.459C101.57 131.149 101.57 131.149 101.18 131.839C100.78 132.529 100.6 132.429 100.2 133.119C99.8 133.809 99.9 133.869 99.51 134.569C99.11 135.259 99.16 135.289 98.76 135.979C98.36 136.679 98.42 136.699 98.02 137.399C97.62 138.099 97.38 137.959 96.99 138.659C96.59 139.359 96.69 139.409 96.32 140.119C95.93 140.859 96.16 140.969 95.8 141.729C95.44 142.489 95.25 142.399 94.89 143.159C94.53 143.919 94.73 144.009 94.37 144.769C94.01 145.529 93.79 145.419 93.43 146.179C93.07 146.939 93.27 147.039 92.91 147.799C92.55 148.559 92.45 148.509 92.09 149.269C91.73 150.029 91.69 150.009 91.33 150.769C90.97 151.529 90.9 151.499 90.54 152.259C90.18 153.019 90.59 153.379 89.88 153.839C89.21 154.279 89.05 153.689 88.25 153.689C87.45 153.689 87.45 153.689 86.64 153.689C85.84 153.689 85.84 153.829 85.04 153.829C84.24 153.829 84.24 153.879 83.43 153.879C82.63 153.879 82.63 153.809 81.83 153.809C81.03 153.809 81.03 153.599 80.23 153.599C79.43 153.599 79.43 153.649 78.63 153.649C77.83 153.649 77.83 153.899 77.03 153.899C76.23 153.899 76.23 153.759 75.43 153.759C74.63 153.759 74.63 153.829 73.82 153.829C73.02 153.829 73.02 153.959 72.21 153.959C71.41 153.959 71.41 153.739 70.61 153.739C69.81 153.739 69.81 153.749 69.01 153.749C68.21 153.749 68.21 153.849 67.41 153.849C66.61 153.849 66.61 153.969 65.8 153.969C65 153.969 65 153.719 64.19 153.719C63.39 153.719 63.39 153.669 62.58 153.669C61.78 153.669 61.78 153.759 60.97 153.759C60.17 153.759 60.17 153.699 59.36 153.699C58.56 153.699 58.56 153.759 57.75 153.759C56.95 153.759 56.95 153.679 56.14 153.679C55.34 153.679 55.34 153.609 54.53 153.609C53.73 153.609 53.73 153.889 52.92 153.889C52.12 153.889 52.12 153.909 51.32 153.909C50.52 153.909 50.52 153.809 49.72 153.809C48.91 153.809 48.91 153.939 48.11 153.939C47.31 153.939 47.31 153.959 46.5 153.959C45.7 153.959 45.7 153.799 44.89 153.799C44.08 153.799 44.08 153.639 43.28 153.639C42.48 153.639 42.48 153.819 41.67 153.819C40.86 153.819 40.86 153.769 40.06 153.769C39.25 153.769 39.25 153.619 38.44 153.619C37.63 153.619 37.63 153.949 36.82 153.949C36.36 153.949 35.95 153.619 35.65 153.319C35.35 153.019 35.08 152.609 35.08 152.149C35.08 151.219 35.03 151.219 35.03 150.289C35.03 149.359 35.26 149.359 35.26 148.429C35.26 147.499 34.47 147.209 35.07 146.499C35.57 145.899 35.93 146.479 36.71 146.479C37.49 146.479 37.49 146.709 38.27 146.709C39.05 146.709 39.05 146.699 39.83 146.699C40.61 146.699 40.61 146.449 41.39 146.449C42.17 146.449 42.17 146.389 42.95 146.389C43.73 146.389 43.73 146.509 44.51 146.509C45.29 146.509 45.29 146.589 46.07 146.589C46.85 146.589 46.85 146.669 47.63 146.669C48.41 146.669 48.41 146.379 49.19 146.379C49.97 146.379 49.97 146.509 50.76 146.509C51.54 146.509 51.54 146.359 52.33 146.359C53.1 146.369 53.1 146.419 53.87 146.429C54.64 146.439 54.64 146.589 55.41 146.599C56.18 146.609 56.18 146.499 56.95 146.509C57.72 146.519 57.72 146.789 58.49 146.799C59.26 146.809 59.27 146.469 60.04 146.489C60.81 146.499 60.81 146.549 61.58 146.569C62.35 146.579 62.35 146.799 63.12 146.819C63.89 146.829 63.9 146.689 64.67 146.709C65.44 146.719 65.44 146.879 66.21 146.899C66.98 146.909 66.98 146.999 67.76 147.019C68.54 147.029 68.54 146.849 69.31 146.859C70.09 146.869 70.34 147.479 70.9 146.939C71.47 146.389 70.81 146.099 70.84 145.309C70.87 144.519 70.86 144.519 70.89 143.719C70.92 142.929 70.85 142.919 70.88 142.129C70.91 141.339 71.02 141.339 71.05 140.549C71.08 139.759 70.98 139.749 71.01 138.959C71.04 138.169 71.21 138.169 71.24 137.379C71.27 136.589 71.38 136.589 71.41 135.799C71.44 135.009 71.13 134.989 71.16 134.199C71.19 133.409 71.39 133.409 71.42 132.619C71.45 131.829 71.41 131.829 71.44 131.029C71.47 130.239 71.63 130.239 71.66 129.449C71.69 128.659 71.4 128.639 71.43 127.849C71.46 127.059 71.8 127.069 71.83 126.279C71.86 125.489 71.81 125.479 71.84 124.689C71.87 123.889 71.8 123.889 71.83 123.099C71.86 122.309 71.69 122.299 71.72 121.509C71.75 120.709 72.02 120.719 72.05 119.929C72.08 119.129 71.96 119.129 71.99 118.329C72.02 117.529 71.94 117.529 71.96 116.729C71.97 115.949 71.97 115.949 71.97 115.169C71.97 114.389 71.92 114.389 71.92 113.599C71.92 112.819 71.81 112.819 71.8 112.039C71.8 111.259 71.89 111.259 71.89 110.479C71.89 109.699 72.16 109.699 72.16 108.909C72.16 108.129 72.1 108.129 72.09 107.339C72.09 106.559 71.91 106.559 71.91 105.779C71.91 104.999 72.13 104.999 72.13 104.209C72.13 103.429 71.86 103.429 71.86 102.639C71.86 101.859 71.86 101.859 71.86 101.069C71.86 100.289 71.92 100.289 71.91 99.509C71.91 98.729 71.86 98.729 71.86 97.949C71.86 97.169 71.75 97.169 71.74 96.379C71.74 95.599 71.83 95.599 71.83 94.809C71.83 94.029 71.84 94.029 71.84 93.239C71.84 92.459 71.9 92.459 71.9 91.669C71.9 90.889 72.1 90.889 72.1 90.099C72.1 89.309 71.93 89.319 71.92 88.529C71.92 87.739 71.81 87.739 71.81 86.959C71.81 86.179 71.97 86.169 71.97 85.389C71.97 84.609 71.93 84.609 71.93 83.829C71.93 83.049 71.92 83.049 71.92 82.279C71.92 81.499 71.79 81.499 71.79 80.719C71.79 79.939 72.07 79.939 72.08 79.159C72.08 78.379 72.37 78.269 71.82 77.729C71.25 77.169 71.14 77.489 70.34 77.489C69.54 77.489 69.54 77.779 68.74 77.779C67.94 77.779 67.94 77.459 67.14 77.459C66.34 77.459 66.34 77.659 65.54 77.669C64.74 77.669 64.74 77.649 63.94 77.649C63.14 77.649 63.14 77.609 62.34 77.609C61.54 77.609 61.54 77.789 60.74 77.789C59.94 77.789 59.94 77.599 59.14 77.609C58.34 77.609 58.34 77.749 57.54 77.749C56.74 77.749 56.74 77.679 55.94 77.689C55.14 77.689 55.14 77.559 54.34 77.559C53.54 77.559 53.54 77.819 52.74 77.819C51.94 77.819 51.94 77.549 51.14 77.549C50.34 77.549 50.34 77.699 49.54 77.699C48.74 77.699 48.74 77.539 47.94 77.549C47.14 77.549 47.14 77.699 46.34 77.699C45.54 77.699 45.54 77.679 44.74 77.679C43.94 77.679 43.94 77.649 43.14 77.649C42.34 77.649 42.34 77.779 41.54 77.789C40.74 77.789 40.74 77.869 39.94 77.879C39.14 77.879 39.14 77.809 38.33 77.809C37.53 77.809 37.53 77.719 36.72 77.719C35.92 77.719 35.56 78.399 35 77.829C34.43 77.249 35.09 76.899 35.09 76.089C35.09 75.269 35.26 75.269 35.26 74.459C35.26 73.639 35.05 73.639 35.05 72.829C35.05 72.009 34.95 72.009 34.95 71.199C34.95 70.379 34.95 70.379 34.95 69.559C34.95 68.739 35.08 68.739 35.08 67.919C35.08 67.099 35.16 67.099 35.16 66.279C35.16 65.819 35.19 65.289 35.49 64.979C35.79 64.679 36.33 64.579 36.79 64.579C37.6 64.579 37.6 64.429 38.41 64.429C39.22 64.429 39.22 64.539 40.03 64.539C40.84 64.539 40.84 64.529 41.65 64.529C42.46 64.529 42.46 64.549 43.27 64.549C44.08 64.549 44.08 64.689 44.89 64.689C45.7 64.689 45.7 64.789 46.5 64.789C47.31 64.789 47.31 64.609 48.11 64.609C48.92 64.609 48.92 64.489 49.73 64.489C50.54 64.489 50.54 64.499 51.35 64.499C52.16 64.499 52.16 64.619 52.97 64.619C53.78 64.619 53.78 64.649 54.59 64.649C55.4 64.649 55.4 64.819 56.21 64.819C57.02 64.819 57.02 64.499 57.83 64.499C58.64 64.499 58.64 64.499 59.45 64.499C60.26 64.499 60.32 64.279 61 64.739C61.59 65.139 61.36 65.279 61.55 65.959C61.75 66.639 61.67 66.659 61.87 67.349C62.07 68.029 62.05 68.039 62.25 68.719C62.45 69.399 62.31 69.449 62.56 70.119C62.81 70.769 62.95 70.719 63.24 71.349C63.54 71.979 63.7 71.909 64 72.539C64.3 73.179 64.25 73.199 64.55 73.839C64.85 74.479 64.6 74.609 64.95 75.219C65.42 76.039 65.53 75.979 66.04 76.769C66.55 77.559 66.35 77.759 67.08 78.369C67.74 78.919 67.89 78.699 68.7 79.009C69.51 79.319 69.52 79.299 70.32 79.609C71.12 79.919 71.46 79.479 72.05 80.109C72.55 80.649 72.18 80.909 72.33 81.629C72.48 82.349 72.49 82.349 72.64 83.069C72.79 83.789 72.54 83.849 72.96 84.449C73.44 85.119 73.62 84.849 74.31 85.299C74.99 85.749 74.94 85.829 75.63 86.269C76.32 86.719 76.18 86.919 76.87 87.369C77.56 87.819 77.72 87.569 78.41 88.019C79.1 88.469 79.04 88.539 79.78 88.889C80.51 89.239 80.46 89.369 81.23 89.609C82 89.849 82.07 89.659 82.84 89.899C83.62 90.139 83.55 90.359 84.32 90.609C85.09 90.849 85.08 90.889 85.86 91.139C86.64 91.379 86.66 91.299 87.44 91.539C88.22 91.779 88.3 91.519 89.08 91.759C89.86 91.999 89.76 92.379 90.57 92.489C91.41 92.599 91.43 92.539 92.27 92.509C93.12 92.489 93.12 92.499 93.97 92.469C94.82 92.449 94.82 92.429 95.67 92.399C96.52 92.379 96.52 92.379 97.36 92.359C98.21 92.339 98.2 92.059 99.05 92.039C99.9 92.019 99.9 92.109 100.75 92.089C101.6 92.069 101.65 92.429 102.49 92.289C103.25 92.159 103.25 92.029 103.97 91.779C104.7 91.529 104.65 91.399 105.38 91.149C106.11 90.899 106.05 90.739 106.78 90.489C107.51 90.239 107.5 90.229 108.23 89.979C108.96 89.729 109.02 89.909 109.75 89.659C110.48 89.409 110.47 89.399 111.15 89.039C111.9 88.639 111.85 88.579 112.53 88.079C113.21 87.569 113.31 87.709 113.99 87.209C114.67 86.699 114.59 86.599 115.27 86.089C115.95 85.589 116.01 85.669 116.69 85.159C117.37 84.649 117.41 84.709 118.09 84.199C118.77 83.689 118.55 83.399 119.24 82.889C119.92 82.379 120.03 82.539 120.63 81.939C121.23 81.339 121.08 81.249 121.58 80.569C122.08 79.889 122.22 79.989 122.72 79.309C123.22 78.629 123.13 78.569 123.63 77.889C124.13 77.209 124.34 77.359 124.84 76.679C125.34 75.999 125.17 75.869 125.67 75.189C126.17 74.509 126.32 74.609 126.74 73.869C127.19 73.069 127.05 72.999 127.41 72.149C127.77 71.299 127.67 71.259 128.03 70.409C128.39 69.559 128.73 69.689 129.02 68.819C129.24 68.149 129.07 68.099 129.21 67.409C129.35 66.719 129.35 66.719 129.49 66.029C129.63 65.339 129.26 65.169 129.82 64.749C130.45 64.279 130.53 64.619 131.32 64.619C132.11 64.619 132.11 64.599 132.9 64.599C133.69 64.599 133.69 64.759 134.47 64.759C135.26 64.759 135.26 64.469 136.04 64.469C136.83 64.469 136.83 64.639 137.61 64.639C138.4 64.639 138.4 64.669 139.18 64.669C139.97 64.669 139.97 64.689 140.76 64.689C141.55 64.689 141.55 64.499 142.34 64.499C143.13 64.499 143.13 64.509 143.92 64.509C144.71 64.509 144.71 64.719 145.5 64.719C146.29 64.719 146.29 64.529 147.08 64.529C147.87 64.529 147.87 64.489 148.66 64.489C149.45 64.489 149.45 64.559 150.24 64.559C151.03 64.559 151.03 64.459 151.82 64.459C152.61 64.459 152.61 64.589 153.4 64.589C154.19 64.589 154.19 64.529 154.98 64.529C155.77 64.529 155.77 64.669 156.56 64.669C157.35 64.669 157.35 64.749 158.14 64.749C158.93 64.749 158.93 64.449 159.72 64.449C160.51 64.449 160.51 64.709 161.3 64.709C162.09 64.709 162.09 64.559 162.88 64.559C163.67 64.559 163.67 64.629 164.46 64.629C165.25 64.629 165.25 64.509 166.04 64.509C166.83 64.509 166.83 64.629 167.62 64.629C168.41 64.629 168.41 64.439 169.2 64.439C169.99 64.439 169.99 64.589 170.78 64.589C171.57 64.589 171.57 64.569 172.36 64.569C173.15 64.569 173.15 64.619 173.94 64.619C174.73 64.619 174.73 64.679 175.53 64.679C176.32 64.679 176.32 64.689 177.12 64.689C177.58 64.689 177.99 64.829 178.29 65.129C178.59 65.429 178.59 65.839 178.59 66.299C178.59 67.089 178.86 67.089 178.86 67.889C178.86 68.679 178.92 68.679 178.92 69.479C178.92 70.269 178.97 70.269 178.97 71.069C178.97 71.859 178.82 71.859 178.82 72.659C178.82 73.449 178.59 73.449 178.59 74.249C178.59 75.039 178.68 75.039 178.68 75.839C178.68 76.629 178.59 76.629 178.59 77.429C178.59 78.219 178.76 78.219 178.76 79.019C178.76 79.809 178.69 79.809 178.69 80.609C178.69 81.399 178.76 81.399 178.76 82.199C178.76 82.989 178.66 82.989 178.66 83.789C178.66 84.579 178.83 84.579 178.83 85.379C178.83 86.169 178.69 86.169 178.69 86.969C178.69 87.759 178.72 87.759 178.72 88.559C178.72 89.349 178.73 89.349 178.73 90.149C178.73 90.939 178.96 90.939 178.96 91.739C178.96 92.529 178.67 92.529 178.67 93.329C178.67 94.119 178.97 94.119 178.97 94.919C178.97 95.709 178.64 95.709 178.64 96.509C178.64 97.309 178.68 97.309 178.68 98.099C178.68 98.889 178.97 98.889 178.97 99.689C178.97 100.479 178.74 100.479 178.74 101.279C178.74 102.069 178.66 102.069 178.66 102.869C178.66 103.659 178.87 103.659 178.87 104.459C178.87 105.259 178.98 105.259 178.98 106.049C178.98 106.839 178.71 106.839 178.71 107.639C178.71 108.429 178.69 108.429 178.69 109.229C178.69 110.019 178.67 110.019 178.67 110.819C178.67 111.609 178.8 111.609 178.8 112.409C178.8 113.199 178.94 113.199 178.94 113.999C178.94 114.789 178.92 114.789 178.92 115.589C178.92 116.389 178.63 116.389 178.63 117.179C178.63 117.969 178.82 117.969 178.82 118.769C178.82 119.559 178.91 119.559 178.91 120.359C178.91 121.149 178.69 121.149 178.69 121.949C178.69 122.749 178.93 122.749 178.93 123.539C178.93 124.339 178.87 124.339 178.87 125.129C178.87 125.919 178.69 125.919 178.69 126.719C178.69 127.519 178.84 127.519 178.84 128.309C178.84 129.109 178.86 129.109 178.86 129.899C178.86 130.699 178.87 130.699 178.87 131.489C178.87 132.289 178.86 132.289 178.86 133.079C178.86 133.879 178.78 133.879 178.78 134.669C178.78 135.469 178.63 135.469 178.63 136.259C178.63 137.049 178.74 137.049 178.74 137.849C178.74 138.639 178.8 138.639 178.8 139.439C178.8 140.239 178.68 140.239 178.68 141.029C178.68 141.829 178.87 141.829 178.87 142.619C178.87 143.419 178.89 143.419 178.89 144.209C178.89 145.009 178.76 145.009 178.76 145.809C178.76 146.609 178.84 146.609 178.84 147.399C178.84 148.199 178.64 148.199 178.64 148.999C178.64 149.799 178.82 149.799 178.82 150.599C178.82 151.399 178.87 151.399 178.87 152.199C178.87 152.659 178.52 152.989 178.21 153.289C177.93 153.539 177.61 153.679 177.15 153.679Z" fill="#C9F0EE"/>
<path d="M23.68 146.579C25.63 145.019 27.58 145.389 29.53 145.269C35.21 145.109 41.43 145.009 47.08 144.989C50.98 145.039 54.88 145.029 58.78 145.149L64.63 145.289C66.58 145.299 68.53 145.379 70.48 146.569C68.53 147.759 66.58 147.839 64.63 147.849L58.78 147.989C54.88 148.109 50.98 148.099 47.08 148.149C41.44 148.129 35.2 148.039 29.53 147.869C27.58 147.769 25.63 148.139 23.68 146.579Z" fill="#171717"/>
<path fill-rule="evenodd" clip-rule="evenodd" d="M140.11 133.489L141.12 134.969L142.21 136.369L143.4 137.719L144.34 139.239L145.53 140.559L146.57 142.019L147.56 143.499L148.67 144.899L149.61 146.429L150.89 147.699L151.87 149.199L153.08 150.529L154.06 151.869L155.48 150.769L157.18 149.849L158.76 148.759L160.14 147.399L161.88 146.529L163.26 145.159L164.93 144.129L163.88 142.689L163.12 141.109L161.99 139.759L161 138.339L160.2 136.779L159.08 135.419L158.19 133.919L157.33 132.399L156.28 130.989L155.36 129.539L153.84 129.919L152.25 130.089L150.68 130.429L149.11 130.919L147.28 129.819L145.26 129.039L144.69 127.719L144 126.479L144.56 124.389L145.49 122.319L143.27 122.049L142 121.429L140.69 120.899L140.15 118.389L140.2 116.749L140.72 115.109L139.54 114.519L137.19 114.659L134.98 114.099L134.34 112.579L134.33 111.149L134.79 109.809L132.4 110.429L129.91 110.449L128.25 109.479L127.67 107.599L128.16 105.959L128.3 104.309L129.34 103.079L130.4 101.849L131.07 100.359L131.86 99.009L131.19 98.259L129.56 99.129L127.74 99.819L126.14 100.919L124.44 101.809L122.84 102.849L121.41 104.019L121.45 105.609L121.76 107.229L122.23 108.639L122.32 109.529L123.34 110.969L124.32 112.419L125.57 113.679L126.41 115.239L127.45 116.649L128.69 117.909L129.56 119.459L130.72 120.769L131.81 122.149L132.86 123.549L133.68 125.119L134.83 126.459L135.95 127.809L136.88 129.309L137.87 130.769L139.07 132.069L140.11 133.489Z" fill="#004654"/>
<path d="M53.96 128.829C51.31 128.719 48.66 128.679 46.01 128.669C42.17 128.649 37.95 128.799 34.09 128.949C32.77 129.059 31.44 128.699 30.12 130.259C31.44 131.819 32.77 131.449 34.09 131.569C37.94 131.719 42.18 131.869 46.01 131.849C48.66 131.839 51.31 131.799 53.96 131.689L57.93 131.549C59.25 131.539 60.58 131.459 61.9 130.269C60.58 129.079 59.25 128.999 57.93 128.989L53.96 128.829Z" fill="#171717"/>
<path d="M53.96 111.349C51.31 111.239 48.66 111.199 46.01 111.189C42.17 111.169 37.95 111.319 34.09 111.469C32.77 111.579 31.44 111.219 30.12 112.779C31.44 114.339 32.77 113.969 34.09 114.089C37.94 114.239 42.18 114.389 46.01 114.369C48.66 114.359 51.31 114.319 53.96 114.209L57.93 114.069C59.25 114.059 60.58 113.979 61.9 112.789C60.58 111.599 59.25 111.519 57.93 111.509L53.96 111.349Z" fill="#171717"/>
<path d="M53.96 93.549C51.31 93.439 48.66 93.399 46.01 93.389C42.17 93.369 37.95 93.519 34.09 93.669C32.77 93.779 31.44 93.419 30.12 94.979C31.44 96.539 32.77 96.169 34.09 96.289C37.94 96.439 42.18 96.589 46.01 96.569C48.66 96.559 51.31 96.519 53.96 96.409L57.93 96.269C59.25 96.259 60.58 96.179 61.9 94.989C60.58 93.799 59.25 93.719 57.93 93.709L53.96 93.549Z" fill="#171717"/>
<path d="M138.91 144.009C135.36 149.419 130.21 153.739 124.4 156.539C123.52 156.959 121.72 157.679 120.79 157.989C119.33 158.449 118.14 158.509 117.18 160.099C119.14 161.749 121.47 160.359 123.56 159.919C129.64 157.989 135.11 154.079 138.85 148.899C139.94 147.269 141.4 145.259 141.97 143.369C142.1 142.649 142.14 141.889 141.86 141.039C140.34 141.709 139.65 142.729 138.91 144.009Z" fill="#171717"/>
<path d="M161.34 117.729C160.21 119.509 160.08 120.719 159.42 122.529C158.31 125.289 154.93 127.119 152.19 128.019C150.46 128.479 148.44 128.799 146.9 128.149C146.3 127.789 146.3 127.249 146.44 126.379C147.31 123.279 150.06 121.059 152.43 118.919C153.78 117.799 155.1 116.699 155.88 114.709C153.74 114.749 152.22 115.799 150.81 116.929C149.8 117.709 148.54 118.709 147.34 119.859C145.74 120.049 144.58 120.919 143.01 120.309C142.81 120.219 142.42 120.029 142.35 119.859C142.2 119.519 142.27 118.449 142.49 117.969C143.39 115.579 145 113.479 146.75 111.539C147.47 110.759 148.26 110.039 149.1 109.379C150.15 108.549 151.01 108.209 151.23 106.539C149.68 105.749 148.74 106.499 147.57 107.259C146.57 107.919 145.62 108.659 144.72 109.469C143.73 110.409 142.55 111.659 141.53 113.069C140.14 113.429 138.78 113.789 137.43 113.869C136.92 113.859 136.64 113.729 136.5 113.569C136.35 113.409 136.25 113.179 136.22 112.959C136.36 112.589 136.73 111.639 136.92 111.199C137.14 110.619 137.42 110.079 137.73 109.559C138.98 108.909 140.17 108.149 141.27 107.359C143.5 105.789 146.04 103.979 147.29 101.449C147.44 101.019 147.5 100.489 147.14 99.919C146.89 99.529 146.49 99.329 146.29 99.259C144.86 98.809 143.32 99.819 142.64 100.399C140.26 102.309 137.69 104.399 135.91 107.039C134.62 107.719 133.23 108.139 131.78 108.439C131.49 108.489 130.6 108.719 130.35 108.649C129.67 108.479 129.49 106.909 129.74 106.179C130.87 103.019 133.71 100.769 135.13 97.549C135.86 97.099 136.54 96.569 137.1 95.879C137.85 94.929 138.28 93.739 138.24 92.549C138.82 92.699 139.32 92.659 139.85 92.619C145.37 92.419 150.68 95.859 152.83 100.939C153.15 101.799 153.43 102.139 154.59 102.629C155.81 101.529 155.39 100.529 154.98 99.319C153.89 96.259 151.79 93.589 148.98 91.899C146.17 90.209 142.84 89.629 139.62 90.059C138.98 90.119 138.31 90.269 137.75 90.699C137.63 90.479 137.49 90.259 137.31 90.039C135.67 88.269 132.56 88.249 129.43 88.869C129.23 88.579 128.98 88.449 128.72 88.349C126.32 87.149 123.85 86.109 121.26 85.399C120.79 85.259 120.31 85.139 119.83 85.009C128.57 77.319 133.5 65.599 132.07 53.369C130.08 34.709 113.19 20.139 94.43 21.049C83.88 21.579 72.32 26.439 67.5 36.349C75.62 29.389 83.51 24.059 94.52 23.799C111.67 23.209 127.17 36.649 128.92 53.729C131.73 79.539 106.54 98.269 82.42 89.059C79.35 87.859 76.37 86.529 73.47 84.879C73.48 82.809 73.48 80.929 73.48 79.549C73.58 78.419 72.61 77.379 71.47 77.419H71.29H70.93C69.77 77.409 68.52 77.409 67.21 77.409C67.22 76.109 66.55 75.239 65.94 74.079C65.48 73.169 64.65 71.269 64.29 70.299C62.17 64.509 61.4 58.259 62.14 52.139C62.37 49.979 63.32 47.899 62.41 45.709C60.23 46.939 60 49.549 59.47 51.709C58.14 58.279 58.85 65.279 61.6 71.399C62.06 72.419 63.08 74.389 63.65 75.349C64.13 76.099 64.54 76.849 65.12 77.409C51.82 77.369 33.11 77.379 21.81 77.429C20.61 77.369 19.56 78.419 19.6 79.609V79.789V80.149C19.6 85.689 19.66 95.229 19.7 100.859C20.04 114.269 19.11 133.439 21.13 146.569C22.33 138.949 22.39 131.329 22.41 123.709C22.51 111.639 22.6 92.529 22.65 80.489C35.66 80.549 57.56 80.539 70.41 80.489C70.41 80.759 70.41 80.989 70.41 80.989C70.47 91.399 70.51 110.389 70.63 120.989C70.73 128.609 70.41 136.229 71.93 143.849C73.45 136.229 73.13 128.609 73.23 120.989L73.37 98.129C73.39 95.039 73.42 89.639 73.44 85.089C75.09 86.929 77.04 88.549 79.2 89.749C86.19 93.969 94.82 94.859 102.76 93.399C106.52 92.669 110.04 91.369 113.25 89.609C113.25 89.629 113.25 89.639 113.24 89.659C113 91.739 113.12 93.819 113.41 95.889C113.41 95.979 113.42 96.069 113.44 96.159C109.29 99.429 106.61 103.579 104.33 109.839C102.78 113.799 101.62 118.029 101.29 122.309C101.15 124.579 101.04 128.209 100.47 130.339C99.33 134.229 96.62 137.349 95.48 141.419C98.64 138.509 101.7 135.249 102.92 130.999C103.62 128.529 103.77 125.069 103.97 122.539C104.35 118.529 105.49 114.659 107.02 110.919C110.47 102.079 114.09 98.119 122.86 94.309C125.92 92.949 129.01 91.939 132.27 91.719C133.17 91.679 134.35 91.579 134.9 92.079C135.53 93.139 134.47 94.349 133.46 94.909C130.26 96.679 125.48 98.529 122.23 100.379C113.2 105.939 130.9 124.569 119.37 140.629C124.6 137.749 126.28 130.989 125.93 125.389C125.63 119.599 123.86 114.199 122.8 108.889C122.46 107.059 122.04 105.359 122.86 103.849C123.84 102.459 125.77 102.079 127.41 101.189C127.41 101.189 130.15 99.919 130.78 99.629C130.3 100.239 129.83 100.859 129.36 101.469C128.54 102.559 127.59 103.729 127.05 105.369C126.32 107.539 127.01 110.889 129.7 111.509C131.14 111.619 132.57 111.429 133.95 111.049C133.71 111.659 133.45 112.289 133.46 113.009C133.76 116.319 137.08 116.949 139.69 116.019C139.71 116.009 139.74 115.999 139.76 115.999C138.97 117.899 138.78 119.869 139.87 121.639C140.96 122.979 142.79 123.359 144.43 123.179C142.99 125.439 142.49 127.929 144.42 130.279C149.65 134.319 160.04 129.059 161.81 123.379C162.45 121.559 163.19 119.209 161.34 117.729ZM121.65 91.459C119.62 92.359 117.84 93.279 116.24 94.269C116.38 92.739 116.4 91.199 116.23 89.659C116.19 89.239 116.14 88.829 116.09 88.409C116.05 88.259 116.06 88.109 116.04 87.969C116.67 87.549 117.29 87.099 117.9 86.639C118.09 87.239 118.51 87.229 118.84 87.439C119.32 87.679 119.81 87.909 120.29 88.129C121.9 88.889 123.57 89.499 125.27 90.019C123.83 90.519 122.57 91.039 121.65 91.459Z" fill="#171717"/>
<path d="M111.59 181.099L110.22 179.959L108.77 178.909L107.32 177.859L105.99 176.649L104.59 175.529L103.22 174.379L101.8 173.289L100.23 172.389L98.83 171.269L97.36 170.239L96.1 168.959L94.85 167.669L93.42 166.579L92.05 165.439L90.6 164.369L89.48 162.939L88.03 161.859L86.83 160.499L85.35 159.459L84.07 158.189L82.76 156.969L81.4 155.789L80.13 154.529L80.19 152.869L81.26 151.399L82.43 150.029L83.84 148.859L84.82 147.319L86.23 146.159L87.36 144.729L88.48 143.309L89.78 143.399L91.38 144.169L93.06 144.779L94.46 145.869L96.04 146.659L97.6 147.469L99.07 148.449L100.62 149.299L102.24 150.029L103.69 151.049L105.24 151.889L106.82 152.659L108.32 153.699L109.89 154.669L111.3 155.859L112.7 157.059L113.96 158.419L115.29 159.699L116.5 161.099L118.03 162.169L119.31 163.489L120.59 164.809L121.44 166.089L121.53 167.669L121.56 169.229L121.49 170.699L121.66 172.209L120.73 173.549L119.78 174.769L118.92 176.079L117.87 177.219L116.37 178.369L114.91 179.549L113.53 180.829L111.59 181.099Z" fill="#8AD0A8"/>
<path fill-rule="evenodd" clip-rule="evenodd" d="M90.83 138.389C88.67 138.279 86.52 138.239 84.36 138.229C81.24 138.209 77.8 138.359 74.65 138.509C73.57 138.619 72.49 138.259 71.41 139.819C72.49 141.379 73.57 141.009 74.65 141.129C77.78 141.279 81.24 141.429 84.36 141.409C86.52 141.399 88.67 141.359 90.83 141.249L94.07 141.109C95.15 141.099 96.23 141.019 97.31 139.829C96.23 138.639 95.15 138.559 94.07 138.549L90.83 138.389Z" fill="#007782"/>
<path fill-rule="evenodd" clip-rule="evenodd" d="M45.06 47.209L52.33 47.039C54.86 46.969 57.27 47.149 59.59 45.709C57.26 44.289 54.85 44.499 52.32 44.439L45.05 44.339C40.2 44.239 35.36 44.279 30.51 44.249H28.63C27.88 44.249 27.03 44.909 27.02 45.899C27.02 45.959 27.02 46.169 27.02 46.229C27.06 50.219 27.06 54.519 27.16 58.499L27.31 65.769C27.34 68.189 27.32 70.619 28.6 73.039C29.88 70.619 29.86 68.189 29.89 65.769L30.04 58.499C30.05 58.229 30.05 57.939 30.06 57.659C30.47 57.679 30.88 57.669 31.3 57.709C34.85 57.859 38.77 58.009 42.31 57.989C44.76 57.979 47.2 57.939 49.65 57.829L53.32 57.689C54.54 57.679 55.77 57.599 56.99 56.409C55.77 55.219 54.54 55.139 53.32 55.129L49.65 54.989C47.2 54.879 44.76 54.839 42.31 54.829C38.77 54.809 34.87 54.959 31.3 55.109C30.9 55.149 30.5 55.139 30.11 55.149C30.14 52.579 30.16 49.949 30.18 47.419C35.14 47.369 40.11 47.339 45.06 47.209Z" fill="#007782"/>
<path fill-rule="evenodd" clip-rule="evenodd" d="M169.62 46.119C169.38 45.649 168.58 45.389 168.29 45.419C165.54 45.419 151 45.579 147.94 45.619C142.49 45.749 137.04 45.389 131.59 46.939C137.04 48.499 142.49 48.129 147.94 48.259C150.46 48.279 162.38 48.429 166.82 48.459C166.81 50.799 166.81 53.149 166.8 55.499C165.89 55.169 164.98 55.129 164.07 55.119L159.79 54.979C156.93 54.869 154.08 54.829 151.22 54.819C147.08 54.799 142.53 54.949 138.37 55.099C136.94 55.209 135.51 54.849 134.09 56.409C135.52 57.969 136.95 57.599 138.37 57.719C142.52 57.869 147.09 58.019 151.22 57.999C154.08 57.989 156.93 57.949 159.79 57.839L164.07 57.699C164.98 57.689 165.89 57.649 166.79 57.319C166.71 74.319 166.7 91.369 166.8 108.319L166.89 124.669C166.93 130.169 166.79 135.619 168.15 141.029C169.53 135.629 169.41 130.179 169.47 124.679L169.63 108.329C169.82 89.299 169.91 70.139 169.87 51.089V46.999C169.89 47.199 169.88 46.389 169.62 46.119ZM166.83 47.019C166.82 46.949 166.83 46.929 166.83 46.989C166.83 46.999 166.83 47.009 166.83 47.019Z" fill="#007782"/>
<path fill-rule="evenodd" clip-rule="evenodd" d="M120.6 59.399C120.6 58.649 120.81 58.649 120.81 57.899C120.81 57.149 120.71 57.149 120.71 56.389C120.71 55.639 120.72 55.639 120.72 54.879C120.72 54.119 120.76 54.129 120.76 53.369C120.76 53.059 120.65 52.699 120.37 52.559C119.55 52.139 119.56 52.119 118.74 51.699C117.92 51.279 117.97 51.189 117.15 50.759C116.33 50.339 116.15 50.679 115.33 50.249C114.96 50.059 114.77 49.409 114.91 49.009C115.19 48.199 115.19 48.199 115.47 47.389C115.75 46.579 115.88 46.629 116.16 45.819C116.44 45.009 116.38 44.989 116.66 44.179C116.77 43.869 116.65 43.639 116.42 43.409C115.89 42.879 115.88 42.889 115.35 42.359C114.82 41.829 114.84 41.809 114.31 41.279C113.78 40.749 113.9 40.619 113.37 40.089C112.84 39.559 112.89 39.509 112.36 38.969C111.83 38.439 111.67 38.589 111.14 38.049C110.61 37.519 110.55 37.569 110.02 37.039C109.8 36.819 109.59 36.629 109.29 36.719C108.42 36.969 108.46 37.089 107.59 37.339C106.72 37.589 106.73 37.639 105.86 37.889C104.99 38.139 104.89 37.799 104.02 38.059C103.64 38.169 103.2 38.239 103.01 37.899C102.55 37.089 102.68 37.019 102.22 36.219C101.76 35.409 101.59 35.509 101.13 34.699C100.67 33.889 100.76 33.839 100.3 33.039C100.15 32.779 99.93 32.479 99.62 32.479C98.74 32.479 98.74 32.599 97.87 32.599C97 32.599 97 32.769 96.12 32.769C95.24 32.769 95.24 32.619 94.37 32.619C93.49 32.619 93.49 32.709 92.61 32.709C91.73 32.709 91.73 32.679 90.85 32.679C90.55 32.679 90.2 32.709 90.05 32.969C89.62 33.729 89.58 33.709 89.15 34.469C88.72 35.229 88.78 35.269 88.35 36.029C87.92 36.789 87.82 36.739 87.39 37.499C87.18 37.869 86.92 37.949 86.52 37.779C85.81 37.479 85.8 37.499 85.09 37.199C84.38 36.899 84.37 36.929 83.66 36.629C82.95 36.329 82.91 36.419 82.2 36.119C81.89 35.989 81.56 36.089 81.31 36.329C80.71 36.899 80.59 36.769 79.99 37.339C79.39 37.909 79.61 38.139 79.01 38.719C78.41 39.289 78.24 39.119 77.65 39.689C77.05 40.259 77.23 40.449 76.63 41.019C76.03 41.599 75.86 41.419 75.26 41.989C74.66 42.569 74.62 42.529 74.02 43.099C73.76 43.349 73.9 43.759 74.05 44.079C74.37 44.789 74.37 44.789 74.69 45.499C75.01 46.209 74.93 46.239 75.25 46.949C75.57 47.659 75.42 47.719 75.74 48.429C75.91 48.809 75.93 49.319 75.58 49.539C74.91 49.969 74.87 49.899 74.2 50.329C73.53 50.759 73.42 50.589 72.75 51.019C72.08 51.449 72.26 51.729 71.59 52.159C70.92 52.589 70.83 52.459 70.16 52.889C69.92 53.049 69.68 53.319 69.68 53.609C69.68 54.469 69.84 54.469 69.84 55.339C69.84 56.199 69.83 56.199 69.83 57.069C69.83 57.939 69.7 57.939 69.7 58.799C69.7 59.669 69.76 59.669 69.76 60.529C69.76 61.389 69.9 61.399 69.9 62.259C69.9 62.589 70.02 62.789 70.31 62.929C71.04 63.269 70.94 63.479 71.67 63.819C72.4 64.159 72.49 63.959 73.22 64.299C73.95 64.639 73.87 64.809 74.6 65.149C75.33 65.489 75.32 65.519 76.05 65.859C76.48 66.059 76.87 66.539 76.65 66.969C76.33 67.589 76.18 67.519 75.87 68.139C75.55 68.759 75.44 68.709 75.13 69.329C74.81 69.959 74.96 70.029 74.64 70.659C74.32 71.289 74.46 71.349 74.14 71.979C73.97 72.309 73.81 72.679 74.08 72.929C74.64 73.459 74.68 73.419 75.23 73.949C75.78 74.479 75.89 74.369 76.45 74.899C77.01 75.429 76.99 75.459 77.54 75.989C78.1 76.529 78.07 76.559 78.62 77.089C79.18 77.629 79.17 77.629 79.73 78.169C80.29 78.709 80.11 78.889 80.67 79.429C80.9 79.649 81.43 79.739 81.73 79.629C82.51 79.349 82.41 79.079 83.19 78.799C83.97 78.519 83.98 78.559 84.76 78.269C85.54 77.979 85.54 77.999 86.32 77.719C86.72 77.569 87.15 77.809 87.34 78.189C87.76 78.999 87.96 78.889 88.39 79.699C88.81 80.509 88.48 80.679 88.91 81.489C89.33 82.299 89.51 82.209 89.93 83.009C90.08 83.289 90.35 83.669 90.66 83.669C91.42 83.669 91.42 83.559 92.18 83.559C92.94 83.559 92.94 83.399 93.7 83.399C94.46 83.399 94.46 83.459 95.22 83.459C95.98 83.459 95.98 83.459 96.74 83.459C97.5 83.459 97.5 83.569 98.26 83.569C99.02 83.569 99.02 83.419 99.78 83.419C100.09 83.419 100.37 83.309 100.52 83.039C100.9 82.359 100.77 82.289 101.15 81.609C101.53 80.929 101.77 81.059 102.14 80.369C102.52 79.689 102.43 79.639 102.81 78.949C103.19 78.259 103.26 78.299 103.64 77.619C103.84 77.259 104.23 76.859 104.62 76.999C105.38 77.269 105.34 77.389 106.1 77.659C106.86 77.929 106.79 78.139 107.55 78.409C108.31 78.679 108.36 78.549 109.12 78.819C109.43 78.929 109.7 78.729 109.93 78.489C110.47 77.919 110.71 78.139 111.25 77.569C111.8 76.999 111.74 76.949 112.29 76.379C112.83 75.809 112.8 75.779 113.35 75.209C113.9 74.639 113.81 74.549 114.35 73.979C114.9 73.409 114.9 73.409 115.45 72.839C116 72.269 116 72.269 116.55 71.699C116.78 71.449 117 71.049 116.86 70.739C116.58 70.099 116.39 70.179 116.11 69.539C115.83 68.899 115.79 68.909 115.51 68.269C115.23 67.629 115.2 67.639 114.91 66.999C114.74 66.599 115.08 66.199 115.46 65.989C116.07 65.649 116.03 65.569 116.64 65.239C117.25 64.899 117.25 64.899 117.86 64.559C118.47 64.219 118.55 64.349 119.16 64.019C119.77 63.679 119.71 63.559 120.32 63.219C120.59 63.069 120.81 62.749 120.81 62.439C120.81 61.689 120.69 61.689 120.69 60.939C120.74 60.149 120.6 60.149 120.6 59.399ZM104.52 59.659C104.43 60.199 104.12 60.679 103.94 61.179C103.75 61.689 103.5 62.149 103.23 62.609C102.96 63.079 102.72 63.549 102.37 63.969C102.02 64.379 101.58 64.679 101.16 65.029C100.75 65.379 100.32 65.659 99.85 65.929C99.39 66.199 98.93 66.439 98.42 66.629C97.92 66.809 97.43 66.979 96.89 67.079C96.37 67.169 95.85 67.249 95.3 67.249C94.75 67.249 94.23 67.189 93.7 67.099C93.16 67.009 92.69 66.769 92.19 66.589C91.68 66.399 91.03 66.519 90.56 66.249C90.09 65.979 89.68 65.579 89.27 65.229C88.86 64.879 88.46 64.489 88.11 64.079C87.76 63.669 87.56 63.139 87.29 62.669C87.02 62.209 86.73 61.739 86.54 61.229C86.36 60.729 86.14 60.209 86.04 59.669C85.95 59.149 85.89 58.589 85.89 58.039C85.89 57.489 85.97 56.929 86.06 56.409C86.15 55.869 86.47 55.389 86.65 54.889C86.84 54.379 87.12 53.939 87.39 53.469C87.66 52.999 87.79 52.439 88.14 52.029C88.49 51.619 88.83 51.169 89.24 50.819C89.65 50.469 90.19 50.279 90.66 50.009C91.12 49.739 91.57 49.399 92.08 49.209C92.58 49.029 93.12 48.839 93.66 48.739C94.18 48.649 94.75 48.959 95.3 48.959C95.85 48.959 96.41 48.709 96.93 48.799C97.47 48.889 97.96 49.169 98.46 49.349C98.97 49.539 99.55 49.589 100.02 49.859C100.49 50.129 100.89 50.529 101.3 50.879C101.71 51.229 101.98 51.719 102.33 52.139C102.68 52.549 103.08 52.919 103.35 53.389C103.62 53.849 104.01 54.289 104.19 54.799C104.37 55.299 104.37 55.879 104.47 56.419C104.56 56.939 104.7 57.489 104.7 58.039C104.7 58.589 104.61 59.129 104.52 59.659Z" fill="#007782"/>
</g>
<defs>
<clipPath id="clip0_58_2246">
<rect width="200" height="200" fill="white" transform="translate(0 0.458984)"/>
</clipPath>
</defs>
</svg>
