<svg width="200" height="201" viewBox="0 0 200 201" fill="none" xmlns="http://www.w3.org/2000/svg">
<path fill-rule="evenodd" clip-rule="evenodd" d="M111.72 78.839L109.95 78.929L108.18 78.749L106.41 78.859L104.63 78.579L102.86 78.769L101.08 78.619L99.31 78.629L97.53 78.699L95.76 78.909L93.99 78.839L92.21 78.909L90.44 78.929L88.66 78.749L86.88 78.939L85.11 78.609L83.33 78.939L81.55 78.629L79.77 78.709L79.03 77.999L79.19 76.219L79.1 74.439L79.07 72.659L78.93 70.879L79.16 69.089L79.06 67.309L78.88 65.519L78.81 63.739L79 61.949L79.19 60.169L79.12 58.379L78.88 56.589L78.96 54.809L79.03 53.019L79.06 51.229L78.96 49.439L79.15 47.659L78.93 45.869L78.97 44.079L79.19 42.289L79.11 40.509L79.12 38.719L78.92 36.929L79.12 35.139L79 33.349L79.15 31.559L78.84 29.759L79.05 27.969L79.77 27.259L81.54 27.169L83.31 27.319L85.08 27.059L86.86 27.359L88.63 27.029L90.41 27.019L92.18 27.319L93.96 27.309L95.73 27.279L97.5 27.219L99.28 27.329L101.05 27.159L102.83 27.059L104.6 27.239L106.38 27.269L108.16 27.079L109.94 27.189L111.72 27.139L112.32 27.969L112.36 29.749L112.54 31.529L112.31 33.309L112.3 35.089L112.33 36.879L112.59 38.659L112.6 40.449L112.41 42.229L112.37 44.019L112.63 45.799L112.5 47.589L112.49 49.369L112.44 51.159L112.54 52.949L112.68 54.739L112.48 56.519L112.57 58.309L112.68 60.099L112.61 61.889L112.36 63.669L112.6 65.459L112.32 67.249L112.65 69.039L112.66 70.829L112.38 72.619L112.46 74.409L112.34 76.209L112.39 77.999L111.72 78.839Z" fill="#C9F0EE"/>
<path fill-rule="evenodd" clip-rule="evenodd" d="M95.34 158.739L93.59 158.829L91.84 158.649L90.08 158.749L88.33 158.469L86.57 158.659L84.82 158.499L83.06 158.509L81.31 158.579L79.56 158.789L77.8 158.709L76.05 158.779L74.29 158.789L72.53 158.609L70.78 158.789L69.02 158.459L67.26 158.789L65.49 158.479L64.6 157.659L64.57 155.849L64.73 154.039L64.63 152.229L64.61 150.419L64.46 148.609L64.69 146.799L64.6 144.989L64.41 143.169L64.35 141.359L64.53 139.549L64.72 137.739L64.66 135.919L64.41 134.109L64.49 132.299L64.56 130.479L64.6 128.669L64.5 126.849L64.69 125.039L64.46 123.229L64.5 121.409L64.72 119.599L64.65 117.779L64.66 115.969L64.45 114.149L64.65 112.329L64.53 110.509L65.49 109.699L67.31 109.389L69.13 109.599L70.94 109.609L72.76 109.519L74.58 109.659L76.4 109.399L78.21 109.709L80.04 109.369H81.85L83.67 109.659L85.49 109.649L87.31 109.629L89.14 109.569L90.95 109.669L92.77 109.509L94.59 109.399L96.41 109.579L98.24 109.619L100.06 109.419L101.88 109.529L103.71 109.479L105.45 109.699L106.68 111.339L106.02 112.979L104.87 114.559L103.99 116.299L103.25 118.099L102.86 120.019L102.4 121.849L102.88 123.569L103.52 125.259L104.4 126.779L106.01 127.639L107.72 128.429L109.42 129.259L111.03 129.569L112.64 129.829L114.18 130.429L115.82 130.769L116.65 132.319L117.29 133.919L117.78 135.589L118.7 137.069L119.16 138.749L120.19 140.249L119.66 141.839L118.88 143.269L118.43 144.819L117.81 146.279L116.4 147.749L115.07 149.329L113.55 150.739L111.85 151.359L110.2 152.089L108.52 152.729L106.89 153.519L105.25 154.259L103.52 154.849L101.95 155.759L100.21 156.319L98.55 157.029L96.99 157.949L95.34 158.739Z" fill="#C9F0EE"/>
<path d="M144.87 78.179L144.69 77.689L144.13 76.149L144.12 76.129L144.11 76.109C144.11 76.109 143.48 74.769 143.46 74.739C143.45 74.709 142.94 73.369 142.94 73.369L142.89 73.249L142.79 73.169L141.49 72.089L141.44 72.049L141.38 72.019L139.87 71.299L138.58 70.249L138.54 70.219L138.49 70.199C138.49 70.199 137.01 69.449 136.97 69.419C136.79 69.299 135.45 68.379 135.63 68.509L134.28 67.439L134.24 67.409L134.2 67.389C133.44 66.989 131.88 66.169 131.16 65.709C130.11 65.249 129.05 64.829 127.98 64.419C127.86 64.149 127.42 63.159 127.3 62.889C127.37 62.709 127.45 62.519 127.55 62.259C128.89 62.339 131.64 62.529 132.6 62.719L134.42 62.889H134.45H134.48L136.24 62.829C136.33 62.849 137.98 63.119 137.98 63.119C138 63.129 138.04 63.129 138.06 63.129C138.57 63.129 140.14 63.149 140.61 63.139C139.77 61.569 138.86 59.599 138.13 57.969L137.84 57.939L136 57.779C134.24 57.869 131.93 57.999 130.41 58.019L128.55 57.829H128.52H128.49C127.56 57.839 125.68 57.819 124.75 57.759H124.71C124.71 57.759 122.91 57.969 122.87 57.979C122.82 57.979 121.04 58.029 121.04 58.029C120.43 57.939 118.2 57.779 117.33 57.779C115.44 57.879 113.07 57.909 111.19 57.839C111.39 61.559 111.38 65.279 111.12 69.009L111.13 69.049C111.13 69.049 111.32 70.629 111.34 70.749C111.32 70.869 111.12 72.449 111.12 72.449L111.11 72.519L111.12 72.589C111.12 72.589 111.37 74.179 111.39 74.289C111.37 74.559 111.26 75.999 111.26 76.019C111.26 76.029 111.27 76.829 111.27 77.359L110 77.409L108.27 77.159H108.24H108.21L106.43 77.149H106.39L106.35 77.159L104.65 77.419C104.51 77.399 102.94 77.159 102.94 77.159L102.87 77.149L102.8 77.159C102.8 77.159 101.07 77.359 101.04 77.369C100.88 77.369 99.45 77.359 99.34 77.359C98.45 77.269 96.64 77.179 95.75 77.189L93.98 77.249L92.22 77.189H92.19H92.16L90.41 77.369H86.91C86.86 77.359 85.16 77.179 85.16 77.179C85.15 77.179 85.12 77.179 85.11 77.179L83.33 77.169H83.3H83.27L81.53 77.359L80.24 77.319C80.19 76.099 80.12 74.899 80.15 73.689C80.16 73.339 80.22 72.119 80.23 71.789L79.7 71.799C79.77 71.809 77.73 71.839 77.7 71.849L76.13 71.689C76.1 71.149 76.06 70.329 76.07 70.519C76.18 68.229 76.31 65.839 75.95 63.559C75.96 63.469 76.09 61.879 76.09 61.879C76.05 60.579 76.02 59.279 76.02 57.979C75.64 57.949 74.15 57.839 73.74 57.809C70.86 57.949 67.43 57.979 64.76 58.019L62.95 57.819L62.9 57.809L62.85 57.819L61.04 58.009C60.24 57.979 58.26 57.999 57.55 58.019L55.74 57.759C55.7 57.749 55.64 57.749 55.61 57.759L53.8 57.999C53.03 57.979 51.27 57.869 50.2 57.839C50.2 57.839 48.47 58.029 48.42 58.029C44.95 57.839 41.09 57.959 37.6 57.979C36.7 58.029 34.91 58.009 34 57.969H33.97H33.95C33.95 57.969 32.21 58.269 32.17 58.279C32.11 58.269 30.39 58.119 30.39 58.119C28.59 58.319 26.76 58.339 24.97 58.499C24.96 58.509 24.03 59.289 24.02 59.299C24.02 59.309 23.81 61.129 23.8 61.139V61.149V61.159C23.8 61.139 24.04 63.069 24.04 62.979C24.05 62.959 23.97 64.879 23.98 64.789L23.7 66.609C23.72 67.839 23.78 69.079 23.86 70.299L23.9 72.109L23.81 73.929C23.82 73.809 23.57 75.749 23.57 75.719C23.6 76.959 23.66 78.199 23.73 79.439C23.56 81.689 23.81 84.389 23.47 86.709V86.739C23.47 86.739 23.54 88.499 23.54 88.539C23.54 88.569 23.46 90.349 23.46 90.349V90.369V90.389C23.46 90.389 23.55 92.149 23.56 92.189C23.56 92.229 23.5 93.999 23.5 93.999V94.029V94.069C23.5 94.069 23.67 95.709 23.68 95.829C23.66 95.939 23.41 97.589 23.41 97.589L23.4 97.629V97.669C23.45 99.509 23.46 101.329 23.42 103.169C23.62 104.919 23.55 106.769 23.48 108.569C23.42 109.489 23.38 111.309 23.42 112.239V112.259V112.279C23.42 112.279 23.57 113.979 23.58 114.059C23.57 114.149 23.42 115.839 23.42 115.839V115.859V115.889C23.42 118.599 23.5 122.259 23.52 125.009V125.289C23.7 125.399 24.02 125.579 24.2 125.689L24.31 125.699L26 125.849H26.05H26.1C26.1 125.849 27.68 125.699 27.75 125.689C27.91 125.689 29.4 125.739 29.42 125.739C29.43 125.739 31.14 125.629 31.38 125.619C31.45 125.629 33.32 125.819 33.32 125.819H33.34H33.36C34.72 125.819 36.09 125.859 37.45 125.879L39.44 125.669C39.5 125.669 44.47 125.719 44.52 125.719L46.24 125.939L46.29 125.949H46.34C46.34 125.949 47.94 125.809 48.04 125.809C48.14 125.819 49.73 126.019 49.73 126.019C49.73 126.019 49.77 126.029 49.77 126.019C51.37 125.959 53.65 125.919 54.95 125.879L56.69 126.099L56.75 126.109L56.81 126.099C56.81 126.099 58.4 125.929 58.5 125.909C58.6 125.919 60.23 126.089 60.23 126.089L60.82 126.149L60.78 125.559C60.59 123.879 60.73 121.669 60.68 120.159L60.89 118.349C60.89 118.339 60.89 118.309 60.89 118.299C60.89 117.079 60.91 115.859 60.95 114.639L60.82 112.869C60.84 112.669 60.97 111.099 60.97 111.079C60.97 111.069 60.99 109.269 60.98 109.259V109.229V109.199C60.99 109.269 60.83 107.679 60.8 107.459C60.8 107.409 60.96 105.679 60.96 105.679V105.649V105.619C60.96 105.619 60.88 103.879 60.88 103.839L60.97 102.059V102.029V101.999C60.97 102.049 60.86 100.449 60.85 100.249C60.85 100.229 60.97 98.459 60.97 98.459V98.429V98.399L60.92 97.059C61.45 97.059 62.2 97.059 62.24 97.059C62.29 97.069 64.02 97.239 64.02 97.239H64.06H64.1C65.82 97.109 67.91 97.169 69.46 97.009L76.65 97.129C77.55 97.069 79.3 96.979 80.22 96.989C80.29 96.999 81.98 97.229 81.98 97.229L82.03 97.239H82.08L83.85 97.119L85.62 97.209H85.66H85.7C85.64 97.209 87.72 96.999 87.43 97.009C93.35 97.099 99.29 97.019 105.21 97.129C105.22 97.129 105.24 97.129 105.25 97.129C105.25 97.129 106.95 97.049 107 97.049C107.05 97.049 108.77 97.149 108.77 97.149C108.78 97.139 110.58 97.149 110.58 97.139C110.6 97.139 112.16 97.019 112.34 97.009C112.41 97.009 114.08 97.129 114.08 97.129C114.09 97.129 114.11 97.129 114.13 97.129C114.13 97.129 115.84 97.089 115.88 97.089C116.03 97.099 117.65 97.229 117.65 97.229H117.68L119.57 97.169L120.59 97.139L119.94 96.349L118.75 94.899C118.71 94.819 117.92 93.339 117.92 93.339L117.9 93.299L117.88 93.269L116.78 91.829C116.38 91.129 115.69 89.909 115.11 88.979C115.4 88.099 115.68 87.209 116.02 86.349C116.32 85.459 116.73 84.609 117.11 83.749C117.92 83.399 119.24 82.749 119.96 82.379L121.53 81.889L121.57 81.879L121.61 81.859L122.81 81.269C123.15 81.539 124.01 82.209 124.01 82.209C124.03 82.219 124.05 82.239 124.07 82.249L125.66 83.159L127.1 84.299L127.32 84.469C128.58 84.009 129.84 83.539 131.08 83.049L132.82 83.329L132.86 83.339H132.9C132.9 83.339 134.7 83.329 134.74 83.329C136.15 83.449 137.57 83.529 138.99 83.569C138.99 83.219 139.14 81.899 139.13 81.519C139.13 81.509 139.12 80.829 139.11 80.389C139.53 80.259 140.27 80.019 140.27 80.019L140.31 80.009L140.35 79.989L142.26 78.979C142.35 78.949 144.41 78.319 144.41 78.319L144.87 78.179Z" fill="#8AD0A8"/>
<path d="M121.67 99.119L122.04 99.799L122.17 100.539L122.24 101.279L122.11 102.059L122.1 102.829L122.35 103.559L122.52 104.289L123.14 104.609L123.52 105.209L123.94 105.749L124.22 106.369L124.3 107.049L124.02 107.739L124.07 108.419L124.54 109.069L124.51 109.759L124.71 110.429L124.56 111.129L124.81 111.799L124.88 112.479L124.57 113.199L124.61 113.879L125.16 114.069L125.91 114.339L126.61 114.249L127.31 114.229L128 114.039L128.71 114.129L129.42 114.139L130.11 113.999L130.74 113.519L131.45 113.459L132.06 113.539L132.7 113.559L133.26 113.869L133.81 114.179L134.28 114.639L134.94 115.009L135.31 115.649L135.07 116.429L135.11 117.089L135.59 117.799L135.39 118.579L134.6 118.789L134.29 119.499L133.76 119.959L133.21 120.399L132.83 121.019L132.15 121.319L131.69 121.859L130.98 122.129L130.56 122.729L129.98 123.149L129.58 123.759L129.63 124.329L129.71 124.959L130.18 125.349L130.67 125.919L131.26 126.339L131.8 126.839L132.6 126.989L132.91 127.799L133.5 128.229L134.27 128.419L134.87 128.839L135.32 129.459L136.11 129.629L136.55 130.259L137.23 130.579L137.8 131.049L138.22 131.719L138.9 132.009L139.29 131.429L139.73 130.849L140.09 130.229L140.25 129.489L140.86 128.999L140.82 128.139L141.5 127.689L141.83 127.039L142.08 126.349L142.27 125.619L142.86 125.109L143.03 124.379L143.44 123.769L143.67 123.059L144.33 122.589L144.39 121.789L144.91 121.249L145.52 120.749L145.71 120.019L146.07 119.379L146.46 118.759L147.02 118.319L147.44 117.739L147.7 117.049L148.1 116.469L148.6 115.949L149.09 115.399L149.03 114.579L149.49 114.019L150 113.459L149.84 112.639L150.5 112.109L150.37 111.329L150.75 110.699L150.73 109.959L150.74 109.249L151.12 108.589L150.95 107.849L151.13 107.159L151.33 106.449L151.43 105.739L151.2 105.029L151.09 104.319L151.02 103.619L151.14 102.879L150.88 102.199L150.92 101.439L150.53 100.809L150.08 100.229L149.9 99.529L149.61 98.859L149.22 98.199L148.54 97.789L147.77 97.509L147.31 96.839L146.71 96.339L145.97 96.009L145.72 95.279L145.15 94.859L144.61 94.419L144.04 93.999L143.57 93.439L143.36 92.729L143.5 92.009L143.48 91.729L143.41 91.009L143.36 90.309L143.68 89.539L143.27 88.879L143.36 88.099L142.83 87.519L142.59 86.839L142.24 86.219L142.12 85.439L141.53 84.959L140.84 84.599L140.62 83.819L139.88 83.579L139.53 82.849L138.69 82.819L138.21 82.209L137.6 81.809L136.89 81.629L136.21 81.349L135.45 81.489L134.8 80.949L134.06 80.989L133.33 80.969L132.61 81.139L131.92 81.359L131.19 81.409L130.47 81.529L129.73 81.659L129.89 82.039L129.15 81.849L128.5 81.869L127.84 81.739L127.11 81.629L126.59 80.999L126 80.439L125.33 80.089L124.59 80.029L123.86 80.049L123.15 80.079L122.47 79.539L121.75 79.749L121.01 79.619L120.35 80.009L119.64 80.099L118.89 80.119L118.33 80.659L117.77 81.099L117.2 81.509L116.63 81.899L116.02 82.269L115.3 82.569L115.02 83.279L114.52 83.789L114.29 84.489L113.88 85.079L113.52 85.709L113.6 86.479L113.25 87.119L113.31 87.849L112.81 88.519L113.28 89.249L112.96 89.979L113.4 90.699L113.23 91.569L113.8 92.249L114.04 92.949L114.37 93.579L114.92 94.019L115.6 94.279L116.17 94.709L116.78 95.069L117.15 95.759L117.79 96.079L118.24 96.649L118.87 96.999L119.58 97.229L119.93 97.949L120.68 98.139L121.04 98.809L121.67 99.119Z" fill="#004654"/>
<path d="M84.89 147.429C80.8 147.479 76.71 147.469 72.61 147.589L66.47 147.729C64.42 147.739 62.38 147.819 60.33 149.009C62.38 150.199 64.42 150.279 66.47 150.289L72.61 150.429C76.7 150.549 80.79 150.539 84.89 150.589C90.82 150.569 97.34 150.479 103.3 150.309C105.35 150.199 107.39 150.559 109.44 148.999C107.39 147.439 105.35 147.809 103.3 147.689C97.35 147.539 90.8 147.439 84.89 147.429Z" fill="#007782"/>
<path d="M121 43.299C120.54 43.239 120.08 43.189 119.63 43.159C117.36 42.929 115.09 43.039 112.83 43.329C112.78 38.509 112.79 33.689 112.67 28.879L112.53 21.449C112.52 18.969 112.44 16.499 111.25 14.019C110.06 16.499 109.98 18.969 109.97 21.449L109.83 28.879C109.71 33.829 109.72 38.789 109.67 43.739C109.69 50.909 109.78 58.809 109.95 66.029C110.06 68.509 109.7 70.979 111.26 73.459C112.82 70.979 112.45 68.509 112.57 66.029C112.66 62.099 112.73 57.949 112.78 53.819C114.75 54.139 116.76 54.159 118.73 53.799C119.08 53.679 119.43 54.039 119.78 52.489C119.43 50.929 119.08 51.299 118.73 51.179C116.77 50.829 114.77 50.849 112.81 51.159C112.83 49.389 112.84 47.639 112.85 45.919C115.11 46.199 117.39 46.319 119.66 46.089C120.12 46.049 120.58 45.999 121.03 45.949C121.49 45.829 121.95 46.189 122.4 44.639C121.92 43.059 121.46 43.419 121 43.299Z" fill="#007782"/>
<path d="M73.33 70.989C73.39 71.879 73.04 72.789 74.04 73.439C74.69 73.679 74.79 73.659 74.79 73.639H75.04H75.54C75.81 73.629 92.46 73.529 93.46 73.509C98.77 73.489 104.08 73.509 109.39 72.229C104.08 70.949 98.77 70.959 93.46 70.949C92.02 70.969 80.1 70.819 76.2 70.809C76.22 69.419 76.25 67.499 76.25 67.049C76.35 53.589 76.37 37.939 76.31 23.679C76.77 23.699 77.23 23.689 77.7 23.729C81.58 23.879 85.86 24.029 89.73 24.009C92.4 23.999 95.07 23.959 97.75 23.849L101.76 23.709C103.1 23.699 104.43 23.619 105.77 22.429C104.43 21.239 103.1 21.159 101.76 21.149L97.75 21.009C95.08 20.899 92.41 20.859 89.73 20.849C85.86 20.829 81.6 20.979 77.7 21.129C77.23 21.169 76.77 21.149 76.3 21.179C76.29 19.249 76.28 17.359 76.26 15.499C76.78 15.489 77.29 15.489 77.53 15.489L93.46 15.339C98.77 15.309 104.08 15.319 109.39 14.049C104.08 12.779 98.77 12.789 93.46 12.759C92.53 12.739 75.75 12.599 75.54 12.589H75.04H74.92C74.2 12.529 73.56 13.049 73.38 13.649C73.3 13.849 73.31 14.209 73.31 14.119V14.179V14.299L73.3 15.299L73.27 19.279C73.19 33.869 73.19 52.459 73.31 67.049L73.33 70.989ZM74.87 70.789C74.83 70.789 74.79 70.789 74.79 70.789C74.81 70.839 74.69 70.759 74.87 70.789Z" fill="#007782"/>
<path d="M59.41 94.449C58.55 94.349 57.72 95.159 57.77 96.009C57.75 96.259 57.76 96.809 57.74 97.059L57.71 99.649C57.64 104.659 57.66 110.199 57.79 115.179C57.79 115.179 57.82 116.319 57.85 117.429C51.51 116.269 45.17 116.549 38.82 116.449C34.06 116.419 25.39 116.359 20.7 116.319C20.51 116.319 20.23 116.319 19.94 116.309C20.2 97.969 20.1 74.479 20.06 54.419C21.21 54.659 22.37 54.699 23.52 54.699L29.65 54.839C33.74 54.959 37.83 54.949 41.91 54.999C47.83 54.979 54.35 54.889 60.31 54.719C62.35 54.609 64.4 54.969 66.44 53.409C64.4 51.849 62.35 52.219 60.31 52.099C54.37 51.939 47.82 51.839 41.91 51.819C37.82 51.869 33.73 51.859 29.65 51.979L23.52 52.119C22.36 52.129 21.21 52.159 20.05 52.399C20.05 50.729 20.04 49.069 20.04 47.459C20.04 47.389 20.04 47.259 20.04 47.099C22.37 47.079 29.68 47.029 29.68 47.029C41.83 46.699 59.19 47.599 71.09 45.609C64.19 44.419 57.29 44.349 50.39 44.329C43.02 44.309 25.49 44.099 18.36 44.139C17.61 44.209 16.99 45.109 17.03 45.759V45.839V46.159V47.449C16.91 65.209 17.01 99.529 17.05 117.629C16.98 118.109 17.43 118.959 18.14 119.119C18.92 119.229 18.38 119.149 18.56 119.169H18.6H18.76C19.93 119.159 22.1 119.149 23.29 119.139C26.62 119.119 35.36 119.059 38.82 119.029C45.17 118.919 51.52 119.199 57.86 118.039C57.89 119.169 57.92 120.329 57.92 120.329C58.03 122.059 57.67 123.779 59.23 125.509C60.78 123.779 60.43 122.059 60.54 120.329L60.68 115.149C60.77 111.929 60.8 108.569 60.8 105.219C61.76 105.459 62.72 105.499 63.68 105.499L68.78 105.639C72.18 105.749 75.59 105.789 78.99 105.799C83.92 105.819 89.35 105.669 94.3 105.519C96 105.409 97.7 105.769 99.4 104.209C97.7 102.649 96 103.019 94.3 102.899C89.36 102.749 83.91 102.599 78.99 102.619C75.59 102.629 72.18 102.669 68.78 102.779L63.68 102.919C62.72 102.929 61.75 102.959 60.79 103.199C60.78 101.219 60.76 99.239 60.73 97.319C67.42 97.279 84.86 97.169 91.76 97.129C98.66 97.119 105.57 96.929 112.47 95.859C105.57 94.799 98.66 94.599 91.76 94.589C84.21 94.599 66.79 94.489 59.41 94.449Z" fill="#007782"/>
<path d="M53.31 80.389C53.31 80.229 53.28 80.059 53.3 79.919C53.33 79.599 53.25 79.299 53.2 79.019C53.19 78.949 53.15 78.859 53.12 78.809C53.01 78.659 52.99 78.479 53.02 78.339C53.07 78.069 52.99 77.809 52.91 77.539C52.86 77.389 52.8 77.259 52.74 77.109L52.73 77.099L52.7 77.049L52.71 76.979C52.66 76.769 52.62 76.549 52.55 76.339C52.45 76.029 52.32 75.729 52.18 75.429C52.11 75.269 52.04 75.139 51.91 75.129C51.85 75.119 51.81 75.019 51.81 74.949C51.82 74.829 51.79 74.709 51.74 74.589C51.68 74.469 51.6 74.359 51.49 74.249C51.42 74.179 51.36 74.059 51.29 73.959C51.23 73.879 51.16 73.749 51.1 73.719C50.9 73.619 50.79 73.489 50.71 73.279C50.7 73.239 50.61 73.179 50.56 73.139C50.41 73.039 50.25 72.949 50.13 72.789C50.11 72.759 50.01 72.719 49.97 72.719C49.87 72.719 49.79 72.679 49.69 72.589C49.53 72.449 49.36 72.319 49.18 72.199L49.09 72.149C48.89 71.959 48.7 71.949 48.51 71.989C48.46 71.999 48.34 71.979 48.42 71.919C48.43 71.909 48.41 71.879 48.39 71.869C48.2 71.789 48.01 71.699 47.8 71.739C47.6 71.779 47.37 71.769 47.12 71.729C46.89 71.689 46.64 71.729 46.45 71.619C46.23 71.619 46 71.609 45.79 71.649C45.47 71.709 45.13 71.729 44.85 71.879C44.83 71.889 44.77 71.879 44.74 71.869C44.68 71.849 44.61 71.869 44.59 71.909C44.54 71.989 44.48 72.039 44.33 72.069C44.26 72.079 44.17 72.109 44.13 72.149C43.94 72.309 43.73 72.319 43.53 72.359C43.49 72.419 43.46 72.489 43.33 72.489C43.15 72.479 43.15 72.489 43.02 72.629C43 72.649 42.99 72.669 42.98 72.689C42.96 72.679 42.93 72.669 42.89 72.669C42.83 72.689 42.73 72.739 42.63 72.819C42.41 73.009 42.3 73.149 42.2 73.289C42.14 73.369 42.1 73.429 42.05 73.499C42 73.569 41.96 73.639 41.92 73.719C41.98 73.649 42.04 73.589 42.1 73.529C42.13 73.499 42.16 73.459 42.2 73.429C42.24 73.389 42.28 73.349 42.33 73.309C42.14 73.609 42.05 73.799 41.91 73.899C41.69 74.069 41.61 74.289 41.52 74.519V74.539C41.55 74.589 41.55 74.649 41.47 74.709L41.3 74.919C41.27 74.949 41.23 74.969 41.22 74.999C41.22 75.009 41.21 75.019 41.21 75.029C41.15 74.979 41.09 74.919 41.03 74.869C41.07 74.879 41.12 74.889 41.17 74.899C41.15 74.869 41.14 74.829 41.12 74.809C40.65 74.439 40.17 74.089 39.67 73.749C39.64 73.729 39.6 73.709 39.56 73.699C39.54 73.689 39.51 73.699 39.51 73.709C39.5 73.719 39.52 73.749 39.53 73.769C39.62 73.839 39.7 73.909 39.83 74.009C39.73 73.949 39.67 73.919 39.62 73.889C39.43 73.819 39.28 73.729 39.24 73.539C39.23 73.489 39.15 73.409 39.08 73.369C38.81 73.199 38.52 73.039 38.22 72.999C38.09 72.979 37.95 72.919 37.82 72.849C37.77 72.819 37.71 72.769 37.7 72.749C37.68 72.639 37.54 72.579 37.41 72.529C37.18 72.439 36.93 72.359 36.59 72.329C36.55 72.329 36.5 72.319 36.47 72.319H36.38H36.2C36.08 72.319 35.97 72.329 35.85 72.339C35.39 72.389 34.94 72.499 34.51 72.639C34.31 72.709 34.11 72.779 33.92 72.859C33.62 72.989 33.33 73.139 33.05 73.309C32.96 73.359 32.88 73.419 32.79 73.459C32.65 73.529 32.51 73.609 32.4 73.729C32.36 73.769 32.31 73.819 32.27 73.839C31.88 74.039 31.53 74.359 31.17 74.699C30.85 74.999 30.54 75.389 30.32 75.799C30.17 76.069 30.05 76.359 29.95 76.649C29.95 76.659 29.95 76.659 29.95 76.669C29.91 76.769 29.88 76.879 29.85 76.989C29.84 76.989 29.81 77.039 29.79 77.069C29.78 77.089 29.77 77.129 29.76 77.179C29.76 77.209 29.75 77.259 29.74 77.299C29.74 77.319 29.75 77.339 29.76 77.339C29.77 77.339 29.79 77.319 29.8 77.299C29.82 77.229 29.85 77.149 29.86 77.079C29.86 77.059 29.86 77.029 29.86 77.009C29.98 76.799 30.02 76.719 30.1 76.489C30.17 76.289 30.25 76.109 30.36 75.899C30.37 76.019 30.3 76.129 30.26 76.219C29.93 76.909 29.8 77.629 29.71 78.329C29.68 78.559 29.66 78.799 29.65 79.029C29.65 79.169 29.65 79.299 29.66 79.439C29.67 79.709 29.7 79.979 29.73 80.249C29.78 80.649 29.9 81.009 30.02 81.369C30.14 81.739 30.34 82.039 30.49 82.349C30.52 82.409 30.56 82.459 30.6 82.519C30.61 82.539 30.62 82.549 30.63 82.569C30.66 82.669 30.7 82.779 30.73 82.879C30.78 83.019 30.87 83.179 30.98 83.369C30.96 83.379 30.98 83.419 30.98 83.439L30.88 83.269C30.87 83.259 30.86 83.249 30.84 83.219C30.83 83.279 30.86 83.339 30.88 83.389C30.94 83.529 31.02 83.669 31.09 83.809C31.1 83.829 31.11 83.849 31.12 83.879C31.18 84.079 31.24 84.299 31.3 84.509C31.35 84.709 31.4 84.899 31.53 85.049C31.56 85.079 31.58 85.119 31.59 85.159C31.67 85.359 31.74 85.559 31.84 85.739C31.94 85.919 32.05 86.089 32.17 86.249C32.21 86.309 32.23 86.389 32.23 86.479C32.23 86.559 32.25 86.639 32.28 86.709C32.3 86.759 32.35 86.779 32.41 86.709C32.45 86.659 32.5 86.659 32.53 86.689C32.59 86.749 32.64 86.819 32.73 86.929C32.63 86.919 32.58 86.909 32.53 86.909C32.53 86.929 32.52 86.959 32.53 86.969C32.58 87.099 32.64 87.219 32.74 87.309C32.81 87.369 32.86 87.439 32.91 87.519L32.92 87.539C32.93 87.549 32.94 87.569 32.95 87.579L33.01 87.649L33.13 87.789C33.21 87.879 33.29 87.969 33.38 88.049L33.89 88.559C33.98 88.659 34.08 88.709 34.19 88.679C34.23 88.859 34.26 89.029 34.42 89.179C34.51 89.259 34.55 89.359 34.7 89.359C34.81 89.369 34.95 89.479 35.01 89.649C35.05 89.779 35.14 89.889 35.25 89.979C35.37 90.089 35.51 90.189 35.52 90.369C35.61 90.439 35.71 90.569 35.8 90.579C35.89 90.589 35.97 90.629 36.04 90.689C36.1 90.729 36.2 90.839 36.26 90.879C36.36 90.949 36.44 91.049 36.52 91.129C36.56 91.169 36.61 91.219 36.61 91.259C36.61 91.439 36.75 91.529 36.87 91.629C36.95 91.699 37.04 91.769 37.11 91.849C37.26 92.029 37.42 92.149 37.63 92.069C37.7 92.039 37.77 92.119 37.81 92.199C37.82 92.219 37.83 92.249 37.84 92.269C37.86 92.639 38.15 92.799 38.43 92.969C38.54 93.029 38.64 93.079 38.7 93.199C38.72 93.249 38.76 93.309 38.8 93.319C39.02 93.409 39.15 93.649 39.38 93.729C39.45 93.749 39.55 93.839 39.58 93.919C39.67 94.119 39.82 94.209 39.99 94.269C40.09 94.309 40.18 94.359 40.22 94.469L40.37 94.569C40.43 94.609 40.5 94.659 40.57 94.699C40.66 94.759 40.75 94.819 40.83 94.879C40.98 94.989 41.11 95.009 41.22 95.009C41.33 95.009 41.43 94.979 41.55 94.989C41.68 94.989 41.74 95.049 41.82 95.099C41.9 95.149 41.99 95.199 42.15 95.169C42.4 95.129 42.68 95.039 42.85 94.899C43.09 94.719 43.26 94.579 43.44 94.439L43.58 94.329C43.61 94.299 43.63 94.289 43.66 94.269C43.71 94.239 43.77 94.209 43.83 94.179C44.04 94.089 44.21 93.939 44.38 93.789C44.62 93.579 44.83 93.349 45.05 93.119C45.08 93.089 45.1 93.049 45.11 93.019C45.14 92.929 45.18 92.879 45.27 92.859C45.4 92.829 45.5 92.739 45.6 92.639C45.91 92.349 46.22 92.049 46.53 91.749C46.63 91.649 46.72 91.559 46.74 91.409C46.77 91.219 46.87 91.089 47.03 91.089C47.24 91.079 47.37 90.939 47.51 90.769C47.68 90.569 47.9 90.399 47.97 90.119C48.14 89.929 48.3 89.729 48.48 89.549C48.57 89.459 48.66 89.379 48.72 89.259C48.77 89.169 48.84 89.079 48.92 89.169C48.93 89.179 48.99 89.149 49.01 89.129C49.25 88.869 49.48 88.589 49.7 88.309C49.75 88.249 49.78 88.159 49.82 88.079C49.82 88.069 49.82 88.059 49.82 88.049C49.82 88.039 49.83 88.029 49.84 88.019L49.82 88.079C50.03 87.989 50.01 87.799 50.06 87.619C50.31 87.549 50.49 87.309 50.66 87.069C50.92 86.699 51.2 86.329 51.41 85.919C51.54 85.689 51.68 85.469 51.81 85.249C51.95 85.029 52.08 84.819 52.21 84.579C52.42 84.189 52.61 83.759 52.79 83.309C53.06 82.619 53.28 81.839 53.34 80.999C53.31 80.789 53.31 80.589 53.31 80.389ZM49.08 72.139C49.06 72.139 49.03 72.139 49.01 72.129C49 72.129 48.99 72.119 48.98 72.109C49.01 72.119 49.05 72.129 49.08 72.139ZM48.04 71.819L48.03 71.829L48.01 71.809L48.04 71.819ZM42.75 72.839C42.8 72.799 42.85 72.759 42.91 72.719L42.99 72.669C42.98 72.689 42.97 72.709 42.97 72.719C42.97 72.729 42.96 72.739 42.96 72.749C42.95 72.759 42.93 72.779 42.91 72.799C42.87 72.839 42.76 72.899 42.69 72.949C42.69 72.909 42.7 72.879 42.75 72.839ZM41.04 74.829C40.91 74.779 40.81 74.689 40.65 74.569C40.89 74.689 40.89 74.689 41.04 74.829ZM46.16 91.919C46.13 91.929 46.11 91.929 46.08 91.929L46.12 91.869L46.18 91.859C46.17 91.879 46.16 91.909 46.16 91.919Z" fill="#D04555"/>
<path d="M29.56 78.009C29.51 78.299 29.49 78.589 29.47 78.879C29.47 78.909 29.47 78.959 29.46 78.979V79.039V79.169C29.46 79.249 29.46 79.339 29.46 79.419C29.46 79.439 29.47 79.449 29.47 79.469C29.47 79.479 29.48 79.479 29.48 79.479C29.49 79.479 29.51 79.469 29.51 79.459L29.52 79.189V79.009V78.959C29.52 78.929 29.52 78.909 29.52 78.879L29.53 78.729C29.54 78.559 29.56 78.389 29.57 78.219C29.59 78.069 29.6 77.909 29.62 77.759H29.6C29.59 77.849 29.58 77.929 29.56 78.009Z" fill="#FBA9AB"/>
<path d="M114.36 103.669C113.46 103.539 112.63 104.159 112.5 105.059C112.37 105.959 112.99 106.789 113.89 106.919C114.79 107.049 115.62 106.429 115.75 105.529C115.87 104.619 115.25 103.789 114.36 103.669Z" fill="#171717"/>
<path d="M132.34 123.449C134.49 122.259 135.6 120.109 136 117.859C136.2 116.949 135.99 116.259 135.01 115.689C133.08 116.579 133.75 117.449 132.84 118.689C131.57 120.869 129.07 121.769 126.77 120.719C126.21 120.579 126.05 119.979 124.58 120.849C124.19 122.169 124.68 122.539 125.55 123.049C127.52 124.359 130.19 124.649 132.34 123.449Z" fill="#171717"/>
<path d="M184.12 122.559C183.35 105.119 179.93 84.499 167.04 71.659C166.68 71.309 166.14 71.149 165.62 71.289L152.92 74.719C150.99 75.319 148.63 75.809 146.36 76.489C145.9 75.109 144.64 74.299 143.58 73.239C142.23 72.019 140.83 70.859 139.35 69.809C136.41 67.719 133.16 65.939 129.91 64.569C129.11 64.169 128.37 63.699 128.23 62.989C128.29 62.479 128.94 62.359 129.7 62.369C130.36 62.409 131.45 62.679 132.12 62.789C135.66 63.459 138.77 64.669 142.5 64.669C142.8 62.079 141.1 60.549 139.73 58.719C138.33 57.049 136.82 55.459 135.14 54.059C131.98 51.269 128.09 49.139 124.71 46.819C124.18 46.469 123.62 45.949 123.53 45.519C123.49 45.429 123.85 45.169 124.04 45.119C124.8 44.839 125.72 45.269 126.77 45.679C131.62 47.729 135.02 51.649 140.31 53.389C138.12 49.389 134.38 47.199 130.8 44.799C128.75 43.619 126.76 42.269 124.24 42.219C119.86 42.739 119.65 46.959 122.91 49.169C128.22 53.049 133.35 55.809 137.71 60.489C138.3 61.069 138.77 61.689 139.27 62.279C136.83 61.069 134.02 60.569 131.37 59.929C130.92 59.839 130.35 59.699 129.89 59.679C126.95 59.299 124.17 62.009 126.06 64.979C126.77 66.059 127.72 66.689 128.63 67.159C131.78 68.789 134.71 70.489 137.63 72.349C139.78 73.759 141.91 75.229 143.85 76.929C143.98 77.029 144.12 77.119 144.25 77.209C142.86 77.749 141.56 78.399 140.52 79.269C144.58 80.009 149.73 78.119 153.6 77.299L165.53 74.409C169.33 78.289 172.12 83.159 174.26 88.269C180.71 103.919 182.18 121.289 181.45 138.089C181.36 138.779 181.46 139.609 180.95 140.149C181.37 140.109 181.66 139.709 181.89 139.399C184.72 134.339 184.09 128.169 184.12 122.559Z" fill="#171717"/>
<path d="M144.5 140.439C141.67 143.799 137.47 145.699 133.37 147.169C130.78 148.069 128.08 148.689 125.41 148.899C123.75 149.009 122.16 148.939 120.67 148.409C119.98 148.089 119.55 147.929 118.92 147.789C119.33 147.229 119.72 146.609 120.03 146.059C120.36 145.609 120.5 144.789 120.63 144.319C120.81 143.949 121.42 143.289 121.54 142.499C121.69 141.459 121.35 140.479 121.24 139.469C121.13 138.899 120.93 138.679 120.87 138.229C120.94 137.389 120.6 136.399 120.19 135.719C120.02 135.339 120.1 135.119 120.01 134.589C119.79 133.379 119.22 132.799 118.72 131.779C118.55 131.469 118.3 131.149 118.06 130.819C117.88 130.559 117.57 130.059 117.03 129.679C115.96 128.989 113.41 127.629 111.91 127.999C110.86 127.919 109.83 127.849 108.82 127.529C108.41 127.419 107.85 127.259 107.46 127.109C107.24 126.899 106.65 126.269 106.3 126.139L105.71 125.829C105.58 125.749 105.6 125.769 105.57 125.739C105.36 125.509 105.23 125.159 104.98 124.799C104.77 124.489 104.59 124.299 104.49 124.169C104.26 123.839 104.38 124.129 104.3 123.749C104.27 123.339 104.18 122.569 104.07 122.249C103.98 121.869 103.94 121.799 103.97 121.439C104.08 120.159 104.32 118.889 104.67 117.649C106.38 120.209 109.89 120.769 112.62 119.799C113.05 119.719 113.48 119.529 113.62 118.289C112.6 116.669 112.25 117.439 111.07 117.249C109.34 117.189 107.87 116.879 106.53 115.789C106.26 115.639 106.16 115.259 105.44 115.489C105.66 115.159 105.91 114.849 106.14 114.539C106.48 114.139 106.67 113.579 107.01 113.189C107.98 112.579 108.27 111.329 107.75 110.279C107.54 109.839 107.03 109.519 106.64 109.369C106.55 109.309 106.13 108.979 105.94 108.909C105.65 108.759 105.56 108.759 105.24 108.469C105.07 108.329 104.63 107.939 104.5 107.829C104.44 107.709 104.46 107.269 104.48 107.119C104.53 106.849 104.51 106.889 104.67 106.739L104.57 106.799C104.8 106.659 105.08 106.459 105.31 106.229C105.55 105.979 105.58 105.919 105.63 105.889C106.01 105.579 106.62 105.519 107.09 105.259C107.74 104.849 108.34 104.809 108.96 104.339C109.52 103.939 110.35 103.389 110.85 102.889C111.22 102.509 112.1 101.819 112.44 101.379C112.95 100.999 113.74 100.329 114.19 99.819C114.82 99.249 115.16 98.419 115.33 97.609C113.89 99.229 112.02 99.339 110.42 100.539C110.28 100.609 109.68 100.939 109.4 101.179C108.99 101.479 107.94 102.089 107.5 102.349L107.6 102.289C107.28 102.479 107.22 102.439 106.58 102.699C106.33 102.809 106.07 102.959 105.98 102.999C105.64 103.139 105.17 103.229 104.8 103.429C103.98 103.779 103.76 104.269 103.14 104.669C101.64 105.729 101.36 108.269 102.6 109.659C103.26 110.249 103.54 110.599 104.34 111.099C104.82 111.329 104.78 111.339 104.93 111.449C104.55 111.889 104.24 112.429 103.94 112.889C103.59 113.369 103.11 113.869 102.86 114.389C102.14 116.139 101.47 117.899 101.27 119.819C101.11 120.749 100.91 122.039 101.22 122.949C101.43 123.769 101.26 124.259 101.61 125.119C101.84 125.679 102.24 126.119 102.49 126.439C102.85 127.139 103.47 128.099 104.21 128.449C104.38 128.559 104.86 128.759 104.98 128.929C105.18 129.169 105.76 129.709 106.19 129.879C106.77 130.129 107.38 130.299 107.96 130.459C109.33 130.899 110.79 130.989 112.2 131.109C112.36 131.119 112.51 131.099 112.66 131.069C113.02 131.139 113.42 131.239 113.64 131.359C113.96 131.539 114.97 132.009 115.19 132.179C115.34 132.329 115.82 133.029 116.01 133.319C116.22 133.839 116.97 134.919 116.93 135.119C116.94 135.719 117.08 136.409 117.32 136.999C117.66 137.689 117.76 137.709 117.73 138.379C117.76 138.989 117.96 139.599 118.15 140.109C118.18 140.619 118.36 141.429 118.41 141.839C118.41 141.859 118.41 141.899 118.4 141.919C118.39 141.939 118.39 141.949 118.37 141.969C118.09 142.369 117.86 142.689 117.65 143.209C117.48 143.669 117.43 144.059 117.32 144.419C117.27 144.479 116.79 145.329 116.71 145.449C116.1 146.499 114.61 147.719 114.08 148.659C113.97 148.779 113.81 148.869 113.62 148.979C113.35 149.109 112.89 149.429 112.65 149.529C110.57 150.739 107.84 151.119 105.66 152.129C105.21 152.309 104.24 152.799 103.71 153.229L102.69 153.649C102.42 153.749 102.21 153.869 101.88 153.929C101.1 154.109 100.23 154.569 99.53 154.889C98.86 155.239 98.67 155.509 98.4 155.649C98.2 155.679 97.65 155.759 97.21 155.909C96.96 156.009 96.7 156.139 96.47 156.289C95.83 156.719 95.27 157.009 94.64 157.339C94.41 157.479 94.05 157.619 93.8 157.719C93.14 157.919 92.43 158.449 91.99 158.949C91.73 159.179 91.44 159.209 90.88 159.499L89.82 160.099C89.3 160.369 88.77 160.759 88.34 161.119C87.86 161.419 87.19 162.059 86.8 162.269C85.19 162.919 83.94 164.349 82.58 165.409C82.03 165.929 81.34 166.139 80.74 166.719C79.87 167.379 79.07 168.329 78.31 169.089C78.15 169.259 77.84 169.559 77.68 169.739C77.56 169.889 77.46 170.029 77.39 170.159C77.12 170.669 77 171.009 76.99 170.999C77.14 170.929 76.22 171.449 76.06 171.639C75.72 171.929 75.46 172.389 75.3 172.719L75.09 173.149L75.03 173.249L74.87 173.469C74.33 174.169 73.72 175.119 73.28 175.859C73.02 176.279 72.84 176.919 72.64 177.199C72.52 177.399 72.21 177.669 71.89 178.209C71.6 178.769 71.56 179.229 71.49 179.509C71.47 179.609 71.43 179.779 71.39 179.879C71.24 180.259 70.97 180.979 70.81 181.389C70.42 182.269 69.85 183.629 69.79 184.669C69.75 185.049 69.7 185.409 69.69 185.829C69.67 186.249 69.93 186.549 69.93 186.959C70.01 186.789 70.06 186.599 70.06 186.389C70.05 185.839 70.41 185.429 70.6 184.929C71.15 183.629 72.21 182.499 72.91 181.229L73.19 180.769L73.26 180.649C73.36 180.469 73.42 180.299 73.49 180.119C73.63 179.699 73.73 179.429 73.81 179.349C74.94 178.339 75.29 177.099 76.27 175.819L76.91 174.969C77.06 174.779 77.2 174.589 77.31 174.379C77.47 174.089 77.63 173.729 77.75 173.549L77.82 173.499C77.99 173.369 78.49 173.209 79.03 172.569C79.62 171.749 79.42 171.639 79.82 171.269C80.76 170.369 81.68 169.299 82.74 168.529C83.06 168.299 83.42 168.189 83.82 167.879C84.95 166.989 86.07 165.999 87.22 165.139C87.66 164.889 88.3 164.699 88.71 164.359C89.37 163.839 89.44 163.769 90.05 163.359C90.33 163.139 90.51 162.999 90.83 162.789C91.67 162.309 92.21 162.039 93.2 161.609C93.66 161.419 94.13 160.879 94.49 160.599C94.63 160.549 95.25 160.279 95.41 160.239C96.19 159.879 97.36 159.269 98.02 158.849C98.4 158.649 98.1 158.759 98.48 158.679C98.77 158.639 99.38 158.549 99.73 158.349C100.08 158.209 100.83 157.579 100.89 157.589L101.84 157.169C102.44 156.879 102.64 156.899 103.27 156.709C103.8 156.509 104.43 156.239 104.91 156.049C105.58 155.739 105.89 155.419 106.05 155.329C106.3 155.189 107.36 154.729 107.79 154.589C109.86 153.869 112.3 153.359 114.21 152.229C115.03 151.759 115.8 151.439 116.45 150.709C117 149.939 117.36 149.569 117.82 149.079C118.76 151.469 123.35 151.809 125.49 151.839C132.87 151.739 143.5 147.699 147.01 140.859C147.27 140.089 147.3 139.179 146.91 138.339C145.95 138.959 145.25 139.589 144.5 140.439ZM77.77 173.529C77.76 173.539 77.8 173.489 77.77 173.529V173.529Z" fill="#171717"/>
<path d="M59.28 183.529C58.5 180.289 57.5 176.739 56.62 173.499C56.44 172.909 55.54 169.879 55.39 169.359L55.27 168.949C55.14 168.179 54.18 167.459 53.28 167.749C53.2 167.779 51.52 168.249 51.39 168.299C49.17 168.919 37.31 172.499 34.83 173.239C32.52 173.969 30.18 174.579 27.9 175.379C28.55 173.599 28.23 171.889 28.23 170.159C28.18 168.049 28.14 165.949 28.15 163.849C28.39 155.249 27.92 137.469 34.91 131.889C35.59 131.299 36.36 130.779 37.43 130.179C36.38 129.539 35.02 129.539 33.86 129.989C24.94 134.629 24.97 155.009 25.25 163.899C25.33 166.029 25.47 168.159 25.62 170.289C25.79 172.239 25.72 174.099 26.77 175.789C25.09 176.439 23.46 177.229 21.9 178.299C26.76 178.509 31.09 176.919 35.56 175.769C37.99 175.109 50.08 171.839 52.23 171.209L52.68 171.079C53.87 175.439 55.24 180.029 56.62 184.269L57.68 187.559C58 188.669 58.4 189.749 59.86 190.529C60.68 189.099 60.45 187.959 60.13 186.859L59.28 183.529Z" fill="#171717"/>
<path d="M76.49 116.409C74.19 116.709 73.37 118.249 72.18 119.489C68.86 123.189 65.21 127.279 62.04 131.069C60.34 133.109 58.65 135.159 56.99 137.229C57.06 134.929 55.14 132.899 52.53 133.169C48.57 133.579 38.94 140.909 40.63 145.289C42.81 144.239 43.23 142.709 44.5 141.509C45.69 140.259 47.04 139.149 48.49 138.229C49.66 137.539 51.56 136.389 52.73 136.269C53.81 136.309 54.02 136.699 53.63 137.689C52.3 139.639 49.46 140.939 47.92 142.919C44.85 146.499 41.71 151.279 43.31 156.199C43.31 156.219 43.31 156.229 43.31 156.249C44.4 156.139 45.11 155.939 45.82 155.449C46.43 155.019 47.08 154.229 47.6 153.719L50.91 150.289C51.83 149.429 53.01 147.999 54.18 148.079C54.5 148.349 54.51 148.839 54.39 149.299C54.06 150.449 53.04 151.889 52.36 152.999C50.63 155.629 48.71 158.179 47 160.879C46.1 162.239 45.34 163.749 45.57 165.649C47.45 164.839 48.26 163.579 49.13 162.299C50.03 161.039 51 159.809 51.99 158.569C53.48 156.699 55.01 154.729 56.27 152.639C56.96 151.529 57.81 149.909 57.61 148.349C57.29 145.979 55.75 144.929 54.04 144.949C54.13 144.849 54.21 144.749 54.3 144.649L57.72 140.819C60.01 138.279 62.25 135.689 64.46 133.079C67.67 129.309 71.07 125.039 74.17 121.139C75.2 119.789 76.58 118.719 76.49 116.409ZM50.17 146.859C48.76 148.199 46.8 150.739 45.67 151.969C45.54 152.139 45.4 152.299 45.26 152.469C45.42 152.079 45.58 151.689 45.74 151.299C46.7 148.939 48.29 146.789 50.08 144.969C50.76 144.209 51.54 143.619 52.32 143.049C51.41 144.149 50.54 145.289 50.17 146.859Z" fill="#171717"/>
<path d="M144.21 41.339C148.62 45.459 152.2 50.589 155.67 55.569C156.55 56.839 157.4 58.139 158.23 59.439C159.12 60.719 159.56 62.229 161.68 62.849C162.3 60.719 161.18 59.519 160.48 58.109C159.71 56.729 158.93 55.359 158.11 53.999C154.52 48.139 146.51 36.239 139.03 36.019C138.08 36.139 137.12 36.609 136.66 37.489C137.64 37.739 138.25 37.969 138.87 38.179C140.89 38.769 142.62 39.859 144.21 41.339Z" fill="#171717"/>
<path d="M123.94 40.359C128.91 41.329 133.1 44.979 137.12 47.959C137.9 48.569 138.66 49.209 139.43 49.849C140.25 50.449 140.65 51.409 142.49 51.049C142.94 49.209 141.89 48.749 141.24 47.939C139.08 45.669 136.76 43.579 134.15 41.819C131.84 40.309 125.82 36.819 123.14 38.459C122.43 38.959 122.15 39.929 122.61 40.539C123.3 40.169 123.7 40.259 123.94 40.359Z" fill="#171717"/>
<path d="M129.66 38.449C133.87 38.679 137.48 41.899 140.61 44.589C142.08 45.829 142.81 47.269 145 47.609C145.65 45.449 143.7 44.089 142.5 42.669C139.89 39.989 137.15 37.509 133.56 36.059C132.63 35.709 131.61 35.389 130.42 35.479C129.24 35.609 126.57 36.409 128.16 38.079C129.24 38.319 129.09 38.579 129.66 38.449Z" fill="#171717"/>
<path d="M42.62 131.399C40.51 134.439 38.99 137.729 37.69 141.139C37.23 142.249 36.83 143.409 37.58 144.939C39.12 144.239 39.59 143.209 40.06 142.149C41.55 139.059 43.29 136.009 45.23 133.219C46.18 131.839 47.22 130.559 48.38 129.369C49.05 128.679 49.86 128.099 50.76 128.389C50.8 128.419 50.85 128.469 50.89 128.529C50.98 128.639 51.01 128.769 51.05 128.799C51.12 128.679 51.11 129.099 51.14 129.319C51.25 129.969 51.32 130.349 51.31 131.109C52.33 131.119 53.07 130.179 53.36 129.339C53.65 128.769 53.4 127.689 53.07 127.209C52.27 125.569 49.75 125.219 48.21 125.969C45.76 127.119 44.18 129.319 42.62 131.399Z" fill="#171717"/>
<path d="M33.89 142.799C34.87 142.119 35.41 141.449 35.71 140.639C36.61 138.259 37.71 135.899 39 133.739C40.41 131.469 42.04 129.039 44.52 128.159C44.65 128.079 44.79 127.789 45.45 127.289C46.22 125.119 43.46 125.459 42.33 125.819C41.21 126.219 40.4 126.919 39.7 127.619C37.01 130.399 35.49 133.769 34.19 137.279C33.66 139.059 32.42 141.089 33.89 142.799Z" fill="#171717"/>
</svg>
