<svg width="200" height="200" xmlns="http://www.w3.org/2000/svg" xmlns:xlink="http://www.w3.org/1999/xlink"><defs><path id="a" d="M.144.242h73.854v2.622H.144z"/><path id="c" d="M.504.388H4.51V91.64H.504z"/><path id="e" d="M0 .215h146.847v2.702H0z"/><path id="g" d="M.191.174H26.56V48H.19z"/></defs><g fill="none" fill-rule="evenodd"><path d="M103.476 99.146l.104-.07c.04-.026.073-.022.1.028.01.017.037.02.056.03.025-.072.06-.076.11-.029.036.036.066.06.039.135-.022.064.062.067.092.106.013.018.027.064.022.07-.021.02-.055.044-.076.038-.058-.017-.112-.05-.185-.084.082.213.082.213.08.37-.11-.024-.215-.144-.333-.041.005.07.056.052.09.062.113.032.17.13.206.25.022.071-.027.135-.088.115-.074-.022-.146-.09-.23-.005.02.014.039.025.054.04.06.06.069.118.01.157a1.315 1.315 0 0 1-.299.162c-.084.028-.174.02-.214.138-.006.018-.045.038-.062.031-.133-.047-.243.07-.37.072-.093.002-.184.05-.281.013-.032-.012-.075.016-.113.023-.04.008-.08.027-.116.02a1.445 1.445 0 0 0-.684.028c-.016.004-.034.012-.047.008-.191-.059-.38.01-.57.008-.314-.005-.615.028-.938.054-.14.005-.276.018-.402-.026a.88.88 0 0 0-.53-.01c-.192.05-.381.045-.584.027-.302-.028-.608-.032-.913-.043a.602.602 0 0 0-.179.019c-.144.043-.29.03-.445.03l-1.696.02c-.304.007-.613.017-.916.025-.643.005-1.288.024-1.928-.001-.43-.017-.852.027-1.28.013-.411-.014-.827.017-1.238 0-.369-.016-.73-.036-1.094.019-.086.012-.183-.004-.275-.003l-.824.011-1.192.003-1.873.013c-.105.001-.212-.027-.316-.024-.271.008-.545-.039-.816.022a.971.971 0 0 1-.273.007 14.308 14.308 0 0 0-1.88-.002c-.12.008-.263.018-.364-.012-.211-.064-.412-.046-.619-.012-.137.023-.265-.01-.396-.013-.114-.003-.228.051-.346.059-.12.008-.247 0-.364-.018a2.588 2.588 0 0 0-.635-.023c-.673.064-1.347.02-2.02.015h-1.653l-3.631-.028-.505.007c-.153.004-.306.018-.458.016l-3.125-.034-.963.013c-.213-.001-.426-.02-.638-.028-.152-.007-.313-.034-.454-.014-.397.058-.793.03-1.191.029l-.78.013-1.237-.002c-.395-.012-.797-.022-1.193-.033a28.254 28.254 0 0 0-1.33.007c-.292.01-.58.006-.871 0l-2.067-.008-1.655-.014-1.928.009c-.904-.005-1.81-.043-2.713-.021-1.502.036-3.002-.035-4.504-.008-.442.009-.886-.016-1.329-.026l-1.007-.023a1.552 1.552 0 0 1-.35-.043.844.844 0 0 0-.444-.006c-.205.05-.399.064-.613-.013-.122-.045-.296-.042-.447-.045l-2.483-.041-.64-.03c-.15-.01-.3-.02-.447-.028l-1.91-.076a.96.96 0 0 1-.6-.237c-.057-.05-.122-.088-.184-.13-.087-.056-.102-.09-.069-.203.05-.169.096-.337.09-.518-.004-.096.084-.1.122-.166-.04-.102-.119-.198-.056-.333.01-.023-.05-.086-.069-.135-.032-.083.002-.15.078-.163.047-.008.096 0 .143-.01.054-.011.111-.023.158-.054.077-.05.15-.108.243-.107a.107.107 0 0 0 .046-.013c.263-.144.263-.143.483-.146.063-.001.129.002.19-.014.283-.07.572-.046.856-.08.024-.002.05-.012.072-.003.166.07.33.013.496-.004.072-.013.386-.05.614.015.06.016.148-.006.223-.012.106-.008.212-.023.318-.025l2.111-.04 1.467-.02h.138c.749.024 1.497.015 2.246 0l1.695-.014 2.983-.004h.091c.857-.06 1.715-.001 2.572-.014l1.1-.02.551.008.55-.01 1.055-.015.548.009.506-.003 1.51.006 1.738.013c.243 0 .489-.006.73-.023.306-.021.608-.04.913.01a.954.954 0 0 0 .272.006c.38-.054.763-.025 1.145-.028l1.142-.014.868-.005 1.97.019 2.112-.037h1.102c.106 0 .211.02.317.024.135.007.271.01.407.009.091-.001.182-.023.273-.021.81.017 1.619-.062 2.43-.015.197.012.398-.004.597-.005l.592.001.319-.005.499.021c.167.007.346-.006.496.028.315.07.594.03.885-.04.11-.025.245-.032.362-.02.229.022.456.013.684.017.426.006.854.036 1.274.078.251.025.488-.009.73-.011.174-.002.365-.079.519.037.011.01.06.01.083.003.302-.093.614-.061.927-.03a.18.18 0 0 0 .087-.008c.21-.11.425-.063.65-.02.28.052.556.073.85-.003.253-.066.54-.08.802.009a.941.941 0 0 0 .573.012c.208-.063.41-.068.621-.019.043.01.09.024.133.021.332-.025.675.011.995-.03a3.94 3.94 0 0 1 .906-.005c.226.021.462.04.685.022.19-.015.36-.052.568-.03.172.02.359-.006.538.037a.411.411 0 0 0 .208-.024.737.737 0 0 1 .556-.01c.135.046.285.051.445.033.663-.078 1.334-.052 2.002-.05.09.001.18.022.27.031.059.006.154.025.173.009.147-.115.345-.036.515-.054.192-.019.395 0 .594.004l.55.02c.355.017.71.067 1.065-.011a.715.715 0 0 1 .264.01c.193.04.383.07.578.007.013-.004.03-.01.043-.008.41.078.803-.062 1.218-.03.36.026.73-.005 1.096-.003.197.002.396.015.59.033l.675.078c.067.005.1-.001.12-.022.088-.096.183-.1.286-.042.084.047.158.041.25 0a.553.553 0 0 1 .42-.029c.077.026.158.03.236.05.058.016.109.013.16-.027.08-.065.164-.05.25-.007.095.05.194.09.297.024.262.02.525.01.783.078.034.01.068.048.091.083.033.048.06.086.118.056.045-.024.049-.065.046-.116-.001-.018.024-.05.04-.052.018-.003.042.016.058.032.01.01.009.035.01.053.004.028-.003.071.009.081.09.073.113.168.082.287.082.081.03.143-.022.206-.008.011-.007.035-.014.072l.413.064c.099.01.112.022.091.127-.007.037-.019.072-.028.107-.009.034-.02.066-.024.1 0 .01.02.023.03.034.008-.01.023-.025.022-.033-.007-.035-.02-.068-.03-.102" fill="#DDD"/><g transform="translate(102 56)"><mask id="b" fill="#fff"><use xlink:href="#a"/></mask><path d="M73.475 1.368l.104-.06c.04-.023.073-.019.101.024.01.015.037.018.055.026.025-.062.061-.065.11-.024.036.031.066.052.038.117-.022.054.063.057.092.09.013.017.027.057.022.06-.021.018-.054.04-.077.034-.057-.015-.111-.043-.184-.073.081.184.081.184.08.318-.11-.02-.215-.124-.333-.035.004.06.055.044.089.053.114.028.17.113.205.215.022.063-.026.118-.088.1-.074-.02-.145-.078-.23-.006.02.013.039.023.054.035.06.051.068.103.01.136a1.408 1.408 0 0 1-.3.138c-.084.023-.173.016-.214.119-.006.015-.045.031-.061.025-.134-.04-.243.059-.371.06-.093.003-.183.044-.281.012-.032-.011-.075.012-.113.02-.039.006-.08.022-.116.015a1.65 1.65 0 0 0-.683.022c-.016.003-.033.01-.048.006-.19-.05-.38.008-.57.005-.313-.005-.612.022-.937.042-.151.005-.297.016-.433-.024a1.183 1.183 0 0 0-.572-.01c-.208.043-.411.037-.63.02-.325-.024-.656-.03-.984-.04a.782.782 0 0 0-.193.016c-.157.036-.315.024-.48.023l-1.83.01-.988.018c-.694.002-1.39.014-2.08-.01-.463-.016-.918.02-1.38.006-.443-.014-.892.011-1.334-.005-.399-.015-.788-.034-1.182.011-.092.01-.196-.003-.295-.003l-.89.006-1.285-.002-2.02.003c-.114 0-.229-.025-.341-.022-.293.006-.588-.036-.88.015a1.336 1.336 0 0 1-.294.005c-.677-.04-1.352-.04-2.029-.01-.13.007-.283.014-.392-.012-.228-.056-.444-.041-.667-.013-.148.02-.286-.008-.428-.012-.123-.004-.246.042-.373.048-.129.007-.267 0-.392-.016a3.452 3.452 0 0 0-.686-.022c-.725.051-1.452.011-2.178.003L42.81 2.82l-3.916-.04-.544.003c-.166.003-.33.014-.495.012l-3.37-.042-1.04.006c-.228-.001-.457-.018-.687-.026-.164-.007-.337-.03-.49-.014-.428.048-.855.022-1.284.02l-.84.007-1.335-.007-1.286-.033a39.286 39.286 0 0 0-1.436 0c-.314.008-.625.002-.939-.003l-2.229-.016-1.785-.02h-2.08c-.976-.007-1.952-.045-2.926-.03-1.62.025-3.238-.043-4.858-.026-.477.005-.955-.017-1.432-.028L8.75 2.558a2.122 2.122 0 0 1-.378-.039 1.159 1.159 0 0 0-.478-.007 1.364 1.364 0 0 1-.662-.014c-.13-.038-.319-.037-.48-.04l-2.679-.047-.69-.028c-.156-.009-.312-.018-.466-.025-.636-.025-1.27-.05-1.907-.073a1.058 1.058 0 0 1-.6-.208c-.056-.042-.12-.075-.182-.111-.087-.05-.102-.078-.068-.177.05-.144.096-.289.09-.444-.003-.083.085-.086.124-.144-.04-.087-.119-.17-.056-.287C.33.894.27.841.251.798.22.727.253.668.329.658.376.65.426.658.472.65A.517.517 0 0 0 .631.604C.708.561.78.512.873.514A.12.12 0 0 0 .919.501c.264-.123.264-.123.483-.124.064 0 .13.002.19-.011.283-.06.572-.038.856-.066.024-.002.05-.01.071-.003.167.061.33.014.496 0 .064-.012.409-.042.652.015.065.013.16-.005.24-.01.116-.006.23-.019.345-.02L6.529.258 8.11.248h.15c.806.023 1.613.019 2.421.008l1.83-.003 3.215.009h.1c.923-.048 1.849.007 2.773-.001l1.187-.012.594.008.594-.006L22.11.243l.592.01h.545l1.63.012 1.873.017c.263.002.527-.002.788-.015.33-.018.655-.033.984.011.093.013.2.018.294.007.41-.045.823-.017 1.235-.02L31.284.26l.935-.001 2.126.025L36.622.26l1.189.005c.114 0 .227.017.342.022.146.006.292.01.438.009.098 0 .197-.019.295-.017.874.018 1.746-.046 2.621-.002.213.011.43-.001.644-.001l.64.003.342-.004.539.02c.18.008.373-.003.535.027.338.062.64.029.955-.03.118-.021.264-.027.39-.017.246.02.492.014.738.019.459.007.92.034 1.374.072.27.022.525-.006.787-.007.188 0 .393-.065.559.036a.202.202 0 0 0 .09.003c.326-.08.663-.051 1-.022.03.002.073.001.094-.008.226-.093.458-.052.701-.014.302.046.598.065.916 0 .274-.055.583-.065.865.012.206.057.417.06.619.012.224-.053.441-.056.67-.012.045.009.096.02.142.018.359-.02.729.013 1.074-.022.336-.033.648-.026.977 0 .244.019.498.037.74.022.204-.013.388-.043.612-.023.185.018.387-.004.58.034a.55.55 0 0 0 .224-.02.985.985 0 0 1 .6-.007c.145.041.307.046.48.03.714-.063 1.438-.039 2.16-.033.096 0 .193.019.29.028.064.005.165.021.187.007.158-.098.373-.029.556-.043.207-.016.426 0 .64.005l.592.02c.384.016.766.06 1.15-.005a.958.958 0 0 1 .284.01c.21.035.413.061.624.009.014-.003.033-.01.046-.007.443.069.867-.05 1.314-.022.388.025.788 0 1.182.003.213.002.426.015.638.031l.726.07c.074.005.106 0 .125-.018.088-.083.184-.085.287-.035.083.04.157.036.248 0a.634.634 0 0 1 .421-.022c.076.023.157.025.235.044.058.013.109.011.16-.023.081-.056.164-.043.25-.005.095.043.193.077.297.02.261.02.524.011.781.072.035.008.068.041.092.071.031.042.06.075.117.05.045-.021.049-.057.046-.1 0-.016.025-.043.04-.045.018-.002.042.013.058.028.01.009.009.03.011.046.002.023-.004.06.008.07.09.063.112.145.08.246.082.071.03.124-.021.178-.01.01-.008.03-.015.062.138.019.278.039.413.056.098.01.111.02.09.11-.007.032-.02.062-.029.093-.009.029-.02.057-.023.086-.002.008.018.02.03.03.007-.01.022-.022.021-.03-.007-.03-.02-.058-.03-.087" fill="#DDD" mask="url(#b)"/></g><g transform="translate(103 19)"><mask id="d" fill="#fff"><use xlink:href="#c"/></mask><path d="M2.068 5.173v-.032l.012.017-.012.015zm1.116 6.285l-.008.028-.01-.025.018-.003zM.718 34.063a.219.219 0 0 0-.024-.02l.018-.013.006.033zM2.183 3.188v-.03l.01.015-.01.015zm-.338 6.08l-.02-.016.017-.02.003.037zm-.998 31.16c.008.006.018.011.028.016-.004.012-.006.029-.012.035-.004.005-.012-.006-.02-.009l.004-.041zm1.927-32.51l-.006.06-.005-.038a.671.671 0 0 1 .01-.021zm-.42-2.72c0 .013-.004.027-.005.041-.004-.008-.01-.016-.01-.025-.001-.013.002-.028.004-.041.004.008.01.016.01.025zm-.415.905c.01.013.019.026.027.04-.012.018-.024.037-.038.054a.177.177 0 0 1-.013-.027l.024-.067zm-.014.604l-.025.005c0-.027 0-.055.002-.082 0-.002.01-.003.016-.005l.007.082zm-.114 2.039c0 .014-.003.029-.006.043-.006-.017-.018-.035-.017-.052 0-.042.007-.084.01-.127a.1.1 0 0 0 .014.002l-.001.134zm.26-5.622h.015v.195H2.07v-.195zm-1.05 20.098L1 23.225l-.008-.312.029-.004v.313zM2.505 9.247h-.01v-.313l.01.01v.303zm-.66-1.995c.024.05.048.076.047.1-.004.097-.016.195-.025.292l-.022-.005v-.387zm.757-.783h.014v.415h-.015v-.415zm-.05 1.23l.01.001v.472H2.55l.001-.473zm-1.54 21.873c0 .312 0 .624-.02.937l-.032-1.024c0-.008.011-.017.025-.036.01.044.026.083.026.123zm1.015-25.58c.005-.034.036-.074.058-.078.049-.01.055.061.056.126 0 .063.013.154-.005.182-.03.046-.095.003-.09.145.003.104-.02.21-.033.315-.061-.244-.026-.468.014-.69zM.928 26.76c-.01-.123-.024-.246-.032-.37-.018-.247-.037-.495-.048-.744a6.53 6.53 0 0 1-.006-.562c.01-.249.035-.496.058-.805l.049.326.075-.122c0 1.504-.006 2.989-.002 4.474-.04 0-.05.005-.055-.002a.062.062 0 0 1-.017-.033.65.65 0 0 1-.006-.094l-.017-2.071.001.003zm-.075-6.301l.032-.005v.255l.12-.177c.06.47.048.81-.046 1.2-.031.13-.03.214.035.329.038.066.032.234.022.35-.014.167-.06.326-.074.493-.014.169-.004.343-.004.627-.097-.307-.073-.542-.088-.758-.017-.232-.006-.47-.006-.705 0-.22-.006-.441.002-.66.007-.235.027-.469.042-.702l-.035-.247zm1.949-13.52a.681.681 0 0 1-.004.443l-.004.042.006-.039c0-.148 0-.297.002-.447zm-.86-1.626c.063.13.041.248-.003.361l-.001.108c-.004-.01-.013-.02-.013-.028.004-.027.012-.05.016-.076l.002-.365zM.746 36.686l.03.124c.003.013 0 .03 0 .045-.007-.012-.018-.022-.02-.036-.005-.045-.006-.09-.01-.135v.002zm1.976 53.88l.011.034.026.114c-.005-.008-.013-.015-.015-.025-.004-.03-.006-.061-.009-.092l-.013-.031zM.692 36.306zM3.11 91.546l.107.095v.001c.03-.24-.008-.469-.045-.696-.033-.204-.07-.408-.026-.664.068.196.09.378.11.56.012.091.018.188.04.272.012.046.056.106.077.097a.19.19 0 0 0 .099-.124.863.863 0 0 0 .004-.276c-.102-.775-.087-1.562-.081-2.348.001-.267 0-.537.02-.8.044-.593.104-1.18.15-1.773.06-.823.151-1.638.201-2.465.029-.47.074-.93.029-1.401-.014-.141-.01-.274.072-.375.055-.07.06-.191.026-.3-.042-.137-.052-.282.004-.4.138-.289.14-.634.142-.977 0-.144.01-.268.042-.406.04-.168.063-.361.063-.544 0-.17-.024-.334.015-.508.012-.059-.03-.168-.058-.24-.03-.077-.084-.13-.047-.243l-.002-.002c.114.059.15.043.162-.093.018-.201.029-.405.042-.607.03-.484.083-.966.087-1.45.003-.453.04-.902.018-1.36-.021-.463.055-.927.057-1.396.002-.393.029-.783.04-1.175.009-.314.007-.63.017-.943.007-.251.031-.501.032-.752.005-1.086.007-2.173.004-3.26 0-.297-.02-.596-.025-.894-.004-.188-.002-.377.002-.565.001-.126.02-.253.013-.376a30.246 30.246 0 0 1-.032-1.932c.002-.188-.008-.377-.016-.565-.01-.251-.036-.503-.028-.752.025-.79-.061-1.568-.07-2.355-.007-.626-.069-1.252-.069-1.879 0-.581-.054-1.16-.02-1.742.006-.092-.006-.188-.014-.281-.061-.683-.056-1.375-.089-2.061-.022-.42.003-.848-.05-1.267a.621.621 0 0 1 .01-.184c.033-.16.01-.306-.013-.46-.02-.135-.023-.278-.028-.418-.007-.188-.01-.377-.012-.565-.006-.314-.012-.628-.016-.941-.002-.126.001-.252-.002-.378l-.032-1.082c-.014-.423-.018-.847-.034-1.27a45.253 45.253 0 0 1-.036-1.403c-.002-.209-.002-.403-.065-.59-.048-.14-.04-.273-.005-.443a4.91 4.91 0 0 0 .09-1.066c-.01-.502-.085-.99-.067-1.5.018-.53-.02-1.065-.017-1.598.002-.283.006-.557-.027-.84a4.13 4.13 0 0 1-.014-.841c.03-.333.028-.657.013-.987-.016-.313-.026-.626-.038-.94-.016-.438.019-.879-.041-1.314-.016-.117.003-.25.006-.375.004-.236.032-.48.006-.704-.058-.497.006-1.003-.056-1.498a2.112 2.112 0 0 1-.006-.423c.03-.375.042-.745-.014-1.119-.015-.097.022-.215-.03-.31-.052-.097-.037-.2-.002-.302.056-.16.039-.336.033-.508-.012-.376-.046-.755-.035-1.13.009-.314-.062-.622-.009-.933-.06-.273-.025-.55-.018-.827.001-.042-.02-.085-.033-.127a1.657 1.657 0 0 1-.016-.036l.014.039c.075-.286.082-.571.002-.857l-.018.118c-.003-.012-.008-.027-.006-.035.008-.028.017-.053.026-.08.019-.168.051-.336.054-.505.008-.424.015-.85 0-1.274-.012-.304-.026-.608-.1-.905-.062-.25-.11-.53-.08-.825.01-.104-.003-.217-.01-.326-.016-.248-.041-.495-.051-.744-.007-.172 0-.346.011-.517.007-.091.028-.19.107-.118.04.037.07-.014.075-.082.015-.184.02-.369-.053-.579-.015.113-.021.185-.035.252-.004.025-.023.053-.037.058-.013.003-.039-.022-.04-.04a3.907 3.907 0 0 1-.024-.323c-.003-.155.005-.312.001-.467-.016-.703-.035-1.407-.05-2.11-.001-.06.02-.121.023-.183.015-.403.038-.809-.056-1.197-.018-.076-.031-.157.013-.213.05-.064.062-.15.063-.246.006-.439.05-.874.016-1.317-.02-.258-.061-.527.013-.787.01-.036-.001-.093-.002-.14-.007-.409-.008-.818-.022-1.226-.016-.469.01-.943-.069-1.405-.016-.093.008-.215.026-.317a.818.818 0 0 0-.004-.367c-.056-.191-.051-.395-.052-.6-.001-.14.01-.295-.02-.418-.044-.188-.014-.374-.027-.558-.009-.116.015-.215.086-.263.063-.044.066-.138.052-.237l-.038-.274c-.023-.021-.048-.036-.068-.064-.007-.008-.001-.046 0-.07.005.009.015.015.02.026l.046.111a.55.55 0 0 0 .005-.397c-.028-.08-.06-.157-.08-.243-.033-.144-.003-.239.102-.365-.001-.15-.108-.258-.054-.429.025.036.05.07.073.106.012-.037.032-.072.037-.112.01-.106.03-.225-.042-.294-.079-.076-.078-.2-.069-.328.014-.218.042-.437.044-.655.01-.896.03-1.792.005-2.687-.002-.062.014-.154-.056-.18-.034.29-.015.592-.088.853-.193-.24-.175-.617-.213-.959a109.69 109.69 0 0 0-.103 2.065c-.015.36-.018.722-.096 1.064.064.297.047.593.01.96-.067-.359-.066-.544-.007-.957l.002-.567c.005-.552.01-1.102.012-1.654 0-.1.017-.218-.071-.304-.017.109-.04.192-.042.278-.01.33-.063.655-.03.987-.076.46-.026.937-.052 1.404-.003.063-.007.126-.012.188a.267.267 0 0 1-.02.086c-.01.02-.03.04-.044.035-.014-.004-.036-.035-.037-.058a2.346 2.346 0 0 1-.005-.28c.047-.817.047-1.635.023-2.452a5.55 5.55 0 0 0-.081-.83 2.973 2.973 0 0 1-.058-.55c0-.426.002-.851 0-1.276 0-.069-.01-.139-.017-.207-.044.151-.05.303-.063.454-.014.171-.032.342-.05.513-.014.155-.034.31-.044.465-.009.14.003.287-.013.424-.018.144-.058.28-.089.42-.008.035-.022.067-.033.1-.018-.032-.051-.066-.05-.098.002-.234.012-.47.02-.703L2.14.882c0-.021-.018-.044-.027-.065-.014.018-.036.033-.04.055-.03.23-.058.46-.084.692-.048.416-.084.838-.145 1.248a6.182 6.182 0 0 0-.066.743c-.013.391-.013.79-.059 1.171-.12.99-.158 1.995-.22 2.995-.032.485-.05.972-.074 1.457-.05 1.004-.104 2.007-.15 3.01-.028.582-.044 1.164-.065 1.745-.004.127-.005.251-.068.345-.01.017-.011.096-.002.108.105.133.055.32.052.48-.006.393-.029.785-.039 1.178-.023.912-.042 1.824-.065 2.735-.003.108-.024.214-.037.322l.003-.007c-.003.248-.009.496-.01.744 0 .183-.06.217-.142.218l.004-1.927c0-.061 0-.13.015-.182.018-.066.053-.117.08-.175v.003c-.01-.113-.032-.213-.09-.275-.015-.015-.038-.033-.05-.023-.02.022-.047.061-.048.095-.008.375-.012.75-.019 1.125-.014.861-.03 1.722-.046 2.584-.005.25-.027.502-.018.75.008.267.01.53-.006.796-.014.219-.009.44-.015.66a4.21 4.21 0 0 1-.024.325c-.014.135-.037.136-.128.01l.002.004c-.01.057-.03.114-.032.171-.008.259-.012.519-.016.778 0 .03.006.06.01.09.009.074.06.088.1.02.02-.03.029-.077.043-.115-.012-.07-.025-.139-.033-.21-.001-.015.019-.039.03-.058.01.018.03.04.028.055-.006.073-.018.144-.028.215.074.276.111.547.063.863-.031.203-.002.436.004.655.002.125.019.25.015.372-.008.266-.034.53-.037.796-.005.408-.022.824.013 1.223.034.37.027.711-.048 1.053H.569c.003.059-.002.124.01.175.015.052.043.119.07.126.101.026.1.156.1.281.002.503.007 1.006 0 1.509-.005.296-.032.592-.05.887l.001.002c.055.37.058.644.01.649-.01-.04-.022-.079-.04-.136-.016.056-.025.098-.04.132-.123.278-.142.582-.116.93.037.482.046.972.059 1.46.011.503.006 1.007.02 1.51.022.755.07 1.508.077 2.263.015 1.165.024 2.328.092 3.49.042.703.038 1.414.048 2.123.016.991.02 1.982.038 2.974.012.754.033 1.509.056 2.262.022.787.052 1.572.077 2.358.007.234.004.47.012.704.026.77.055 1.54.083 2.309.006.173.01.346.015.52.026.864.053 1.729.078 2.594.02.707.036 1.416.063 2.122.024.66.063 1.316.09 1.976.03.75-.018 1.51.09 2.25.007.045.004.095.006.141.024.692.052 1.382.072 2.074.032 1.116.07 2.233.083 3.35.014 1.133-.002 2.268-.005 3.402 0 .236 0 .474-.014.708-.042.83-.091 1.66-.137 2.49-.004.077-.012.161-.003.234.015.104.03.247.072.289.077.076.087-.113.134-.17.006-.006.016-.004.034-.008 0 .154.01.308-.002.457-.072.84-.147 1.68-.224 2.52-.039.412-.038.816.06 1.203.047.187.014.387.048.579.017.095-.04.23-.065.347a4.145 4.145 0 0 0-.04 1.447c.062-.396.023-.826.14-1.203.02.076.032.153.023.222-.035.3-.032.593.022.886.012.058.011.125.011.187 0 .314-.004.628-.002.942 0 .052.024.13.048.146.024.017.065-.017.093-.046.027-.029.042-.105.097-.03.017.388.037.794.053 1.2.006.155.004.311.002.466 0 .14-.02.283-.006.416.012.127.059.243.09.362-.015.024-.03.043-.042.063-.152.224-.17.402-.064.668.068.17.103.35.128.558.056.47.193.863.463 1.087-.05.42.091.744.195 1.088.017.059.068.125.102.123.058-.006.044-.113.047-.188.003-.085-.033-.196.07-.243.05.203.179.325.207.574z" fill="#DDD" mask="url(#d)"/></g><path d="M103.331 53c-.21-.35-.167-.679-.15-1.004.004-.132.04-.267.025-.397-.038-.371-.062-.737-.009-1.113.04-.274 0-.565-.042-.843-.065-.445-.06-.888-.063-1.334-.006-.906-.06-1.812-.09-2.717a1.285 1.285 0 0 1 .023-.356c.072-.282.046-.56.02-.844a6.977 6.977 0 0 1-.036-.89c.016-.461.061-.922.096-1.382.002-.025.03-.05.073-.12.035.173.066.309.09.445.078.46.074.92.001 1.38-.013.087-.033.178-.022.265.11.847.06 1.697.073 2.546.007.461-.007.924.005 1.386.007.296.051.592.062.888.013.357-.004.716.015 1.073.03.519-.025 1.041.062 1.56a.349.349 0 0 1-.003.133c-.093.398-.09.798-.05 1.2.001.023-.03.048-.08.124M105 22c-.008.143-.008.237-.019.329-.105.91-.213 1.822-.32 2.733a2674.154 2674.154 0 0 0-.365 3.526.941.941 0 0 1-.133.412 1.318 1.318 0 0 1-.056-1.156.796.796 0 0 0 .045-.448c-.023-.132-.007-.273.006-.409.014-.151.062-.301.064-.452.003-.263.048-.513.116-.767.033-.126-.006-.27-.007-.407.001-.108.001-.22.018-.326.062-.37.133-.739.195-1.109.088-.52.171-1.043.257-1.564A.502.502 0 0 1 105 22M104 33c.016-.42.035-.768.04-1.116.003-.203-.033-.406-.026-.607.016-.416.088-.825.198-1.225.007-.024.063-.058.073-.051.035.026.086.068.086.104.002.253.002.508-.016.76-.036.505-.082 1.01-.127 1.514-.015.15-.04.302-.075.449-.011.049-.072.084-.153.172M106 111.092c.047-.034.092-.092.136-.092.05 0 .141.053.141.083 0 .283.095.542.209.799.014.03-.008.094-.038.113-.023.014-.101-.003-.121-.03-.071-.094-.15-.19-.186-.3-.062-.178-.092-.366-.141-.573M106.202 29c-.101-.291-.135-.596-.201-.894-.007-.031.04-.07.062-.106.05.025.13.04.147.078.05.117.096.24.105.363.014.18-.006.361-.011.542-.034.006-.068.01-.102.017M104.004 34.343c.076-.108.091-.261.25-.343.104.368-.026.68-.123 1-.086-.181-.208-.354-.065-.56.009-.013-.042-.066-.066-.1l.004.003zM103.124 40c.097.335.094.665.055 1-.162-.013-.158-.132-.171-.223-.042-.272.103-.51.116-.777M104.21 98c.107.42-.005.665-.134 1-.132-.402-.095-.672.134-1M104.236 50.54c-.012.073-.031.227-.064.369-.008.039-.055.067-.082.06-.027-.007-.07-.056-.073-.097-.011-.156-.025-.322-.01-.473.014-.14.05-.295.102-.384.046-.08.127.179.127.526M103.146 56a1.585 1.585 0 0 1-.143-.789c.005-.072.033-.184.064-.201.085-.047.107.082.114.192.016.242.074.488-.035.798" fill="#DDD"/><path d="M103.015 54.534c0-.161-.005-.285.003-.405.003-.047.036-.086.055-.129.031.054.084.1.088.16.018.21.025.425.021.636 0 .07-.049.136-.075.204-.035-.078-.084-.146-.102-.236-.015-.078.007-.18.01-.23M103.087 58c.098.335.029.669.062.99-.125.045-.138-.071-.142-.162-.012-.283-.02-.569.08-.828M103.037 56c.147.309.131.579.1.851-.005.048-.039.083-.061.124-.027-.057-.077-.115-.076-.17.002-.237.02-.472.037-.805M103.075 58a3.558 3.558 0 0 1-.062-1c.135.43.136.43.062 1M104.062 36.78c-.029-.273-.056-.448-.062-.626-.001-.05.056-.157.083-.154.038.004.092.076.106.144.045.233-.014.401-.127.635M104.064 51c.032.085.073.175.1.278.008.039-.018.114-.028.17-.04-.039-.093-.06-.116-.125-.023-.063-.018-.172-.02-.26 0-.011.025-.027.064-.063" fill="#DDD"/><path d="M103.074 56c.044.171.077.241.08.314.002.133-.025.257-.108.227-.02-.007-.05-.102-.046-.145.01-.105.036-.204.074-.396M104.202 46.199c-.046.074-.077.168-.11.172-.08.008-.108-.12-.084-.248.01-.063.07-.131.102-.122.03.009.055.113.092.198M106 41.19l.092-.19c.021.069.053.132.063.209.005.037-.026.095-.041.144L106 41.19M104.022 47.006c.033.172.068.344.1.518.002.01-.02.05-.032.055-.012.005-.032-.01-.041-.028-.076-.172-.046-.362-.022-.551l-.005.006zM104.18 39.347c-.03.01-.06.03-.09.024-.077-.019-.101-.126-.085-.265.006-.044.053-.113.059-.106a.757.757 0 0 1 .09.18c.016.05.015.12.022.18l.005-.013zM106.127 110c-.012.135.035.326-.081.36-.011.003-.031-.026-.036-.048-.038-.22.045-.259.116-.312zM106 111.002c.042.035.094.053.123.113.023.048.017.151.023.229-.037-.026-.087-.03-.107-.081-.025-.068-.026-.173-.038-.263l-.001.002zM104.056 100c.015.102.037.184.032.26-.003.056-.042.103-.064.154-.009-.084-.025-.169-.024-.253.001-.045.03-.088.056-.161" fill="#DDD"/><path d="M103.045 56.409c-.016-.091-.039-.181-.045-.275-.002-.04.031-.089.05-.134.016.046.05.098.045.136-.009.092-.034.177-.054.266l.004.007zM103.057 39c.012.042.025.083.032.127.001.01-.023.053-.029.048-.022-.019-.04-.05-.06-.077l.057-.098M103.042 63c0 .085.001.166-.002.247 0 .006-.021.01-.033.015-.003-.081-.007-.162-.007-.243-.001-.004.021-.01.042-.019M103.062 47.404c-.022-.109-.046-.219-.062-.33-.002-.012.043-.057.07-.074.006-.004.031.044.03.06-.013.117-.028.233-.043.35l.005-.006zM103.055 54.07c-.009.018-.018.036-.025.055l-.03-.106c.013-.008.029-.025.037-.017.009.007.012.044.018.068M103 64.067l.017-.067c.01.01.028.017.032.035.003.015-.009.043-.015.066l-.034-.034M104.021 46l.043.04-.038.112c-.01-.025-.026-.049-.026-.077 0-.023.013-.05.021-.075M104.025 25c.01.021.023.042.026.067.003.027-.004.06-.006.089-.016-.029-.033-.056-.045-.09-.002-.007.016-.045.025-.066M103.024 66.065l-.024-.042.03-.023zM106.047 41.074a.26.26 0 0 1-.036.025c-.004-.023-.015-.055-.01-.07.005-.017.023-.02.034-.029l.012.074" fill="#DDD"/><path d="M104 46.008c.016.049.033.096.045.148.003.012-.014.043-.021.065l-.02-.221-.004.008zM104.032 43l.012.064a.534.534 0 0 1-.044-.039c.011-.007.021-.017.032-.025M104.027 67c.008.022.023.048.022.069 0 .021-.018.039-.028.058-.008-.023-.022-.048-.02-.069 0-.022.016-.039.026-.058" fill="#DDD"/><path d="M104.037 67c0 .05.005.082-.002.102-.003.011-.022.002-.035.002l.037-.104M104.092 52.003l-.039.239-.053-.077.091-.165.001.003zM106 27.006l.036-.006-.015.065zM104.036 51.118c-.013-.014-.031-.021-.035-.042-.004-.019.007-.052.012-.076.012.013.032.019.036.04.004.018-.008.051-.013.078M104 34l.004.008L104 34zM104.004 39.007L104 39l.004.007zM104 39.008l.005-.008-.005.008zM104.004 43.205V43l-.003.006-.001.191.004.008zM104.005 39.201v-.194l-.004-.007-.001.209.005-.008zM104.003 43l-.003.006.003-.006zM104.004 46l-.004.007.004-.007zM103 56l.004.007L103 56zM103.001 54l-.001.002.001-.002zM104 37.006l.003-.006-.003.006zM104.033 45c0 .049.002.076-.002.097-.002.008-.02.002-.031.002l.033-.099M104.003 46.006L104 46l.003.006zM104.067 40.107l-.021.076c-.015-.036-.034-.068-.045-.109-.004-.014.012-.048.019-.074.016.037.03.072.047.107" fill="#DDD"/><path d="M153.186 163.91l-98.854.09c-5.7.005-10.326-4.167-10.332-9.319v-.576L159.996 154l.004 3.74c.004 3.404-3.047 6.167-6.814 6.17" fill="#03AFB8"/><path d="M153.078 164.665v.12-.12a6.73 6.73 0 0 0 4.724-1.913 6.39 6.39 0 0 0 1.953-4.608l-.005-3.905-115.505.113v.5c.004 2.65 1.064 5.14 2.989 7.011 1.921 1.87 4.474 2.898 7.188 2.898h.01l98.646-.096zM54.422 165c-2.78 0-5.394-1.054-7.362-2.968-1.97-1.917-3.057-4.467-3.06-7.18v-.739h.123L159.996 154l.004 4.144a6.623 6.623 0 0 1-2.024 4.777 6.975 6.975 0 0 1-4.898 1.983L54.433 165h-.011z" fill="#09B1BA"/><path d="M110.339 111.842l-.12-.008c-.046-.003-.07-.024-.07-.074 0-.017-.022-.034-.033-.05-.055.036-.086.019-.104-.04-.014-.045-.027-.078.03-.115.05-.032-.02-.08-.026-.123-.003-.02.007-.06.015-.061.027-.002.066-.002.08.014.041.044.071.096.115.16.033-.194.033-.194.107-.301.082.076.113.217.26.21.029-.052-.022-.067-.046-.092-.08-.085-.08-.183-.054-.286.015-.062.086-.08.128-.033.052.057.079.142.19.13-.01-.022-.021-.04-.027-.058-.022-.073-.001-.12.065-.115.11.007.222.018.326.05.084.027.155.081.245.02.013-.009.054 0 .065.013.09.105.235.084.344.152.078.048.176.064.24.143.021.026.07.03.105.045.036.016.078.025.105.05.168.161.368.27.584.352.016.006.034.01.043.02.132.144.323.2.48.305.26.173.524.313.808.473.134.082.267.155.364.263.135.15.305.256.492.33.204.083.378.202.56.339.27.203.554.394.835.588.054.037.119.073.176.095.156.058.287.156.43.25l1.6 1.024.869.542c.604.389 1.217.77 1.804 1.178.395.274.81.5 1.205.772.379.261.783.493 1.16.756.337.237.667.471 1.033.656.087.043.17.113.256.169l.778.496 1.117.726 1.76 1.134c.1.065.186.15.285.21.259.16.493.36.775.484.085.037.177.102.258.161l.214.154c.052.035.034.026.038.03l.002.005c.003.01.01.01.016.01l.496-.008.53-.02c.134-.007.294-.015.408.01.238.052.463.037.696.008.154-.019.299.008.446.01.128.003.257-.042.39-.05a2.5 2.5 0 0 1 .409.015c.238.027.474.035.714.017.757-.054 1.516-.02 2.274-.016l1.232-.004h1.071c.003.001.006.003.008.001l.71-.448a63.14 63.14 0 0 1 1.78-1.066l.496-.294c.15-.091.298-.185.45-.27a43.598 43.598 0 0 1 3.224-1.614c.34-.154.68-.315 1.029-.459.23-.096.474-.17.711-.254.168-.062.36-.1.515-.173.213-.103.44-.183.673-.25.229-.074.466-.133.71-.189.308-.084.638-.149.966-.21.54-.072 1.093-.136 1.725-.054.292.019.62.117.932.214.32.143.648.281.933.535.65.518 1.041 1.314 1.147 1.951.067.228.065.423.084.631l.018.308c.004.101 0 .165 0 .25l-.003 2.278-.008 1.824.011 2.126c-.001.996-.032 1.995-.012 2.989.034 1.656-.024 3.309.003 4.964.008.486-.012.975-.02 1.463-.005.37-.01.74-.017 1.11-.003.131-.01.27-.036.387a1.221 1.221 0 0 0-.004.488c.042.228.055.44-.01.677-.037.133-.035.325-.037.492l-.03 2.736-.024.706-.023.466-.06 1.874a1.02 1.02 0 0 1-.202.59c-.042.057-.074.119-.11.18-.048.085-.075.1-.173.069a1.205 1.205 0 0 0-.441-.087c-.082.003-.085-.083-.142-.12-.087.04-.169.117-.284.055-.02-.01-.073.05-.115.068-.07.032-.128 0-.139-.076-.007-.046 0-.094-.009-.14a.5.5 0 0 0-.046-.155c-.043-.076-.092-.147-.091-.238a.113.113 0 0 0-.012-.045c-.123-.259-.123-.259-.125-.474-.001-.063.001-.127-.012-.187-.06-.277-.04-.56-.07-.84-.002-.023-.011-.05-.004-.07.06-.163.012-.324-.003-.486a2.239 2.239 0 0 1 .011-.662c.014-.066-.005-.163-.01-.246-.007-.117-.02-.233-.023-.351l-.037-2.326-.02-1.616v-.152c.017-.825.008-1.65-.007-2.475l-.014-1.869-.01-3.286v-.1c-.054-.945-.005-1.89-.018-2.835l-.02-1.212.006-.608-.01-.606-.014-1.162.006-.605-.005-.557.004-1.665.002-.478-.023-.352c.006-.127-.04-.202-.054-.303-.01-.108-.056-.168-.085-.236-.017-.07-.058-.105-.092-.14l-.045-.058a.52.52 0 0 1-.066-.032c-.092-.069-.244-.097-.424-.19-.043-.032-.133-.03-.194-.03-.279.003-.63.01-.981.054-.178.027-.362.07-.543.102l-.556.142c-.284.09-.568.169-.855.273-.651.215-1.308.472-1.952.765-.691.312-1.369.668-2.042 1.034l-1.058.574c-.102.056-.21.098-.314.152-.131.067-.262.14-.39.215-.086.05-.163.116-.25.165-.773.436-1.495.956-2.259 1.404-.059.032-.272.175-.424.277l-.27.187c-.041.044-.1.032-.155.034h-.165l-.915.001-.358.006-.302-.008-.26-.008c-.187-.007-.389.006-.559-.023-.353-.058-.667-.024-.995.034a1.767 1.767 0 0 1-.407.019c-.257-.019-.513-.01-.77-.013-.478-.005-.96-.028-1.434-.062-.281-.02-.547.008-.82.01-.196.002-.41.066-.584-.03a.225.225 0 0 0-.093-.003c-.341.079-.691.053-1.044.027a.262.262 0 0 0-.098.008.924.924 0 0 1-.358.057l-.561-.038-.225-.015c-.075-.003-.152.001-.208-.06l-.371-.256-.182-.117c-.034-.02-.067-.04-.104-.06a2.45 2.45 0 0 0-.222-.105 2.091 2.091 0 0 1-.747-.496 1.365 1.365 0 0 0-.532-.358 1.74 1.74 0 0 1-.59-.368c-.035-.032-.073-.07-.114-.094-.323-.186-.628-.421-.947-.588a5.958 5.958 0 0 1-.851-.55c-.201-.152-.414-.31-.631-.433-.186-.105-.362-.185-.546-.328-.152-.117-.339-.213-.487-.352a.603.603 0 0 0-.206-.111 1.085 1.085 0 0 1-.525-.332 1.457 1.457 0 0 0-.402-.296c-.656-.35-1.273-.777-1.898-1.188-.084-.055-.158-.124-.238-.186-.052-.04-.132-.11-.158-.11-.192-.011-.34-.187-.507-.279-.19-.104-.371-.24-.555-.365a594.43 594.43 0 0 0-.505-.35c-.325-.229-.633-.48-1.003-.642a1.052 1.052 0 0 1-.242-.17c-.163-.144-.326-.281-.538-.357-.015-.005-.035-.011-.044-.02-.348-.306-.783-.448-1.156-.723-.324-.238-.686-.443-1.027-.668a10.67 10.67 0 0 1-.538-.384l-.595-.466c-.061-.045-.091-.059-.116-.054-.12.02-.2-.03-.26-.126-.047-.078-.111-.115-.208-.135a.65.65 0 0 1-.364-.21c-.05-.06-.118-.106-.172-.162a.194.194 0 0 0-.146-.069c-.099.001-.161-.054-.212-.13-.057-.087-.12-.169-.238-.178-.208-.157-.433-.293-.615-.48-.024-.025-.034-.07-.037-.108-.004-.05-.01-.093-.072-.103-.049-.007-.07.019-.093.056-.007.013-.043.022-.057.015-.017-.008-.028-.035-.034-.055-.003-.012.01-.028.016-.042.01-.021.037-.047.031-.06-.04-.1-.015-.18.067-.245-.029-.101.043-.115.116-.131.013-.003.022-.02.046-.043l-.315-.269c-.076-.061-.082-.076-.015-.138.023-.02.049-.039.074-.059.023-.018.048-.034.067-.056.005-.007-.005-.027-.009-.04-.012.004-.031.005-.034.012-.01.028-.015.057-.023.086M50.562 139.31l-.087.08c-.033.031-.066.035-.103.002-.012-.012-.04-.008-.06-.011-.009.064-.043.075-.1.049-.043-.021-.076-.033-.066-.1.01-.056-.073-.039-.11-.063-.017-.012-.04-.046-.036-.052.018-.02.044-.049.066-.049.06 0 .12.014.197.025-.123-.153-.123-.153-.154-.279.112-.007.238.065.331-.046-.018-.055-.064-.028-.099-.028-.117 0-.191-.065-.25-.152-.037-.053-.003-.116.06-.115.078 0 .16.038.225-.05-.022-.006-.043-.01-.061-.02-.07-.033-.09-.078-.043-.123.08-.073.164-.148.258-.2.076-.042.165-.057.179-.163.002-.015.035-.04.054-.039.138.007.22-.112.344-.144.09-.024.167-.084.27-.077.033.002.069-.03.104-.045.036-.016.071-.04.108-.042.234-.013.45-.083.657-.184.014-.007.03-.017.044-.017.196.002.366-.098.551-.14.304-.07.59-.168.896-.263.126-.036.246-.076.369-.068a.922.922 0 0 0 .483-.109c.163-.083.335-.12.524-.15.278-.044.557-.107.836-.165a.613.613 0 0 0 .157-.055c.123-.067.258-.088.398-.122l1.533-.387c.274-.074.552-.15.825-.222.582-.145 1.162-.301 1.748-.422.392-.08.765-.21 1.156-.292.376-.079.747-.195 1.122-.271.337-.07.67-.132.988-.256.076-.028.166-.037.25-.058l.745-.19 1.079-.264.424-.105.006-.004.002-.003c.002 0-.004.003.006-.004l.047-.027.75-.44c.084-.048.182-.077.265-.128.214-.133.455-.226.646-.394a1.07 1.07 0 0 1 .216-.132c.523-.26 1.025-.553 1.513-.872.093-.062.203-.134.297-.16.198-.052.351-.158.503-.278.1-.08.217-.117.324-.175.093-.051.162-.142.253-.203.092-.061.198-.115.3-.156a2.6 2.6 0 0 0 .52-.28c.514-.357 1.074-.638 1.618-.946l1.328-.77 2.932-1.663.402-.24c.122-.074.239-.154.362-.224l2.527-1.426.768-.456c.171-.099.35-.184.525-.277.125-.065.266-.12.371-.2.294-.226.625-.39.945-.574l.621-.37.995-.573.973-.53a30.33 30.33 0 0 0 1.067-.624c.23-.142.464-.272.7-.404l1.665-.953 1.336-.758 1.546-.902c.73-.417 1.475-.81 2.19-1.244 1.193-.723 2.428-1.368 3.624-2.085.352-.211.719-.4 1.08-.598l.82-.452c.096-.052.201-.103.3-.131a.878.878 0 0 0 .358-.202c.145-.13.294-.23.5-.275.116-.025.255-.108.378-.176l2.013-1.123.528-.275.382-.194 1.674-.894c.191-.1.398-.15.619-.128.07.007.142.003.213.001.1-.002.127.014.147.112.03.145.063.287.147.413.045.068-.03.114-.033.18.078.053.187.083.191.21.001.022.08.036.118.063.063.043.064.108.003.155-.037.03-.082.048-.119.077-.041.036-.085.073-.112.117-.044.075-.082.152-.162.197a.11.11 0 0 0-.034.033c-.164.233-.164.233-.352.344-.054.032-.111.063-.158.104-.212.19-.47.316-.701.482-.019.014-.038.034-.06.038-.172.032-.29.154-.424.248-.063.05-.295.219-.507.279-.055.017-.116.072-.174.112-.082.055-.16.115-.245.166l-1.68 1.007-1.17.695-.112.064c-.611.331-1.208.685-1.804 1.044l-1.358.796-2.395 1.388-.074.042c-.662.441-1.377.797-2.06 1.204l-.877.524-.446.251-.438.262-.841.5-.445.249-.405.237-1.218.696-1.4.798c-.197.113-.392.23-.578.355-.237.158-.471.31-.738.416a.96.96 0 0 0-.222.122c-.281.216-.602.372-.907.553l-.913.539-.695.407-1.593.901-1.68 1.006-.886.512c-.086.048-.179.084-.266.13a6.646 6.646 0 0 0-.33.182c-.074.043-.137.101-.21.142-.66.364-1.276.795-1.949 1.138-.163.084-.318.188-.477.28l-.477.275-.253.152c-.135.07-.273.145-.41.217-.138.072-.276.164-.412.21-.283.096-.49.254-.695.439a1.213 1.213 0 0 1-.281.183c-.194.09-.372.202-.558.305-.345.193-.7.37-1.057.536-.213.099-.387.233-.582.347-.14.081-.26.225-.433.213-.014 0-.053.021-.068.036-.204.208-.468.33-.733.452a.19.19 0 0 0-.066.047c-.122.175-.314.242-.514.316a1.94 1.94 0 0 0-.681.396 1.46 1.46 0 0 1-.65.366.96.96 0 0 0-.465.258c-.14.141-.3.238-.492.301-.038.013-.082.025-.115.047-.074.049-.107.07-.22.137-.133.07-.253.17-.408.187l-.327.08c-.074.021-.147.043-.217.07-.274.1-.538.159-.82.203l-.224.036a3.12 3.12 0 0 0-.401.096c-.17.054-.317.12-.51.148-.159.023-.323.084-.494.089a.424.424 0 0 0-.184.065.764.764 0 0 1-.501.13 1.039 1.039 0 0 0-.41.071c-.584.208-1.198.335-1.805.479-.082.02-.167.023-.25.035-.055.008-.144.014-.159.031-.11.125-.306.105-.456.156-.17.057-.358.088-.539.127l-.502.104c-.325.065-.657.103-.963.243a.734.734 0 0 1-.24.05c-.185.011-.363.028-.527.121-.011.007-.026.015-.037.016-.388.028-.715.227-1.098.293-.331.057-.66.163-.992.241a7.03 7.03 0 0 1-.543.104l-.626.085c-.061.01-.094.023-.107.044-.067.1-.158.124-.27.102-.09-.018-.16.004-.24.059a.654.654 0 0 1-.403.121c-.079-.003-.158.013-.238.015-.059.001-.109.015-.149.06-.066.071-.149.078-.24.064-.104-.017-.208-.026-.294.051-.257.044-.51.115-.774.12-.035.001-.075-.023-.106-.045-.04-.031-.075-.056-.125-.018-.039.03-.034.063-.02.105.004.013-.014.046-.028.051-.018.006-.045-.003-.064-.013-.01-.006-.015-.026-.02-.04-.01-.022-.011-.057-.025-.063-.102-.038-.144-.108-.138-.212-.096-.047-.058-.108-.021-.17.005-.012 0-.03-.001-.062-.14.015-.28.03-.413.046-.098.014-.114.008-.115-.082 0-.03.004-.062.006-.093.002-.029.006-.058.002-.086 0-.008-.023-.013-.035-.02-.006.01-.018.025-.015.032.014.026.033.05.05.075" fill="#333"/><path d="M85.615 132.348l.112.046c.043.018.06.044.04.087-.006.015.008.037.013.055.066-.015.09.01.086.067-.004.045-.003.077-.072.092-.06.012-.01.076-.02.115-.005.018-.03.05-.037.048-.027-.007-.064-.019-.072-.038-.023-.05-.033-.106-.052-.176-.103.158-.103.158-.214.228-.05-.093-.028-.225-.173-.266-.046.035-.003.065.01.094.046.1.01.186-.053.267-.038.049-.112.042-.135-.012-.029-.067-.024-.15-.135-.174.002.021.006.04.004.059-.006.07-.043.104-.104.079a1.503 1.503 0 0 1-.296-.15c-.07-.05-.119-.12-.228-.095-.016.003-.053-.016-.059-.033-.046-.12-.194-.148-.274-.242-.057-.068-.146-.113-.178-.202-.011-.03-.056-.049-.084-.074-.03-.025-.066-.046-.083-.077a1.58 1.58 0 0 0-.432-.495c-.012-.01-.029-.019-.034-.031-.073-.168-.236-.277-.349-.42-.181-.23-.397-.453-.594-.661-.008-.003-.021-.002.007-.027.038-.035.028-.039-.011-.024-.042.015-.044.005-.037-.01.01-.024.004-.038.002-.054 0-.003-.007-.003-.02.002-.036.015-.03.003-.035-.003-.016-.022-.043-.037-.067-.054-.014-.01-.036-.013-.047-.023-.024-.022-.058-.038-.06-.073-.001-.024-.046-.02-.05-.042-.003-.022-.038-.023-.039-.046 0-.021.002-.044-.047-.033-.012.003-.004-.008-.008-.01-.01-.01-.023-.017-.034-.027l-.039-.044-.069-.063c-.004-.003.014-.02.008-.023-.015-.006.01-.038-.041-.021-.016.005-.016 0-.015-.007.012-.043-.01-.065-.058-.07-.009-.002-.02-.003-.002-.02.038-.037.02-.036-.011-.028-.02.005-.002-.015-.003-.021-.002-.006-.044.014-.053.014-.01-.001-.008-.01.001-.023.017-.023.017-.034-.004-.033-.066.004-.056-.041-.073-.07-.014-.022-.039-.038-.054-.06l-.093-.15c-.005-.007-.013-.01-.021-.015-.008-.004-.022-.004-.026-.01l-.074-.133c-.008-.013-.03-.017-.04-.03-.006-.008 0-.024 0-.037 0-.008.014-.027-.004-.023-.054.012-.047-.016-.058-.03-.008-.011-.025-.015-.034-.025-.014-.014-.029-.029-.038-.047-.008-.017-.005-.042-.014-.058-.011-.02-.022-.037-.047-.047-.016-.007-.022-.02-.028-.033-.015-.03-.04-.054-.059-.081-.015-.022-.025-.048-.042-.069-.02-.024-.05-.042-.068-.068-.025-.036-.026-.087-.07-.111-.072-.04-.069-.128-.136-.172-.02-.013-.016-.04-.023-.061-.006-.016-.014-.03-.016-.048 0-.007.002-.016.02-.033.025-.026.02-.03-.01-.02-.041.015-.057.014-.01-.028.028-.025.02-.03.018-.037l-.049-.112c-.004-.01.001-.025.001-.038v-.009s.002-.003 0-.006l-.022-.033-.092-.129-1.094-1.451a.896.896 0 0 1-.192-.554c0-.065-.01-.13-.019-.195-.01-.09.002-.117.104-.144.15-.04.297-.082.421-.168.067-.047.122.017.193.014.048-.075.07-.178.203-.192.022-.003.03-.077.054-.113.04-.06.108-.067.163-.016.034.032.058.072.093.102.04.035.084.072.134.093.082.034.166.062.221.131.01.012.024.02.038.028.26.13.26.13.394.293.04.046.076.096.125.135.22.178.375.404.571.6.016.016.04.031.045.05.05.155.19.252.302.367.114.125.108.067.078.117-.01.009.01.002.016.002.009 0 .023-.002.028.001l.094.061.06.046.005.005c.007.039.037.063.072.083.026.017.043.038.062.058l.097.11.003.003c.07.005.055.064.091.09.016.011.034.02.05.032.006.006.005.017.011.024.006.007.017.011.024.016.016.01.031.021.044.033.007.007.006.018.01.025.006.007.015.01.02.017l.042.06c.016.023.028.048.047.07.007.01.018.016.038.018.026 0 .049.004.022.038-.007.01-.007.015.004.013.051-.01.042.017.057.03l.045.037c.012.01.024.017.031.03.018.026.026.059.05.082.024.024.063.04.092.062a.147.147 0 0 1 .035.04c.002.005-.008.018-.008.024 0 .008.001.015.007.02.003.002.022-.004.024 0 .013.038.094.033.086.085-.001.012.016.013.022.02l.019.022c.003.004.012.004.014.01.002.008 0 .018 0 .028 0 .01.016.01-.003.03-.041.045-.003.037.055.017.022-.008.03-.006.026.003-.008.019.005.023.01.034.008.02.001.048-.016.082-.01.021.022.015.031.023.007.006.068-.022-.01.037-.006.004-.005.006 0 .004.076-.03.063-.005.05.021-.001.003.002.004.01 0 .084-.042.058-.013.034.014-.028.035-.034.055.03.031.054-.02.073-.016.018.035-.04.036-.035.044.01.026.051-.02.06-.015.032.015-.006.006-.014.014-.01.014.029.001.013.03.053.024.038-.007.043.007.032.032-.008.017-.014.035.006.035.017 0 .048-.01.038.008-.008.016.016.01-.008.036-.008.009.005.006.023-.002.06-.028.068-.022.025.016-.029.026-.027.034-.01.031.077-.01.08.027.099.053.002.003-.01.017-.013.024-.003.005-.013.016-.001.01.087-.046.036-.003.054-.004.02-.002.013.014.016.023a.11.11 0 0 1 .003.03c0 .021-.025.057.042.035.014-.005.01.004 0 .014-.022.025-.037.046.014.025l.007-.002c-.043.05.07.002.06.031-.007.027.027.026.036.04.006.009.002.022-.004.038a2.46 2.46 0 0 0-.034.06c-.01-.005.021.027.047.032.123.022.183.09.204.193.017.084.065.137.15.185.123.07.222.17.273.3.027.068.074.13.106.197.024.05.057.087.115.107.096.03.135.099.156.182.023.093.053.185.163.232.142.203.308.394.415.616.013.03.006.072-.005.105-.014.046-.025.085.031.113.044.023.075.007.11-.018.012-.009.05-.005.061.006.013.012.015.039.012.058-.002.012-.02.022-.031.032-.018.015-.053.029-.053.043.002.1-.051.16-.154.19-.009.098-.084.088-.16.079-.014-.002-.029.01-.06.022l.203.335c.051.079.052.094-.036.125-.03.012-.062.019-.093.028-.029.008-.059.015-.085.028-.008.003-.005.024-.007.038.013 0 .032.005.038 0 .02-.02.036-.045.054-.068M92.62 127.38l.098.049c.038.02.051.045.033.087-.006.015.005.036.009.054.06-.012.08.014.074.07-.005.042-.006.074-.07.086-.052.01-.01.074-.021.112-.006.018-.029.048-.035.046-.024-.008-.057-.021-.063-.04-.018-.051-.025-.105-.039-.174-.098.15-.098.15-.201.215-.04-.092-.015-.22-.142-.267-.043.033-.006.064.005.093.036.099.001.182-.058.259-.037.047-.103.037-.122-.017-.022-.066-.014-.146-.112-.175 0 .021.003.04.001.058-.009.069-.043.1-.097.073a1.248 1.248 0 0 1-.257-.156c-.061-.051-.1-.122-.199-.102-.015.003-.046-.018-.051-.033-.037-.12-.167-.153-.235-.247-.048-.069-.125-.116-.15-.204-.009-.03-.048-.05-.073-.075-.024-.026-.057-.048-.07-.078a1.512 1.512 0 0 0-.365-.5c-.01-.01-.025-.02-.029-.032-.058-.167-.199-.28-.294-.423-.152-.231-.335-.456-.501-.668-.008-.003-.02-.002.006-.025.036-.033.027-.037-.008-.024-.038.014-.04.004-.033-.012.01-.022.005-.036.004-.052 0-.003-.006-.003-.018.002-.032.013-.027.001-.03-.005-.014-.022-.037-.038-.059-.055-.011-.01-.03-.014-.04-.024-.02-.022-.05-.039-.05-.074 0-.023-.041-.02-.044-.042-.001-.022-.033-.025-.032-.047 0-.02.004-.042-.042-.034-.01.002-.002-.008-.006-.01-.009-.01-.02-.018-.029-.027l-.033-.044-.059-.065c-.003-.003.013-.02.008-.022-.013-.007.01-.037-.036-.022-.014.005-.014-.001-.012-.007.012-.042-.006-.065-.05-.072-.007 0-.017-.002 0-.019.036-.034.018-.034-.009-.028-.018.004-.001-.014-.002-.02s-.04.012-.048.011c-.008 0-.007-.009.002-.021.016-.022.017-.034-.002-.033-.059 0-.048-.043-.062-.07-.012-.023-.033-.04-.046-.062l-.077-.15c-.003-.006-.01-.01-.018-.015-.006-.005-.02-.005-.022-.01l-.06-.133c-.008-.013-.028-.018-.035-.03-.005-.01.001-.025.001-.037 0-.008.015-.026-.003-.023-.048.01-.04-.017-.05-.032-.006-.01-.021-.015-.03-.024-.011-.015-.024-.03-.031-.048-.006-.017-.003-.041-.01-.058-.01-.019-.019-.037-.04-.048-.014-.006-.019-.02-.024-.032-.012-.03-.033-.054-.049-.082-.012-.022-.02-.047-.035-.068-.016-.024-.042-.043-.057-.069-.021-.036-.02-.086-.058-.111-.064-.042-.057-.128-.115-.173-.017-.014-.012-.04-.018-.06-.004-.016-.01-.031-.012-.048 0-.007.003-.016.02-.032.023-.024.019-.028-.008-.02-.038.014-.052.012-.008-.027.026-.024.02-.03.017-.036l-.039-.111c-.002-.01.002-.024.003-.037l.001-.009v-.006l-.019-.033-.076-.13-.915-1.457a.928.928 0 0 1-.15-.549c.004-.063-.003-.127-.007-.19-.007-.09.006-.114.099-.137.134-.033.267-.07.382-.15.061-.043.108.022.171.023.046-.074.07-.172.19-.182.02-.002.03-.073.053-.107.038-.059.099-.062.146-.01.028.031.048.071.078.102a.452.452 0 0 0 .116.096c.072.036.146.066.192.136.008.012.02.022.032.029.228.137.227.137.34.3.033.047.063.097.105.137.188.182.319.407.485.606.014.016.033.032.038.05.039.155.158.253.253.37.098.127.094.07.066.117-.009.009.007.003.013.003.009.001.021-.001.026.002l.08.063.053.047.004.005c.004.038.03.063.06.084.023.017.038.038.053.06l.083.11.002.003c.063.007.047.064.078.091.013.011.03.021.042.033.006.006.004.017.01.024.005.007.014.011.02.017.013.011.028.021.038.033.006.007.005.017.009.025.004.007.012.01.016.018l.035.06c.013.023.024.048.039.07.006.01.016.016.034.018.022.003.042.006.017.039-.007.009-.007.014.003.013.047-.009.037.018.05.03l.039.038c.01.01.02.019.026.031.014.027.02.059.04.082.021.025.055.042.08.064a.137.137 0 0 1 .03.042c.002.004-.007.016-.008.021 0 .008 0 .015.006.02.003.002.02-.003.02.001.01.038.084.035.074.086-.002.012.013.013.019.02l.015.023c.003.004.011.005.013.01.002.008 0 .018 0 .027-.001.01.012.01-.006.031-.037.04-.004.034.049.017.02-.007.028-.005.023.004-.008.018.004.024.007.034.007.018 0 .047-.016.08-.01.02.019.014.026.023.006.006.06-.019-.011.035-.006.004-.005.007 0 .005.069-.028.057-.002.044.023 0 .001 0 .002.009-.001.076-.038.051-.01.03.016-.027.032-.034.051.024.03.05-.017.067-.012.016.035-.038.034-.034.042.007.026.047-.018.055-.013.028.016-.005.006-.013.013-.01.014.026.002.01.03.047.025.035-.005.038.008.027.032-.008.017-.014.034.004.035.015 0 .043-.008.034.01-.008.013.014.01-.009.034-.008.008.004.005.02-.002.056-.025.062-.02.022.017-.027.025-.026.032-.01.03.069-.007.07.03.086.055.002.004-.01.016-.013.023-.002.005-.011.016-.001.01.08-.042.032-.002.049-.003.017 0 .011.015.013.024a.123.123 0 0 1 .002.03c-.002.02-.025.054.035.035.013-.004.009.005 0 .014-.02.024-.035.044.01.025a.155.155 0 0 1 .008-.002c-.04.048.062.005.052.033-.008.025.022.026.03.04.005.009.001.022-.005.037-.01.015-.024.04-.033.058-.01-.006.018.026.041.032.11.026.16.096.174.197.011.082.052.135.126.186.107.073.19.174.231.303.021.067.06.13.086.196.02.05.047.087.099.108.083.034.116.102.13.184.017.092.041.183.137.232.118.204.258.397.343.617.012.03.003.071-.007.103-.015.045-.027.082.023.112.037.023.066.01.098-.015.011-.007.045-.002.054.008.012.013.011.04.008.058-.002.011-.018.02-.029.03-.016.014-.048.026-.048.04-.003.097-.053.155-.146.181-.013.096-.079.082-.146.07-.012-.002-.026.01-.055.02l.168.335c.042.078.042.093-.037.12-.028.011-.057.017-.085.025-.026.007-.053.012-.077.024-.007.003-.005.024-.008.037.012 0 .029.006.034.001.019-.02.034-.042.051-.064M102.635 122.372l.098.047c.037.019.05.045.033.087-.006.015.006.036.009.055.059-.013.08.012.074.069-.004.043-.004.074-.067.087-.052.01-.01.075-.02.113-.006.018-.028.049-.034.047-.024-.008-.056-.02-.064-.04-.018-.05-.024-.105-.04-.174-.095.152-.095.152-.195.218-.042-.092-.018-.222-.144-.266-.042.034-.005.063.006.093.037.099.003.183-.055.26-.035.048-.1.04-.119-.015-.023-.065-.016-.147-.113-.174 0 .021.004.04.001.058-.007.07-.04.101-.094.076a1.272 1.272 0 0 1-.257-.155c-.06-.051-.1-.121-.197-.1-.015.003-.047-.018-.051-.034-.038-.12-.167-.15-.235-.245-.048-.068-.125-.115-.151-.204-.009-.029-.048-.05-.073-.074-.024-.025-.057-.048-.07-.078a1.509 1.509 0 0 0-.366-.498c-.011-.01-.025-.02-.03-.032-.059-.167-.2-.278-.295-.422-.153-.23-.337-.455-.504-.666-.007-.003-.02-.002.006-.026.035-.033.027-.037-.008-.024-.038.014-.04.005-.032-.01.009-.023.004-.037.003-.054 0-.002-.006-.002-.018.002-.032.013-.027.002-.03-.003-.014-.023-.037-.04-.059-.056-.011-.01-.03-.014-.04-.024-.02-.022-.05-.038-.05-.073-.002-.024-.041-.02-.044-.042-.001-.022-.033-.024-.032-.047 0-.02.003-.043-.042-.033-.01.002-.002-.008-.005-.012-.01-.009-.021-.016-.03-.026l-.033-.043-.06-.065c-.002-.004.013-.02.009-.023-.013-.006.01-.037-.036-.02-.014.003-.014-.002-.012-.008.011-.042-.007-.065-.05-.071-.008-.002-.018-.003-.001-.02.035-.035.018-.035-.009-.028-.018.005-.001-.014-.002-.02s-.039.013-.047.012c-.008-.001-.007-.01.002-.021.015-.023.015-.034-.003-.034-.059.002-.048-.042-.063-.07-.011-.023-.033-.04-.045-.061l-.078-.15c-.004-.007-.01-.01-.018-.016-.006-.004-.02-.004-.023-.01-.02-.044-.04-.089-.061-.132-.007-.013-.026-.018-.034-.031-.005-.008 0-.024 0-.036 0-.008.014-.026-.002-.023-.048.01-.041-.017-.051-.033-.006-.009-.021-.014-.029-.024-.011-.014-.024-.028-.031-.047-.007-.017-.004-.041-.012-.058-.008-.019-.018-.037-.04-.047-.014-.007-.019-.02-.023-.033-.013-.03-.034-.054-.05-.081-.012-.023-.02-.048-.035-.069-.017-.024-.042-.043-.057-.068-.022-.036-.02-.087-.06-.111-.062-.042-.057-.128-.115-.173-.016-.013-.012-.04-.018-.061-.004-.016-.011-.03-.012-.048 0-.006.002-.015.018-.032.023-.024.019-.028-.008-.019-.036.013-.051.013-.008-.029.025-.023.019-.029.017-.035a8.174 8.174 0 0 0-.04-.112c-.003-.01.002-.024.002-.037l.001-.009s.002-.002 0-.006l-.019-.033-.077-.13-.922-1.455a.944.944 0 0 1-.153-.55c.002-.064-.006-.128-.011-.192-.007-.089.005-.115.096-.139.133-.035.264-.073.376-.155.06-.044.107.02.17.02.044-.073.065-.173.184-.184.02-.002.03-.074.051-.109.037-.06.097-.064.145-.012.029.032.048.072.078.103.036.035.072.073.115.094.072.037.146.066.192.135.008.012.02.021.032.03.226.134.226.134.34.297.032.047.064.096.105.136.188.182.32.406.487.604.014.016.033.032.038.051.04.155.159.252.255.369.097.126.093.07.066.117-.009.009.008.003.013.003.008 0 .02-.002.025.001l.081.063.052.047s.004.002.004.005c.005.038.03.062.061.083.022.017.037.039.053.06l.082.11.003.003c.062.006.047.064.078.09.013.011.03.02.042.033.006.006.005.018.01.024.005.007.014.01.02.017.014.01.027.02.038.033.006.007.005.017.01.024.003.007.011.011.015.018l.036.06c.013.023.024.049.039.07.006.01.016.017.033.019.022.001.043.005.018.038-.006.01-.007.015.003.013.046-.01.037.018.05.03l.038.038c.01.01.021.018.027.03.015.027.021.059.041.082.02.026.054.042.08.064a.131.131 0 0 1 .03.041c.002.005-.008.017-.008.023 0 .008 0 .014.005.019.004.003.02-.003.021 0 .01.039.083.036.074.086-.002.013.013.014.02.02l.014.023c.003.004.01.005.012.01.003.008 0 .018 0 .028 0 .01.014.01-.004.03-.037.042-.004.035.049.017.019-.007.027-.005.023.005-.009.018.003.022.007.033.007.019 0 .047-.016.08-.009.02.019.015.027.023.005.006.06-.02-.011.036-.005.005-.005.007 0 .005.068-.029.056-.004.044.022-.001.002.001.003.009 0 .075-.04.05-.012.03.015-.027.033-.033.052.024.03.049-.018.065-.013.016.035-.037.035-.033.043.007.026.046-.018.054-.013.029.016-.006.006-.013.014-.01.014.025.001.01.03.046.024.034-.005.038.008.027.032-.007.018-.013.035.004.036.016 0 .043-.009.034.008-.008.015.014.01-.009.036-.007.008.005.005.021-.002.054-.026.06-.02.022.016-.027.026-.026.033-.01.03.068-.007.07.029.085.055.002.004-.009.017-.012.023-.002.006-.011.017-.001.01.078-.043.033-.002.048-.003.018 0 .011.015.013.024a.087.087 0 0 1 .002.03c0 .02-.024.055.036.035.013-.005.009.004 0 .014-.02.024-.034.044.01.025a.25.25 0 0 1 .008-.002c-.04.048.061.004.052.032-.008.025.023.026.03.04.005.009.002.022-.005.037l-.032.059c-.009-.006.02.027.042.032.108.025.158.094.173.196.013.082.054.135.128.186.106.072.19.172.232.301.022.068.061.13.087.197.02.05.048.088.098.108.084.032.117.1.132.183.018.093.042.184.137.232.12.204.26.396.347.617.012.03.004.072-.006.104-.015.045-.025.082.024.112.038.023.066.008.098-.016.01-.008.044-.004.053.008.01.012.011.038.009.057-.002.011-.018.022-.03.03-.015.015-.046.028-.046.042-.002.098-.05.156-.142.184-.01.096-.077.082-.144.072-.011-.002-.025.009-.052.02l.169.335c.042.08.042.094-.036.123-.027.01-.055.016-.083.025-.026.007-.052.013-.076.025-.007.003-.005.024-.007.037.011 0 .028.006.033 0 .019-.019.034-.042.05-.064M49.493 141.756l.098-.06c.038-.022.07-.02.1.017.009.013.035.014.054.02.021-.057.057-.062.105-.027.036.026.064.043.04.103-.021.05.06.049.088.078.013.013.026.048.02.052-.02.017-.05.038-.07.034-.055-.01-.107-.033-.176-.056.081.163.08.163.082.284-.101-.013-.203-.102-.309-.016.008.054.054.038.085.044.106.02.16.093.194.184.022.055-.02.107-.075.095-.067-.014-.133-.064-.205.006.018.01.036.018.05.03.055.042.064.087.016.12-.08.054-.164.108-.251.138-.07.026-.148.023-.173.117-.004.014-.035.033-.05.03-.115-.019-.195.085-.3.103-.078.013-.145.062-.232.046-.028-.006-.06.02-.09.031s-.061.03-.092.029c-.197-.003-.378.07-.548.156-.012.007-.024.016-.036.016-.168-.01-.304.085-.45.143-.238.091-.488.178-.696.314-.012.011-.021.027-.048 0-.039-.034-.054-.022-.056.02-.002.045-.022.05-.05.046-.038-.004-.07.007-.104.014-.007.001-.012.009-.011.022 0 .037-.018.035-.034.042-.057.025-.108.06-.16.094-.028.018-.053.042-.08.062-.058.041-.11.09-.18.11-.047.012-.068.066-.113.081-.045.014-.07.058-.116.07-.041.01-.084.017-.094.073-.002.014-.019.009-.027.014l-.071.053-.104.079-.156.13c-.008.007-.031-.004-.039.005-.019.023-.066.011-.06.066.002.017-.009.02-.02.022a.222.222 0 0 0-.164.12c-.007.013-.015.027-.038.016-.05-.024-.06-.002-.06.034.001.023-.026.014-.038.02-.01.007.008.047.003.061-.005.013-.02.018-.038.016-.035-.004-.056.006-.063.033-.02.086-.097.109-.154.155-.047.037-.086.082-.131.12-.106.079-.2.169-.292.261-.014.014-.023.03-.033.045-.008.014-.012.033-.024.045l-.247.23c-.025.025-.04.057-.062.084-.015.018-.04.028-.059.042-.014.009-.04.01-.037.033.01.062-.033.083-.059.117-.017.021-.026.049-.042.072-.026.036-.05.073-.082.106-.029.03-.069.055-.098.088a.446.446 0 0 0-.082.116.317.317 0 0 1-.049.08c-.044.06-.08.125-.12.187-.033.05-.072.095-.103.146-.036.059-.064.123-.102.18-.059.08-.118.159-.147.252-.043.158-.165.279-.216.434-.017.043-.052.08-.074.123-.017.032-.033.065-.054.095-.007.011-.02.021-.044.024-.037.004-.043.018-.021.043.028.035.033.058-.033.059-.038 0-.042.019-.05.034l-.125.243c-.01.02-.03.04-.046.059-.01-.008-.052.097-.076.184-.068.252-.166.499-.213.756-.043.26-.11.515-.14.777a.835.835 0 0 1-.214.493c-.042.047-.075.101-.11.154-.05.074-.077.088-.167.059a1.178 1.178 0 0 0-.408-.081c-.077.003-.076-.079-.128-.115-.082.035-.162.109-.268.048-.017-.01-.07.047-.11.065-.068.03-.12-.003-.127-.078-.003-.045.005-.093 0-.139a.512.512 0 0 0-.036-.156c-.037-.078-.078-.152-.073-.244a.128.128 0 0 0-.009-.046c-.103-.27-.097-.272-.066-.49.009-.063.021-.127.018-.19-.01-.29.044-.576.101-.859.004-.024.003-.052.015-.07.097-.15.095-.32.125-.487.032-.167.008-.151.069-.18.015-.003.002-.02.001-.03-.001-.015-.008-.033-.004-.047l.069-.28.054-.193c.002-.005.003-.012.006-.017.053-.09.08-.188.105-.288.025-.073.06-.143.091-.213l.175-.369c.001-.004.006-.006.006-.01.009-.127.099-.214.146-.321l.065-.137c.012-.022.031-.04.045-.062.012-.022.021-.046.032-.069l.066-.129c.012-.022.031-.04.045-.06l.034-.062.114-.174a2.5 2.5 0 0 1 .14-.193.249.249 0 0 0 .047-.09c.01-.044.024-.086.081-.097.017-.003.028-.012.027-.027-.004-.067.048-.095.076-.14l.087-.132c.023-.033.044-.067.07-.098.058-.07.121-.136.183-.202.063-.074.115-.158.175-.235a1.26 1.26 0 0 1 .103-.114c.01-.01.032-.01.044-.019a.178.178 0 0 0 .044-.037c.007-.01.003-.03.013-.04.087-.072.115-.2.224-.252.026-.012.039-.04.059-.059l.06-.055c.012-.01.018-.024.03-.033.02-.013.042-.023.064-.034.02-.012.032-.037.066-.032.07.012.077-.037.07-.104-.002-.025.009-.042.027-.046.035-.008.054-.034.08-.053a.432.432 0 0 1 .173-.073c.038-.009.045-.05.069-.074.017-.017-.002-.081.075-.023.006.004.012 0 .01-.005-.013-.082.038-.089.089-.096.004 0 .007-.005.005-.012-.031-.084.016-.074.062-.067.058.01.098 0 .094-.072-.004-.061.022-.094.094-.06.052.023.075.009.07-.042-.007-.055.014-.076.06-.062.01.003.022.008.025.002.025-.044.08-.048.097-.101.017-.052.053-.072.1-.079.035-.005.072-.01.09-.037.016-.024.02-.06.055-.06.03 0 .04-.03.08-.016.013.005.018-.012.014-.03-.01-.064.01-.079.062-.048.037.022.056.014.068-.01.046-.1.138-.132.22-.177.01-.007.03 0 .044 0 .01 0 .029.006.024-.006-.028-.088.027-.049.041-.073.016-.027.047-.03.073-.04a.68.68 0 0 1 .074-.026c.049-.016.114 0 .129-.076.003-.016.02-.015.037-.008.039.015.074.024.076-.03 0-.004 0-.01.002-.01.08.03.08-.092.143-.095.056-.004.092-.048.14-.068a.196.196 0 0 1 .085-.013c.036 0 .075.012.112.015-.002.005.039-.02.05-.042.053-.109.143-.158.264-.15a.342.342 0 0 0 .246-.09.762.762 0 0 1 .411-.17c.083-.006.163-.039.248-.041a.224.224 0 0 0 .156-.062c.07-.07.158-.082.255-.07.108.01.215.016.31-.06.267-.063.546-.09.82-.085a.196.196 0 0 1 .104.05c.038.032.07.058.127.025.043-.025.044-.057.036-.096-.003-.014.02-.043.036-.047.019-.005.045.006.063.017.011.006.013.025.016.039.006.021.002.056.016.061.098.044.129.122.107.214.09.058.04.109-.005.161-.008.009-.004.027-.008.056l.411.028c.098.004.112.012.095.095-.005.028-.015.056-.023.085-.007.026-.016.052-.018.079 0 .007.02.016.03.024.007-.009.021-.02.02-.027-.009-.027-.022-.051-.034-.077" fill="#333"/><path d="M128.518 160.468l.027-.014-.102.003.075.011zm-28.335.268c-.134.005-.254.018-.38.028.083.013.173.036.25.035.117-.001.225-.02.362-.034-.103-.014-.183-.03-.232-.03zm6.31-9.32c.08.012.15.027.246.036.022.002.135-.016.205-.026l-.18-.027-.27.016zm-17.003 9.44c.78.003 1.324.007 1.837-.036l1.267.014 2.405-.032c1.122-.005 2.245-.009 3.412-.012a12.516 12.516 0 0 1-.093-.13l3.29-.01c.136 0 .27.024.405.038l-.006-.002.985.048-.021-.002c.36.033.531.005.63-.045l.047-.01c.866-.032 1.684-.085 2.588.01.539.058 1.302.038 2.29-.011l-1.824-.086 3.023-.054c.378-.007.591.026.712.075-.204.007-.42.01-.606.022-.092.006-.127.032-.187.048.142.001.332.01.419 0 .153-.017.244-.047.36-.072l.223-.032c.616-.067.632-.07 1.21.011.437.061.616.006.844-.035l-.013.002c.74.042 1.453.11 2.27.018.184-.02.537-.02.773-.011.526.021.788-.01 1.021-.077.11-.03.348-.028.534.003.098.015.296.039.357.033 1.049-.086 2.222-.048 3.326-.08.717-.02 1.485.002 2.23.006.633.107 1.475.06 2.255.071.861.013 1.63-.012 2.26-.096.64-.085 1.308-.044 1.978-.033.057 0 .156.027.134.037-.183.083.21.064.361.037a6.625 6.625 0 0 1 1.944-.07l-.408.02c.042.001.096.006.127.004l.27-.025h.33l-.011-.001 1.982.083c.42.019.712.001.961-.055a2.9 2.9 0 0 1 .511-.038c.609.044 1.143.013 1.705-.02.187-.012.508-.021.613-.007a6.141 6.141 0 0 0 1.783.002c.169-.023.613-.001.931 0 .368 0 .787.02 1.096 0 .98-.064 1.75-.042 2.411.084.18.034.562.04.668-.005.232-.1.71-.104 1.278-.104l3.216-.009 1.108.017.276.006.188-.004c.126.008.246-.027.371-.035l.139-.013.114-.041.022-.016c.327-.126.621-.323.882-.562.485-.442.759-1.03.952-1.614.053-.166.078-.323.08-.578a7.001 7.001 0 0 0-.063-.876 7.045 7.045 0 0 1-.05-.742c-.021-.986-.066-1.965-.038-2.964.013-.457-.008-.984-.016-1.48l-.016-.911-.005-.228v-.026c2.62 2.644.726.732 1.31 1.323h-.085l-.11.001-.444.002-3.41.004-3.83.004-4.683.003c-1.866-.007-3.71-.046-5.598-.024-1.66.019-3.333.002-5-.002-1.08-.003-2.163-.007-2.976-.14-.631.059-1.132.168-1.882.076l.201-.018a4.432 4.432 0 0 1-.11.002c-.04.004-.065.01-.097.015-.312.014-.627.038-.94.038l-4.023-.01c-.124 0-.344-.02-.341-.032.019-.094-.394-.088-.77-.072-.483.02-.932.015-1.42.01-.955-.011-1.926.003-2.89.006-.892.112-1.957.074-2.96.09-.813.012-1.549.016-2.176-.095-.46-.082-1.067-.067-1.653.023-.449.068-.951.072-1.485.073l-5 .002c-.542 0-1.08 0-1.535-.05a3.598 3.598 0 0 0-.874.012 4.715 4.715 0 0 1-.444.023c-1.234.015-2.47.04-3.698.037a47.573 47.573 0 0 1-2.663-.057c-.977-.059-2.064-.073-3.077.043-.409.047-.992.064-1.511.084-.657.024-.736-.134-1.273-.11-.496.024-.764.141-1.495.093a9.05 9.05 0 0 0-.627-.017l-.949.023.011.002a6.93 6.93 0 0 0-1.225.003c-.713.052-1.399.076-2.151.01a8.378 8.378 0 0 0-1.078-.002c-.919.072-1.92 0-2.833.062a5.356 5.356 0 0 1-.615-.016c-.477-.033-.911-.01-1.399.005-1.26.042-2.578.093-3.534-.097a2.58 2.58 0 0 0-.258-.028c-.31-.021-.711-.033-.87.017-.482.151-1.248.16-2.169.136-.415-.012-.856-.01-1.286-.008-.635.003-1.29.026-1.731-.074-.086-.02-.39-.02-.598-.023-.481-.006-.967-.016-1.446-.009-.672.01-1.36-.008-1.984.077-.29.04-.903.026-1.37.037-.475-.09-1.15-.067-1.787-.062-.548.004-1.079 0-1.544-.047-.565-.057-1.29-.042-1.64.014-.448.073-.822.05-1.29.053-.837.005-1.372-.067-1.949-.135l-.033-.024.047.022c-.267.074-.686.096-1.217.098l-2.806.016H46.86l-.701-.004-.35-.004-.173-.002-.025-.004a.95.95 0 0 0-.26 0 .909.909 0 0 1-.372-.035c-.012-.003-.022-.018-.036-.03l.162-.11c-.134.002-.218 0-.303.006-.04.003-.07.03-.067.082.004.067-.044.089-.092.076a.64.64 0 0 1-.191-.082.379.379 0 0 0-.195-.075 6.973 6.973 0 0 1-1.14-.139.337.337 0 0 0-.117-.001c-.187.025-.359-.03-.527-.1l-.568-.235c-.022-.008-.046-.011-.069-.014l-.443-.06c-.057-.008-.115-.017-.16-.075.033-.01.047-.019.062-.02l.188-.006.017.014-.018-.012c-.021-.028-.077-.034-.054-.093.02-.006.043-.016.065-.017.063-.003.126-.007.188-.002.102.009.035-.143.13-.138l-.097-.096.002.002c-.06-.02-.118-.047-.178-.056L41 150.35c-.034-.004-.068-.02-.106-.032.092-.142.224-.164.356-.178l.424-.032a.268.268 0 0 1 .216.067.297.297 0 0 1 .222-.112c.11-.006.22-.017.328-.038l.624-.136c.115-.02.233-.018.35-.028.274-.022.542-.09.817-.112.408-.03.812-.1 1.218-.144l.14-.014.033-.004.198-.005.473-.008 1.892-.035 3.79-.06 9.534-.121.8-.02a41.906 41.906 0 0 1 3.2.007c.943.04 1.89.028 2.877.003l5.454-.1 3.873-.028 12.305-.074 9.698-.041 8.735-.03 4.533-.018 6.471-.004c.322 0 .7-.01.954.01.852.07 1.662.103 2.534-.002.096-.01.314 0 .475.001l1.29.009c2.371.003 4.74.008 7.113.013l3.061-.009 8.559.025 7.346-.002 1.708.001 1.354.002.677.002h.309c.494.498-1.1-1.113 1.107 1.116v.027l.003.348.022 2.784.022 2.784.011 1.4a5.361 5.361 0 0 1-.283 1.728c-.464 1.378-1.51 2.529-2.825 3.075a4.996 4.996 0 0 1-1.016.303c-.175.025-.348.064-.524.067-.17.009-.371.022-.494.018l-1.68-.001-6.716-.005-9.708-.008-5.99.013-7.925.005-12.457.066-8.568.047-6.464.052c-2.374.013-4.758.001-7.12.033a393.15 393.15 0 0 1-6.3.03c-5.988-.016-11.98.042-17.968-.001-3.403-.031-6.774-.005-10.213-.055a17.708 17.708 0 0 1-1.424-.073l-.716-.06-.72-.103a12.174 12.174 0 0 1-2.885-.763c-.956-.367-1.872-.993-2.618-1.773-.174-.207-.381-.39-.525-.62l-.452-.672c-.24-.474-.5-.945-.654-1.44-.066-.191-.142-.382-.2-.574l-.147-.578a9.904 9.904 0 0 1-.233-1.154 11.309 11.309 0 0 1-.149-1.15l-.008-.18c-.006-.223-.024-.448-.016-.67l.006-1.154c-.012-.46.173-.999.504-1.339.311-.334.754-.507 1.162-.486.076 0 .144.037.22.061-.083.099-.213.157-.189.273.027.155-.06.262-.154.368-.048.051-.078.116-.116.166-.193.27-.163.58-.102.767.015.06.036.07.065.155l.088.252c.057.168.108.337.137.513.04.236.077.473.14.702l.082.344.072.579.112.58c.061.392.166.763.271 1.132.326 1.106.842 2.087 1.591 2.805.743.724 1.729 1.193 2.828 1.49.295.077.68.17.975.152-.337-.078-.66-.138-.964-.214-.293-.097-.59-.17-.871-.272-.346-.16-.61-.231-.817-.393-.213-.151-.455-.292-.727-.597.457.404 1.04.666 1.628.92.313.099.625.203.945.293.333.066.658.151.996.208 1.362.24 2.768.265 4.234.292 1.658.025 3.356-.006 4.98.07.184.008.437 0 .625-.012.586-.038 1.15-.026 1.743-.005.353.012.737.006 1.11.007l3.553.007 2.26.014 9.697.015c.485 0 .98-.006 1.194.086.047.021.333.039.52.042a13.8 13.8 0 0 0 1.558-.047c1.072-.107 2.297-.123 3.52-.13.282-.002.712.02.834.053.498.134 1.165.12 1.94.072.227-.014.487-.016.942-.03l-1.489-.02c-.073-.001-.178-.021-.18-.033-.002-.012.081-.031.16-.037a5.67 5.67 0 0 1 .457-.02l6.96-.031c.112-.001.227.02.369.034l-.535.07c-.81-.017-.81-.016-1.846.035z" fill="#333"/><path d="M42 157.976l-.136-.297-.108-.322c-.301-.79-.465-1.702-.588-2.627l-.036-.326-.009-.05-.018-.103-.035-.205c-.002-.013-.013-.025-.022-.037-.003-.005-.013-.01-.017-.009-.011.005-.031.014-.031.02.007.074.014.149.026.222l.025.144c.003.02.003.003.009.056l.027.247c.02.164.034.33.067.488l.142.808.197.77c.052.235.152.43.223.646.04.104.075.213.12.313l.146.286.018-.024zM43.44 158.41c-.085-.085-.206-.233-.317-.34-.058-.056-.12-.086-.123-.061a.5.5 0 0 0 .098.2c.175.255.41.468.635.646.103.086.247.161.266.142.013-.015-.14-.19-.24-.298-.07-.076-.18-.166-.32-.289M44.193 160.06c-.065-.021-.17-.061-.189-.06-.018.003.026.044.074.068.047.021.13.043.196.065l-.08-.073z" fill="#333"/><g transform="translate(26 161)"><mask id="f" fill="#fff"><use xlink:href="#e"/></mask><path d="M57.714.35l.015-.014-.059.003.044.01zM41.23.59c-.078.004-.149.018-.222.027.05.013.101.037.146.035.068 0 .13-.02.21-.033-.06-.013-.106-.03-.134-.03zm65.472 0c-.046-.013-.087-.028-.142-.037-.013-.002-.079.016-.12.025l.105.028.157-.015zM35.01.699c.453.005.77.01 1.068-.034.247.006.494.019.738.016l1.399-.03L40.2.642l-.055-.13L42.06.507c.08 0 .158.024.236.037l-.004-.001.573.048-.012-.002c.21.033.31.006.366-.044l.028-.01c.504-.032.98-.083 1.506.013.313.057.757.038 1.333-.01A989 989 0 0 1 45.023.45L46.78.4c.22-.007.344.026.415.075-.119.007-.245.009-.353.02-.054.007-.074.032-.109.05.083 0 .193.01.244 0 .089-.018.142-.047.209-.072.043-.01.081-.023.13-.032.359-.066.368-.069.704.012.254.062.359.007.49-.033l-.006.001c.43.042.844.11 1.32.02.107-.02.312-.02.45-.01.306.022.458-.01.594-.075.063-.03.202-.028.31.002a.88.88 0 0 0 .208.035c.61-.086 1.293-.047 1.935-.076.417-.02.863.002 1.297.006.368.108.859.062 1.312.074.501.012.948-.01 1.315-.094.372-.084.761-.043 1.15-.031.033 0 .09.027.078.038-.106.082.123.062.21.036.323-.098.66-.15 1.132-.068l-.239.02c.025 0 .057.006.075.004l.156-.025H60h-.006l1.153.083c.245.02.415.003.56-.053.054-.021.233-.045.297-.037.354.044.665.013.992-.019.108-.01.295-.02.357-.005.352.084.66.092 1.036.004.098-.023.357-.002.542 0 .214.001.458.02.637.001.57-.062 1.019-.04 1.403.086.105.034.327.04.389-.005.135-.1.413-.103.743-.102l1.87-.006c.432.005.859.03 1.288.044l.118.026.104-.012.022-.006c.301-.017.6-.04.905-.048.556-.016 1.105-.036 1.618.063.27.052.634.066.954-.01.105-.024.277-.04.42-.041.557-.007 1.111-.04 1.676.003.258.02.556.006.836.004l1.032-.005 4.212.02 2.725.015c1.084.014 2.157.06 3.256.045.966-.012 1.938.011 2.908.022.628.006 1.259.015 1.732.15.367-.055.658-.162 1.095-.068l-.118.017c.022 0 .048.001.064-.001.023-.003.039-.01.057-.015.182-.012.365-.035.547-.034l2.34.025c.072.001.2.023.198.034-.01.093.23.089.448.074.281-.019.542-.011.827-.004.555.014 1.12.005 1.68.005.52-.109 1.14-.066 1.722-.079.473-.01.902-.01 1.266.104.269.083.621.07.962-.017.261-.066.554-.068.864-.066l2.909.016c.315.002.627.005.892.057.181.035.34.026.509-.009.067-.013.17-.02.259-.022.717-.01 1.437-.03 2.15-.023a16.04 16.04 0 0 1 1.55.069c.568.06 1.2.08 1.79-.032.238-.045.577-.06.88-.078.381-.022.427.137.74.114.288-.022.444-.138.87-.087.11.013.243.021.365.02l.55-.02-.005-.001c.234.042.472.03.712.002.415-.05.814-.071 1.252-.003.16.025.459.029.627.007.534-.068 1.117.007 1.648-.05.094-.01.25.004.358.017.277.036.53.015.813 0 .734-.037 1.5-.082 2.056.11a.848.848 0 0 0 .15.03c.18.023.414.035.507-.014.28-.148.726-.155 1.262-.127.24.014.497.013.747.013.37 0 .75-.02 1.007.08.05.02.226.023.348.026.28.007.563.02.842.014.39-.007.79.014 1.154-.07.169-.037.525-.022.797-.03.276.092.668.07 1.039.068.319-.002.627.005.898.053.329.058.75.047.954-.008.261-.07.478-.046.751-.047.486-.003.798.072 1.133.142l.02.023-.028-.021c.155-.073.399-.093.709-.093l1.632-.006.816.005.408.007.204.006.1.003.025.003a.898.898 0 0 0 .26 0 .902.902 0 0 1 .372.038c.012.002.021.018.036.03l-.162.109c.134-.002.219 0 .303-.006.04-.003.07-.03.067-.08-.004-.068.044-.09.092-.077a.666.666 0 0 1 .192.083c.06.04.12.071.194.075.383.02.764.06 1.14.142a.327.327 0 0 0 .117.002c.187-.024.359.032.527.101l.567.236c.022.01.046.011.069.015l.443.06c.057.008.114.019.159.076-.032.01-.046.019-.06.02l-.19.005-.016-.014.018.012c.021.028.077.034.054.093-.021.006-.044.015-.066.016-.063.003-.126.007-.188.002-.102-.01-.036.143-.13.137l.096.096-.001-.002c.059.019.117.047.178.055l.538.064c.034.004.068.02.107.033-.094.14-.225.163-.357.176l-.425.03a.272.272 0 0 1-.216-.068.295.295 0 0 1-.222.111c-.11.007-.22.017-.328.038l-.625.132c-.114.02-.233.017-.35.027-.274.022-.542.088-.818.108-.408.03-.813.097-1.219.14l-.138.014-.035.004-.117.003-.275.007-1.102.027-2.204.046-5.546.083-.467.016c-.627.032-1.243.03-1.86-.018-.549-.043-1.1-.035-1.674-.014-1.05.04-2.113.06-3.173.078l-2.254.012-7.158.027-5.641.004-5.082-.005-2.637.001-3.765-.02c-.187-.002-.406.008-.554-.014-.496-.072-.967-.109-1.475-.008-.055.01-.182-.002-.275-.003l-.75-.013-4.139-.04-1.781-.004-4.979-.057-5.267-.035-6.3-.06-7.813-.027-5.647-.018-3.485.007-4.61-.002c-2.415.018-4.832.035-7.247.054l-4.984.04-3.76.043c-1.382.012-2.768-.002-4.143.027-1.225.027-2.44.032-3.665.024-3.483-.02-6.968.03-10.452-.018l-5.929-.05-6.385-.103-1.244-.021-.622-.011-.161-.012-.625-.046-1.085-.07-.85-.052a4.344 4.344 0 0 1-.79-.147C.094 2.265.052 2.23 0 2.201c.055-.097.157-.142.152-.257-.007-.156.082-.253.21-.32.064-.033.122-.077.187-.104.33-.133.642-.305.99-.395.343-.089.673-.222 1.03-.26l.715-.092.357-.045L5.06.693C6.495.664 7.928.603 9.376.624c.195.002.44.022.623-.061a32.315 32.315 0 0 0-1.22.01c-.514.016-.69 0-1.264-.088 1.738-.023 3.461-.01 5.173.038.964.027 1.952-.002 2.896.075.107.009.255 0 .364-.011.341-.038.67-.026 1.014-.005.205.013.43.008.646.009l2.066.01 1.316.017 5.64.023c.283.001.57-.005.695.088.028.021.194.039.303.042.316.009.627.001.906-.046.623-.105 1.336-.12 2.048-.126.164-.002.414.022.485.054.29.133.678.12 1.129.073.132-.014.283-.016.547-.029l-.866-.021c-.043-.001-.103-.022-.104-.033-.002-.013.047-.031.093-.037.08-.011.176-.02.265-.02l4.05-.024c.064 0 .131.021.214.035-.124.027-.218.048-.311.07-.472-.018-.472-.017-1.074.031z" fill="#333" mask="url(#f)"/></g><path d="M32.99 161.008l-.486-.008-1.831.069-.215.008-.057.009-.115.017-.23.034c-.015.003-.03.025-.044.041a.064.064 0 0 0-.012.037c.003.027.012.076.018.076.083.001.165.001.247-.01l.162-.025.051-.007.16-.008.32-.016 1.083-.063.959-.095-.01-.059zM33.427 161.002c-.087.01-.221.019-.332.042-.058.012-.104.053-.093.078.01.026.087.068.145.07a5.2 5.2 0 0 0 .637-.002c.096-.007.212-.066.216-.103.002-.025-.16-.061-.265-.08-.073-.012-.175-.004-.308-.005" fill="#333"/><path d="M33.136 161c-.047.007-.122.01-.134.019-.011.008.029.029.065.033.036.002.092-.01.14-.016l-.071-.036z" fill="#333"/><g transform="translate(101 133)"><mask id="h" fill="#fff"><use xlink:href="#g"/></mask><path d="M.201 46.037L1.738 9.158c.066-.686.445-1.23.908-1.37.275-.083.543-.186.776-.357l9.09-6.694a2.866 2.866 0 0 1 3.753.297l9.355 9.525c.575.072.985.761.934 1.572l-.607 34.392c-.05.805-.537 1.451-1.113 1.477L1.26 47.686c-.652.03-1.147-.74-1.059-1.649" fill="#FFF" mask="url(#h)"/></g><path d="M114.244 142.617l.047.075c.017.03.014.054-.018.075-.012.006-.014.026-.02.04.047.018.05.044.019.08-.024.027-.04.048-.09.03-.042-.018-.043.045-.07.066-.011.01-.042.02-.046.016-.013-.015-.03-.039-.025-.055.012-.043.033-.082.056-.135-.142.059-.142.059-.245.059.015-.082.095-.158.027-.244-.047.003-.034.04-.04.065-.022.083-.087.124-.166.151-.048.017-.09-.019-.078-.064.016-.055.06-.107.005-.169-.01.015-.017.029-.027.04-.039.044-.078.05-.104.008a.99.99 0 0 1-.107-.22c-.018-.061-.013-.127-.092-.156-.012-.004-.024-.033-.02-.045.031-.098-.046-.177-.048-.271-.001-.068-.034-.134-.01-.206.009-.023-.009-.055-.014-.083-.006-.028-.018-.057-.012-.084.033-.168.019-.335-.02-.5-.003-.012-.008-.025-.006-.035.039-.14-.007-.278-.005-.418.002-.225-.02-.45-.035-.676l-.001-.005c-.004-.056-.013-.11.016-.16a.224.224 0 0 0 .007-.213.405.405 0 0 1-.018-.234c.018-.121.02-.243.027-.366a.153.153 0 0 0-.013-.071c-.029-.059-.02-.117-.02-.179.002-.226-.007-.453-.014-.68l-.018-.366c-.004-.258-.016-.516 0-.772.011-.172-.02-.341-.01-.512.009-.165-.012-.332 0-.497.01-.147.023-.292-.014-.438-.008-.034.002-.072.001-.11l-.007-.33-.003-.477-.01-.75c-.001-.042.017-.086.016-.127-.007-.108.024-.218-.016-.326a.253.253 0 0 1-.005-.11 3.463 3.463 0 0 0 0-.753c-.005-.049-.012-.105.008-.145.042-.085.03-.166.008-.249-.016-.054.006-.106.007-.158.002-.046-.033-.091-.039-.139-.005-.048 0-.1.012-.145a.62.62 0 0 0 .014-.255c-.042-.27-.013-.539-.01-.809l-.003-.662.017-1.454a23.494 23.494 0 0 1-.005-.202c-.003-.062-.012-.123-.01-.184.005-.416.012-.835.02-1.251l-.01-.386c0-.085.012-.17.018-.256.004-.06.022-.125.008-.182-.038-.159-.02-.317-.02-.477a65.09 65.09 0 0 0-.008-.311v-.496l.02-.477a6.865 6.865 0 0 0-.005-.534c-.006-.117-.003-.232 0-.348 0-.278.002-.552.003-.828l.008-.663-.007-.772c.002-.362.027-.725.012-1.087-.025-.6.021-1.202.002-1.804-.007-.177.01-.354.015-.532.006-.134.01-.264.015-.403a.404.404 0 0 1 .028-.14.21.21 0 0 0 .004-.178c-.033-.082-.042-.16.008-.246.03-.048.027-.118.03-.179l.025-.994c.003-.085.013-.171.02-.257l.007-.094.01-.154.05-1.398a.745.745 0 0 1 .156-.44c.033-.041.058-.088.085-.134.038-.063.06-.075.135-.05.111.036.223.07.342.064.064-.002.066.062.11.09.068-.03.131-.087.22-.04.016.006.057-.038.09-.052.055-.023.099.001.107.058.006.034 0 .07.007.104.008.04.015.081.036.116.033.057.071.11.07.178 0 .01.004.023.01.033.095.193.095.193.097.353 0 .047-.002.095.009.14.046.207.03.418.053.627.002.016.008.036.003.052-.047.122-.01.242.002.363.009.089.034.19-.01.286-.01.024.005.06.009.09.005.042.015.085.017.128l.027.844.014.588v.055c-.014.3-.007.6.003.9l.01.679.005 1.194c0 .012-.002.025 0 .037.04.343.002.686.012 1.03l.013.44-.004.221.007.22.01.422-.005.22.003.203-.004.605-.006.696c0 .097.003.196.015.292a.936.936 0 0 1-.006.366.218.218 0 0 0-.004.109c.037.152.017.305.02.458l.01.458.004.347-.011.79.026.845v.441c0 .043-.012.085-.015.128a1.72 1.72 0 0 0-.006.162c.001.037.016.073.015.11-.011.324.041.648.01.973-.007.079.004.16.004.24v.237l.004.127-.013.2c-.005.066.004.138-.019.199-.046.125-.019.237.027.354a.297.297 0 0 1 .014.145c-.014.091-.008.183-.01.274-.005.17-.023.342-.051.51-.016.1.006.195.008.292.001.07.052.146-.025.208-.006.005-.006.025-.002.033.062.121.041.247.02.372-.002.01 0 .027.007.035.072.083.041.17.013.26a.469.469 0 0 0 .003.34.357.357 0 0 1-.005.321.235.235 0 0 0-.007.23c.04.083.044.164.012.249-.007.017-.016.036-.014.053.017.133-.007.27.02.399.028.124.024.24.005.363-.015.09-.026.184-.015.274.011.076.035.144.02.227-.012.07.005.143-.023.216-.009.023 0 .06.016.083.05.074.052.145.007.223a.248.248 0 0 0-.021.178c.052.266.035.534.034.802 0 .035-.014.071-.02.108-.004.023-.016.061-.006.069.077.059.024.138.036.206.013.077 0 .159-.002.238l-.013.22c-.01.143-.043.284.008.427.012.03.004.073-.007.106-.025.077-.045.153-.004.231.003.006.007.012.006.017-.052.165.042.322.021.488-.017.144.004.292.002.44 0 .078-.01.157-.02.235l-.052.27c-.003.022 0 .052.014.065.064.065.067.135.029.21-.031.062-.028.116 0 .183.04.097.052.202.018.308-.016.056-.018.116-.032.172-.01.042-.008.081.018.117.043.06.034.12.005.183-.033.07-.059.143-.015.219-.014.19-.006.384-.051.572-.006.025-.032.05-.055.066-.032.025-.057.045-.037.087.016.033.043.036.077.034.011-.001.033.017.034.029.002.013-.01.03-.022.043-.006.006-.022.006-.035.007-.018.003-.046-.003-.053.007-.048.065-.11.083-.19.06-.053.06-.094.022-.136-.016-.007-.007-.022-.005-.048-.01l-.041.302c-.008.072-.015.082-.084.067l-.072-.021c-.022-.006-.043-.014-.066-.017-.006-.001-.014.014-.022.022.008.005.016.017.022.016.023-.006.045-.014.067-.022M101.478 177.167l-.055-.077c-.021-.03-.023-.057.005-.084.01-.009.01-.03.016-.046-.046-.016-.05-.046-.023-.087.022-.032.034-.056.083-.036.04.016.038-.05.061-.072.01-.01.039-.021.043-.017.013.016.03.04.026.056-.008.043-.026.085-.045.142.129-.072.13-.07.225-.074-.013.075-.076.16 0 .232.042-.01.026-.042.029-.067.005-.08.068-.123.14-.15.043-.018.084.01.074.048-.01.046-.042.097.017.14.007-.013.012-.026.02-.037.03-.04.066-.05.094-.021.046.049.093.096.13.145.03.039.033.088.112.085.012 0 .03.014.03.023-.005.075.08.1.11.154.02.042.066.067.073.118.002.018.027.026.04.04.013.014.034.023.041.04.04.108.123.191.23.235.007.003.016.005.02.011.043.09.142.113.218.157.124.082.263.12.412.14.075.02.148.014.214.055a.44.44 0 0 0 .148.036c.076 0 .153-.009.228-.023.166-.031.329-.028.504-.017.26.017.524.02.787.027a.64.64 0 0 0 .154-.013c.125-.026.25-.019.383-.018l1.463-.013.789-.016c.554-.004 1.11-.016 1.661 0 .37.01.734-.018 1.103-.01.355.01.713-.01 1.067 0 .318.01.63.022.943-.012.075-.008.158.002.237.001l.71-.007 1.028-.002 1.614-.01c.09 0 .183.018.273.016.233-.006.47.024.703-.014.07-.012.157-.01.235-.005.54.027 1.08.025 1.62 0 .104-.005.226-.011.314.008.182.04.355.028.533.007.118-.014.23.005.342.008.098.002.196-.032.298-.037a1.93 1.93 0 0 1 .313.011c.183.02.363.026.548.014.58-.04 1.16-.013 1.741-.01h.713l.356-.002h.178l.11-.006c.626-.027 1.196-.558 1.271-1.194.012-.097.012-.147.01-.32l-.01-.398.02-2.72-.009-.839c0-.185.012-.37.017-.555.004-.132.02-.272.008-.396-.036-.345-.018-.69-.018-1.036l-.008-.678.001-1.077.02-1.039c.002-.386.004-.772-.005-1.157-.006-.255-.004-.505 0-.759 0-.6.002-1.2.004-1.798l.008-1.44-.006-1.68c.002-.787.026-1.575.013-2.36-.023-1.309.02-2.614.002-3.921-.005-.384.01-.771.016-1.157l.014-.877c.002-.102.009-.212.027-.304.026-.134.025-.255.003-.386-.03-.18-.04-.348.008-.535.028-.105.026-.257.028-.388l.024-2.161.019-.558.017-.36.045-1.401c.007-.16.051-.31.147-.442.03-.041.054-.089.08-.134.035-.064.055-.076.126-.051.104.036.208.07.32.065.06-.003.062.063.103.09.063-.03.122-.087.206-.04.014.006.052-.039.083-.052.051-.023.093.001.101.057.005.035 0 .07.006.105.007.04.015.082.034.116.03.057.066.11.066.178 0 .012.003.024.008.034.09.194.089.194.09.355.001.046 0 .094.009.14.043.207.029.419.05.628.002.017.007.037.003.052-.044.122-.009.242.001.364.009.038.032.321-.009.518-.01.052.004.129.008.194.005.093.014.184.016.277l.025 1.838.012 1.276v.12c-.014.652-.008 1.303.002 1.955l.008 1.476.004 2.596v.08c.038.745.001 1.492.01 2.238l.012.958-.004.48.006.478.01.918-.006.478.003.44-.004 1.315-.007 1.511c0 .212.003.426.014.636.014.267.025.529-.006.794a1.153 1.153 0 0 0-.004.237c.034.33.016.665.019.997l.008.995.004.754-.011 1.716c.008.61.015 1.226.024 1.837v.96c0 .092-.012.183-.015.276l-.008.373c-.006.108.009.219-.01.327-.122.968-.67 1.902-1.537 2.378a3.829 3.829 0 0 1-.65.3c-.227.07-.462.117-.697.137-.12.008-.276.021-.35.017l-.43-.012c-.145-.005-.3.004-.429-.017a2.22 2.22 0 0 0-.762.024c-.095.016-.212.02-.312.013-.198-.014-.393-.008-.59-.01a18.42 18.42 0 0 1-1.098-.048c-.216-.015-.42.005-.629.007-.15.001-.314.05-.446-.023a.174.174 0 0 0-.072-.002c-.261.059-.53.039-.8.019a.212.212 0 0 0-.074.005c-.181.069-.366.04-.56.014a2.216 2.216 0 0 0-.733.002c-.22.04-.465.05-.691-.006a1.1 1.1 0 0 0-.494-.007c-.18.039-.353.042-.536.012-.036-.006-.078-.015-.114-.013-.286.016-.582-.007-.857.02a4.69 4.69 0 0 1-.782.003 4.643 4.643 0 0 0-.59-.014c-.164.01-.31.033-.49.019-.148-.013-.309.004-.464-.022a.476.476 0 0 0-.179.014.855.855 0 0 1-.479.007 1.135 1.135 0 0 0-.384-.02c-.57.048-1.149.033-1.725.03-.077 0-.154-.012-.232-.018-.051-.004-.132-.015-.15-.005-.126.072-.297.022-.443.034-.166.012-.341 0-.512-.002a70.998 70.998 0 0 0-.474-.012c-.306-.011-.612-.042-.918.007a.82.82 0 0 1-.228-.007c-.167-.024-.33-.043-.498-.004-.011.003-.026.007-.037.005-.354-.048-.692.04-1.05.02-.31-.017-.63.003-.944.002-.17-.001-.341-.01-.51-.02a5.816 5.816 0 0 1-.38-.04c-.13-.03-.262-.051-.39-.093-.08-.024-.11-.028-.131-.02-.103.038-.198.004-.283-.066a.5.5 0 0 0-.233-.1.693.693 0 0 1-.382-.193c-.058-.052-.12-.108-.176-.165a.298.298 0 0 0-.137-.087c-.088-.024-.147-.089-.191-.168-.048-.092-.093-.182-.194-.234-.155-.213-.312-.435-.383-.69a.188.188 0 0 1 .008-.104c.013-.042.022-.075-.014-.12-.029-.036-.053-.03-.082-.016-.01.004-.037-.012-.044-.026-.008-.017-.005-.044 0-.063.002-.01.016-.015.026-.02.016-.01.043-.011.045-.025.013-.097.063-.134.142-.13.029-.087.075-.05.128-.02.01.005.022 0 .047-.003a3.976 3.976 0 0 1-.05-.353c-.006-.085 0-.096.067-.09l.068.013c.022.003.043.009.064.008.006 0 .012-.018.018-.027-.008-.005-.018-.015-.024-.013-.02.009-.039.022-.058.033" fill="#333"/><path d="M127.522 144.094l.054.076c.022.03.022.057-.007.084-.01.008-.01.03-.014.046.045.015.052.045.024.085-.022.032-.035.055-.083.036-.04-.016-.04.05-.063.072-.01.01-.04.021-.042.017-.014-.016-.03-.04-.026-.056.009-.043.029-.085.044-.141-.126.07-.127.068-.222.074.008-.075.075-.159-.002-.23-.042.01-.026.042-.029.066-.008.08-.068.122-.139.15-.043.017-.085-.01-.077-.048.013-.046.044-.097-.014-.14-.007.014-.012.027-.02.037-.031.041-.066.05-.095.021-.046-.048-.097-.094-.13-.143-.029-.04-.036-.087-.114-.084-.012 0-.03-.014-.028-.024.005-.075-.083-.099-.111-.153-.022-.04-.068-.065-.073-.117-.002-.017-.027-.026-.04-.04-.015-.013-.036-.022-.041-.038a.404.404 0 0 0-.229-.233c-.007-.004-.016-.005-.02-.011a.15.15 0 0 0-.042-.055 47.45 47.45 0 0 0-.104-.08c-.056-.042-.115-.08-.166-.125-.171-.153-.347-.279-.538-.425-.097-.08-.194-.153-.26-.248a1.13 1.13 0 0 0-.355-.317 2.124 2.124 0 0 1-.406-.332c-.193-.19-.398-.374-.6-.558a.735.735 0 0 0-.128-.096c-.116-.066-.21-.158-.314-.249l-1.154-.991-.63-.528c-.437-.376-.88-.748-1.302-1.137-.284-.261-.587-.489-.871-.748-.272-.248-.566-.48-.837-.73-.243-.224-.48-.446-.747-.636-.063-.045-.122-.109-.185-.163l-.281-.24-.24-.186a3.692 3.692 0 0 0-.744-.434 3.834 3.834 0 0 0-1.314-.311c-.076-.003-.152-.024-.228-.026-.196.011-.4-.01-.59.06-.056.018-.129.026-.192.04a2.9 2.9 0 0 0-1.254.501.945.945 0 0 1-.224.138 1.11 1.11 0 0 0-.368.292c-.083.092-.183.153-.273.23-.077.065-.132.158-.208.232a2.17 2.17 0 0 1-.252.207c-.156.11-.301.23-.436.366-.427.429-.899.808-1.354 1.205l-1.111.982-2.455 2.14-.336.302-.302.28-2.058 1.785c-.12.125-.209.28-.273.44a1.713 1.713 0 0 0-.127.455.96.96 0 0 0 0 .162c.036.356.019.71.018 1.067l.009.699-.001 1.109-.02 1.07c-.003.398-.005.796.005 1.193.006.262.003.52 0 .78l-.004 1.854-.009 1.484.007 1.729c-.002.811-.026 1.623-.013 2.432.023 1.347-.02 2.692-.002 4.039.004.396-.01.793-.017 1.19l-.013.904c-.003.106-.01.22-.027.314a1.108 1.108 0 0 0-.003.398c.03.185.04.357-.009.55-.027.109-.025.265-.027.4l-.024 2.226-.02.575-.016.365-.046 1.387a.77.77 0 0 1-.147.437c-.03.042-.054.089-.08.134-.035.063-.055.075-.126.05a.869.869 0 0 0-.32-.064c-.06.002-.062-.062-.103-.09-.063.03-.122.087-.206.041-.014-.007-.053.037-.083.05-.051.023-.093 0-.101-.057-.005-.033 0-.069-.006-.103a.358.358 0 0 0-.034-.115c-.031-.056-.066-.108-.066-.176a.08.08 0 0 0-.008-.033c-.09-.192-.09-.192-.091-.352 0-.045.001-.093-.008-.138-.043-.206-.029-.415-.05-.623-.002-.017-.008-.036-.002-.051.043-.121.008-.24-.003-.36a1.988 1.988 0 0 1 .01-.53c.01-.054-.005-.134-.008-.2-.005-.096-.014-.19-.016-.286l-.025-1.892-.012-1.315v-.125a56.44 56.44 0 0 0-.002-2.013l-.009-1.52-.003-2.675v-.081c-.038-.768-.002-1.538-.01-2.306l-.012-.986.003-.495-.005-.493-.01-.946.005-.492-.002-.453.004-1.354.007-1.558c0-.218-.003-.439-.014-.654a4.973 4.973 0 0 1 .005-.82c.009-.076.012-.167.004-.243-.034-.34-.015-.684-.018-1.027l-.009-1.024-.003-.778c0-.123.001-.356.03-.552a3.234 3.234 0 0 1 1.194-2.089l.321-.292.701-.636.742-.654c.071-.062.15-.116.224-.177l.277-.237c.06-.055.113-.119.175-.172.552-.473 1.064-.988 1.629-1.448.137-.112.266-.238.4-.356l.398-.351.212-.191.344-.287c.116-.095.23-.208.346-.282.24-.153.411-.338.58-.543.062-.076.15-.16.234-.224.163-.125.312-.264.467-.398.29-.249.589-.49.889-.72.18-.137.324-.292.487-.438.113-.101.21-.251.393-.304a.253.253 0 0 0 .07-.053c.104-.126.233-.227.373-.316.135-.095.283-.17.436-.237a.365.365 0 0 0 .078-.048c.163-.172.397-.224.626-.293.293-.068.57-.137.869-.243.257-.087.565-.14.847-.091.204.024.407.04.607.014a1.6 1.6 0 0 1 .656.071c.043.015.091.035.135.043.175.027.349.07.517.13.17.05.336.11.496.169.16.049.307.113.447.191.142.073.278.156.408.256.199.136.387.3.578.441.162.119.272.192.41.329.108.11.245.207.349.333.033.04.103.09.15.112a.935.935 0 0 1 .38.322c.072.102.172.193.288.278.479.354.922.762 1.373 1.158.06.052.112.115.17.173.037.037.093.101.113.105.147.033.248.187.37.28.138.103.268.231.4.351l.363.333c.234.217.453.45.726.623a.906.906 0 0 1 .173.16c.115.132.23.258.388.344.01.006.026.013.033.022.246.278.568.444.836.703.232.225.495.429.742.645.132.117.261.24.386.364l.423.433c.046.044.065.056.083.055.088-.003.142.04.175.117.027.062.07.095.137.119a.47.47 0 0 1 .242.188c.026.044.086.099.097.126l-.001.002c-.005-.003.009.009-.01-.006l.005.005c.011.01.022.018.033.025a.223.223 0 0 0 .073.033.305.305 0 0 1 .19.167c.05.09.097.178.195.232.16.208.31.433.385.683a.184.184 0 0 1-.01.103c-.012.04-.023.075.014.12.03.034.055.029.083.015.01-.005.038.01.044.025.01.016.006.044 0 .062-.002.01-.016.015-.026.02-.016.01-.043.011-.045.025-.015.096-.065.134-.144.128-.025.086-.076.05-.127.021-.01-.005-.022 0-.047.002.025.117.037.234.05.35.009.083 0 .095-.065.088l-.069-.012c-.021-.003-.042-.009-.063-.008-.006 0-.012.017-.018.027.008.004.018.015.023.013.02-.009.04-.022.059-.033" fill="#333"/><path d="M111.525 146.445l-.113-.034c-.045-.015-.066-.04-.06-.086.004-.016-.015-.036-.022-.055-.057.017-.084-.01-.087-.07-.003-.046-.007-.079.055-.095.052-.014.001-.077.007-.115.003-.02.024-.05.03-.048.026.005.06.017.069.035.024.048.037.102.06.171.075-.165.078-.162.17-.239.04.084.048.207.174.222.033-.042-.006-.06-.022-.086-.051-.083-.028-.165.025-.247.033-.049.09-.05.111-.01.026.048.03.123.118.12-.003-.019-.007-.034-.007-.05 0-.062.03-.098.078-.092.077.013.164.01.23.032.053.017.102.047.17-.015.01-.01.037-.009.043.001.05.068.149.023.215.046.051.016.107.006.152.044.016.014.044 0 .066 0 .022.002.047-.005.066.002.116.066.254.061.374.014.009-.003.018-.01.026-.006.107.035.205-.029.302-.052a.984.984 0 0 0 .424-.236c.008-.01.012-.024.04-.002.041.03.053.018.042-.02-.011-.042.003-.049.025-.049.033 0 .056-.014.082-.023.006-.002.006-.01 0-.022-.014-.033.001-.034.01-.043a.378.378 0 0 0 .084-.113c.012-.022.017-.048.032-.068.026-.044.04-.095.085-.127.027-.026.011-.071.038-.096.027-.023.011-.066.038-.09.023-.023.05-.045.015-.086-.008-.01.007-.012.008-.02.003-.021.004-.043.01-.063l.015-.092c.011-.048 0-.098.007-.145 0-.008.024-.016.021-.024-.008-.021.028-.043-.018-.064-.014-.006-.011-.014-.006-.02.038-.05.021-.1-.01-.144-.007-.008-.015-.018.006-.028.044-.024.027-.038-.002-.049-.02-.006.003-.02.004-.032 0-.009-.042-.008-.05-.016-.007-.007-.004-.018.007-.03.02-.02.02-.039 0-.05-.058-.036-.048-.09-.064-.14-.01-.042-.045-.073-.06-.112a1.452 1.452 0 0 0-.15-.24.082.082 0 0 0-.03-.026c-.012-.006-.028-.006-.036-.015a1.184 1.184 0 0 0-.172-.172c-.02-.015-.05-.017-.069-.031-.013-.011-.02-.03-.033-.044-.008-.009-.01-.032-.027-.023-.05.025-.065-.013-.095-.021-.02-.008-.043-.007-.062-.014l-.092-.03c-.029-.011-.054-.042-.085-.047a.304.304 0 0 0-.107-.015c-.024.006-.046 0-.07-.004-.054-.016-.11-.008-.164-.012-.045-.004-.089 0-.134 0-.052.005-.1.031-.15.035-.068.02-.15.008-.21.055-.098.069-.23.087-.315.18-.023.027-.063.036-.097.053-.022.016-.043.034-.069.046-.01.006-.022.007-.045-.002-.033-.012-.043-.005-.03.024.019.038.018.057-.04.034-.031-.013-.04 0-.05.01-.055.046-.099.105-.146.16-.011.016-.03.027-.047.04-.008-.003-.053.06-.077.117-.153.323-.19.71-.088 1.063a.738.738 0 0 1-.01.409c-.01.05-.01.1-.013.153-.002.075-.015.1-.1.131-.126.046-.255.085-.368.167-.059.044-.107-.02-.171-.023-.046.07-.063.177-.186.18-.021.001-.026.08-.046.117-.033.063-.096.064-.152-.001-.035-.041-.062-.087-.092-.13-.037-.048-.076-.1-.123-.136a.516.516 0 0 1-.19-.22.161.161 0 0 0-.03-.045c-.205-.254-.21-.263-.263-.518-.016-.074-.027-.15-.044-.223-.095-.334-.06-.69-.011-1.032.003-.029.003-.063.014-.085.103-.184.123-.383.195-.576.074-.187.05-.185.12-.217.017-.005.01-.028.013-.043.004-.022.004-.046.013-.065.063-.126.132-.25.21-.368.058-.08.116-.16.178-.238.007-.007.012-.014.02-.02.12-.096.219-.21.332-.313.083-.08.173-.151.27-.214.166-.117.348-.213.534-.3.005-.002.013-.002.018-.006.144-.114.33-.133.499-.187.071-.027.144-.048.219-.066.038-.009.077-.009.114-.016.038-.007.074-.02.112-.025l.219-.033c.038-.004.076-.002.115-.002l.106-.004c.105.002.21 0 .315.015.12.014.24.029.358.054.05.01.1.015.153.012.067-.006.132 0 .183.054.015.015.034.024.053.02.09-.018.16.026.235.053l.227.079c.057.024.113.048.166.077.124.062.235.146.352.219.127.073.25.158.372.243.061.048.116.103.17.158.016.015.02.041.034.06a.549.549 0 0 0 .055.064c.013.013.039.016.05.031.101.134.258.229.321.392.016.039.05.067.073.101.024.034.041.072.062.107.01.02.027.036.037.057.013.031.024.065.035.098.01.034.04.06.028.101-.023.082.027.12.1.157a.077.077 0 0 1 .045.065c.003.05.025.092.037.138a.84.84 0 0 1 .02.27c-.008.053.027.095.04.144.007.034.073.063-.01.109-.006.003-.005.013.002.017.085.05.066.118.049.185-.002.005 0 .013.009.017.088.034.057.083.028.131-.034.06-.05.115.01.174.05.052.061.114-.008.166-.05.037-.053.075-.014.116.044.046.044.09.002.129-.009.007-.02.016-.018.025.013.07-.023.137-.006.206a.225.225 0 0 1-.032.185c-.024.042-.051.085-.05.132 0 .04.016.083-.013.12-.024.029-.017.072-.06.097-.012.008-.008.03.004.047.042.055.03.09-.035.11-.044.012-.06.04-.06.076.008.15-.084.267-.151.389-.01.016-.032.025-.048.037-.01.008-.033.018-.026.027.06.071-.016.076-.024.112-.01.042-.046.07-.072.102a.606.606 0 0 1-.081.085c-.057.05-.133.083-.136.179 0 .02-.02.031-.042.037-.049.012-.094.022-.088.084 0 .004.002.01-.001.01-.104.02-.086.154-.168.198-.072.034-.117.1-.178.148a.443.443 0 0 1-.113.058c-.05.014-.104.02-.153.031 0-.004-.047.031-.059.058-.054.127-.168.19-.31.213a.682.682 0 0 0-.3.133.93.93 0 0 1-.527.184c-.105 0-.21.02-.315.02a.373.373 0 0 0-.207.04c-.104.062-.218.05-.332.016-.127-.034-.25-.078-.392-.042-.337-.06-.682-.134-.97-.316a.213.213 0 0 1-.08-.104c-.021-.05-.04-.092-.114-.104-.059-.01-.078.015-.094.05-.005.012-.047.019-.065.01-.023-.008-.044-.035-.053-.058-.007-.012.003-.028.009-.041.007-.02.032-.043.023-.058-.066-.107-.047-.18.033-.236-.045-.104.034-.108.108-.118.013-.002.02-.018.043-.038-.122-.09-.227-.197-.333-.299-.075-.075-.076-.093-.006-.136.025-.014.052-.026.078-.039.023-.012.048-.023.068-.04.005-.004-.002-.026-.003-.039-.011.001-.03-.001-.033.005-.013.023-.022.05-.032.076" fill="#333"/><path d="M174.968 85.747c-.03-.432-.03-.866-.084-1.296l-.191-1.287c-.03-.18-.05-.363-.087-.541l-.135-.532-.282-1.062c-.358-1.054-.737-2.112-1.253-3.107-.11-.224-.212-.454-.329-.676l-.383-.647c-.265-.425-.489-.879-.805-1.27-.313-.417-.617-.84-.945-1.245l-1.057-1.153c-.46-.47-.974-.88-1.456-1.325-.794-.613-1.568-1.264-2.477-1.702-.323-.158-.641-.419-.989-.584-.48-.242-.958-.492-1.445-.724-.379-.15-.766-.28-1.148-.416-.384-.135-.765-.279-1.163-.367-1.27-.362-2.576-.6-3.89-.704l-.989-.054-.494-.026-.46-.004-1.826-.007-1.072.017-1.18.008-8.489-.026-3.865.004-2.362-.019c-.38-.01-.815.015-1.242.041-.426.028-.853.054-1.275.102-.535.1-1.06.171-1.597.22-.299.013-.614.097-.906.179-.289.082-.556.208-.835.276l-.485.111c-.159.05-.318.106-.478.176-.479.22-.954.388-1.472.543-.244.082-.564.246-.837.385-.722.336-1.378.785-2.059 1.191-.348.192-.649.453-.976.677-.317.236-.653.451-.96.703a6.115 6.115 0 0 0-.507.469c-.232.251-.484.485-.741.714-.236.25-.475.498-.704.754-.174.196-.378.376-.556.573-.973 1.24-1.88 2.543-2.536 3.979-.468.887-.782 1.843-1.116 2.787-.165.673-.361 1.34-.486 2.02-.035.229-.089.467-.108.683l-.074.682a5.253 5.253 0 0 0-.063.682l-.087 1.376c-.04.516.03 1.035.048 1.554.018.259.028.519.052.777l.113.77c.112 1.074.445 2.088.724 3.131l.407 1.14c.072.189.135.38.215.566l.264.547.536 1.09.636 1.035c.378.672.896 1.247 1.353 1.863.445.554.956 1.053 1.432 1.58.535.468 1.045.965 1.602 1.406.31.233.597.463.917.643.116.066.254.16.372.25.318.212.649.408.972.613.328.198.64.422.983.586.452.239.88.45 1.338.609.43.12.855.258 1.248.472.285.15.606.268.955.337.454.09.826.15 1.234.257.243.073.504.04.742.135.018.008.042.003.063.001.308-.015.606.008.9.106.046.015.102.004.153.003.051 0 .11-.02.15-.002.124.056.246.03.368.029.17.006.323-.107.494-.05.021.008.073-.01.082-.028.061-.12.176-.106.288-.13.137-.03.27-.089.394-.15.075-.036.065-.098-.009-.163-.019-.017-.043-.029-.068-.045.11-.083.198-.009.293.02.079.024.14-.04.114-.116-.045-.126-.113-.231-.254-.272-.042-.012-.106.003-.11-.07.15-.1.276.032.415.062a.504.504 0 0 0-.03-.227c.086 0 .17.007.255.007h.135c-.002.007-.007.012-.006.021.009.188-.048.363-.109.538-.04.12-.021.154.085.214.077.042.156.082.226.133.22.162.473.237.74.247l2.352.076.205.013.051.003.182.004.374.009 1.498.03 5.805.04c.352.003.76 0 1.043.046.199.032.389.045.577.05l.326.289.36.297.205.164.217.17.205.185.432.34c.335.267.622.59.99.82.012.008.022.02.034.03l1.138.96c.217.183.431.366.654.54.297.23.587.465.857.725l.053.045.571.458.83.652c.043.033.094.055.14.083.032.02.08.03.092.063.051.132.155.17.292.269.167.118.359.204.467.393.013.023.044.036.068.052.29.2.543.45.856.62.068.037.127.09.187.14.207.174.206.174.55.27a.136.136 0 0 1 .054.026c.086.075.192.087.299.109.064.013.126.049.185.083.05.03.09.075.14.107.08.05.157.023.184-.068.016-.053.002-.15.027-.161.151-.057.143-.195.175-.308.073-.02.15.029.21-.02l.102.086-.002-.176a1.15 1.15 0 0 1 .146-.13c-.033.08-.063.145-.08.211-.006.028.02.067.042.093.005.007.054-.01.073-.028.04-.036.042-.14.108-.113.08.032.104-.004.142-.05.05-.06.044-.104-.032-.133.01-.023.013-.056.031-.068.052-.035.056-.075.028-.124-.003-.005-.007-.01-.009-.016a.182.182 0 0 0-.012-.092c.02.006.038.013.057.017.111.025.122.009.133-.112.015-.17.04-.337.061-.506.04.007.065.005.076.016.067.062.132.125.217.024.124.037.223.007.299-.103.01-.016.055-.007.084-.011.02-.003.045-.003.056-.014.017-.02.036-.05.033-.072-.002-.019-.036-.049-.055-.048-.054.004-.096 0-.122-.055-.033-.07.007-.105.057-.144.036-.03.077-.071.086-.113.068-.316.054-.638.072-.958-.07-.126-.03-.248.02-.365.045-.105.06-.207-.01-.307a.233.233 0 0 1-.03-.195c.02-.095.023-.195.05-.288a.783.783 0 0 0-.036-.515c-.045-.111-.052-.203-.003-.305.059-.127.054-.243-.049-.351-.022-.023-.029-.074-.023-.097l.077-.336c.018-.098.031-.196.031-.294.001-.183-.034-.367-.008-.546.03-.207-.119-.401-.04-.606.003-.006-.005-.015-.009-.022-.066-.096-.036-.19.004-.287.017-.042.028-.094.01-.132-.084-.176-.034-.353-.018-.53a101.452 101.452 0 0 1 .024-.371c.037-.011.075-.019.111-.03l1.341-.48.336-.122.322-.15.644-.304c.43-.201.86-.402 1.26-.662.404-.248.817-.483 1.21-.747l1.137-.856c1.766-1.432 3.333-3.132 4.537-5.07.892-1.359 1.488-2.881 2.023-4.406.17-.673.367-1.341.514-2.02.099-.686.243-1.37.296-2.06.04-.866.126-1.732.047-2.598" fill="#CAF1EF"/><path d="M78.799 77.012c-.014-.034-.03-.067-.04-.102-.002-.01.016-.025.025-.038.014.012.04.025.04.034-.004.036-.016.071-.025.106m16.2-17.002c.013-.748-.06-1.648-.143-2.483-.07-.405-.128-.784-.13-1.135a3.52 3.52 0 0 0-.066-.724 4.427 4.427 0 0 0-.233-.671 2.534 2.534 0 0 1-.154-.51c-.052-.465-.278-.897-.396-1.321a5.665 5.665 0 0 0-.261-.7c-.11-.207-.217-.416-.329-.63a19.87 19.87 0 0 1-.378-.786l-.424-.768c-.35-.702-.813-1.286-1.311-1.902-.566-.582-1.094-1.287-1.75-1.818-.082-.07-.16-.163-.233-.245-.348-.42-.78-.704-1.232-.974-.4-.253-.819-.504-1.195-.817-.503-.455-1.178-.745-1.78-.964-.343-.14-.692-.229-1.02-.36-.332-.12-.646-.28-.978-.401-.536-.184-1.052-.388-1.59-.38a1.04 1.04 0 0 1-.216-.026 24.263 24.263 0 0 0-1.157-.213c-.385-.054-.775-.035-1.155-.012a.848.848 0 0 1-.207-.013 1.72 1.72 0 0 0-.62-.093c-.202.006-.41.027-.61.028-.556.002-1.098.039-1.672.012a74.858 74.858 0 0 0-2.919-.08c-.523-.005-1.043.005-1.568-.018a5.642 5.642 0 0 0-.828.022c-.668.075-1.308.118-2.027.043-.345-.036-.757-.021-1.138-.03l-1.143-.02-.73.006H64.05c-.456 0-.917.018-1.367.006-1.86-.05-3.712.034-5.57.018-.207-.002-.416.02-.624.023l-.93-.01c-.245-.005-.486-.025-.729-.025l-1.262-.002c-.423.001-.828-.008-1.306.027-1.77.032-3.522.439-5.182 1.043-.786.262-1.523.646-2.267 1.01-.709.428-1.44.83-2.084 1.358-.6.423-1.126.937-1.658 1.44-.672.694-1.316 1.42-1.863 2.221-.139.199-.293.388-.423.594l-.377.626-.366.631c-.113.215-.2.445-.294.668a5.902 5.902 0 0 1-.301.626c-.204.334-.314.71-.452 1.072-.123.37-.27.731-.34 1.12-.12.605-.316 1.204-.383 1.825l-.163 1.098c-.037.368-.045.738-.068 1.108-.053.766-.035 1.408-.041 2.093l.001.445.021.482.047.965c.043.642.171 1.276.258 1.915.094.42.21.836.314 1.254.096.46.27.894.423 1.335l.231.633c.088.206.19.407.285.61.205.398.365.82.609 1.195.242.4.48.8.73 1.193l.821 1.133c.599.71 1.218 1.403 1.92 2.007 1.454 1.304 3.116 2.404 4.936 3.098v.007c.007.112.013.225.004.339-.03.338-.012.68-.009 1.02.002.162.019.324.023.486.009.299.019.6.015.898-.002.081-.015.159.03.237a.169.169 0 0 1 .02.094c-.014.16-.02.323-.05.483-.02.107-.026.208.026.31.048.093.054.188-.012.28-.046.067-.033.138-.028.213.023.385.054.778.047 1.166-.005.239.065.477.002.716-.005.017.003.04.008.059.059.284.079.57.023.86-.01.044.01.095.018.143.008.049.036.102.023.143-.04.122.01.236.011.352.002.16.122.298.072.466-.007.021.012.07.03.078.125.051.116.164.144.27.035.131.1.257.166.377.04.072.102.062.164-.012.016-.02.027-.043.043-.068.087.107.016.196-.01.289-.02.078.046.139.122.111.124-.044.227-.114.262-.256.002-.007.003-.016.003-.023.04.007.078.015.082.03.003.015.01.024.015.036-.011.089-.064.175-.08.263.112.002.15 0 .234-.032l-.002.261.071-.063c.008.022.02.044.034.063.003.004.024-.003.044-.012.102.13.171.28.232.434.047.121.083.134.204.11.085-.018.17-.04.257-.046.274-.021.513-.13.722-.3l1.83-1.502a5.64 5.64 0 0 1 .306-.23c.091-.067.186-.127.272-.198l1.003-.826c.061-.05.128-.112.205-.118.137-.012.203-.091.25-.201a.232.232 0 0 1 .178-.15.437.437 0 0 0 .167-.086l.411-.33c.18-.145.371-.279.54-.438.57-.543 1.207-1.003 1.772-1.553.34-.33.721-.611 1.079-.92l.75-.675.996-.857.603-.525c1.225-.009 2.45-.012 3.675.005l.317-.001 3.36-.023 4.834-.044c.245-.002.487-.019.73-.028.172-.006.374-.029.512-.013.504.07 1.302.03 1.275.016.204-.018.405-.079.61-.004.025.009.058-.002.087-.005.35-.036.704-.011 1.051-.086.076-.016.156-.013.235-.014.27-.003.27-.003.593-.157a.134.134 0 0 1 .056-.015c.115.001.203-.06.298-.114a.601.601 0 0 1 .194-.058c.057-.01.118-.002.176-.01.094-.014.135-.086.095-.175-.023-.052-.097-.119-.084-.143.077-.145-.02-.247-.07-.355.043-.066.132-.078.146-.156h.134c.086 0 .172-.005.258-.007.015.037.035.081.066.146-.09-.032-.158-.063-.23-.077-.027-.006-.066.023-.093.046-.006.006.011.054.028.073.036.04.142.037.114.106-.032.082.004.106.052.142.062.047.108.041.136-.038.025.01.059.01.071.028.037.052.078.054.128.023l.126-.079c-.01.037-.024.074-.03.113-.023.113-.006.124.12.13l.533.04c-.005.04-.002.064-.012.077-.06.072-.124.14-.012.222-.03.128.008.227.133.298.018.01.011.056.018.086.004.02.006.045.02.055.022.016.056.035.08.03.02-.003.051-.04.049-.058-.01-.054-.008-.098.05-.126.072-.036.114.001.161.044.035.033.084.066.13.07.351.02.702-.047 1.054-.08.125-.092.264-.07.402-.04.123.025.235.006.327-.089a.281.281 0 0 1 .203-.082c.106-.005.214-.03.32-.029a.926.926 0 0 0 .543-.175.46.46 0 0 1 .324-.093c.149.01.27-.04.35-.18a.12.12 0 0 1 .044-.04l.015-.006.054-.021c.036-.014.071-.026.104-.037l.81-.26c.266-.092.522-.216.784-.328.453-.198.913-.404 1.332-.683.808-.462 1.532-1.069 2.261-1.62.399-.347.76-.717 1.113-1.087.327-.398.653-.79 1.03-1.156a.346.346 0 0 0 .062-.091c.245-.443.553-.81.877-1.187.138-.159.274-.391.364-.568.189-.417.444-.793.634-1.205l.61-1.222.498-1.321c.18-.478.292-.992.403-1.474.106-.422.245-.92.185-1.312-.009-.052.045-.289.074-.438.044-.228.102-.453.106-.685l.068-1.288c.019-.426.007-.793.01-1.192" fill="#C3F4C9"/></g></svg>
