<svg width="48" height="48" viewBox="0 0 48 48" fill="none" xmlns="http://www.w3.org/2000/svg">
<path d="M24.0312 6.5C24.0866 8.37878 24.8454 10.1547 26.1885 11.5234C27.6117 12.9801 29.5766 13.8212 31.5762 13.8213C31.932 13.8213 32.2883 13.7939 32.6387 13.7412L32.6396 13.7422C32.7019 13.7333 32.7646 13.7285 32.834 13.7285C33.2296 13.7285 33.6187 13.9057 33.9053 14.2344C34.183 14.5539 34.296 14.9456 34.2383 15.332L34.2373 15.3369C33.9398 17.4934 34.6016 19.673 36.0508 21.334C37.4444 22.9338 39.4244 23.8711 41.499 23.918C41.5067 26.9141 40.7809 29.7825 39.3984 32.3262C36.1994 35.8134 31.6053 38 26.5 38C16.835 38 9 30.165 9 20.5C9 17.4019 9.80543 14.492 11.2178 11.9678C11.3322 11.8463 11.4488 11.7262 11.5674 11.6074C14.8512 8.33456 19.2692 6.51847 24.0312 6.5Z" fill="#EDFFE9"/>
<path d="M24.5288 5C25.2321 5.00014 25.6216 5.60524 25.6216 6.11719V6.44141C25.6598 7.84344 26.1907 9.17659 27.148 10.2471L27.3589 10.4727L27.3608 10.4736C28.5151 11.6493 30.1062 12.3211 31.7026 12.3213C31.988 12.3213 32.2732 12.2996 32.5513 12.2578L32.5591 12.2568C32.6934 12.2377 32.8277 12.2285 32.9663 12.2285C33.768 12.2285 34.5181 12.5652 35.0679 13.1318L35.1753 13.248C35.7295 13.8826 35.9865 14.7073 35.8647 15.542C35.6416 17.1513 36.0921 18.7871 37.1177 20.0898L37.3306 20.3467C38.4897 21.6708 40.139 22.4227 41.8384 22.4229H41.9995C42.5516 22.4229 42.9993 22.8708 42.9995 23.4229C42.9995 23.9751 42.5518 24.4229 41.9995 24.4229H41.8384C39.5482 24.4227 37.3551 23.4112 35.8257 21.6641C34.2766 19.8966 33.565 17.5721 33.8843 15.2686L33.8862 15.2568C33.9213 15.0225 33.8559 14.778 33.6694 14.5645C33.4711 14.3388 33.2133 14.2285 32.9663 14.2285C32.9197 14.2285 32.88 14.2318 32.8413 14.2373L32.8403 14.2363C32.4648 14.2923 32.0831 14.3213 31.7026 14.3213C29.558 14.3211 27.4569 13.4255 25.9351 11.876C24.6161 10.5384 23.8226 8.8311 23.6548 7.00781C19.1744 7.13829 15.041 8.89276 11.9439 11.9648C5.48387 18.4036 5.33302 29.0189 11.6167 35.624L11.6196 35.627C14.8949 39.0975 19.2982 40.9999 24.0396 41H24.0454C28.6138 41 32.9204 39.2293 36.1714 36.0049L36.1724 36.0039C37.9688 34.2249 39.3096 32.1261 40.1489 29.835L40.188 29.7412C40.4093 29.2852 40.945 29.0624 41.4312 29.2402C41.9497 29.4302 42.2168 30.0049 42.0269 30.5234L41.8433 31.002C40.8955 33.384 39.4579 35.5636 37.5796 37.4238C33.9538 41.0202 29.1414 43 24.0454 43H24.0396C18.7448 42.9999 13.8165 40.8686 10.1655 37C3.13358 29.6052 3.30512 17.7487 10.5337 10.5459L10.5356 10.5449C14.1417 6.96819 18.9938 5.00014 24.1939 5H24.5288Z" fill="#007782"/>
<path d="M30.5005 30C31.3288 30.0002 32.0005 30.6717 32.0005 31.5C32.0005 32.3283 31.3288 32.9998 30.5005 33C29.6721 33 29.0005 32.3284 29.0005 31.5C29.0005 30.6716 29.6721 30 30.5005 30Z" fill="#007782"/>
<path d="M18.5005 27C19.3288 27.0002 20.0005 27.6717 20.0005 28.5C20.0005 29.3283 19.3288 29.9998 18.5005 30C17.6721 30 17.0005 29.3284 17.0005 28.5C17.0005 27.6716 17.6721 27 18.5005 27Z" fill="#007782"/>
<path d="M27.5005 20C28.3288 20.0002 29.0005 20.6717 29.0005 21.5C29.0005 22.3283 28.3288 22.9998 27.5005 23C26.6721 23 26.0005 22.3284 26.0005 21.5C26.0005 20.6716 26.6721 20 27.5005 20Z" fill="#007782"/>
<path d="M16.5005 16C17.3288 16.0002 18.0005 16.6717 18.0005 17.5C18.0005 18.3283 17.3288 18.9998 16.5005 19C15.6721 19 15.0005 18.3284 15.0005 17.5C15.0005 16.6716 15.6721 16 16.5005 16Z" fill="#007782"/>
</svg>
