<svg width="48" height="48" viewBox="0 0 48 48" fill="none" xmlns="http://www.w3.org/2000/svg">
<path d="M14.3647 8.69704C14.461 7.31969 15.6556 6.2812 17.033 6.37752L35.7497 7.68632C37.127 7.78263 38.1655 8.97727 38.0692 10.3546L36.1839 37.3164C36.0875 38.6937 34.8929 39.7322 33.5156 39.6359L14.7988 38.3271C13.4215 38.2308 12.383 37.0362 12.4793 35.6588L14.3647 8.69704Z" fill="#EDFFE9"/>
<path d="M35.3217 6.65269C37.5252 6.80701 39.187 8.71836 39.0329 10.922L37.0011 39.978C36.847 42.1816 34.9354 43.8431 32.7318 43.6892L11.9204 42.2339C9.7166 42.0798 8.05503 40.1684 8.20913 37.9646L9.84963 14.5044C9.88816 13.9534 10.366 13.538 10.917 13.5765C11.4679 13.6151 11.8833 14.0929 11.8448 14.6439L10.2043 38.1042C10.1272 39.206 10.958 40.1617 12.0599 40.2388L32.8714 41.6941C33.9731 41.7709 34.929 40.9402 35.006 39.8385L37.0378 10.7825C37.1148 9.68072 36.2838 8.72509 35.1822 8.64782L14.3707 7.19254C13.2688 7.11549 12.3131 7.94627 12.236 9.04815L12.2284 9.15726C12.1899 9.7082 11.712 10.1236 11.1611 10.0851C10.6102 10.0465 10.1948 9.56869 10.2333 9.01775L10.2409 8.90864C10.395 6.70488 12.3064 5.04331 14.5102 5.19741L35.3217 6.65269Z" fill="#007782"/>
<path d="M23.1874 29.4193C24.802 29.0229 27.815 28.6265 31.3593 29.5081C31.8953 29.6415 32.2224 30.1842 32.0891 30.7202C31.9557 31.2561 31.412 31.5832 30.876 31.4499C27.8813 30.7049 25.3243 30.9908 23.9022 31.3068C23.886 31.5563 23.8423 31.794 23.7839 32.0043C23.6355 32.5392 23.3623 33.0693 23.0195 33.4722C22.58 33.9954 21.9891 34.374 21.4078 34.542C20.9167 34.6838 19.9706 34.777 19.4157 33.9945C18.9205 33.2959 19.0868 32.5495 19.3661 32.0439C19.6294 31.5675 20.054 31.1594 20.4394 30.8483C20.57 30.7429 20.7052 30.6422 20.8404 30.5464C20.5487 30.5128 20.2551 30.5089 20.0151 30.5191C19.3216 30.5484 18.5114 30.8051 17.6769 31.2121C16.853 31.614 16.067 32.1322 15.435 32.6129C14.9955 32.9471 14.3682 32.8611 14.0338 32.4219C13.6995 31.9824 13.7844 31.355 14.2238 31.0206C14.9326 30.4816 15.832 29.887 16.8011 29.4143C17.7595 28.9468 18.8513 28.5657 19.9297 28.52C20.3735 28.5012 21.0826 28.5084 21.7723 28.685C22.2183 28.7993 22.7567 29.0135 23.1874 29.4193Z" fill="#007782"/>
<path d="M31.1721 22.5112C31.7231 22.5498 32.1385 23.0276 32.0999 23.5786C32.0613 24.1294 31.5835 24.5449 31.0326 24.5064L16.0692 23.46C15.5184 23.4214 15.103 22.9435 15.1414 22.3927C15.1799 21.8418 15.6578 21.4265 16.2087 21.4649L31.1721 22.5112Z" fill="#007782"/>
<path d="M31.661 15.5342C32.2117 15.5729 32.6272 16.0508 32.5888 16.6015C32.5503 17.1524 32.0723 17.5677 31.5215 17.5293L16.558 16.483C16.0071 16.4445 15.5917 15.9666 15.6302 15.4157C15.6689 14.8649 16.1467 14.4493 16.6975 14.4879L31.661 15.5342Z" fill="#007782"/>
</svg>
