<svg width="48" height="48" viewBox="0 0 48 48" fill="none" xmlns="http://www.w3.org/2000/svg">
<g clip-path="url(#clip0_630_35850)">
<path d="M26.8422 45.02C36.7004 45.02 44.6922 37.3149 44.6922 27.81C44.6922 18.3052 36.7004 10.6 26.8422 10.6C16.9839 10.6 8.99219 18.3052 8.99219 27.81C8.99219 37.3149 16.9839 45.02 26.8422 45.02Z" fill="#C0EED0"/>
<path d="M8.6508 11.27C9.7508 9.16003 11.5808 7.46003 13.6808 6.27003C15.7908 5.09003 18.1608 4.40003 20.5608 4.10003C25.3808 3.49003 30.4008 4.86003 34.3308 7.73003C36.3008 9.15003 38.0208 10.95 39.3308 13.02C40.6408 15.08 41.5508 17.39 42.0208 19.79C42.9808 24.58 42.0508 29.74 39.4708 33.89C36.9208 38.07 32.7408 41.22 28.0308 42.52C23.3208 43.86 18.1208 43.32 13.8108 41.05C9.47083 38.85 6.03084 34.96 4.38084 30.4C3.55084 28.13 3.11079 25.7 3.27079 23.29C3.43079 20.89 4.1108 18.53 5.4008 16.55C4.4708 21.11 4.55082 25.61 6.11082 29.75C7.67082 33.85 10.8108 37.3 14.7308 39.21C18.6308 41.17 23.2408 41.59 27.4208 40.39C31.6108 39.2 35.2908 36.4 37.5208 32.68C39.8108 29 40.6708 24.47 39.8408 20.2C39.0508 15.93 36.5908 11.99 33.0908 9.40003C29.6108 6.79003 25.1308 5.48003 20.7608 5.96003C18.5808 6.17003 16.4608 6.84003 14.4708 7.78003C12.4708 8.73003 10.5908 9.91003 8.6508 11.27Z" fill="#171717"/>
<path d="M18.0519 38.52C17.1719 38.13 16.6119 37.48 16.2019 36.77C15.8319 36.04 15.5619 35.28 15.3019 34.52C14.7819 32.99 14.4119 31.42 14.1319 29.84C13.5619 26.68 13.4819 23.46 13.6919 20.27C13.8219 18.67 14.0519 17.08 14.3919 15.51C14.7019 13.93 15.1919 12.38 15.8119 10.87C16.4319 9.37001 17.2019 7.89001 18.3019 6.58001C18.6019 6.27001 18.8819 5.94001 19.2119 5.66001C19.5719 5.40001 19.8919 5.10001 20.3319 4.95001C21.1319 4.56001 22.1619 4.52001 22.9419 4.92001C22.1819 5.44001 21.6419 5.76001 21.1519 6.27001C20.8819 6.45001 20.6819 6.77001 20.4219 6.97001C20.1819 7.21001 19.9619 7.49001 19.7319 7.75001C18.8619 8.87001 18.2219 10.22 17.7219 11.62C16.7419 14.43 16.1519 17.42 15.9719 20.45C15.7319 23.47 15.8019 26.53 16.2019 29.53C16.4019 31.03 16.6919 32.52 17.1019 33.96C17.4819 35.45 18.2419 36.64 18.0519 38.52Z" fill="#171717"/>
<path d="M25.6614 5.96002C26.6814 6.06002 27.4814 6.66002 28.0814 7.35002C28.6414 8.07002 29.0914 8.86002 29.4714 9.67002C30.2614 11.28 30.8214 12.96 31.2614 14.66C32.1214 18.07 32.3914 21.58 32.3014 25.07C32.2214 26.81 32.0614 28.56 31.7414 30.29C31.4414 32.02 31.0214 33.73 30.3914 35.39C29.7714 37.05 28.9914 38.68 27.8614 40.14C27.3114 40.87 26.6214 41.56 25.7614 42.02C24.8814 42.44 23.8014 42.6 22.9414 42.17C23.7814 41.68 24.3514 41.25 24.8914 40.73C25.4014 40.19 25.9514 39.68 26.3914 39.03C27.2914 37.76 27.9514 36.26 28.4614 34.72C29.4414 31.61 29.9414 28.3 30.0214 25C30.1614 21.69 29.9014 18.36 29.2314 15.14C28.8914 13.53 28.4214 11.95 27.7714 10.47C27.4714 9.71002 27.0414 9.04002 26.6614 8.34002C26.2814 7.63002 25.9714 6.93002 25.6614 5.96002Z" fill="#171717"/>
<path d="M9.26172 16.76C10.7217 15.88 11.9317 16.35 13.2017 16.46C14.4617 16.62 15.7317 16.75 16.9917 16.85C19.5117 17.04 22.0317 17.18 24.5117 17C27.0217 16.9 29.5517 16.57 32.0817 16.31C33.3517 16.16 34.6117 16 35.8817 15.82C37.1417 15.62 38.4017 15.45 39.8217 16.05C38.7217 17.13 37.4517 17.42 36.1817 17.64C34.9117 17.89 33.6417 18.12 32.3717 18.34C29.8217 18.78 27.2517 19.1 24.6317 19.28C21.9817 19.42 19.3517 19.27 16.7717 18.93C15.4817 18.76 14.1917 18.55 12.9217 18.33C11.6617 18.05 10.3317 18.09 9.26172 16.76Z" fill="#171717"/>
<path d="M34.3922 31.92C33.0322 32.86 31.8422 32.4 30.6422 32.29C29.4422 32.13 28.2522 31.98 27.0622 31.87C25.8722 31.77 24.7022 31.69 23.5222 31.67C22.3522 31.65 21.1522 31.7 19.9622 31.76C17.5822 31.83 15.1922 32.1101 12.8022 32.3701C11.6122 32.5101 10.4122 32.67 9.23218 32.86C8.04218 33.08 6.87219 33.25 5.49219 32.7C6.48219 31.59 7.69221 31.28 8.89221 31.05C10.0922 30.79 11.2922 30.55 12.5022 30.34C14.9222 29.9 17.3722 29.63 19.8422 29.48C22.3022 29.37 24.8422 29.42 27.3022 29.8C28.5322 29.98 29.7422 30.21 30.9322 30.44C32.1322 30.71 33.3422 30.64 34.3922 31.92Z" fill="#171717"/>
</g>
<defs>
<clipPath id="clip0_630_35850">
<rect width="48" height="48" fill="white"/>
</clipPath>
</defs>
</svg>
