<svg width="48" height="48" viewBox="0 0 48 48" fill="none" xmlns="http://www.w3.org/2000/svg">
<g clip-path="url(#clip0_630_35777)">
<path d="M28.6087 25.5286C28.7677 25.6482 28.9373 25.7569 29.1069 25.8548C30.1139 26.4309 31.1102 27.0179 32.1171 27.594C32.5835 27.8657 33.1453 28.094 33.5693 28.4419C33.8979 28.7136 34.1311 29.0832 34.4915 29.3224C35.6044 30.0615 36.7386 30.7681 37.8621 31.4856C40.2046 32.9857 42.547 34.4858 44.9001 35.9859C45.9706 36.6599 46.6066 37.8665 46.5854 39.1601C46.5324 42.182 43.7554 42.4755 41.5825 42.3559C41.3705 42.3451 41.1479 42.3342 40.9465 42.2255C40.8087 42.1494 40.6921 42.0407 40.5543 41.9537C40.194 41.7363 39.5898 41.6602 39.2294 41.8124C39.3036 41.8776 39.9078 42.3124 39.9926 42.269C38.9751 42.7799 37.6713 42.7907 36.5689 42.6385C35.3924 42.4646 34.2371 42.5733 33.0605 42.5516C30.1881 42.4972 27.3262 42.4429 24.4538 42.3885C20.4154 42.3125 16.3876 42.2364 12.3492 42.1603C12.2538 42.1603 12.1584 42.1603 12.063 42.1603C10.1127 42.1277 8.55462 40.4645 8.58642 38.4426C8.60761 37.149 9.29653 35.9641 10.3883 35.3337C11.0666 34.9423 11.745 34.5401 12.4128 34.1488C14.6387 32.8444 16.8752 31.5399 19.1011 30.2464C20.32 29.5289 21.539 28.8223 22.7685 28.1049C23.3197 27.7896 23.8602 27.4635 24.4114 27.1483C25.2805 26.6374 26.2027 25.5504 26.7963 24.7025C27.1566 24.1916 27.3156 23.4415 27.5912 22.8654C27.7396 22.5502 27.9728 21.7566 28.2802 21.724C28.4073 22.3545 28.153 23.2458 28.0894 23.8981C28.047 24.2351 28.0152 24.5938 28.1318 24.909C28.2272 25.1808 28.4073 25.3656 28.6087 25.5286Z" fill="#C9F0EE"/>
<path d="M39.5419 38.3541C39.8219 38.0541 40.1619 37.9041 40.4019 37.7341C40.6419 37.5941 40.8619 37.4741 41.0819 37.3741C41.5119 37.1941 41.9319 36.9941 42.2419 36.6841C42.8919 36.0741 43.0819 35.2641 42.8019 34.5041C42.5219 33.7041 41.8319 32.9641 40.9819 32.3241C40.1319 31.7041 39.0619 31.0441 38.1019 30.4041C36.1619 29.0841 34.1619 27.8441 32.2019 26.5341L29.2319 24.6141C28.2219 23.9941 27.2419 23.3441 26.6719 22.0041C28.1219 21.8741 29.1719 22.4341 30.1819 23.0341L33.2719 24.7941C35.3419 25.9541 37.3419 27.2241 39.3519 28.5041C39.8519 28.8241 40.3419 29.1641 40.8319 29.5041C41.3119 29.8441 41.8119 30.1741 42.3319 30.5741C43.3319 31.3641 44.3819 32.4041 44.8019 33.8941C45.0219 34.6241 45.0319 35.4741 44.7719 36.2341C44.5219 36.9941 44.0519 37.6441 43.4719 38.1141C42.8919 38.5741 42.2319 38.9341 41.5219 39.0541C41.1719 39.1141 40.8019 39.0841 40.4519 38.9641C40.1019 38.8241 39.8519 38.6441 39.5419 38.3541Z" fill="#171717"/>
<path d="M19.1334 11.594C18.8634 10.684 18.9435 9.62402 19.4135 8.68402C19.8835 7.74401 20.7234 6.99402 21.6834 6.56402C23.5934 5.70402 26.0034 5.85402 27.7534 7.22402C28.6134 7.91402 29.2934 8.78403 29.6434 9.85403C29.9834 10.914 30.0034 12.024 29.7534 13.074C29.4734 14.134 29.0335 15.104 28.0935 15.944C27.1535 16.694 26.2134 16.964 25.5634 17.354C25.2334 17.544 25.0135 17.734 24.9035 17.904C24.7935 18.084 24.7434 18.264 24.7434 18.604V19.284V19.674C24.7334 19.874 24.7034 20.074 24.6434 20.264C24.5334 20.644 24.3234 21.004 24.0534 21.294C23.9134 21.434 23.7635 21.564 23.5935 21.674L23.2634 21.874L18.5835 24.654L16.2434 26.044L15.0734 26.744C14.6534 26.984 14.2435 27.214 13.8335 27.434C12.1934 28.284 10.5834 29.074 9.06343 29.954C7.55343 30.824 6.09346 31.814 5.15346 33.014C4.70346 33.624 4.43345 34.234 4.39345 34.894C4.35345 35.544 4.56342 36.214 4.92342 36.604C5.26342 36.984 5.89343 37.214 6.68343 37.284C7.46343 37.364 8.33344 37.314 9.26344 37.284C11.1534 37.274 12.9134 37.314 14.7534 37.324L25.6535 37.424C29.2835 37.444 32.9134 37.494 36.5534 38.344C32.9234 39.194 29.2935 39.254 25.6535 39.264L14.7534 39.364C12.9534 39.384 11.0835 39.384 9.34346 39.434C8.46346 39.474 7.50346 39.544 6.47346 39.454C5.47346 39.364 4.23343 39.064 3.31343 38.104C1.56343 36.164 2.02342 33.334 3.36342 31.664C4.67342 29.994 6.31347 28.944 7.91347 27.974C9.53347 27.024 11.2034 26.244 12.7934 25.434C13.1934 25.234 13.5734 25.024 13.9434 24.814L15.1134 24.124L17.4635 22.744L22.1635 19.994L22.4234 19.844C22.4434 19.834 22.4634 19.814 22.4834 19.794C22.5234 19.754 22.5534 19.704 22.5634 19.654C22.5734 19.624 22.5735 19.604 22.5835 19.574L22.5935 19.284L22.6035 18.604C22.6035 18.034 22.7535 17.294 23.1535 16.724C23.5535 16.144 24.0834 15.784 24.5434 15.534C25.4734 15.034 26.3134 14.774 26.8034 14.374C27.2434 14.024 27.6635 13.294 27.8335 12.604C28.0135 11.894 28.0134 11.124 27.8134 10.444C27.6134 9.78402 27.1435 9.15403 26.6035 8.70403C25.4935 7.75403 23.7735 7.64402 22.3535 8.15402C20.8735 8.62402 19.7434 9.77402 19.1334 11.594Z" fill="#171717"/>
</g>
<defs>
<clipPath id="clip0_630_35777">
<rect width="48" height="48" fill="white"/>
</clipPath>
</defs>
</svg>
