<svg width="200" height="200" xmlns="http://www.w3.org/2000/svg" xmlns:xlink="http://www.w3.org/1999/xlink"><defs><path id="a" d="M.098.277h30.897V39H.098z"/></defs><g fill="none" fill-rule="evenodd"><path d="M54.009 125.019l-.006-.017L54 125l.009.019z" fill="#EAEBEC"/><path d="M54.009 125.019l-.006-.017L54 125l.009.019z" stroke="#EAEBEC"/><path d="M44.701 62.687a29.06 29.06 0 0 0 1.27-2.492c.03-.066.04-.184.016-.19-.052-.012-.127-.005-.2.062a1.32 1.32 0 0 0-.233.34c-.218.447-.403.904-.615 1.347-.21.443-.448.872-.695 1.298-.163.27-.29.638-.228.948l.685-1.313" fill="#EAEBEC"/><path d="M44.701 62.687a29.06 29.06 0 0 0 1.27-2.492c.03-.066.04-.184.016-.19-.052-.012-.127-.005-.2.062a1.32 1.32 0 0 0-.233.34c-.218.447-.403.904-.615 1.347-.21.443-.448.872-.695 1.298-.163.27-.29.638-.228.948l.685-1.313z" stroke="#EAEBEC"/><path d="M59.414 46.986c.152.062.567-.093.823-.303.23-.19.43-.383.763-.683-.415.167-.676.259-.934.38-.383.18-.611.23-.651.056-.007-.03-.153.01-.235.017-.063.073-.197.19-.178.212.115.121.232.245.412.321" fill="#EAEBEC"/><path d="M59.414 46.986c.152.062.567-.093.823-.303.23-.19.43-.383.763-.683-.415.167-.676.259-.934.38-.383.18-.611.23-.651.056-.007-.03-.153.01-.235.017-.063.073-.197.19-.178.212.115.121.232.245.412.321z" stroke="#EAEBEC"/><path d="M40.007 95l-.007.022.011.019h.003a.585.585 0 0 1-.007-.041" fill="#EAEBEC"/><path d="M40.007 95l-.007.022.011.019h.003a.585.585 0 0 1-.007-.041z" stroke="#EAEBEC"/><path d="M40.397 92.026c-.013-.034-.236-.043-.3.026a.475.475 0 0 0-.085.39c.228.857.462 1.71.774 2.558.074-.143.188-.268.204-.44.07-.859-.235-1.7-.593-2.534" fill="#EAEBEC"/><path d="M40.397 92.026c-.013-.034-.236-.043-.3.026a.475.475 0 0 0-.085.39c.228.857.462 1.71.774 2.558.074-.143.188-.268.204-.44.07-.859-.235-1.7-.593-2.534z" stroke="#EAEBEC"/><path d="M40.446 95.181l-.168.02.004-.018-.004.018L40 95l.104.466c.012.047.045.083.07.121l-.004.015.005-.013c.031.118.056.248.096.354.332.868.706 1.289.725.927.034-.58-.142-1.049-.398-1.455l-.152-.234z" fill="#EAEBEC"/><path d="M40.446 95.181l-.168.02.004-.018-.004.018L40 95l.104.466c.012.047.045.083.07.121l-.004.015.005-.013c.031.118.056.248.096.354.332.868.706 1.289.725.927.034-.58-.142-1.049-.398-1.455l-.152-.234z" stroke="#EAEBEC"/><path d="M47.056 59c.079 0 .29-.095.382-.176.201-.177.409-.382.526-.558a.185.185 0 0 0-.048-.264c-.03-.02-.255.127-.43.22-.156.194-.332.392-.449.574-.055.087-.049.203.02.204" fill="#EAEBEC"/><path d="M47.056 59c.079 0 .29-.095.382-.176.201-.177.409-.382.526-.558a.185.185 0 0 0-.048-.264c-.03-.02-.255.127-.43.22-.156.194-.332.392-.449.574-.055.087-.049.203.02.204z" stroke="#EAEBEC"/><path d="M56.941 48.003c-.166-.035-.345.23-.506.426-.1.12-.189.246-.435.571.325-.133.523-.154.714-.306.226-.18.374-.659.227-.69" fill="#EAEBEC"/><path d="M56.941 48.003c-.166-.035-.345.23-.506.426-.1.12-.189.246-.435.571.325-.133.523-.154.714-.306.226-.18.374-.659.227-.69z" stroke="#EAEBEC"/><path d="M43.138 100c-.048.109-.167.221-.131.326.183.563.429 1.12.684 1.674l.154-.067c-.151-.507-.277-1.014-.412-1.526-.038-.132-.193-.27-.295-.407" fill="#EAEBEC"/><path d="M43.138 100c-.048.109-.167.221-.131.326.183.563.429 1.12.684 1.674l.154-.067c-.151-.507-.277-1.014-.412-1.526-.038-.132-.193-.27-.295-.407z" stroke="#EAEBEC"/><path d="M68.998 41.15c-.01-.115-.193-.188-.348-.13-.177.066-.437.286-.61.466-.067.07-.044.254.023.306.126.099.308.143.47.208.354-.319.483-.62.465-.85" fill="#EAEBEC"/><path d="M68.998 41.15c-.01-.115-.193-.188-.348-.13-.177.066-.437.286-.61.466-.067.07-.044.254.023.306.126.099.308.143.47.208.354-.319.483-.62.465-.85z" stroke="#EAEBEC"/><path d="M43.504 65.576c.094-.153.169-.352.155-.46-.012-.094-.144-.119-.255-.116-.046.002-.174.161-.291.273-.038.139-.112.312-.113.44 0 .121.075.194.117.287.133-.141.298-.28.387-.424" fill="#EAEBEC"/><path d="M43.504 65.576c.094-.153.169-.352.155-.46-.012-.094-.144-.119-.255-.116-.046.002-.174.161-.291.273-.038.139-.112.312-.113.44 0 .121.075.194.117.287.133-.141.298-.28.387-.424z" stroke="#EAEBEC"/><path d="M141.02 106.851c-.044.052-.008.145.052.149a.641.641 0 0 0 .288-.138c.248-.283.444-.572.64-.861l-.252-.001c-.227.287-.484.571-.729.851" fill="#EAEBEC"/><path d="M141.02 106.851c-.044.052-.008.145.052.149a.641.641 0 0 0 .288-.138c.248-.283.444-.572.64-.861l-.252-.001c-.227.287-.484.571-.729.851z" stroke="#EAEBEC"/><path d="M51 54c-.417.32-.656.544-.898.763-.066.061-.07.157-.102.237.07-.033.156-.054.208-.1.283-.241.545-.504.792-.9" fill="#EAEBEC"/><path d="M51 54c-.417.32-.656.544-.898.763-.066.061-.07.157-.102.237.07-.033.156-.054.208-.1.283-.241.545-.504.792-.9z" stroke="#EAEBEC"/><path d="M62 45.004a.008.008 0 0 0 .004.002c.007-.002.013-.003.019-.006l-.023.004z" fill="#EAEBEC"/><path d="M62 45.004a.008.008 0 0 0 .004.002c.007-.002.013-.003.019-.006l-.023.004z" stroke="#EAEBEC"/><path d="M62.585 45.711c.137-.095.367-.361.408-.483.04-.119-.1-.156-.164-.228-.104.051-.207.084-.31.162-.322.252-.58.58-.507.791.027.076.369-.103.573-.242" fill="#EAEBEC"/><path d="M62.585 45.711c.137-.095.367-.361.408-.483.04-.119-.1-.156-.164-.228-.104.051-.207.084-.31.162-.322.252-.58.58-.507.791.027.076.369-.103.573-.242z" stroke="#EAEBEC"/><path d="M43.073 97.575c.096.18.202.4.478.425.008-.07.045-.138.015-.2l-.398-.8c-.166.136-.23.318-.095.575" fill="#EAEBEC"/><path d="M43.073 97.575c.096.18.202.4.478.425.008-.07.045-.138.015-.2l-.398-.8c-.166.136-.23.318-.095.575z" stroke="#EAEBEC"/><path d="M43.009 97.045l.007-.018-.004-.027-.012.002.009.043z" fill="#EAEBEC"/><path d="M43.009 97.045l.007-.018-.004-.027-.012.002.009.043z" stroke="#EAEBEC"/><path d="M42.177 81c.085-.82.2-1.411.303-2-.564.885-.583.903-.303 2" fill="#EAEBEC"/><path d="M42.177 81c.085-.82.2-1.411.303-2-.564.885-.583.903-.303 2z" stroke="#EAEBEC"/><path d="M48.081 115.728c.102.054.278.193.291.148.045-.162.036-.388.052-.636-.23-.13-.424-.27-.424-.234.001.216.048.474.081.722" fill="#EAEBEC"/><path d="M48.081 115.728c.102.054.278.193.291.148.045-.162.036-.388.052-.636-.23-.13-.424-.27-.424-.234.001.216.048.474.081.722z" stroke="#EAEBEC"/><path fill="#EAEBEC" d="M43 96.017L43.486 98l.227-.028-.56-1.972z"/><path stroke="#EAEBEC" d="M43 96.017L43.486 98l.227-.028-.56-1.972z"/><path d="M39 89.255l.185.569.206-.312c-.074-.175-.139-.395-.224-.506-.032-.042-.11.158-.167.249" fill="#EAEBEC"/><path d="M39 89.255l.185.569.206-.312c-.074-.175-.139-.395-.224-.506-.032-.042-.11.158-.167.249z" stroke="#EAEBEC"/><path d="M42.008 95.442c.085.2.199.34.303.502l.05-.548-.313-.396c-.016.152-.067.38-.04.442" fill="#EAEBEC"/><path d="M42.008 95.442c.085.2.199.34.303.502l.05-.548-.313-.396c-.016.152-.067.38-.04.442z" stroke="#EAEBEC"/><path d="M48 116l.048.589c.23.11.387.212.497.22.037.003-.025-.291-.083-.361-.141-.177-.306-.302-.462-.448" fill="#EAEBEC"/><path d="M48 116l.048.589c.23.11.387.212.497.22.037.003-.025-.291-.083-.361-.141-.177-.306-.302-.462-.448z" stroke="#EAEBEC"/><path d="M54.522 50c-.101.024-.23.024-.295.086-.099.09-.155.227-.227.345.102-.028.232-.025.3-.086.097-.09.15-.229.222-.345" fill="#EAEBEC"/><path d="M54.522 50c-.101.024-.23.024-.295.086-.099.09-.155.227-.227.345.102-.028.232-.025.3-.086.097-.09.15-.229.222-.345z" stroke="#EAEBEC"/><path d="M39.292 86c-.095-.007-.189.093-.292.157l.112.575.284-.317c-.035-.146-.071-.412-.104-.415" fill="#EAEBEC"/><path d="M39.292 86c-.095-.007-.189.093-.292.157l.112.575.284-.317c-.035-.146-.071-.412-.104-.415z" stroke="#EAEBEC"/><path d="M43.412 65c-.048.03-.103.038-.144.101-.092.137-.179.297-.268.451.09-.039.178-.056.269-.148.045-.045.095-.264.143-.404" fill="#EAEBEC"/><path d="M43.412 65c-.048.03-.103.038-.144.101-.092.137-.179.297-.268.451.09-.039.178-.056.269-.148.045-.045.095-.264.143-.404z" stroke="#EAEBEC"/><path d="M43 66.009v.026l.021-.035-.021.009" fill="#EAEBEC"/><path d="M43 66.009v.026l.021-.035-.021.009z" stroke="#EAEBEC"/><path d="M44.083 105c-.029.088-.1.164-.08.268.05.23.134.474.207.712.02-.182.053-.352.042-.56-.006-.096-.114-.275-.169-.42" fill="#EAEBEC"/><path d="M44.083 105c-.029.088-.1.164-.08.268.05.23.134.474.207.712.02-.182.053-.352.042-.56-.006-.096-.114-.275-.169-.42z" stroke="#EAEBEC"/><path d="M45.003 105l-.003.028a.93.93 0 0 0 .02.064l-.003-.047-.014-.045" fill="#EAEBEC"/><path d="M45.003 105l-.003.028a.93.93 0 0 0 .02.064l-.003-.047-.014-.045z" stroke="#EAEBEC"/><path d="M42 83.386l.081.099.087-.389c.001-.008-.049-.064-.076-.096l-.092.386z" fill="#EAEBEC"/><path d="M42 83.386l.081.099.087-.389c.001-.008-.049-.064-.076-.096l-.092.386z" stroke="#EAEBEC"/><path d="M42 90.088c-.005.048.029.135.046.202l.08-.084-.048-.206c-.028.028-.071.038-.077.088" fill="#EAEBEC"/><path d="M42 90.088c-.005.048.029.135.046.202l.08-.084-.048-.206c-.028.028-.071.038-.077.088z" stroke="#EAEBEC"/><path d="M80.575 36c-.081.03-.178.057-.239.093-.121.071-.226.147-.336.222.15-.048.304-.092.436-.153.075-.034.095-.107.139-.162" fill="#EAEBEC"/><path d="M80.575 36c-.081.03-.178.057-.239.093-.121.071-.226.147-.336.222.15-.048.304-.092.436-.153.075-.034.095-.107.139-.162z" stroke="#EAEBEC"/><path d="M80.07 36c-.022.007-.042.016-.064.022l-.006.023.029-.018c.014-.008.028-.018.041-.027" fill="#EAEBEC"/><path d="M80.07 36c-.022.007-.042.016-.064.022l-.006.023.029-.018c.014-.008.028-.018.041-.027z" stroke="#EAEBEC"/><path d="M45.021 105.41c.007.073.044.166.066.25.02-.07.07-.131.053-.213-.031-.143-.09-.297-.14-.447.004.135.006.267.021.41" fill="#EAEBEC"/><path d="M45.021 105.41c.007.073.044.166.066.25.02-.07.07-.131.053-.213-.031-.143-.09-.297-.14-.447.004.135.006.267.021.41z" stroke="#EAEBEC"/><path d="M42.216 79c-.05.053-.126.082-.146.166-.038.152-.051.33-.07.5.057-.133.118-.26.17-.401.025-.071.031-.177.046-.265" fill="#EAEBEC"/><path d="M42.216 79c-.05.053-.126.082-.146.166-.038.152-.051.33-.07.5.057-.133.118-.26.17-.401.025-.071.031-.177.046-.265z" stroke="#EAEBEC"/><path d="M42.02 79l-.014.033a6.682 6.682 0 0 1-.006.049l.013-.03.007-.052" fill="#EAEBEC"/><path d="M42.02 79l-.014.033a6.682 6.682 0 0 1-.006.049l.013-.03.007-.052z" stroke="#EAEBEC"/><path d="M40.162 81.334c-.024-.112-.046-.233-.076-.333-.003-.01-.056.077-.086.117.024.115.047.233.078.336.002.01.054-.078.084-.12" fill="#EAEBEC"/><path d="M40.162 81.334c-.024-.112-.046-.233-.076-.333-.003-.01-.056.077-.086.117.024.115.047.233.078.336.002.01.054-.078.084-.12z" stroke="#EAEBEC"/><path d="M43.168 66.15c.012-.064-.031-.102-.045-.15-.045.074-.11.166-.121.222-.011.067.03.103.047.155.042-.079.108-.165.119-.227" fill="#EAEBEC"/><path d="M43.168 66.15c.012-.064-.031-.102-.045-.15-.045.074-.11.166-.121.222-.011.067.03.103.047.155.042-.079.108-.165.119-.227z" stroke="#EAEBEC"/><path d="M64.286 43.048c.014-.035-.068-.033-.108-.048-.062.052-.161.114-.176.151-.015.032.068.032.107.045.063-.05.165-.116.177-.148" fill="#EAEBEC"/><path d="M64.286 43.048c.014-.035-.068-.033-.108-.048-.062.052-.161.114-.176.151-.015.032.068.032.107.045.063-.05.165-.116.177-.148z" stroke="#EAEBEC"/><path d="M70.382 131.568c-.033-.018-.063-.038-.094-.057.32.156.643.308.967.457-.034-.006-.067-.017-.1-.021-.196-.03-.525-.235-.773-.379zm-2.116-1.11c.17.094.337.19.506.281a.612.612 0 0 1-.506-.28zM43.474 74.462l.036-.01-.065.14.029-.13zm8.46-18.308c.49-.568 1.032-1.085 1.55-1.62.139-.143.292-.275.427-.42 1.913-2.142 4.207-3.817 6.496-5.46.855-.58 1.703-1.165 2.633-1.715-.016.232-.276.346-.437.447a63.84 63.84 0 0 0-3.411 2.362c-.708.497-1.365 1.062-2.052 1.59a67.331 67.331 0 0 0-1.967 1.706 45.06 45.06 0 0 0-4.103 4.359c-.154.178-.328.335-.484.511.402-.629.88-1.192 1.348-1.76zm.412-3.524c-.03.029-.071.081-.084.083-.045.01-.083.007-.121.007l.205-.09zm-.178-.478c.128.114-.05.403-.061.57-.268-.066-.268-.067.061-.57zm1.594-1.282c.158-.028.301-.034.45-.048h.002l-.17.512c-.245-.111-.391-.178-.553-.25.144-.122.235-.206.27-.214zm.883-.256c-.054.055-.131.15-.16.159-.09.026-.167.026-.247.034l.319-.18c.032-.018.059-.01.088-.013zm8.65-6.75c.076-.057.212-.08.321-.12-.043.06-.07.128-.132.176-.101.078-.227.142-.455.28.127-.169.172-.266.266-.337zm2.411-1.457c.118-.063.24-.113.543-.252l-.558.331c-.04.023-.085.034-.13.05.049-.044.091-.1.145-.129zm4.62-1.973c.06-.022.118-.003.178-.002l-.208.142-.164-.007c.065-.046.13-.11.194-.133zm2.117-1.315c.057.004.162-.01.161.015 0 .034-.064.103-.127.14-.051.03-.143.035-.268.061l.234-.216zm4.263-1.625c.013.006-.03.047-.047.071-.06.003-.156.024-.172.006-.044-.046-.055-.108-.08-.163.101.027.206.053.299.086zm-14.377 90.206l-.02-.064.104.086-.084-.022zm-2.71-1.983c-.03-.025-.047-.059-.07-.09.037.024.079.045.11.073.027.023.045.056.068.085-.036-.022-.078-.041-.109-.068zm-9.058-8.078c-.097-.1-.173-.222-.254-.338.091.095.175.192.276.283.033.03.062.078.092.117-.038-.02-.083-.027-.114-.062zm-3.577-9.75l.327.772-.04.022-.327-.775.04-.02zm-.507-1.499c-.004-.011.019-.02.03-.03l.051.246c-.048-.124-.068-.17-.08-.216zm-2.25-9.907l.964 5.286c-.523-1.746-.783-3.523-.963-5.286zm-1.952-14.618c-.02-.2-.032-.245-.028-.287.034-.36-.009-.776.18-1.03.011-.015.04.02.05.051.084.244.064.38-.202 1.266zm-.117 3.768c-.016-.079-.039-.157-.044-.24-.002-.027.04-.073.062-.109.008.092.02.183.022.275 0 .02-.026.049-.04.074zM46.591 60.3c-.018.022-.09-.026-.075-.08.107-.465.37-.789.777-1.162a3.705 3.705 0 0 1-.702 1.242zm-5.526 12.44v.015c-.083.275-.19.551-.24.827-.1.5-.127 1.002-.178 1.475-.225.214-.174-.155-.217-.31-.057-.198-.13-.369-.197-.55.365-.443.58-1.15.71-1.91.221-.086.122.259.122.453zm-.01.11c0-.022.006-.045.01-.068v.142c-.003-.025-.012-.047-.01-.074zm-.463 23.928c.014.045.034.091.04.137.005.042-.003.083-.006.125l-.041-.138.007-.124zm-.451-3.723l-.002-.26c.01.046.027.093.028.136.005.088.002.175.001.263l-.027-.14zm104.808-10.642a8.23 8.23 0 0 0 .024-1.58 6.588 6.588 0 0 0-.287-1.566c-.11-.365-.162-.82-.227-1.24-.042-.318-.084-.645-.144-.958-.356-1.912-.919-3.765-1.466-5.618-.2-.597-.44-1.187-.647-1.785-.212-.597-.424-1.191-.518-1.826-.021-.134-.098-.305-.155-.456-.68-1.634-1.39-3.257-2.237-4.8-1.29-2.4-2.796-4.645-4.314-6.89-.266-.388-.581-.75-.874-1.124l-1.479-1.725c-.512-.559-1-1.142-1.49-1.738a29.5 29.5 0 0 0-1.094-1.234c-.383-.398-.785-.778-1.177-1.163-.513-.516-1.101-.938-1.641-1.422-.694-.615-1.485-1.174-2.101-1.814a23.983 23.983 0 0 0-1.878-1.624 43.004 43.004 0 0 0-7.745-4.91c-.792-.405-1.554-.734-2.215-1.302-.322-.282-.753-.49-1.148-.452-.377.039-.825-.18-1.343-.457l.554.017a6.494 6.494 0 0 0-1.486-.85 4.273 4.273 0 0 0-1.502-.34c.036-.125.075-.27-.32-.417-.55-.208-1.093-.448-1.65-.644-.278-.102-.556-.2-.836-.288-.286-.089-.528-.165-.924-.239l-1.003-.212a6.223 6.223 0 0 1-.95-.263c-1.42-.486-2.898-.551-4.264-.442-.818.09-1.52.19-2.239-.027-.102-.033-.305-.024-.462-.02-1.68.08-3.345.21-4.977.457-.976.136-1.936.338-2.894.54a72.224 72.224 0 0 0-3.446.822c-.581.163-1.156.366-1.737.491a9.723 9.723 0 0 0-1.728.555 13.84 13.84 0 0 1-.993.369c-.479.16-.441.01-.401-.135-.327.198-.655.389-1.044.636-.116-.061-.2-.141-.353-.172-.115-.024-.358-.019-.477.034-.512.235-1.126.446-1.255.806-.683.424-1.497.654-2.255.987.079-.122.12-.246.251-.365.104-.1.333-.182.485-.278.057-.035.09-.11.067-.136-.023-.027-.139-.041-.198-.02-.466.17-.918.374-1.376.562l.009-.01c-.086.047-.193.127-.256.138-.917.134-1.726.807-2.631 1.008-.1.021-.243.149-.361.23-.595.411-1.17.82-1.778 1.221-.21.143-.525.232-.794.345a.01.01 0 0 1-.004-.001l-.008.006.019-.003c-.322.146-.649.287-.97.443-.64.323-1.267.705-1.908.999-1.117.55-1.95 1.123-2.222 1.908-.103.297-.39.616-.997.838-.31.11-.688.401-1.019.641-.242.17-.281.294-.287.443-.008.23-.167.358-.45.373-.601.02-1.478.6-1.995.503-.159-.027-.697.426-.995.852a10.9 10.9 0 0 1 .614-.269c-.43.394-.816.742-1.23 1.03-.239.17-.546.358-.727.394-.164.031-.198-.134-.275-.2-.67.479-1.247 1.047-1.82 1.602-.556.577-1.09 1.162-1.688 1.676-.11.098-.204.245-.298.37-.255.342-.28.536-.074.579.046.009.141-.044.172-.02.064.046.101.126.149.192-.133.133-.262.278-.397.398-.145.128-.377.28-.322.396.118.248-.203.521-.426.677-.258.17-.494.308-.746.608-.194.23-.35.445-.067.352.201-.064.102.13-.028.293-.116.148-.309.336-.405.381-.26.113-.45.263-.624.675-.09.213-.23.45-.37.67-.192.297-.379.554-.494.379-.097-.152-.264-.05-.477.279-.218.34-.445.676-.65 1.022l-.59 1.056c-.12.222-.252.511-.266.688-.034.405-.161.71-.443 1.19-.286.477-.496.709-.754.922l.008-.007c-.54.76-.54.763-.19.898.017.006.011.06.02.126-.204.334-.384.7-.582 1.047-.247.435-.083-.2-.266-.03-.123.328-.35.77-.398 1.1-.081.688-.357 1.288-.588 1.925-.01-.154-.01-.306-.02-.622-.208.515-.294.876-.432 1.177-.155.347-.345.649-.54 1.01-.005.33.226.462.045 1.11l-.5-.022c-.403.887-.573 1.34-.673 1.725-.096.381-.128.698-.15 1.321l-.002-.004-.117.638c-.081.044-.203.055-.23.149-.066.239-.091.517-.123.777-.046.375-.002.593.185.484.057-.032.141-.01.166.078.094.332.198.665.242 1.062.029.225-.068.582-.09.88-.094-.033-.188-.077-.285-.093-.037-.006-.081.052-.14.093l-.25.978c.165.111.357-.095.327.586a54.865 54.865 0 0 1-.103 2.649c-.037.656-.095 1.34-.265 1.948l-.368-.41c-.005-.099.005-.205-.008-.29-.01-.063-.046-.096-.07-.14-.009.087-.03.186-.022.263.006.088.04.157.064.235-.087.401-.217.797-.087 1.27.028.102.095.139.144.205l.075-.399c.007-.042.003-.097.003-.146.262.093.348.507.338 1.11-.037 2.201.049 4.402.24 6.596a61.641 61.641 0 0 0 1.424 8.874c.191.727.315 1.567.79 2.088.094.104.185.47.265.719.172.555.346 1.114.556 1.653.13.332.29.65.462.944.057.098.176.189.216.163.037-.024.038-.207.003-.32l-.693-2.404c-.398-1.288-.497-2.61-.993-3.892a2.299 2.299 0 0 1-.121-.601c-.036-.454-.083-.854-.272-1.313-.12-.289-.189-.696-.248-1.05l-.26-1.923-.196-1.927c-.046-.618-.192-1.344-.13-1.831.11-.738-.15-1.276-.17-1.9-.007-.183.019-.465.066-.513.248-.241.221-.758.212-1.277-.025-2.825.192-5.64.512-8.444a19.55 19.55 0 0 1 .853-3.9c.017.262.033.525.073.878.065-.25.094-.34.111-.432.11-.61.075-1.215.36-1.85.147-.302.31-.957.134-1.308.358-.655.746-1.382.92-2.254.181-.734.336-1.443.698-2.08.039-.067.064-.19.082-.282.183-.915.18-.933.45-1.316.161-.21.225-.375.247-.627.033-.391.188-.759.443-1.01.194-.186.318-.408.396-.724.043-.175.097-.396.182-.54.331-.587.752-1.098 1.008-1.771.354-.367.631-.87.88-1.36.391-.794.956-1.377 1.488-1.975-.21.404-.443.784-.692 1.15-.443.646-.825 1.33-1.238 1.997-.366.691-.774 1.364-1.108 2.073-.35.695-.656 1.417-.935 2.147-.305.72-.57 1.451-.917 2.144-.109.213-.175.475-.253.716-.176.526-.37 1.044-.536 1.575-.252.874-.523 1.746-.706 2.64-.06.268-.038.554-.053.832l-.001-.005c-.206.756-.425 1.516-.606 2.276.386.297.386.295.148 1.495-.393.081-.446.148-.58.82-.083.44-.159.894-.215 1.345-.077.651-.17 1.304-.228 1.96-.135 1.564-.242 3.135-.244 4.71a8.25 8.25 0 0 0 .05 1.065c.027.23.062.532.246.41.017-.806.09-1.683.546-1.754.094.525.005.937-.134 1.325-.234.65-.225 1.445-.048 2.258.039.192.107.364.135.557.085.643.2 1.267.14 1.92-.035.349-.007.777.052 1.164.03.215.093.131.105-.03.003-.044 0-.1.01-.133.006-.015.032.008.072.022.071.892.162 1.79.259 2.68.02.203-.051.386-.083.577l-.006.001.002.014.004-.015c.165.427.347.796.413 1.361.056.519.147 1.037.243 1.56.092.522.2 1.044.336 1.558a52.45 52.45 0 0 0 2.504 7.529c.093.238.192.483.316.7.572 1.03 1.025 2.113 1.575 3.157l.355.686c.093.168.204.378.314.233-.36-.796-.743-1.61-1.061-2.445a44.538 44.538 0 0 1-1.265-3.648c-.14-.435-.263-.86-.534-1.188l.007.008c-.202-.521-.289-1.027-.402-1.544-.106-.464-.388-.984-.52-1.53-.161-.627-.329-1.253-.47-1.887a35.936 35.936 0 0 1-.414-1.9 55.985 55.985 0 0 1-.73-4.712 68.05 68.05 0 0 1-.326-5.178c-.054-2.13-.017-4.26.144-6.379a59.24 59.24 0 0 0 .102 6.199c-.003.113-.004.228.001.348.03.685.026 1.373.07 2.057.06 1.712.233 3.418.44 5.127.034.243.061.508.132.727.301.968.401 1.932.599 2.9.17.718.34 1.446.565 2.155.048.16.15.306.351.702-.137-.785-.243-1.31-.314-1.837.212.845.459 1.685.694 2.523.083.285.247.69.061.824-.03.023-.006.23.027.356.183.668.39 1.332.626 1.988.26.647.517 1.3.878 1.912.214.377.402.781.568 1.099-.053.108-.134.179-.11.234.182.418.4.8.633 1.166.236.366.504.709.754 1.067-.225-.564-.465-1.118-.67-1.687a35.97 35.97 0 0 1-.625-1.696c-.176-.501-.337-1.002-.504-1.512a46.374 46.374 0 0 1-.742-2.268c.962 2.59 2.099 5.024 3.393 7.224 4.18 7.103 10.33 12.976 17.548 17.047-.15.208-.053.354.424.65.23.138.462.277.706.392l.743.33c.188.088.479.145.513.36-.503-.223-1.01-.428-1.5-.66l-1.427-.77c-.34-.188-.594-.41-.596-.665-.002-.281-.07-.302-.7-.487a1.856 1.856 0 0 1-.602-.313c-.637-.464-1.24-1.003-1.89-1.394a16.743 16.743 0 0 1-.86-.56c-.273-.21-.534-.437-.802-.652-.535-.432-1.078-.843-1.673-1.158-.174-.156-.351-.305-.53-.45l-.511-.454a27.501 27.501 0 0 0-1.047-.856c-.702-.558-1.451-1.066-2.076-1.731-.147-.146-.417-.313-.497-.292-.133.035.048.3.209.492.53.668 1.146 1.254 1.75 1.853l.535.52a20.921 20.921 0 0 1-1.883-1.482c-.514-.509-1.04-.998-1.562-1.501-.261-.252-.521-.506-.777-.768-.128-.13-.257-.261-.381-.399l-.341-.438c-.454-.601-.954-1.175-1.448-1.745l-.699-.785-.642-.826c-.177-.229-.348-.532-.594-.525l.69 1.407-.576-.642c-.162-.187-.316-.4-.479-.58-.16-.176-.278-.525-.533-.586.156.28.273.504.405.721.356.575.71 1.159 1.079 1.724.393.547.78 1.076.827 1.598.018.194.254.587.445.879.567.936 1.268 1.77 1.968 2.62 1.06 1.35 2.325 2.512 3.537 3.725a29.005 29.005 0 0 1-2.014-1.796c-.166-.162-.346-.302-.522-.443l-.511-.44c-.34-.294-.672-.609-.94-1.027-.036-.058-.172-.168-.212-.174-.308-.043-.55-.351-.843-.698-.3-.336-.571-.7-.842-1.064l-.828-1.08c-.207-.267-.462-.629-.681-.544.066.13.126.257.201.386.292.497.627.98.977 1.454.177.237.352.476.538.706l.588.662c.32.365.682.728.866 1.187-.777-.811-.776-.811-1.36-1.195.45.495.77.847 1.088 1.2.404.43.786.853 1.225.963.182.051.295.34.354.51.473.448 1.04.793 1.416 1.34l-.004-.007c.083.117.148.247.25.348.291.293.595.574.902.851.31.275.652.511.975.768.653.507 1.292 1.026 1.864 1.623.421.36.887.657 1.34.972l1.365.936c.46.302.9.64 1.377.915l1.427.837c.549.322 1.09.684 1.59 1.05.335.254.63.476 1.07.581.058.013.225.122.225.141-.005.47.84.706 1.4.987l1.06.515 1.098.43c.733.287 1.462.58 2.178.915.513.259 1.13.391 1.7.522.644.147 1.212.267 1.73.633.25.176.746.337 1.15.47.58.148 1.176.258 1.763.392l2.088.459c.698.139 1.407.219 2.101.352.65.117 1.296.222 1.942.307.645.095 1.301.067 1.955.061.878-.026 1.72.027 2.583.193.6.089 1.29.08 1.942.067a70.867 70.867 0 0 0 1.738-.065c.29-.017.58-.02.87-.051l.864-.11c.326-.04.688-.101.975-.089.512.023 1.031-.008 1.55-.061l.781-.094c.259-.044.513-.11.77-.162l2.398-.531 1.196-.271 1.182-.346 1.177-.353 1.159-.406 1.155-.41 1.136-.46c.877-.337 1.722-.742 2.575-1.13 2.13-1.016 4.231-2.105 6.178-3.41.787-.492 1.51-1.068 2.256-1.61.728-.566 1.439-1.15 2.155-1.727.533-.455 1.089-.888 1.635-1.332a17.797 17.797 0 0 0 1.514-1.447c.066-.073.163-.146.247-.206.658-.487 1.175-1.097 1.726-1.68.317-.358.652-.708.981-1.059.731-.752 1.395-1.563 2.09-2.346.654-.817 1.336-1.61 1.95-2.456l.855-1.164.815-1.191c.3-.442.647-.866.908-1.327.455-.78.926-1.547 1.355-2.343l.666-1.182.642-1.2c.971-1.783 1.817-3.634 2.606-5.507.36-.892.863-1.805 1.055-2.67.266-1.05.626-2.018.94-3.03.214-.66.358-1.345.534-2.017.078-.31.13-.635.216-.93.185-.591.338-1.19.475-1.79.122-.606.215-1.217.316-1.827.158-.952.25-1.92.614-2.772.075-.2.115-.516.136-.777.014-.184-.03-.365-.049-.547l-.276.338c.005-.2 0-.355.013-.512.08-.748.094-1.505.128-2.258.046-.752.032-1.51.045-2.265l.08-2.387c.004-.145.06-.272.09-.408.005.044.007.093.016.131.007.028.023.042.035.064l-.051-.196z" fill="#EAEBEC"/><path d="M70.382 131.568c-.033-.018-.063-.038-.094-.057.32.156.643.308.967.457-.034-.006-.067-.017-.1-.021-.196-.03-.525-.235-.773-.379zm-2.116-1.11c.17.094.337.19.506.281a.612.612 0 0 1-.506-.28zM43.474 74.462l.036-.01-.065.14.029-.13zm8.46-18.308c.49-.568 1.032-1.085 1.55-1.62.139-.143.292-.275.427-.42 1.913-2.142 4.207-3.817 6.496-5.46.855-.58 1.703-1.165 2.633-1.715-.016.232-.276.346-.437.447a63.84 63.84 0 0 0-3.411 2.362c-.708.497-1.365 1.062-2.052 1.59a67.331 67.331 0 0 0-1.967 1.706 45.06 45.06 0 0 0-4.103 4.359c-.154.178-.328.335-.484.511.402-.629.88-1.192 1.348-1.76zm.412-3.524c-.03.029-.071.081-.084.083-.045.01-.083.007-.121.007l.205-.09zm-.178-.478c.128.114-.05.403-.061.57-.268-.066-.268-.067.061-.57zm1.594-1.282c.158-.028.301-.034.45-.048h.002l-.17.512c-.245-.111-.391-.178-.553-.25.144-.122.235-.206.27-.214zm.883-.256c-.054.055-.131.15-.16.159-.09.026-.167.026-.247.034l.319-.18c.032-.018.059-.01.088-.013zm8.65-6.75c.076-.057.212-.08.321-.12-.043.06-.07.128-.132.176-.101.078-.227.142-.455.28.127-.169.172-.266.266-.337zm2.411-1.457c.118-.063.24-.113.543-.252l-.558.331c-.04.023-.085.034-.13.05.049-.044.091-.1.145-.129zm4.62-1.973c.06-.022.118-.003.178-.002l-.208.142-.164-.007c.065-.046.13-.11.194-.133zm2.117-1.315c.057.004.162-.01.161.015 0 .034-.064.103-.127.14-.051.03-.143.035-.268.061l.234-.216zm4.263-1.625c.013.006-.03.047-.047.071-.06.003-.156.024-.172.006-.044-.046-.055-.108-.08-.163.101.027.206.053.299.086zm-14.377 90.206l-.02-.064.104.086-.084-.022zm-2.71-1.983c-.03-.025-.047-.059-.07-.09.037.024.079.045.11.073.027.023.045.056.068.085-.036-.022-.078-.041-.109-.068zm-9.058-8.078c-.097-.1-.173-.222-.254-.338.091.095.175.192.276.283.033.03.062.078.092.117-.038-.02-.083-.027-.114-.062zm-3.577-9.75l.327.772-.04.022-.327-.775.04-.02zm-.507-1.499c-.004-.011.019-.02.03-.03l.051.246c-.048-.124-.068-.17-.08-.216zm-2.25-9.907l.964 5.286c-.523-1.746-.783-3.523-.963-5.286zm-1.952-14.618c-.02-.2-.032-.245-.028-.287.034-.36-.009-.776.18-1.03.011-.015.04.02.05.051.084.244.064.38-.202 1.266zm-.117 3.768c-.016-.079-.039-.157-.044-.24-.002-.027.04-.073.062-.109.008.092.02.183.022.275 0 .02-.026.049-.04.074zM46.591 60.3c-.018.022-.09-.026-.075-.08.107-.465.37-.789.777-1.162a3.705 3.705 0 0 1-.702 1.242zm-5.526 12.44v.015c-.083.275-.19.551-.24.827-.1.5-.127 1.002-.178 1.475-.225.214-.174-.155-.217-.31-.057-.198-.13-.369-.197-.55.365-.443.58-1.15.71-1.91.221-.086.122.259.122.453zm-.01.11c0-.022.006-.045.01-.068v.142c-.003-.025-.012-.047-.01-.074zm-.463 23.928c.014.045.034.091.04.137.005.042-.003.083-.006.125l-.041-.138.007-.124zm-.451-3.723l-.002-.26c.01.046.027.093.028.136.005.088.002.175.001.263l-.027-.14zm104.808-10.642a8.23 8.23 0 0 0 .024-1.58 6.588 6.588 0 0 0-.287-1.566c-.11-.365-.162-.82-.227-1.24-.042-.318-.084-.645-.144-.958-.356-1.912-.919-3.765-1.466-5.618-.2-.597-.44-1.187-.647-1.785-.212-.597-.424-1.191-.518-1.826-.021-.134-.098-.305-.155-.456-.68-1.634-1.39-3.257-2.237-4.8-1.29-2.4-2.796-4.645-4.314-6.89-.266-.388-.581-.75-.874-1.124l-1.479-1.725c-.512-.559-1-1.142-1.49-1.738a29.5 29.5 0 0 0-1.094-1.234c-.383-.398-.785-.778-1.177-1.163-.513-.516-1.101-.938-1.641-1.422-.694-.615-1.485-1.174-2.101-1.814a23.983 23.983 0 0 0-1.878-1.624 43.004 43.004 0 0 0-7.745-4.91c-.792-.405-1.554-.734-2.215-1.302-.322-.282-.753-.49-1.148-.452-.377.039-.825-.18-1.343-.457l.554.017a6.494 6.494 0 0 0-1.486-.85 4.273 4.273 0 0 0-1.502-.34c.036-.125.075-.27-.32-.417-.55-.208-1.093-.448-1.65-.644-.278-.102-.556-.2-.836-.288-.286-.089-.528-.165-.924-.239l-1.003-.212a6.223 6.223 0 0 1-.95-.263c-1.42-.486-2.898-.551-4.264-.442-.818.09-1.52.19-2.239-.027-.102-.033-.305-.024-.462-.02-1.68.08-3.345.21-4.977.457-.976.136-1.936.338-2.894.54a72.224 72.224 0 0 0-3.446.822c-.581.163-1.156.366-1.737.491a9.723 9.723 0 0 0-1.728.555 13.84 13.84 0 0 1-.993.369c-.479.16-.441.01-.401-.135-.327.198-.655.389-1.044.636-.116-.061-.2-.141-.353-.172-.115-.024-.358-.019-.477.034-.512.235-1.126.446-1.255.806-.683.424-1.497.654-2.255.987.079-.122.12-.246.251-.365.104-.1.333-.182.485-.278.057-.035.09-.11.067-.136-.023-.027-.139-.041-.198-.02-.466.17-.918.374-1.376.562l.009-.01c-.086.047-.193.127-.256.138-.917.134-1.726.807-2.631 1.008-.1.021-.243.149-.361.23-.595.411-1.17.82-1.778 1.221-.21.143-.525.232-.794.345a.01.01 0 0 1-.004-.001l-.008.006.019-.003c-.322.146-.649.287-.97.443-.64.323-1.267.705-1.908.999-1.117.55-1.95 1.123-2.222 1.908-.103.297-.39.616-.997.838-.31.11-.688.401-1.019.641-.242.17-.281.294-.287.443-.008.23-.167.358-.45.373-.601.02-1.478.6-1.995.503-.159-.027-.697.426-.995.852a10.9 10.9 0 0 1 .614-.269c-.43.394-.816.742-1.23 1.03-.239.17-.546.358-.727.394-.164.031-.198-.134-.275-.2-.67.479-1.247 1.047-1.82 1.602-.556.577-1.09 1.162-1.688 1.676-.11.098-.204.245-.298.37-.255.342-.28.536-.074.579.046.009.141-.044.172-.02.064.046.101.126.149.192-.133.133-.262.278-.397.398-.145.128-.377.28-.322.396.118.248-.203.521-.426.677-.258.17-.494.308-.746.608-.194.23-.35.445-.067.352.201-.064.102.13-.028.293-.116.148-.309.336-.405.381-.26.113-.45.263-.624.675-.09.213-.23.45-.37.67-.192.297-.379.554-.494.379-.097-.152-.264-.05-.477.279-.218.34-.445.676-.65 1.022l-.59 1.056c-.12.222-.252.511-.266.688-.034.405-.161.71-.443 1.19-.286.477-.496.709-.754.922l.008-.007c-.54.76-.54.763-.19.898.017.006.011.06.02.126-.204.334-.384.7-.582 1.047-.247.435-.083-.2-.266-.03-.123.328-.35.77-.398 1.1-.081.688-.357 1.288-.588 1.925-.01-.154-.01-.306-.02-.622-.208.515-.294.876-.432 1.177-.155.347-.345.649-.54 1.01-.005.33.226.462.045 1.11l-.5-.022c-.403.887-.573 1.34-.673 1.725-.096.381-.128.698-.15 1.321l-.002-.004-.117.638c-.081.044-.203.055-.23.149-.066.239-.091.517-.123.777-.046.375-.002.593.185.484.057-.032.141-.01.166.078.094.332.198.665.242 1.062.029.225-.068.582-.09.88-.094-.033-.188-.077-.285-.093-.037-.006-.081.052-.14.093l-.25.978c.165.111.357-.095.327.586a54.865 54.865 0 0 1-.103 2.649c-.037.656-.095 1.34-.265 1.948l-.368-.41c-.005-.099.005-.205-.008-.29-.01-.063-.046-.096-.07-.14-.009.087-.03.186-.022.263.006.088.04.157.064.235-.087.401-.217.797-.087 1.27.028.102.095.139.144.205l.075-.399c.007-.042.003-.097.003-.146.262.093.348.507.338 1.11-.037 2.201.049 4.402.24 6.596a61.641 61.641 0 0 0 1.424 8.874c.191.727.315 1.567.79 2.088.094.104.185.47.265.719.172.555.346 1.114.556 1.653.13.332.29.65.462.944.057.098.176.189.216.163.037-.024.038-.207.003-.32l-.693-2.404c-.398-1.288-.497-2.61-.993-3.892a2.299 2.299 0 0 1-.121-.601c-.036-.454-.083-.854-.272-1.313-.12-.289-.189-.696-.248-1.05l-.26-1.923-.196-1.927c-.046-.618-.192-1.344-.13-1.831.11-.738-.15-1.276-.17-1.9-.007-.183.019-.465.066-.513.248-.241.221-.758.212-1.277-.025-2.825.192-5.64.512-8.444a19.55 19.55 0 0 1 .853-3.9c.017.262.033.525.073.878.065-.25.094-.34.111-.432.11-.61.075-1.215.36-1.85.147-.302.31-.957.134-1.308.358-.655.746-1.382.92-2.254.181-.734.336-1.443.698-2.08.039-.067.064-.19.082-.282.183-.915.18-.933.45-1.316.161-.21.225-.375.247-.627.033-.391.188-.759.443-1.01.194-.186.318-.408.396-.724.043-.175.097-.396.182-.54.331-.587.752-1.098 1.008-1.771.354-.367.631-.87.88-1.36.391-.794.956-1.377 1.488-1.975-.21.404-.443.784-.692 1.15-.443.646-.825 1.33-1.238 1.997-.366.691-.774 1.364-1.108 2.073-.35.695-.656 1.417-.935 2.147-.305.72-.57 1.451-.917 2.144-.109.213-.175.475-.253.716-.176.526-.37 1.044-.536 1.575-.252.874-.523 1.746-.706 2.64-.06.268-.038.554-.053.832l-.001-.005c-.206.756-.425 1.516-.606 2.276.386.297.386.295.148 1.495-.393.081-.446.148-.58.82-.083.44-.159.894-.215 1.345-.077.651-.17 1.304-.228 1.96-.135 1.564-.242 3.135-.244 4.71a8.25 8.25 0 0 0 .05 1.065c.027.23.062.532.246.41.017-.806.09-1.683.546-1.754.094.525.005.937-.134 1.325-.234.65-.225 1.445-.048 2.258.039.192.107.364.135.557.085.643.2 1.267.14 1.92-.035.349-.007.777.052 1.164.03.215.093.131.105-.03.003-.044 0-.1.01-.133.006-.015.032.008.072.022.071.892.162 1.79.259 2.68.02.203-.051.386-.083.577l-.006.001.002.014.004-.015c.165.427.347.796.413 1.361.056.519.147 1.037.243 1.56.092.522.2 1.044.336 1.558a52.45 52.45 0 0 0 2.504 7.529c.093.238.192.483.316.7.572 1.03 1.025 2.113 1.575 3.157l.355.686c.093.168.204.378.314.233-.36-.796-.743-1.61-1.061-2.445a44.538 44.538 0 0 1-1.265-3.648c-.14-.435-.263-.86-.534-1.188l.007.008c-.202-.521-.289-1.027-.402-1.544-.106-.464-.388-.984-.52-1.53-.161-.627-.329-1.253-.47-1.887a35.936 35.936 0 0 1-.414-1.9 55.985 55.985 0 0 1-.73-4.712 68.05 68.05 0 0 1-.326-5.178c-.054-2.13-.017-4.26.144-6.379a59.24 59.24 0 0 0 .102 6.199c-.003.113-.004.228.001.348.03.685.026 1.373.07 2.057.06 1.712.233 3.418.44 5.127.034.243.061.508.132.727.301.968.401 1.932.599 2.9.17.718.34 1.446.565 2.155.048.16.15.306.351.702-.137-.785-.243-1.31-.314-1.837.212.845.459 1.685.694 2.523.083.285.247.69.061.824-.03.023-.006.23.027.356.183.668.39 1.332.626 1.988.26.647.517 1.3.878 1.912.214.377.402.781.568 1.099-.053.108-.134.179-.11.234.182.418.4.8.633 1.166.236.366.504.709.754 1.067-.225-.564-.465-1.118-.67-1.687a35.97 35.97 0 0 1-.625-1.696c-.176-.501-.337-1.002-.504-1.512a46.374 46.374 0 0 1-.742-2.268c.962 2.59 2.099 5.024 3.393 7.224 4.18 7.103 10.33 12.976 17.548 17.047-.15.208-.053.354.424.65.23.138.462.277.706.392l.743.33c.188.088.479.145.513.36-.503-.223-1.01-.428-1.5-.66l-1.427-.77c-.34-.188-.594-.41-.596-.665-.002-.281-.07-.302-.7-.487a1.856 1.856 0 0 1-.602-.313c-.637-.464-1.24-1.003-1.89-1.394a16.743 16.743 0 0 1-.86-.56c-.273-.21-.534-.437-.802-.652-.535-.432-1.078-.843-1.673-1.158-.174-.156-.351-.305-.53-.45l-.511-.454a27.501 27.501 0 0 0-1.047-.856c-.702-.558-1.451-1.066-2.076-1.731-.147-.146-.417-.313-.497-.292-.133.035.048.3.209.492.53.668 1.146 1.254 1.75 1.853l.535.52a20.921 20.921 0 0 1-1.883-1.482c-.514-.509-1.04-.998-1.562-1.501-.261-.252-.521-.506-.777-.768-.128-.13-.257-.261-.381-.399l-.341-.438c-.454-.601-.954-1.175-1.448-1.745l-.699-.785-.642-.826c-.177-.229-.348-.532-.594-.525l.69 1.407-.576-.642c-.162-.187-.316-.4-.479-.58-.16-.176-.278-.525-.533-.586.156.28.273.504.405.721.356.575.71 1.159 1.079 1.724.393.547.78 1.076.827 1.598.018.194.254.587.445.879.567.936 1.268 1.77 1.968 2.62 1.06 1.35 2.325 2.512 3.537 3.725a29.005 29.005 0 0 1-2.014-1.796c-.166-.162-.346-.302-.522-.443l-.511-.44c-.34-.294-.672-.609-.94-1.027-.036-.058-.172-.168-.212-.174-.308-.043-.55-.351-.843-.698-.3-.336-.571-.7-.842-1.064l-.828-1.08c-.207-.267-.462-.629-.681-.544.066.13.126.257.201.386.292.497.627.98.977 1.454.177.237.352.476.538.706l.588.662c.32.365.682.728.866 1.187-.777-.811-.776-.811-1.36-1.195.45.495.77.847 1.088 1.2.404.43.786.853 1.225.963.182.051.295.34.354.51.473.448 1.04.793 1.416 1.34l-.004-.007c.083.117.148.247.25.348.291.293.595.574.902.851.31.275.652.511.975.768.653.507 1.292 1.026 1.864 1.623.421.36.887.657 1.34.972l1.365.936c.46.302.9.64 1.377.915l1.427.837c.549.322 1.09.684 1.59 1.05.335.254.63.476 1.07.581.058.013.225.122.225.141-.005.47.84.706 1.4.987l1.06.515 1.098.43c.733.287 1.462.58 2.178.915.513.259 1.13.391 1.7.522.644.147 1.212.267 1.73.633.25.176.746.337 1.15.47.58.148 1.176.258 1.763.392l2.088.459c.698.139 1.407.219 2.101.352.65.117 1.296.222 1.942.307.645.095 1.301.067 1.955.061.878-.026 1.72.027 2.583.193.6.089 1.29.08 1.942.067a70.867 70.867 0 0 0 1.738-.065c.29-.017.58-.02.87-.051l.864-.11c.326-.04.688-.101.975-.089.512.023 1.031-.008 1.55-.061l.781-.094c.259-.044.513-.11.77-.162l2.398-.531 1.196-.271 1.182-.346 1.177-.353 1.159-.406 1.155-.41 1.136-.46c.877-.337 1.722-.742 2.575-1.13 2.13-1.016 4.231-2.105 6.178-3.41.787-.492 1.51-1.068 2.256-1.61.728-.566 1.439-1.15 2.155-1.727.533-.455 1.089-.888 1.635-1.332a17.797 17.797 0 0 0 1.514-1.447c.066-.073.163-.146.247-.206.658-.487 1.175-1.097 1.726-1.68.317-.358.652-.708.981-1.059.731-.752 1.395-1.563 2.09-2.346.654-.817 1.336-1.61 1.95-2.456l.855-1.164.815-1.191c.3-.442.647-.866.908-1.327.455-.78.926-1.547 1.355-2.343l.666-1.182.642-1.2c.971-1.783 1.817-3.634 2.606-5.507.36-.892.863-1.805 1.055-2.67.266-1.05.626-2.018.94-3.03.214-.66.358-1.345.534-2.017.078-.31.13-.635.216-.93.185-.591.338-1.19.475-1.79.122-.606.215-1.217.316-1.827.158-.952.25-1.92.614-2.772.075-.2.115-.516.136-.777.014-.184-.03-.365-.049-.547l-.276.338c.005-.2 0-.355.013-.512.08-.748.094-1.505.128-2.258.046-.752.032-1.51.045-2.265l.08-2.387c.004-.145.06-.272.09-.408.005.044.007.093.016.131.007.028.023.042.035.064l-.051-.196z" stroke="#EAEBEC"/><path d="M140.572 68.386c17.189 19.24 16.547 48.791-1.923 67.262-19.136 19.136-50.162 19.136-69.297 0-19.136-19.136-19.136-50.16 0-69.296 19.135-19.136 50.16-19.136 69.297 0" fill="#FFF"/><path d="M121.432 148.05c3.889-1.82 8.24-2.283 12.08-4.155 3.056-1.49 6.087-3.201 9.488-3.545-.033-.597-.098-1.193-.152-1.791-.168-.933-.306-1.88-.584-2.8a20.854 20.854 0 0 0-3.193-6.768c-.842-1.22-1.896-2.324-3.045-3.348-.283-.256-.615-.485-.909-.715l-.339-.3a6.232 6.232 0 0 0-.713-.57c-.642-.456-1.283-.935-2.007-1.299-.356-.191-.713-.387-1.082-.56-.377-.154-.76-.3-1.148-.439-.713-.282-1.47-.398-2.223-.54l-.945-.162a13.446 13.446 0 0 1-.758-.153c-1.779-.417-3.6-.308-5.389-.582a6.77 6.77 0 0 0-1.902-.045c-.721.093-1.432-.047-2.15-.05-.652-.003-1.307.057-1.96.061-.863.006-1.726-.015-2.589-.024-1.254-.016-2.511-.007-3.763-.055a16.628 16.628 0 0 1-1.191-.098c-.21-.021-.368-.046-.622-.065-.288-.017-.576-.03-.865-.038-.436-.003-.873-.027-1.307.019l-1.303.127c-.354.022-.7.08-1.047.147l-1.04.196c-.692.14-1.352.372-2.027.575a21.05 21.05 0 0 0-5.033 2.702c-.626.435-1.203.916-1.813 1.38-.556.501-1.134 1.004-1.65 1.554-.413.47-.825.95-1.21 1.447l-1.084 1.536-.95 1.504c-.324.503-.571 1.037-.845 1.567-.196.38-.31.79-.452 1.186l-.534 1.38c-.16.465-.296.937-.44 1.41-.051.172-.12.342-.178.513-.022.064-.106.141-.056.19.46.446.234.732-.19 1.036-.126.09-.098.252-.122.384l-.114.667c-.025-.031-.127 1.065-.044 1.826.15 1.636.729 3.334 1.996 4.853a8.328 8.328 0 0 0 3.709 2.53 8.58 8.58 0 0 0 1.19.303c.379.07.97.12.87.108l.341.028c.874.083 1.744.244 2.623.247.979.002 1.938.22 2.916.23 1.238.017 2.471.114 3.708.174.388.02.776.073 1.168.038.555-.05 1.112-.114 1.67-.274.305-.089.593-.101.86.148.298.282.616.323.952.178a.75.75 0 0 1 .248-.064c.966-.065 1.93-.1 2.898-.194.385-.037.771-.086 1.157-.144l.58-.092.144-.025c.035-.004.027-.01.096-.012l.186-.004.748-.02c2.202-.058 4.403-.245 6.604-.235a20.38 20.38 0 0 0 1.62-.071c.213-.4.573-.754 1.116-1.008" fill="#FFE5E5"/><path d="M121.432 148.05c3.889-1.82 8.24-2.283 12.08-4.155 3.056-1.49 6.087-3.201 9.488-3.545-.033-.597-.098-1.193-.152-1.791-.168-.933-.306-1.88-.584-2.8a20.854 20.854 0 0 0-3.193-6.768c-.842-1.22-1.896-2.324-3.045-3.348-.283-.256-.615-.485-.909-.715l-.339-.3a6.232 6.232 0 0 0-.713-.57c-.642-.456-1.283-.935-2.007-1.299-.356-.191-.713-.387-1.082-.56-.377-.154-.76-.3-1.148-.439-.713-.282-1.47-.398-2.223-.54l-.945-.162a13.446 13.446 0 0 1-.758-.153c-1.779-.417-3.6-.308-5.389-.582a6.77 6.77 0 0 0-1.902-.045c-.721.093-1.432-.047-2.15-.05-.652-.003-1.307.057-1.96.061-.863.006-1.726-.015-2.589-.024-1.254-.016-2.511-.007-3.763-.055a16.628 16.628 0 0 1-1.191-.098c-.21-.021-.368-.046-.622-.065-.288-.017-.576-.03-.865-.038-.436-.003-.873-.027-1.307.019l-1.303.127c-.354.022-.7.08-1.047.147l-1.04.196c-.692.14-1.352.372-2.027.575a21.05 21.05 0 0 0-5.033 2.702c-.626.435-1.203.916-1.813 1.38-.556.501-1.134 1.004-1.65 1.554-.413.47-.825.95-1.21 1.447l-1.084 1.536-.95 1.504c-.324.503-.571 1.037-.845 1.567-.196.38-.31.79-.452 1.186l-.534 1.38c-.16.465-.296.937-.44 1.41-.051.172-.12.342-.178.513-.022.064-.106.141-.056.19.46.446.234.732-.19 1.036-.126.09-.098.252-.122.384l-.114.667c-.025-.031-.127 1.065-.044 1.826.15 1.636.729 3.334 1.996 4.853a8.328 8.328 0 0 0 3.709 2.53 8.58 8.58 0 0 0 1.19.303c.379.07.97.12.87.108l.341.028c.874.083 1.744.244 2.623.247.979.002 1.938.22 2.916.23 1.238.017 2.471.114 3.708.174.388.02.776.073 1.168.038.555-.05 1.112-.114 1.67-.274.305-.089.593-.101.86.148.298.282.616.323.952.178a.75.75 0 0 1 .248-.064c.966-.065 1.93-.1 2.898-.194.385-.037.771-.086 1.157-.144l.58-.092.144-.025c.035-.004.027-.01.096-.012l.186-.004.748-.02c2.202-.058 4.403-.245 6.604-.235a20.38 20.38 0 0 0 1.62-.071c.213-.4.573-.754 1.116-1.008z" stroke="#FFE5E5" stroke-width="2"/><path d="M106.356 81.547a6.073 6.073 0 0 0-.7.08c-.404.085-.796.219-1.204.343.147-.084.294-.164.444-.238.316-.15.632-.293.95-.43.062-.028.129-.064.208-.022.094.052.201.17.302.267zm8.746.284c-.08.077-.164.18-.24.26 0-.078.002-.146.003-.211 0-.064-.002-.118-.003-.173.082.038.16.084.24.124zm-19.46 15.9c-.035-.01-.09-.017-.099-.031-.028-.044-.04-.091-.054-.137l.144.118c.015.013.006.032.009.05zm-.325-3.19l.028.039-.116-.032.088-.007zm1.274-5.53c.015-.065.025-.14.107-.179.064-.03.156-.046.25-.06-.045.328-.19.586-.476.788.04-.183.076-.367.12-.549zm2.63-4.244c.01-.093.016-.192.044-.274.005-.02.096.025.148.04.021.049.076.13.06.139-.073.042-.165.065-.252.095zm3.372-1.922c.04-.022.085-.036.127-.055-.135.079-.27.158-.406.24.09-.067.18-.132.279-.185zm.937-.486l-.13.064.073-.145.057.08zm-6.54 19.136c-.012.019-.015.038-.037.054-.016.01-.06.015-.091.023l-.005-.047.132-.03zm-1.026-10.002l.101.002c-.011.043-.023.084-.036.126-.02-.043-.043-.085-.065-.128zm.422-1.036l-.127.402c.026-.229.055-.456.09-.68.098.104.067.191.037.278zm4.623-7.976c.317.055.48.01.617-.07.447-.261.883-.515 1.35-.714.459-.211.912-.405 1.386-.551.309-.097.605-.205.92-.267.215-.046.428-.084.641-.119-.292.099-.58.212-.87.32-.46.165-.897.377-1.336.595l-.657.332c-.212.12-.42.249-.63.376-.244.148-.537.24-.739.442-.217.217-.425.427-.705.567-.228.119-.397.308-.603.455-.102.073-.222.13-.343.183-.102.042-.172.024-.266-.106.19-.174.38-.344.578-.504a3.54 3.54 0 0 0 .484-.525c.021-.026-.056-.143-.11-.223-.015-.022-.15-.095-.178-.088-.468.105-.877.303-1.16.608-.132.152-.168.374-.286.535-.198.283-.45.532-.684.88.195.026.332.065.4.06a.67.67 0 0 0 .16.079c.086.027.156.022.231.03.048.46-.004.798-.398.95-.258.095-.305.397-.43.612-.071.124-.089.283-.185.388-.194.232-.455.428-.624.684-.234.346-.492.693-.574 1.111a.876.876 0 0 0-.222-.168.73.73 0 0 0-.218-.085c-.098-.003-.238.005-.252.039-.158.39-.25.802-.367 1.208l-.012.05-.117-.046c-.01.072-.059.137-.02.217.013.028.042.063.069.098-.067.261-.126.526-.176.793a.486.486 0 0 0-.298.119c-.067.07-.062.172-.059.266.002.025.103.084.171.107.025.01.058.017.091.022l-.088.521c-.007.056-.011.114-.017.17a4.632 4.632 0 0 1-.086-.079c-.106-.005-.174-.013-.175-.007-.006.051-.033.107.016.157.043.041.14.078.226.115-.011.125-.026.248-.037.373-.02.222-.083.448-.09.672l-.127.025.13.065c.001.03-.001.062.004.093.027.18.051.357.057.535-.05-.052-.097-.103-.167-.179-.088.054-.133.097-.21.127-.628.245-.774.614-.665 1.04.147.592.148 1.173.24 1.75.085.594.081 1.193.243 1.774.207.875.627 1.685.895 2.514.181.487.377.968.597 1.436a4.319 4.319 0 0 1-.428-.558c-.327-.525-.58-1.089-.83-1.652-.498-1.03-.707-2.144-1.248-3.173-.053-.107-.027-.238-.015-.36.004-.033.001-.065.004-.098.042-.023.076-.045.077-.068.009-.13-.02-.261-.062-.39 0-.005-.008-.008-.012-.012a3.488 3.488 0 0 0-.134-.776l.04-.018c-.012-.016-.02-.037-.043-.043-.004-.002-.011.001-.015 0a4.025 4.025 0 0 0-.152-.407c-.079-.174-.18-.347-.294-.573-.106.105-.173.143-.175.178-.036.634-.087 1.279.004 1.911.05.407.186.801.346 1.18.17.361.345.705.28 1.136-.025.174.033.336.093.49.098.233.208.459.318.686.001.033 0 .069.005.1.002.013.025.021.054.027.076.156.158.307.239.46a14.984 14.984 0 0 0-.09-.045c-.029.283.133.455.322.616l.022-.095c.296.532.609 1.054.92 1.571.304.535.656 1.04 1.139 1.443.3.254.632.488.789.84.22.478.58.835 1.012 1.115.15.1.213.292.33.431.245.287.465.631.987.64a14.207 14.207 0 0 0 1.8 1.61c.323.258.69.468 1.049.677.363.205.721.41 1.106.568.397.172.793.34 1.197.478l1.224.363c.24.074.475.16.721.211.806.176 1.626.232 2.426.276.181.004.358.01.539.013.895.025 1.78-.053 2.642-.18l1.048-.19c.344-.074.684-.18 1.017-.29.312-.098.612-.234.903-.388l.863-.445c.627-.357 1.409-.392 1.812-1.169.024-.046.073-.051.108-.077.267-.18.513-.392.754-.605.239-.214.486-.41.712-.63a18.668 18.668 0 0 0 1.566-1.707c.463-.45.882-.937 1.285-1.421l.332-.424c.46-.583.856-1.205 1.213-1.838.165-.182.33-.367.485-.561a29.2 29.2 0 0 0 .703-.95c.04-.062.097-.126.069-.205-.04-.111-.075-.257-.258-.346-.011-.006-.017-.005-.028-.01.03-.084.06-.168.087-.251.01-.028.016-.057.024-.084.476-.097.577-.286.313-.609-.061.031-.12.059-.177.085.023-.115.047-.23.065-.348l.115-.702c.11-.17.217-.345.317-.524.166-.287.215-.594-.014-.883.053-.316.049-.64-.125-.994-.016-.035-.009-.067-.003-.099.406-.442.372-.9.01-1.281-.025.038-.04.075-.056.113-.021-.26-.036-.519-.07-.774-.121-1.01-.362-1.972-.604-2.908-.118-.478-.221-.956-.365-1.428a10.44 10.44 0 0 0-.47-1.404c-.075-.193-.156-.382-.203-.589-.08-.366-.147-.75-.246-1.124a28.045 28.045 0 0 0-.348-1.129c-.027-.07-.043-.152-.124-.177-.114-.034-.252-.093-.433 0-.33.172-.265.333-.413.506-.019.021-.058.048-.124.102-.08-.102-.199-.174-.231-.309-.085-.389-.198-.772-.33-1.156a10.82 10.82 0 0 0-.443-1.171c-.166-.381-.462-.64-1.03-.463-.266.083-.32-.147-.552-.11-.113.018-.06-.276-.082-.436-.1-.63-.5-.89-1.04-.825.175.433.608.47.599 1.115-.107.044-.193.059-.224-.005-.134-.276-.371-.396-.712-.288-.067.02-.116-.007-.165-.03-.24-.116-.476-.247-.727-.346-.04-.015-.144.058-.2.156-.059.1-.108.29-.14.422-.022.099-.014.176-.077.3a1.167 1.167 0 0 0-.417-.256c-.165-.048-.295-.227-.455-.31-.144-.076-.292-.161-.457-.13-.197.04-.344-.046-.483-.238-.352-.498-.825-.59-1.354-.028.143.287.276.392.423.453.083.035.163.072.245.107-.178.268-.33.407-.491.497a.968.968 0 0 0-.212.17c-.052-.021-.102-.043-.155-.062-.461-.145-.935-.298-1.42-.403-.562-.1-1.14-.182-1.72-.182-.127-.003-.247.007-.385-.272-.025-.05-.106-.041-.11.007-.052.512-.27.305-.431.318a7.178 7.178 0 0 1-.637.05c-.042-.018-.082-.032-.125-.053-.237-.105-.462-.153-.663-.11-.315.066-.61.192-.991.117a3.32 3.32 0 0 0-.692-.04c.09-.083.146-.214.109-.488a.709.709 0 0 0-.06-.225 1.123 1.123 0 0 0-.106-.13 12.48 12.48 0 0 1 1.865-.117c.095.004.182-.025.32-.045a2.373 2.373 0 0 0-.097-.145c.126.15.214.207.284.095.027-.043.032-.19.012-.288-.014-.072-.103-.207-.129-.196-.088.04-.163.13-.284.238l.042.056c-.147-.172-.251-.196-.352-.21-.587-.084-1.176-.074-1.803-.091-.432.017-.889.023-1.342.07a.726.726 0 0 0-.34.144c-.128.084-.197.272-.37.268-.345-.006-.665.044-.91.218-.137.104-.359.1-.522.179-.146.07-.303.138-.376.29-.085.18-.242.246-.48.243-.61-.015-.966.31-.829 1.069z" fill="#FFE5E5"/><path d="M106.356 81.547a6.073 6.073 0 0 0-.7.08c-.404.085-.796.219-1.204.343.147-.084.294-.164.444-.238.316-.15.632-.293.95-.43.062-.028.129-.064.208-.022.094.052.201.17.302.267zm8.746.284c-.08.077-.164.18-.24.26 0-.078.002-.146.003-.211 0-.064-.002-.118-.003-.173.082.038.16.084.24.124zm-19.46 15.9c-.035-.01-.09-.017-.099-.031-.028-.044-.04-.091-.054-.137l.144.118c.015.013.006.032.009.05zm-.325-3.19l.028.039-.116-.032.088-.007zm1.274-5.53c.015-.065.025-.14.107-.179.064-.03.156-.046.25-.06-.045.328-.19.586-.476.788.04-.183.076-.367.12-.549zm2.63-4.244c.01-.093.016-.192.044-.274.005-.02.096.025.148.04.021.049.076.13.06.139-.073.042-.165.065-.252.095zm3.372-1.922c.04-.022.085-.036.127-.055-.135.079-.27.158-.406.24.09-.067.18-.132.279-.185zm.937-.486l-.13.064.073-.145.057.08zm-6.54 19.136c-.012.019-.015.038-.037.054-.016.01-.06.015-.091.023l-.005-.047.132-.03zm-1.026-10.002l.101.002c-.011.043-.023.084-.036.126-.02-.043-.043-.085-.065-.128zm.422-1.036l-.127.402c.026-.229.055-.456.09-.68.098.104.067.191.037.278zm4.623-7.976c.317.055.48.01.617-.07.447-.261.883-.515 1.35-.714.459-.211.912-.405 1.386-.551.309-.097.605-.205.92-.267.215-.046.428-.084.641-.119-.292.099-.58.212-.87.32-.46.165-.897.377-1.336.595l-.657.332c-.212.12-.42.249-.63.376-.244.148-.537.24-.739.442-.217.217-.425.427-.705.567-.228.119-.397.308-.603.455-.102.073-.222.13-.343.183-.102.042-.172.024-.266-.106.19-.174.38-.344.578-.504a3.54 3.54 0 0 0 .484-.525c.021-.026-.056-.143-.11-.223-.015-.022-.15-.095-.178-.088-.468.105-.877.303-1.16.608-.132.152-.168.374-.286.535-.198.283-.45.532-.684.88.195.026.332.065.4.06a.67.67 0 0 0 .16.079c.086.027.156.022.231.03.048.46-.004.798-.398.95-.258.095-.305.397-.43.612-.071.124-.089.283-.185.388-.194.232-.455.428-.624.684-.234.346-.492.693-.574 1.111a.876.876 0 0 0-.222-.168.73.73 0 0 0-.218-.085c-.098-.003-.238.005-.252.039-.158.39-.25.802-.367 1.208l-.012.05-.117-.046c-.01.072-.059.137-.02.217.013.028.042.063.069.098-.067.261-.126.526-.176.793a.486.486 0 0 0-.298.119c-.067.07-.062.172-.059.266.002.025.103.084.171.107.025.01.058.017.091.022l-.088.521c-.007.056-.011.114-.017.17a4.632 4.632 0 0 1-.086-.079c-.106-.005-.174-.013-.175-.007-.006.051-.033.107.016.157.043.041.14.078.226.115-.011.125-.026.248-.037.373-.02.222-.083.448-.09.672l-.127.025.13.065c.001.03-.001.062.004.093.027.18.051.357.057.535-.05-.052-.097-.103-.167-.179-.088.054-.133.097-.21.127-.628.245-.774.614-.665 1.04.147.592.148 1.173.24 1.75.085.594.081 1.193.243 1.774.207.875.627 1.685.895 2.514.181.487.377.968.597 1.436a4.319 4.319 0 0 1-.428-.558c-.327-.525-.58-1.089-.83-1.652-.498-1.03-.707-2.144-1.248-3.173-.053-.107-.027-.238-.015-.36.004-.033.001-.065.004-.098.042-.023.076-.045.077-.068.009-.13-.02-.261-.062-.39 0-.005-.008-.008-.012-.012a3.488 3.488 0 0 0-.134-.776l.04-.018c-.012-.016-.02-.037-.043-.043-.004-.002-.011.001-.015 0a4.025 4.025 0 0 0-.152-.407c-.079-.174-.18-.347-.294-.573-.106.105-.173.143-.175.178-.036.634-.087 1.279.004 1.911.05.407.186.801.346 1.18.17.361.345.705.28 1.136-.025.174.033.336.093.49.098.233.208.459.318.686.001.033 0 .069.005.1.002.013.025.021.054.027.076.156.158.307.239.46a14.984 14.984 0 0 0-.09-.045c-.029.283.133.455.322.616l.022-.095c.296.532.609 1.054.92 1.571.304.535.656 1.04 1.139 1.443.3.254.632.488.789.84.22.478.58.835 1.012 1.115.15.1.213.292.33.431.245.287.465.631.987.64a14.207 14.207 0 0 0 1.8 1.61c.323.258.69.468 1.049.677.363.205.721.41 1.106.568.397.172.793.34 1.197.478l1.224.363c.24.074.475.16.721.211.806.176 1.626.232 2.426.276.181.004.358.01.539.013.895.025 1.78-.053 2.642-.18l1.048-.19c.344-.074.684-.18 1.017-.29.312-.098.612-.234.903-.388l.863-.445c.627-.357 1.409-.392 1.812-1.169.024-.046.073-.051.108-.077.267-.18.513-.392.754-.605.239-.214.486-.41.712-.63a18.668 18.668 0 0 0 1.566-1.707c.463-.45.882-.937 1.285-1.421l.332-.424c.46-.583.856-1.205 1.213-1.838.165-.182.33-.367.485-.561a29.2 29.2 0 0 0 .703-.95c.04-.062.097-.126.069-.205-.04-.111-.075-.257-.258-.346-.011-.006-.017-.005-.028-.01.03-.084.06-.168.087-.251.01-.028.016-.057.024-.084.476-.097.577-.286.313-.609-.061.031-.12.059-.177.085.023-.115.047-.23.065-.348l.115-.702c.11-.17.217-.345.317-.524.166-.287.215-.594-.014-.883.053-.316.049-.64-.125-.994-.016-.035-.009-.067-.003-.099.406-.442.372-.9.01-1.281-.025.038-.04.075-.056.113-.021-.26-.036-.519-.07-.774-.121-1.01-.362-1.972-.604-2.908-.118-.478-.221-.956-.365-1.428a10.44 10.44 0 0 0-.47-1.404c-.075-.193-.156-.382-.203-.589-.08-.366-.147-.75-.246-1.124a28.045 28.045 0 0 0-.348-1.129c-.027-.07-.043-.152-.124-.177-.114-.034-.252-.093-.433 0-.33.172-.265.333-.413.506-.019.021-.058.048-.124.102-.08-.102-.199-.174-.231-.309-.085-.389-.198-.772-.33-1.156a10.82 10.82 0 0 0-.443-1.171c-.166-.381-.462-.64-1.03-.463-.266.083-.32-.147-.552-.11-.113.018-.06-.276-.082-.436-.1-.63-.5-.89-1.04-.825.175.433.608.47.599 1.115-.107.044-.193.059-.224-.005-.134-.276-.371-.396-.712-.288-.067.02-.116-.007-.165-.03-.24-.116-.476-.247-.727-.346-.04-.015-.144.058-.2.156-.059.1-.108.29-.14.422-.022.099-.014.176-.077.3a1.167 1.167 0 0 0-.417-.256c-.165-.048-.295-.227-.455-.31-.144-.076-.292-.161-.457-.13-.197.04-.344-.046-.483-.238-.352-.498-.825-.59-1.354-.028.143.287.276.392.423.453.083.035.163.072.245.107-.178.268-.33.407-.491.497a.968.968 0 0 0-.212.17c-.052-.021-.102-.043-.155-.062-.461-.145-.935-.298-1.42-.403-.562-.1-1.14-.182-1.72-.182-.127-.003-.247.007-.385-.272-.025-.05-.106-.041-.11.007-.052.512-.27.305-.431.318a7.178 7.178 0 0 1-.637.05c-.042-.018-.082-.032-.125-.053-.237-.105-.462-.153-.663-.11-.315.066-.61.192-.991.117a3.32 3.32 0 0 0-.692-.04c.09-.083.146-.214.109-.488a.709.709 0 0 0-.06-.225 1.123 1.123 0 0 0-.106-.13 12.48 12.48 0 0 1 1.865-.117c.095.004.182-.025.32-.045a2.373 2.373 0 0 0-.097-.145c.126.15.214.207.284.095.027-.043.032-.19.012-.288-.014-.072-.103-.207-.129-.196-.088.04-.163.13-.284.238l.042.056c-.147-.172-.251-.196-.352-.21-.587-.084-1.176-.074-1.803-.091-.432.017-.889.023-1.342.07a.726.726 0 0 0-.34.144c-.128.084-.197.272-.37.268-.345-.006-.665.044-.91.218-.137.104-.359.1-.522.179-.146.07-.303.138-.376.29-.085.18-.242.246-.48.243-.61-.015-.966.31-.829 1.069z" stroke="#FFE5E5" stroke-width="2"/><path d="M100.51 109.736l-.012.013.038.002-.026-.015zm10.267-2.026c.04-.03.073-.065.108-.098-.033.004-.075-.001-.099.015-.037.023-.062.06-.1.099.041-.006.076-.005.091-.016zM89.79 85.315c-.028.018-.055.031-.081.057-.007.006-.011.052-.017.08l.06-.042.038-.095zm24.12 19.955c-.218.191-.37.322-.482.484-.12.1-.247.195-.36.302l-.699.557c-.33.256-.667.504-1.049.714l.103.1c-.374.217-.71.442-1.07.619-.047.02-.104.02-.156.028h.002l-.356.11.008-.003c-.138.025-.183.078-.195.142l-.012.017c-.281.164-.536.36-.898.364-.212.01-.473.122-.808.291l.679-.137c-.395.155-.725.302-1.065.418-.137.04-.225.026-.282-.015.072-.024.151-.046.215-.075.032-.015.037-.044.054-.066-.052.011-.124.018-.153.036-.05.032-.075.07-.11.106-.024.017-.045.037-.073.053-.208.124-.216.127-.447.095-.174-.025-.227.047-.301.11l.004-.003c-.28.03-.556-.006-.846.131a.856.856 0 0 1-.287.053c-.2.004-.293.051-.372.133-.038.039-.128.048-.2.026a.368.368 0 0 0-.138-.018c-.389.111-.838.09-1.255.14-.272.044-.564-.005-.846-.02-.235-.127-.555-.094-.848-.122-.323-.036-.61-.07-.861-.01-.254.053-.501-.027-.75-.078-.022-.004-.053-.037-.043-.047.085-.073-.066-.079-.127-.068a.941.941 0 0 1-.733-.105l.155.018c-.015-.005-.033-.016-.045-.016l-.106.001-.122-.031.003.003c-.235-.096-.478-.165-.701-.283-.145-.072-.254-.091-.363-.065a.418.418 0 0 1-.196-.027c-.203-.122-.406-.158-.62-.198-.071-.014-.192-.042-.222-.076a.88.88 0 0 0-.616-.29c-.069-.004-.212-.097-.322-.15-.127-.061-.262-.148-.378-.18-.362-.114-.602-.297-.75-.538-.04-.067-.16-.146-.22-.125-.132.046-.292-.045-.477-.157-.334-.236-.67-.474-.995-.72a7.914 7.914 0 0 1-.328-.268l-.295-.301-.04-.072-.059-.037-.015-.004c-.158-.119-.32-.232-.473-.36-.14-.118-.284-.23-.406-.358a1.933 1.933 0 0 1-.29-.44.992.992 0 0 0-.424-.456.923.923 0 0 1-.218-.176 4.81 4.81 0 0 1-.663-.875c-.083-.149-.21-.298-.32-.445-.14-.176-.245-.378-.363-.57-.222-.403-.484-.785-.667-1.207-.189-.42-.387-.835-.562-1.26-.182-.565-.414-1.116-.545-1.695l-.214-1.037c-.077-.345-.092-.7-.158-1.052-.125-.62-.112-1.256-.13-1.885-.028-.408.032-.82.183-1.116-.048-.238-.152-.438-.037-.71l.015.077c0-.014.003-.031 0-.042-.003-.014-.009-.025-.014-.037a2.066 2.066 0 0 1 .01-.355c.088-.497.136-1.002.273-1.49.011-.044.054-.12.066-.116.095.028.127-.122.145-.262.024-.18.072-.341.124-.516.086-.346.222-.684.334-1.025.008-.352.16-.724.322-1.064.12-.28.236-.533.444-.692.155-.114.228-.328.265-.556.023-.18.118-.342.221-.514.166-.264.313-.54.499-.792l.562-.749c.124-.16.241-.325.393-.42a.49.49 0 0 0 .212-.247.59.59 0 0 1 .093-.139c.31-.339.577-.725.933-1.017.249-.22.502-.436.786-.611.303-.206.655-.405.884-.73.094-.13.262-.271.409-.401.184-.168.307-.035.465-.158.147-.113.169-.27.433-.363.069-.024.146-.06.213-.1.102-.062.198-.132.296-.198h-.004c.15-.042.284-.11.41-.204.218-.16.445-.29.73-.342.106-.018.281-.094.37-.16.295-.19.68-.233.983-.406a.746.746 0 0 1 .224-.056c.18-.025.327-.1.502-.152.447-.15.924-.317 1.31-.194.026.01.065.013.102.015.117.008.267 0 .317-.06.152-.181.438-.23.783-.247.155-.01.319-.034.48-.037.237-.01.482-.044.651.057.033.019.146.017.223.017l.537-.001c.25.004.504.038.74-.038.11-.036.339-.007.514-.008.17.099.417.122.653.15.202.028.397.063.56.14.196.095.464.11.6.094.177-.035.308.024.478.064.303.072.476.197.662.32l.005.026-.01-.026c.118-.055.273-.031.457.038l.984.34c.167.052.324.126.479.204l.232.117.116.06.057.03.025.016c.085.054.178.098.274.129.145.046.264.126.376.219.011.008.013.028.02.048-.057.002-.113.011-.221.022.142.06.223.115.31.159.042.02.085.013.109-.037.03-.066.09-.056.131-.017a.79.79 0 0 1 .149.19c.039.073.08.137.152.184.185.122.366.247.54.38.17.14.321.302.47.462.03.033.068.06.107.08.187.107.31.271.416.443.127.185.223.401.326.604a.282.282 0 0 0 .047.064l.32.377c.042.05.082.1.076.177-.034-.015-.052-.02-.064-.03l-.158-.135-.003-.023.005.023c-.003.038.038.083-.024.113-.02-.011-.046-.02-.064-.036-.053-.044-.107-.086-.153-.136-.076-.082-.13.088-.202.014l.008.147v-.002c.034.057.06.121.103.172l.379.434c.024.028.037.065.059.1-.18.04-.3-.034-.411-.116l-.351-.275a.288.288 0 0 1-.121-.207.297.297 0 0 1-.249-.066 1.13 1.13 0 0 0-.289-.184l-.605-.27c-.108-.052-.204-.127-.306-.19-.232-.16-.524-.213-.771-.346a6.747 6.747 0 0 0-1.154-.453c-.092-.012-.575-.242-.931-.353l-1.153-.348c-.983-.22-1.976-.405-2.98-.419-.085-.001-.17 0-.254.005-.17.009-.338.009-.505-.004-.167-.003-.334-.002-.502-.022a3.443 3.443 0 0 0-.908.034c-.558.136-1.132.191-1.677.373-.39.11-.79.185-1.166.339-1.23.383-2.37 1.007-3.417 1.743-.404.306-.826.586-1.189.942l-.569.505c-.174.183-.34.376-.508.565l-.453.511-.406.55c-.134.184-.282.36-.406.55l-.35.587c-.262.396-.447.833-.649 1.26-.07.154-.153.302-.213.46l-.173.476c-.108.32-.254.628-.322.962-.025.098-.044.215-.085.287-.134.242-.251.482-.19.773.007.032-.016.098-.024.147l-.072.4-.095.553c-.025.185-.028.372-.044.559-.017.373-.075.747-.045 1.122l.04.967c.061.447.102.898.168 1.345.103.44.18.888.304 1.324.28.916.636 1.812 1.1 2.655l.423.752c.15.246.327.474.489.712.309.49.712.908 1.09 1.347a14.187 14.187 0 0 0 3.4 2.623c.468.225.933.463 1.414.659l.735.263.368.131.38.094c.312.076.623.158.937.225l.956.135c.843.098 1.698.137 2.547.068 1.328-.123 2.659-.375 3.89-.894a13.495 13.495 0 0 0 2.435-1.252c.305-.164.556-.408.835-.609a6.86 6.86 0 0 0 .79-.662c.271-.265.575-.497.828-.78.254-.282.506-.564.75-.851.373-.56.795-1.073 1.123-1.658 1.003-1.62 1.59-3.47 1.868-5.356l.076-.807.037-.405-.003-.408-.004-.814-.072-.812-.036-.439c-.018-.145-.05-.289-.073-.433l-.151-.869c-.169-.561-.272-1.148-.505-1.691l-.241-.648c-.034-.111-.095-.21-.142-.315l-.065-.148-.255-.587c-.136-.35-.354-.652-.528-.983l-.22-.38c-.077-.125-.167-.24-.248-.362a4.478 4.478 0 0 1-.396-.738c-.022-.05-.02-.109-.032-.17.114-.025.218.027.307-.057.121-.116.26-.11.404-.045.07.032.147.05.214.089.33.199.726.34 1.015.621.292.27.62.511.883.835.157.226.319.455.48.684l.237.348c.162.249.279.536.406.811.187.418.397.83.532 1.272.143.437.32.87.385 1.332.023.123.033.28.145.379a11.559 11.559 0 0 0-.17-.767c-.108-.315-.127-.425-.145-.808.086.268.177.534.251.805l.168.823c.125.545.152 1.103.19 1.654.029.31.039.625.034.939a7.7 7.7 0 0 1-.045.927.943.943 0 0 0-.002.233c.024.22-.005.431-.044.65-.023.131-.029.275-.04.413-.044.44-.141.874-.213 1.31-.041.28-.129.548-.205.819l-.24.872c-.094.286-.208.566-.312.848-.191.573-.474 1.107-.738 1.648-.08.162-.151.334-.284.35-.03.005-.1.087-.139.145a1.804 1.804 0 0 0-.256.516c-.055.2-.139.4-.239.6a9.515 9.515 0 0 1-.382.56c-.062.086-.178.198-.232.214-.23.058-.347.276-.506.517-.045.072-.108.144-.21.278l.386-.396c.018-.02.057-.038.068-.03.01.007.007.044-.005.072a.583.583 0 0 1-.096.142l-.865.97c-.301.312-.633.593-.95.89-.03.028-.077.039-.126.063l.1-.189c.236-.187.236-.19.485-.485zM118 87.983c-.037-.101-.07-.204-.111-.301-.162-.367-.3-.746-.484-1.1l-.068-.125-.034-.06-.07-.118-.139-.238c-.01-.016-.028-.026-.043-.036-.006-.005-.02-.007-.024-.002-.011.011-.03.033-.027.039.043.089.087.177.136.262l.097.165.077.138.1.181.288.646.274.566.028-.017zM118.255 88.31c-.031-.065-.072-.172-.122-.253-.025-.043-.076-.068-.097-.052-.022.018-.045.092-.032.14.044.172.094.352.159.51.03.074.115.149.152.142.025-.006.019-.146.01-.236-.006-.063-.04-.143-.07-.25" fill="#333"/><path d="M118.061 89.07c-.014-.024-.03-.066-.04-.07-.01-.004-.024.024-.02.045.002.021.025.05.038.076l.022-.05zM95.308 114.132l.01-.015-.038.004.028.011zM84.691 116.6c-.042.033-.074.071-.11.108.035-.008.078-.006.103-.023.037-.027.062-.068.1-.11-.042.01-.078.012-.093.025zm41.538 1.117c-.016-.03-.028-.06-.051-.091-.006-.008-.053-.019-.081-.028l.038.066.094.053zm-44.691 1.647c.205-.223.37-.359.477-.535.122-.112.25-.217.365-.334l.69-.644c.343-.277.687-.557 1.067-.818l-.109-.091c.381-.255.727-.507 1.107-.708.047-.026.106-.03.16-.045h-.004l.367-.147-.009.002c.14-.042.192-.09.202-.156l.013-.017c.299-.176.572-.376.945-.422.224-.021.5-.147.854-.334l-.718.173c.417-.177.765-.346 1.132-.456.145-.049.237-.04.298-.003-.077.03-.16.056-.227.09-.034.017-.04.046-.058.07.056-.015.131-.027.162-.047.054-.035.079-.075.117-.113.025-.02.047-.039.077-.058.22-.134.227-.146.473-.116.186.028.244-.042.324-.104l-.005.004c.303-.013.591-.011.9-.15a.966.966 0 0 1 .306-.049c.213-.002.312-.047.398-.128.041-.038.137-.046.214-.022.041.011.122.027.146.02.412-.113.889-.087 1.328-.134.264-.02.546.004.82.009.233.114.543.066.83.08.317.013.6-.011.832-.1.236-.088.482-.044.727-.031.021.001.058.03.05.04-.068.087.077.067.133.04a.9.9 0 0 1 .716-.072l-.15.02c.015.002.034.008.045.005l.1-.027.121.001h-.004l.73.09c.154.02.262.003.353-.056a.393.393 0 0 1 .189-.04c.223.048.42.016.627-.018a.629.629 0 0 1 .225-.005c.223.09.419.098.657.005.062-.024.225-.001.342 0 .135.003.29.023.403.003.36-.067.645-.043.888.092.066.037.206.044.245-.004.085-.106.262-.11.47-.108l1.184-.004c.272.005.543.031.814.048l.074.028.066-.013.014-.007c.19-.017.38-.041.572-.05.352-.015.7-.036 1.023.07.171.055.402.07.604-.01a.894.894 0 0 1 .266-.043c.353-.007.703-.04 1.06.005.163.021.352.006.529.005l.653-.004 2.663.025 1.724.02c.686.015 1.364.065 2.06.052.615-.011 1.216.008 1.85.03.43.023.865.049 1.174.21.253-.03.466-.118.752.017l-.083.01c.016 0 .033.004.045.003.016-.002.027-.008.04-.012.125.003.254-.005.378.011.526.107 1.057.201 1.57.367.048.015.126.062.122.073-.033.093.125.135.273.161.19.039.363.086.541.168.349.155.722.264 1.07.428.364.053.746.254 1.094.449.287.152.549.294.697.526.106.177.31.297.555.35.188.04.358.148.521.282.53.397 1.028.832 1.504 1.284.15.15.299.301.387.466.06.113.145.179.249.237.04.023.092.07.133.113.337.346.673.696.963 1.077.221.267.413.557.572.866.179.34.382.703.704.96.126.108.257.292.379.452.152.206.03.317.152.483.114.154.272.182.365.454.024.072.06.151.1.221.06.107.126.209.19.313l-.001-.004c.033.158.116.291.217.418.17.221.303.45.366.742.024.107.098.289.165.38.214.29.291.675.48.976.035.053.06.154.073.225.032.184.113.33.195.5.209.436.424.9.345 1.312a.41.41 0 0 0 .004.103c.014.119.046.27.114.312.207.127.3.407.37.756.03.157.076.321.12.48.063.237.148.478.083.671-.013.036.012.153.027.234l.024.142.013.072.006.041.004.02v.006l-.047-.167v.003l.003.009c.027.091.055.182.086.27.09.25.153.512.313.72.074.096.133.333.2.505-.046.209.027.47.085.718.048.215.085.425.072.616-.002.226.016.521.093.656.09.174.08.33.097.52.045.34-.056.567-.137.801l-.025.013.023-.02c.072.113.087.288.077.51-.003.386-.113.777-.172 1.166-.025.196-.104.383-.167.571l-.103.282-.053.14-.028.068-.013.03c-.046.095-.104.192-.138.295a1.321 1.321 0 0 1-.244.402c-.01.011-.029.014-.048.024-.004-.063-.006-.12-.011-.234l-.165.333c-.024.044-.02.09.027.115.064.033.05.095.005.138a.864.864 0 0 1-.207.15.54.54 0 0 0-.2.152c-.298.362-.638.69-1.033.92a.456.456 0 0 0-.104.093c-.144.175-.356.238-.553.302-.22.073-.459.103-.678.15-.025.005-.049.018-.074.027-.158.058-.31.124-.47.174-.06.02-.124.036-.193.001.027-.025.038-.04.052-.047l.186-.093.022.005-.023-.003c-.033-.014-.092.004-.096-.063.018-.014.035-.034.056-.047.058-.034.116-.07.177-.096.101-.044-.039-.152.052-.194l-.139-.042.003.001c-.064.012-.13.015-.189.036-.174.06-.35.122-.52.161-.034.01-.064.001-.097-.001.015-.165.129-.23.235-.297.118-.069.24-.13.353-.212a.274.274 0 0 1 .22-.04.292.292 0 0 1 .122-.218c.086-.063.173-.125.24-.21.132-.159.263-.311.373-.48.064-.09.147-.162.22-.242.152-.207.271-.429.396-.643.087-.162.174-.322.245-.488.054-.177.107-.349.168-.515.034-.08.031-.117.095-.342.041-.185.12-.354.137-.546l.078-.567c.033-.186.006-.39.015-.582.005-.245.012-.49-.035-.745l-.091-.754-.186-.761-.09-.38-.134-.379a4.335 4.335 0 0 0-.1-.25 4.454 4.454 0 0 1-.188-.506l-.038-.129-.018-.065-.004-.016-.068-.24v-.007l-.003-.022-.028-.263a3.968 3.968 0 0 0-.235-.971 57.802 57.802 0 0 0-.66-1.802c-.165-.422-.324-.849-.5-1.267a23.93 23.93 0 0 0-1.974-3.803c-.606-.937-1.248-1.844-1.999-2.643-.675-.714-1.38-1.398-2.162-1.967a13.14 13.14 0 0 0-1.263-.805c-.612-.362-1.263-.643-1.925-.896-.097-.044-.222-.061-.295-.108-.247-.147-.495-.273-.8-.234-.035.004-.102-.022-.154-.035l-.415-.098c-.38-.105-.778-.126-1.166-.192-.393-.05-.793-.052-1.19-.082l-1.12-.009-3.15-.066-3.33-.043-3.985-.072c-1.65-.011-3.295-.023-4.943-.036l-3.572-.025-2.204.004-1.458-.007h-.726l-.675.029a12.24 12.24 0 0 0-4.082.95c-.88.387-1.721.866-2.502 1.438a15.38 15.38 0 0 0-1.649 1.459c-.578.57-1.124 1.19-1.602 1.855-.423.595-.826 1.2-1.219 1.823-1.112 1.778-1.937 3.75-2.645 5.748a21.655 21.655 0 0 0-.529 1.715l-.054.212-.025.103-.012.05-.005.022-.002.01v.002l-.141.367-.004.006c-.067.117-.138.232-.2.35a6.645 6.645 0 0 0-.751 4.135c.031.232.072.463.123.693l.117.497c.046.201.099.402.159.601.104.348.232.692.374 1.037l.364.828c.03.072.06.145.091.234l.054.167c.011.042.022.078.037.158.009.058.014.076.017.167a.884.884 0 0 1-.019.186c-.009.037-.01.047-.028.103a.831.831 0 0 1-.1.192.759.759 0 0 1-.302.252.806.806 0 0 1-.329.074.894.894 0 0 1-.242-.04.805.805 0 0 1-.163-.077c-.076-.047-.107-.078-.148-.113a1.956 1.956 0 0 1-.178-.186c-.04-.046-.054-.105-.083-.164.111-.045.232-.014.3-.116.09-.14.23-.162.385-.149.037.004.075 0 .106-.007l.018-.008c.01 0 .001-.023-.002.03.002.044-.007.042.006.06-.006-.009-.008-.007-.045-.015-.123.01-.088.01-.11-.003l-.044-.036-.102-.084-.22-.175a3.315 3.315 0 0 1-.425-.4c-.257-.3-.547-.582-.743-.948a18.772 18.772 0 0 1-.388-.75 9.198 9.198 0 0 1-.174-.39 9.056 9.056 0 0 1-.277-.956c-.227-.982-.343-2.036-.171-3.081.025-.14.073-.312.014-.46a5.438 5.438 0 0 0-.118.886c-.013.376-.04.5-.13.923a7.71 7.71 0 0 1 .809-3.696c.08-.156.157-.316.243-.47l.128-.231.066-.114.034-.057.016-.028.009-.014.004-.007v-.002l.001-.001c.125-.324-.168.44-.138.361v-.005c.084-.352.172-.644.295-.94a.948.948 0 0 0 .053-.237c.024-.227.096-.433.185-.643.054-.125.09-.268.136-.403.144-.431.292-.859.455-1.281.103-.27.218-.534.33-.8a29.74 29.74 0 0 1 1.61-3.343c.094-.16.184-.329.31-.35.028-.006.099-.09.138-.151.11-.176.212-.353.268-.534.12-.412.371-.815.637-1.207.059-.092.176-.212.234-.229.23-.072.371-.284.511-.553.04-.081.105-.158.205-.303-.167.184-.269.313-.374.439-.018.021-.059.041-.069.034-.011-.007-.007-.044.006-.074a.9.9 0 0 1 .09-.154c.554-.712 1.134-1.411 1.793-2.044.031-.031.078-.047.129-.076l-.099.2c-.235.211-.247.204-.481.536z" fill="#333"/><path d="M75 137.01c.022.102.035.206.068.306.12.38.276.753.466 1.115l.068.129.036.057.073.114.151.225c.01.015.035.027.056.038.01.004.029.008.035.005.018-.008.05-.024.047-.03-.046-.082-.089-.165-.142-.245l-.101-.158-.029-.044-.051-.094-.1-.189a9.488 9.488 0 0 1-.297-.649 8.567 8.567 0 0 1-.233-.59l-.047.01zM74.007 136.552c.013.083.025.213.053.317.015.055.06.097.083.086.027-.011.064-.087.064-.142a6.445 6.445 0 0 0-.019-.608c-.007-.09-.067-.201-.104-.205-.026-.002-.06.154-.078.254-.014.071 0 .17.001.298M74 135.047c.004.031.005.084.013.092.008.008.031-.018.036-.043.004-.024-.007-.063-.01-.096l-.039.047z" fill="#333"/><path d="M98.523 152.475l-.035.011.13.013-.095-.024zm34.65-7.933c.145-.092.262-.193.389-.295-.097.05-.204.096-.285.151-.126.08-.232.17-.373.276.12-.058.217-.097.269-.132zm-65.8-74.798c-.076.068-.147.124-.234.21-.021.021-.1.143-.151.217l.172-.156.214-.271zm76.004 65.789c-.64.76-1.152 1.232-1.563 1.745-.374.39-.759.77-1.151 1.133-.739.711-1.457 1.436-2.246 2.092-1.068.955-2.214 1.823-3.41 2.709l.178.041-1.76 1.23-1.753 1.1c-.148.091-.306.162-.46.239l.008-.003-1.127.569.025-.011c-.42.194-.597.325-.682.434l-.049.037c-.473.292-.958.528-1.441.78-.49.24-.98.497-1.538.67-.328.11-.714.265-1.16.463l-.717.325-.826.344c.923-.292 1.464-.52 2.198-.802-1.306.617-2.452 1.032-3.586 1.48-.46.155-.731.206-.896.204.248-.087.51-.174.734-.26.11-.042.143-.08.21-.124-.172.062-.408.12-.51.167-.181.077-.282.143-.414.213l-.263.12c-.734.303-.748.332-1.486.45-.557.082-.763.197-1.035.314l.016-.006c-.925.222-1.834.334-2.84.65a6 6 0 0 1-.97.203c-.669.09-.995.178-1.279.296-.134.055-.437.103-.677.111-.127.002-.383.005-.459.02-.663.123-1.371.226-2.09.307l-2.157.172c-.92.052-1.908.058-2.866.054a10.964 10.964 0 0 0-1.375-.11l-.758-.018-.758-.055a36.627 36.627 0 0 0-1.559-.101c-.485-.03-.933-.064-1.342-.067a10.695 10.695 0 0 1-1.255-.098c-.416-.078-.843-.156-1.266-.236-.072-.012-.193-.062-.163-.067.248-.048-.255-.112-.45-.116-.724-.007-1.463-.146-2.463-.443.174.03.347.063.519.094-.053-.014-.12-.034-.158-.04-.117-.017-.23-.032-.346-.05l-.413-.09.012.003c-.813-.25-1.625-.503-2.436-.753-.508-.185-.869-.283-1.192-.325a4.565 4.565 0 0 1-.639-.165 33.88 33.88 0 0 0-2.068-.734c-.228-.075-.62-.21-.74-.276a9.712 9.712 0 0 0-2.102-.92c-.212-.06-.71-.344-1.078-.524-.424-.21-.898-.47-1.264-.627-1.129-.565-2.007-1.036-2.65-1.613-.177-.154-.589-.419-.73-.45-.304-.078-.848-.376-1.438-.806l-1.7-1.185-1.636-1.267c-.745-.594-1.428-1.25-2.141-1.875a3.204 3.204 0 0 1-.175-.195l-.176-.15-.039-.027-1.485-1.342c-.443-.427-.861-.873-1.273-1.308a10.998 10.998 0 0 1-1.12-1.35c-.342-.493-.87-1.097-1.368-1.604a10.02 10.02 0 0 1-.603-.705 32.947 32.947 0 0 1-2.17-3.006l-.983-1.566c-.417-.636-.78-1.306-1.151-1.97a50.324 50.324 0 0 1-3.702-8.529l-.46-1.434-.394-1.454c-.28-.964-.468-1.95-.679-2.93a55.425 55.425 0 0 1-.876-7.127c-.052-.532-.055-1.066-.068-1.6-.008-.535-.032-1.069-.021-1.604.04-1.07.04-2.142.145-3.207.08-1.384.286-2.762.547-3.774.073-.805.072-1.459.33-2.389l-.026.259.023-.14c.004-.05.003-.085.005-.125.069-.395.135-.793.22-1.185l.282-1.257.342-1.243c.118-.413.223-.83.351-1.24l.405-1.223c.05-.151.158-.412.169-.405.09.057.23-.452.395-.903.2-.586.41-1.12.64-1.701.23-.565.49-1.123.732-1.69.236-.57.503-1.128.781-1.677.21-.533.448-1.116.764-1.677l.948-1.702c.533-.894 1.035-1.695 1.568-2.301.411-.434.842-1.074 1.195-1.742.274-.512.683-1.01 1.098-1.552.636-.857 1.368-1.635 2.057-2.449a70.573 70.573 0 0 1 2.213-2.307c.503-.476 1.003-.948 1.463-1.307.306-.252.577-.472.832-.746.102-.106.27-.26.416-.387l.892-.777.93-.732a26.79 26.79 0 0 1 1.896-1.408c.47-.319.931-.652 1.413-.953.488-.293.978-.579 1.473-.853.54-.314 1.134-.6 1.712-.93.578-.327 1.152-.674 1.711-1.003a22.119 22.119 0 0 1 1.707-.916c.762-.356.922-.242 1.54-.538.569-.281.854-.5 1.747-.783.234-.074.51-.169.759-.263.376-.15.762-.268 1.144-.405l-.014.003c.506-.115.998-.289 1.493-.476.87-.28 1.708-.554 2.664-.701.352-.05.992-.185 1.349-.286.564-.172 1.172-.266 1.778-.364l1.787-.298a8.22 8.22 0 0 1 .783-.074c.612-.036 1.16-.132 1.782-.18 1.604-.18 3.3-.262 4.519-.056.077.015.208.027.329.038.394.034.906.06 1.111.013.623-.161 1.603-.071 2.776.037.529.053 1.087.137 1.634.197.809.082 1.64.2 2.178.405.103.038.486.105.747.153.607.097 1.206.27 1.806.387.844.161 1.685.413 2.477.541.37.054 1.123.275 1.69.462.544.291 1.384.496 2.14.8.655.248 1.29.484 1.821.756.637.344 1.488.7 1.923.826.553.169.964.416 1.503.676.967.458 1.517.88 2.123 1.298l.025.043-.042-.05c.33.108.824.324 1.393.695l1.52.947c.5.325.983.676 1.474 1.013l.734.513.705.55.702.554.35.278.171.138.02.02c.067.066.139.134.218.184.12.078.209.183.288.298.008.011.006.03.01.05-.057-.007-.108-.013-.21-.028.113.096.182.158.256.214.036.026.08.026.113-.017.042-.058.096-.04.128.004a.72.72 0 0 1 .103.205c.024.075.051.143.11.2.304.292.601.59.846.934a.4.4 0 0 0 .093.089c.165.123.261.296.345.477l.276.608c.01.023.028.043.043.063l.305.378c.04.049.077.1.07.176-.034-.016-.051-.02-.063-.03l-.153-.138-.002-.023.005.023c-.004.037.035.082-.027.111-.02-.012-.045-.021-.063-.038-.05-.044-.103-.088-.148-.138-.073-.083-.133.081-.202.007h-.002l.005.145v-.003c.033.058.057.122.099.174l.372.447c.024.029.037.066.058.103-.178.037-.297-.044-.409-.13l-.35-.292a.289.289 0 0 1-.119-.21.321.321 0 0 1-.253-.08 2.606 2.606 0 0 0-.28-.212l-.577-.356c-.102-.07-.193-.157-.296-.228-.237-.174-.5-.307-.736-.481-.348-.258-.719-.484-1.074-.73-.04-.027-.079-.056-.121-.082l-.032-.019-.192-.143-.46-.349c-.618-.46-1.22-.94-1.866-1.359a47.626 47.626 0 0 0-3.914-2.45c-3.38-1.877-6.967-3.41-10.7-4.418l-.946-.238c-.635-.167-1.27-.298-1.903-.435-.631-.142-1.257-.3-1.891-.42-.562-.115-1.127-.232-1.703-.314l-1.761-.193c-2.192-.159-4.415-.268-6.628-.143a52.01 52.01 0 0 0-4.689.401c-2.468.34-4.91.86-7.302 1.557a49.572 49.572 0 0 0-6.958 2.698c-3.526 1.718-6.89 3.79-9.893 6.325-2.707 2.27-5.195 4.814-7.362 7.607-.278.364-.571.719-.836 1.093l-.787 1.13c-.543.739-.999 1.537-1.495 2.307a49.849 49.849 0 0 0-3.512 7.016c-.14.366-.292.797-.423 1.079l-.318.703a15.624 15.624 0 0 0-.675 2.21c-.022.116-.101.369-.155.556l-.422 1.51a47.949 47.949 0 0 0-1.363 8.53c-.059.62-.072 1.24-.083 1.863-.012.62-.041 1.242-.017 1.862.032 3.472.425 6.94 1.196 10.333.798 3.59 2.083 7.067 3.695 10.373 1.914 3.968 4.438 7.625 7.365 10.926 3.686 4.04 8.014 7.518 12.843 10.108 3.469 1.906 7.201 3.315 11.032 4.312a51.75 51.75 0 0 0 7.218 1.25 48.14 48.14 0 0 0 9.685-.048c2.53-.25 5.03-.756 7.481-1.415 2.45-.669 4.856-1.508 7.16-2.572a46.633 46.633 0 0 0 8.996-5.314c2.115-1.571 4.055-3.357 5.887-5.246 2.008-2.087 3.858-4.347 5.436-6.76a53.122 53.122 0 0 0 3.702-6.718c3.066-6.63 4.47-13.985 4.317-21.28-.032-2.07-.251-4.135-.54-6.188-.35-2.043-.762-4.08-1.353-6.068a48.125 48.125 0 0 0-5.438-12.215c-.44-.756-.962-1.457-1.446-2.183-.238-.367-.507-.71-.77-1.06l-.099-.148-.367-.556a13.871 13.871 0 0 0-.664-.947l-.543-.725a4.781 4.781 0 0 1-.429-.745c-.023-.048-.024-.108-.038-.17.116-.024.221.03.308-.055.12-.116.26-.111.403-.051.07.03.147.046.214.082.337.18.697.322 1.018.552.313.227.666.408.931.7l.558.565.279.284c.638.766 1.232 1.666 1.84 2.505 1.766 2.605 3.322 5.363 4.536 8.308.176.389.333.907.565 1.248-.33-.908-.682-1.681-1.046-2.472-.459-1.034-.655-1.366-1.126-2.544a47.389 47.389 0 0 1 4.033 10.628c.469 2.068.96 4.193 1.11 6.27.021.234.076.553.116.791.106.741.156 1.463.2 2.218l.054 1.419c.043.756.04 1.513.03 2.27-.004.379 0 .758-.012 1.136l-.06 1.133c-.034.964-.15 1.92-.246 2.878-.445 4.106-1.434 8.148-2.854 12.02-.228.575-.455 1.167-.645 1.383-.043.049-.195.38-.286.6-.289.629-.563 1.25-.769 1.83-.485 1.282-1.184 2.688-1.974 4.038-.175.315-.473.777-.592.886-.47.458-.89 1.196-1.412 2.035-.155.245-.345.516-.669.998.473-.662.807-1.095 1.104-1.546.052-.078.141-.18.153-.174.012.005-.029.105-.077.194a4.316 4.316 0 0 1-.307.496 48.968 48.968 0 0 1-5.61 6.895c-.1.104-.216.194-.352.316l.42-.546c.363-.367.545-.553.745-.768.203-.213.42-.463.826-.984z" fill="#333"/><path d="M148 76.966l-.476-.917-.459-.852-.491-.827c-.335-.546-.64-1.116-1-1.64l-.243-.369-.036-.047-.071-.097-.144-.19c-.01-.013-.026-.019-.041-.025-.006-.003-.018-.002-.02.001-.008.014-.022.037-.018.043.046.073.094.146.144.215l.1.134c.016.021.003-.002.042.056l.183.278c.12.187.25.366.363.56l1.169 1.942.983 1.769.015-.034zM149.512 78.403l-.366-.321c-.067-.055-.14-.094-.146-.079-.005.016.045.1.104.158.214.21.432.432.626.638.094.096.24.203.268.201.019-.002-.11-.173-.197-.283a4.076 4.076 0 0 0-.29-.314M151.145 81.237c-.048-.082-.12-.22-.138-.235-.017-.015-.001.065.03.13.03.068.092.167.14.25l-.032-.145z" fill="#333"/><path d="M158.566 135.684c-.107.018-.063-.095-.067-.16v-.006c.036-.089.08-.18.092-.272.027-.168.02-.337.018-.494.096-.078.097.046.124.098.038.066.082.124.122.188-.159.156-.231.391-.29.646zm-.064-.197c0 .007-.003.015-.004.023l-.003-.048c.002.008.007.016.007.025zm-2.168 3.13a.29.29 0 0 1 .147-.26c.005-.004.04.022.04.035 0 .118-.07.172-.187.224zm-.793 1.603c-.068-.05-.06-.13-.089-.185.11.046.111.047.09.185zm-.143-.197c.014.001.028.006.042.008l-.056.012c.004-.007.01-.02.014-.02zm-.183.487c-.05-.002-.1-.012-.15-.018l-.047-.162.25.129c-.028.029-.041.052-.053.05zm-.231.023c-.008.003-.019-.001-.029-.002.008-.015.015-.042.024-.042.026-.002.053.003.08.007l-.075.037zm-.382-1.237c-.029.034-.06.065-.081.103-.315.555-.744.986-1.118 1.509-.138.197-.297.4-.5.556-.033-.096.028-.122.06-.154.234-.224.407-.518.597-.749l.7-.905.792-1.047c.03-.04.074-.07.113-.104-.144.299-.354.545-.563.79zm-1.42 3.497c-.024.019-.07.017-.108.024.012-.024.016-.052.036-.068.03-.025.07-.044.14-.089-.031.067-.04.108-.068.133zm-.807.367l-.08.018a.754.754 0 0 0-.109.012l.102-.035.093-.03c.014-.004.03-.002.045-.004-.017.014-.031.033-.05.039zm-1.276.128c-.014 0-.028-.02-.042-.03l.051-.03.04.031c-.016.01-.032.029-.049.029zm-.52.272c-.013-.011-.038-.022-.038-.033 0-.016.017-.04.033-.046.012-.006.034.007.064.015l-.059.064zm-1.03.128c-.004-.005.007-.018.012-.028.014.008.037.013.04.024.01.028.01.06.014.09l-.067-.086zm-3.413-15.432c.027.008.053.02.079.03-.103-.014-.206-.033-.309-.05.016-.005.031-.008.047-.016.045-.022.124.016.183.036zm.522.079l-.128-.014c.056-.052.095-.032.128.014zm9.902 3.922c.02.01.04.019.056.033.005.004-.005.027-.008.04-.017-.015-.036-.03-.052-.046-.003-.004.002-.018.004-.027zm-8.517-4.314l.012.02-.029-.006.017-.014zm.69-.1c.008 0 .015.008.023.012-.009.003-.018.009-.026.008-.008 0-.016-.007-.023-.01.009-.004.017-.01.025-.01zm2.3-.97c.029-.01.052-.018.076-.028a.659.659 0 0 1-.064.053c-.008.005-.018.005-.028.007.005-.01.008-.028.016-.031zm2.19 1.624l-.119-.141.016-.017.12.143-.016.015zm.193.294c.002.002-.007.01-.011.016l-.02-.056c.019.024.027.03.031.04zm1.23 1.9c-.234-.32-.472-.635-.64-1 .257.304.455.648.64 1zm2.51 2.42c.04.085.11.177.056.266-.003.005-.021.002-.03-.003-.073-.041-.069-.075-.08-.32.039.04.05.048.055.058zm.104 1.787l-.006.033-.018.002.024-.035zm-.727-4.643c-.009-.017-.015-.035-.023-.053l.023.02.024.052c-.009-.007-.019-.011-.024-.019zm-.476-.703c-.005-.007-.004-.018-.006-.029l.025.019.006.029c-.01-.006-.02-.01-.025-.019zm2.828 5.266c.038-.018.097-.025.103-.06.018-.085.012-.185.007-.277-.01-.134-.045-.206-.129-.156-.026.015-.069.012-.087-.015-.069-.106-.153-.207-.213-.33-.032-.07-.035-.19-.053-.286.05-.001.1.002.148-.004.018-.002.033-.027.057-.047.005-.108 0-.225-.001-.35-.093-.01-.153.08-.237-.133-.111-.277-.244-.538-.376-.8-.096-.198-.217-.388-.27-.601l.238.01v-.001c.022.027.045.057.068.078.016.016.038.016.058.022-.015-.027-.026-.061-.047-.081-.023-.022-.052-.032-.079-.047-.047-.136-.082-.295-.232-.374-.033-.018-.066-.007-.1-.01l.053.126c.006.012.018.025.028.038-.123.055-.246-.024-.353-.173l-.792-1.142a74.463 74.463 0 0 0-1.098-1.542c-.095-.127-.172-.293-.368-.3-.04 0-.082-.069-.118-.11-.08-.095-.152-.196-.237-.283a.797.797 0 0 0-.187-.131c-.022-.012-.069-.007-.085.01-.015.016-.017.066-.004.088.095.153.184.31.294.45.177.224.25.527.5.693a.22.22 0 0 1 .074.11c.03.098.071.176.17.227.063.032.112.106.154.169l.448.697c.072.112.193.214.21.332.028.179.185.201.254.316.02.033.043.092.029.115-.07.123-.002.21.06.303l.588.897c.225.353.383.743.49 1.145.106.4.089.796-.023 1.158-.025-.074-.06-.147-.102-.241-.014.071-.023.098-.023.124 0 .17.052.341-.057.517-.056.083-.101.258-.01.367-.16.17-.316.34-.405.56-.057.137-.12.268-.216.379a.684.684 0 0 1-.116.104c-.016.012-.027.045-.035.069-.074.23-.06.215-.17.266-.06.026-.08.057-.08.123.002.1-.048.17-.146.187-.074.014-.11.056-.125.13-.009.041-.018.093-.045.118-.11.1-.236.182-.292.332-.124.042-.181.155-.237.26-.092.17-.235.277-.385.38.037-.093.087-.177.145-.254l.62-.813c.213-.273.341-.574.624-.824.046-.042.075-.105.114-.157.087-.116.176-.232.25-.358a2.61 2.61 0 0 0 .284-.662c.017-.07-.01-.15-.016-.223v.002a3.12 3.12 0 0 0 .146-.612c-.213-.056-.203-.052-.21-.366.176-.058.207-.083.194-.268-.006-.124-.037-.245-.064-.366a3.113 3.113 0 0 0-.178-.509c-.086-.2-.204-.38-.323-.565l-.325-.487a1.07 1.07 0 0 0-.149-.175c-.036-.035-.083-.08-.141 0 .08.16.168.333 0 .492-.102-.065-.124-.162-.112-.282.02-.197-.083-.335-.23-.445-.036-.025-.08-.039-.11-.068-.102-.098-.201-.194-.236-.348a.612.612 0 0 0-.12-.229c-.028-.037-.047 0-.04.038.003.01.008.022.007.032 0 .004-.014.007-.03.017-.1-.17-.205-.338-.3-.513-.02-.04-.005-.101-.004-.153l.002-.002-.002-.002v.004c-.093-.049-.183-.085-.242-.198a4.533 4.533 0 0 0-.363-.592c-.339-.463-.69-.916-1.053-1.371-.035-.044-.067-.093-.11-.128-.207-.167-.339-.381-.547-.61-.051-.053-.09-.107-.193-.191a.905.905 0 0 0-.102-.07l-.066-.035-.032-.014-.021-.008-.077-.028a.766.766 0 0 0-.49.007c-.08.035-.081.053.008.048a.815.815 0 0 1 .538.05l.018.01.035.021a.963.963 0 0 1 .123.087c.031.032.073.072.095.098.045.055.084.106.114.152.066.095.12.183.174.273.152.26.287.515.42.77.048.092.1.174.206.198h-.002c.076.096.113.21.165.318.046.097.162.166.228.27l.475.714.573.885.603.983.781 1.22.008.017c-.024-.035-.043-.072-.07-.106a532.6 532.6 0 0 0-.81-1.035c-.008-.017-.013-.036-.024-.053l-.234-.396-.575-.997c-.027-.047-.053-.101-.094-.133-.18-.138-.257-.35-.377-.533a5.76 5.76 0 0 0-.29-.395c-.022-.03-.066-.04-.156-.09l.169.388c-.111-.157-.227-.31-.332-.471-.036-.056-.105-.122-.031-.206.012-.014 0-.064-.014-.089-.151-.27-.316-.533-.562-.73-.075-.062-.141-.136-.198-.19.024-.046.057-.087.05-.098-.12-.174-.282-.26-.496-.388.192.28.293.506.43.752.057.108.108.217.17.32.093.154.19.306.283.458-.643-.778-1.124-1.322-1.192-1.297-.036.022-2.517.863-5.316.633.019-.136-.008-.185-.128-.209-.112-.02-.23-.013-.344-.022-.044-.004-.11.027-.124-.067l.688.02c.083 0 .15.037.171.15.024.125.041.118.18.046a.266.266 0 0 1 .147-.021c.167.025.34.07.503.048.291-.036.6.03.874-.114.403.018.755-.189 1.125-.292.043-.01.1-.066.102-.104.004-.065-.064-.075-.115-.073-.178.01-.35.022-.525.033l-.153.007c.156-.075.313-.125.47-.168.288-.074.556-.211.85-.26.148-.026.294-.079.433-.137.132-.051.257-.119.38-.183.052-.027.12-.034.115-.144l-.308-.016.14-.108c.04-.029.088-.048.123-.08.036-.03.11-.005.119-.103-.059.006-.105.007-.15.016-.12.025-.244.055-.368.075-.125.018-.248.04-.356-.083-.04-.047-.128-.056-.193-.057-.202 0-.406-.012-.607 0-.312.014-.622.04-.93.041.158-.054.317-.068.477-.09.167-.02.294-.185.478-.134.013.004.041-.015.044-.03.026-.106.096-.104.177-.11.16-.012.316-.046.472-.078.057-.014.135-.023.12-.138-.026-.007-.052-.017-.079-.02-.208-.03-.405.028-.608.053-.084.011-.17.038-.261-.035.187-.049.187-.048.286-.155l-.272.047c-.097.024-.192.032-.24.168-.021.058-.079.003-.111-.038-.11.014-.213.102-.33.039-.024-.012-.05-.035-.074-.035-.28.004-.555.118-.832.022a9.977 9.977 0 0 1-1.081-.027.77.77 0 0 1-.294-.09c-.063-.03-.114-.086-.188-.04-.01.005-.039-.011-.04-.02-.005-.216-.141-.159-.232-.184-.228-.053-.463-.065-.663-.184-.073-.041-.167-.036-.25-.045-.091-.01-.177-.015-.222-.14-.022-.06-.086-.09-.139-.114l-.062-.026-.108-.039-.216-.076c-.338-.125-.687-.249-1.011-.355-.304-.103-.615-.215-.929-.208a1.31 1.31 0 0 1-.6-.142 1.295 1.295 0 0 0-.444-.122 11.939 11.939 0 0 0-.804-.073c-.074-.004-.157.001-.221-.026-.225-.097-.47-.096-.706-.098-.735.005-1.463.038-2.174.118-.204.023-.411.043-.613.072-.514.064-1.025.128-1.528.236-.132.032-.563.125-.884.223-.338.094-.677.183-1 .292-.514.13-1.003.33-1.326.649a.339.339 0 0 1-.088.058c-.246.13-.422.363-.583.6a5.056 5.056 0 0 0-.272.438c-.18.332-.292.66-.368 1.018-.081.36-.108.763-.091 1.172l.047 1.124c0 .094.002.183.003.275 0 .055 0 .11.009.165.054.373.097.745.115 1.122l.065 1.263c.008.199-.04.414.016.594.068.222.05.436.058.656.006.143.02.286.033.43.005.066.027.134.018.197-.037.255-.012.51.01.764.017.198.032.398-.078.581-.026.042-.029.108-.024.162.003.037.035.072.054.109l.117-.076c.009.04.02.073.022.105.017.31.04.619.043.928.002.163-.031.328-.054.49-.005.03-.034.055-.05.082-.003-.009-.003-.018-.007-.026-.002-.006-.01-.01-.016-.014l.022.041a.86.86 0 0 0-.063.35c0 .19.023.38.069.566.032.13.032.293.039.442.006.113-.007.233-.001.346l.045.713c.029.432.125.82.237 1.165.127.352.29.575.389.967.01.04.045.08.073.118.291.406.802.774 1.235.865.15.024.312.05.498.062l.275.017.308-.011c.104-.007.2.003.31-.017l.335-.064c.222-.04.445-.078.672-.124.157-.029.32-.089.477-.134.254-.069.506-.129.742-.18.18-.043.288-.062.442-.063.204-.002.407-.045.608-.073.134-.02.263-.074.396-.098.17-.027.347-.08.512-.053.157.023.305.029.456.028a26.37 26.37 0 0 0 1.66-.036c.157-.001.308-.007.438.113.063.06.147.067.222-.02.073-.088.159-.067.255-.031l-.11.092c.17.169.349.185.545.073-.016.063-.034.137.032.153.092.023.181.06.272.088.05.017.083.023.149.04.069.02.139.034.21.04.136.015.268.037.383.133.264.212.59.293.91.295.194 0 .36-.016.5.143.02.023.065.032.101.04.385.08.77.146 1.154.184.23.024.459.02.686.023.275 0 .548-.005.82-.02.138-.007.28-.04.417-.031.146.008.281-.001.418-.05.075-.028.16-.039.241-.049.116-.013.102.056.087.121.082-.052.163-.105.262-.17.025.047.042.098.076.135.026.028.083.061.112.052.126-.041.274-.061.314-.213.17-.099.363-.1.548-.136-.02.046-.033.098-.066.135-.027.03-.082.037-.12.061-.013.01-.023.04-.018.057.005.016.031.04.046.038.113-.016.225-.035.336-.056l-.002.003c.021-.01.048-.03.063-.026.22.072.425-.103.644-.055.024.005.06-.03.09-.047.149-.09.29-.188.442-.268.052-.028.13-.013.197-.016l.002.001.001-.001-.005-.003c.088-.01.143-.012.274-.04l.303-.074c.122-.033.238-.063.382-.103.4-.099.677-.32.695-.653.007-.127.074-.246.261-.322.097-.038.189-.16.27-.258.06-.07.05-.125.023-.187-.042-.097-.007-.153.087-.158.195-.007.399-.234.582-.157.062.018.127-.12.132-.248l-.144.061c.047-.12.11-.21.185-.287.044-.044.108-.09.162-.091.05-.001.098.059.14.086.259-.236.352-.582.587-.816.021-.022.03-.059.044-.09.034-.085.008-.146-.077-.182-.019-.007-.046-.001-.061-.011-.033-.022-.061-.053-.091-.08.025-.03.048-.063.078-.088.031-.027.091-.052.05-.096-.089-.095-.017-.152.047-.173.072-.024.141-.04.19-.105.038-.05.064-.1-.03-.106-.068-.003-.06-.054-.037-.09.023-.033.065-.072.098-.072.087 0 .14-.02.15-.125a.473.473 0 0 1 .052-.158c.034-.066.084-.112.15-.043.057.06.112.055.157-.012.095-.137.187-.277.273-.42a.258.258 0 0 0 .04-.157c-.02-.11.01-.175.086-.262a.334.334 0 0 1 .247-.12h-.003c.178-.107.178-.107.023-.213-.007-.004-.008-.018-.017-.038.063-.056.125-.116.193-.17.085-.067.044.07.113.062.038-.063.113-.136.12-.213a.458.458 0 0 1 .075-.206c.053-.081.12-.166.18-.25l-.008.212.161-.223c.028-.04.053-.073.08-.102.086-.096.188-.173.285-.278.008-.114-.095-.18-.005-.382l.244.05c.373-.567.352-.603.337-1.034l.001.002.027-.224z" fill="#F03E53"/><path d="M149 126a.014.014 0 0 0 .003.004h.001L149 126zM157.58 138.287c-.24.18-.445.378-.577.618-.01.02.004.062.024.07a.264.264 0 0 0 .138.022.206.206 0 0 0 .115-.074c.154-.244.315-.48.611-.646.095-.053.151-.15.07-.277l-.38.287M154.589 142.014c-.129-.06-.301.083-.36.285-.069.197-.113.398-.229.701.213-.165.343-.27.463-.405.16-.186.268-.228.374-.066.017.029.09-.012.137-.022.007-.068.04-.178.019-.198a1.866 1.866 0 0 0-.404-.295M157.006 130.229c.095.353.37.569.656.77.012.009.104-.055.116-.097.015-.049.002-.13-.033-.167l-.719-.735c-.01.077-.039.159-.02.229M157.006 130.007l.001-.006-.006-.001-.001.001.006.006zM156.396 130.42l.115.015.095-.076v.007l.001-.007.185-.051a5.444 5.444 0 0 1-.116-.11c-.012-.01-.036-.007-.054-.011v-.006.006c-.034-.026-.064-.057-.099-.076-.296-.145-.543-.147-.522-.011.035.217.2.294.395.32M156.127 139.046a.602.602 0 0 0-.126.262c-.01.058.049.138.099.182.02.02.1-.034.168-.059.028-.097.067-.192.08-.287.005-.046-.031-.123-.067-.139-.042-.016-.128.005-.154.041M155.144 141.442c.132.041.157-.086.196-.176.025-.054.039-.115.089-.266-.18.034-.311.021-.39.083-.09.074-.011.324.105.359M155.436 129.461c-.117-.16-.249-.309-.376-.461l-.06.068c.084.161.164.324.256.478.025.039.098.05.149.073.011-.054.052-.129.031-.158M152 143.292c.004.059.073.143.133.156.068.016.168-.023.235-.064.026-.016.018-.113-.008-.156-.048-.082-.118-.153-.178-.228a.29.29 0 0 0-.182.292M157.036 137.109a.24.24 0 0 0-.03.17c.012.044.07.08.118.101.019.008.06-.036.102-.062.006-.053.024-.113.015-.17-.01-.053-.047-.1-.072-.148-.046.035-.106.062-.133.109M131.07 133c-.027.004-.074.057-.07.081.02.136.054.27.083.402l.12-.02c-.012-.137-.019-.274-.039-.408-.004-.025-.064-.059-.094-.055" fill="#F03E53"/><path d="M156.183 139.028c-.096.123-.19.248-.183.505.138-.167.233-.267.308-.381.021-.032-.013-.101-.02-.152-.037.008-.087.006-.105.028M154.009 143.002l-.003-.002a.014.014 0 0 1-.006.002h.009zM154.17 142.087c-.064.032-.16.134-.17.185-.008.047.074.076.118.111.053-.015.109-.022.157-.05.153-.093.253-.228.182-.324-.024-.033-.191.03-.286.078M155.001 130l-.001.008.004.005.004-.004-.007-.009zM155.248 130.116c-.062-.07-.133-.157-.248-.094.006.04-.001.086.019.112l.266.31c.044-.113.051-.23-.037-.328M158 133c.127.318.192.56.25.799.104-.412.103-.44-.25-.799M151.042 127.272l.002-.006.014-.002a.934.934 0 0 1 .12-.008l.076-.084-.037-.039a.59.59 0 0 1-.064-.078c-.006-.01.004-.034.01-.055-.035.03-.103.071-.128.103-.007.036-.055-.018-.025.095.01.025.02.049.032.074M152 128l.007.011L152 128" fill="#F03E53"/><path d="M151.037 127.094l.149.351c.024.053.046.095.07.147a13.86 13.86 0 0 1-.254-.592c-.001.001-.003-.003-.001.003l.036.091zM152.007 127c-.002.013-.002.021-.007.035.024-.018.036-.034.007-.035M152 127l.089.168L152 127" fill="#F03E53"/><path d="M152.231 127.461A14.139 14.139 0 0 1 152 127c.033.068.067.148.099.211.048.095.088.167.132.25" fill="#F03E53"/><path d="M152.123 127.26A13.194 13.194 0 0 1 152 127c.017.035.031.074.048.11.023.052.05.099.075.15M155.482 130.507l-.393-.507-.089.073.421.483zM157.183 131.044l-.136-.044c-.02.054-.034.087-.047.118.048.01.098.029.144.022.018-.002.026-.062.039-.096M156.161 130.018c-.05-.017-.106-.014-.161-.018l.022.13.158-.008c-.006-.037-.003-.099-.019-.104M151.132 126.113a6.342 6.342 0 0 1-.106-.113c-.008.072-.03.116-.026.161 0 .015.061.055.073.046.026-.021.04-.062.06-.094M155.003 141.107c.031-.002.077.008.088-.008.016-.02.006-.063.007-.097-.032.001-.079-.009-.09.006-.015.023-.004.065-.005.1M158.186 131.061l-.113-.061-.073.142c.032.014.078.047.091.037.038-.029.063-.074.095-.118M158 138.078c.02.002.042.01.057.002.032-.018.061-.04.091-.064-.036-.006-.072-.02-.106-.015-.018.003-.028.05-.042.077M158.008 138l-.008.005.01.001-.002-.006zM154.075 129.221c.01-.029.037-.066.028-.088-.02-.048-.057-.09-.089-.133-.005.053-.018.105-.013.157.004.023.048.043.074.064M154.007 129.021l.001-.01L154 129l.001.011a.088.088 0 0 0 .006.01M157.08 133.109l-.027-.107L157 133l.03.107.05.002M156.023 131l-.023.041.041.024c.007-.013.023-.028.02-.04-.002-.01-.024-.017-.038-.025M149 144.074c.021-.004.044-.003.06-.012l.086-.062c-.037.004-.075.004-.107.015-.018.006-.026.039-.039.059M149 144.013l.017-.002.002-.011-.008.005-.011.008" fill="#F03E53"/><path d="M154.05 129.048c-.004-.017-.019-.031-.028-.048-.008.024-.028.052-.02.069.013.03.037.055.06.082-.003-.035-.005-.07-.012-.103M158.002 134.023l.003-.01-.003-.013-.002.009.002.014M158.01 134.197c.019-.02.05-.035.052-.06 0-.044-.015-.09-.026-.137a3.468 3.468 0 0 1-.035.125c-.004.02.006.049.009.072M159.112 133.086c-.031-.03-.062-.062-.095-.086l-.017.053.093.086.019-.053M158 137.033c-.003.014.016.031.024.047.017-.01.042-.02.045-.031.003-.015-.015-.033-.024-.049-.017.012-.042.019-.045.033M153 143.052c-.004.015.027.021.044.031.02-.018.056-.038.06-.052.003-.013-.029-.021-.044-.031-.022.018-.057.038-.06.052" fill="#F03E53"/><g transform="translate(129 124)"><mask id="b" fill="#fff"><use xlink:href="#a"/></mask><path d="M4.755.695l.009-.017-.042.01.033.007zM.383 10.353c.005.052.02.097.03.146.014-.033.039-.066.038-.096-.002-.045-.021-.086-.036-.139-.015.04-.034.07-.032.09zm28.759 4.6c.03-.015.06-.025.092-.047.008-.005.021-.05.031-.077l-.068.034-.055.09zm-28.634-.51c.004-.298.008-.507-.038-.702.005-.162.019-.324.015-.485l-.033-.92L.44 11.03l-.138.037-.01-1.26c0-.051.026-.102.04-.154v.002l.05-.376-.002.008c.035-.138.006-.203-.048-.24l-.01-.02c-.035-.33-.09-.643.011-.99.06-.205.04-.497-.011-.875L.23 7.86.172 6.703c-.007-.144.029-.225.081-.272.007.078.01.16.023.232.007.035.034.048.052.072.001-.055.011-.127 0-.161-.018-.058-.05-.093-.077-.137C.24 6.408.226 6.383.217 6.35c-.072-.236-.074-.242.012-.463.065-.167.007-.235-.037-.322l.002.005c.044-.283.117-.556.02-.869a.891.891 0 0 1-.012-.295c.023-.202-.01-.302-.08-.39-.033-.05-.032-.12.002-.22.017-.068.05-.2.05-.242-.013-.36.08-.763.301-1.15a2.45 2.45 0 0 1 1.106-1.008l.064-.028.032-.013.016-.007.117-.036.038-.014.089-.028.223-.06.453-.105c.282.046.604-.08.92-.133.346-.061.65-.14.888-.274.244-.129.523-.133.797-.16.023-.002.068.02.06.033-.062.095.096.054.154.019.212-.128.443-.222.786-.164l-.166.034c.017 0 .04.004.052 0l.11-.036.134-.011-.003-.001c.275.007.548.003.823.026.176.011.294-.012.396-.076a.505.505 0 0 1 .21-.049c.255.037.478.012.713-.024a.84.84 0 0 1 .258-.005c.252.088.474.119.751.038.074-.02.26.014.393.023.156.016.332.06.465.054.424-.02.752.049 1.006.241.07.05.228.088.282.05.12-.078.326-.06.565.013.453.13.912.225 1.354.418.302.12.632.275.814.369l.051.05.06.01h.013c.163.049.334.07.497.12.305.076.609.13.878.29.141.086.354.13.548.084a.748.748 0 0 1 .25-.016c.323.032.65.017.983.07.152.028.332.006.498.005.206-.004.412-.02.619-.032a15.178 15.178 0 0 0 1.9-.239l.319-.065c.167-.033.337-.061.508-.077a4.397 4.397 0 0 1 2.564.524c.454.251.876.615 1.18.981.23.278.46.554.707.822.434.473.842.973 1.259 1.463.27.318.54.637.638.966.206.145.419.216.535.499l-.066-.047c.01.011.02.024.03.031.012.009.025.012.036.018.09.082.189.158.267.249l1.007 1.182c.03.037.069.115.058.123-.08.058.03.175.137.273.061.052.147.153.223.25.079.094.142.2.209.31.258.43.46.903.558 1.398.208.44.174 1.03.08 1.55-.07.426-.217.81-.479 1.044-.185.177-.34.432-.458.728-.065.19-.185.33-.321.489l-1.272 1.46c-.138.158-.275.313-.432.412a.522.522 0 0 0-.213.263.658.658 0 0 1-.094.145c-.302.37-.596.748-.912 1.104a6.68 6.68 0 0 1-.724.736c-.294.245-.583.551-.748.927-.067.152-.202.334-.319.499a.594.594 0 0 1-.27.2c-.09.037-.173.065-.27.164-.184.176-.229.37-.599.519a5.465 5.465 0 0 0-.308.13c-.153.07-.306.14-.467.199h.007c-.204.014-.34.063-.504.138-.27.127-.543.215-.862.21-.117 0-.324.037-.436.082-.36.143-.782.13-1.149.237a.917.917 0 0 1-.255.013c-.201-.017-.377.025-.579.055-.517.083-1.077.145-1.472-.062a.485.485 0 0 0-.107-.03c-.127-.026-.292-.046-.36.005-.205.148-.529.142-.912.074-.173-.03-.357-.05-.537-.074-.266-.035-.547-.058-.71-.2-.031-.027-.156-.051-.242-.074-.197-.05-.395-.108-.593-.154-.277-.065-.55-.17-.83-.174-.132 0-.375-.105-.565-.172a1 1 0 0 0-.3-.205c-.119-.059-.208-.08-.315-.12a1.717 1.717 0 0 1-.472-.238c-.17-.11-.421-.165-.553-.141-.167.025-.287-.025-.452-.05-.29-.046-.458-.173-.657-.264l-.008-.025.014.024c-.106.065-.258.07-.447.049-.33-.048-.675-.035-1.011-.059l-.511-.003-.475-.01a.931.931 0 0 0-.268.013.934.934 0 0 1-.39-.017c-.012-.003-.024-.017-.04-.029l.16-.124a2.44 2.44 0 0 0-.315.03c-.042.008-.072.039-.063.092.01.07-.037.097-.088.089a.67.67 0 0 1-.208-.067.402.402 0 0 0-.212-.06c-.404.032-.808.043-1.217.029a.36.36 0 0 0-.123.018c-.19.06-.38.04-.572.003l-.65-.112c-.024-.004-.05 0-.076.002l-.48.057c-.06.008-.124.015-.187-.03.03-.02.042-.033.058-.039l.197-.06.02.01-.021-.007c-.03-.023-.09-.012-.083-.08.02-.011.04-.028.065-.035.066-.019.131-.04.199-.05.11-.02 0-.156.103-.176l-.128-.072.002.001c-.069-.003-.139-.016-.207-.008-.2.025-.398.06-.604.1a.974.974 0 0 0-.236.059.543.543 0 0 1 .164-.168.395.395 0 0 1 .082-.08.775.775 0 0 1 .203-.104c.151-.058.308-.1.46-.152a.32.32 0 0 1 .254.009.33.33 0 0 1 .217-.17c.12-.032.239-.073.354-.117.223-.086.44-.193.669-.27.125-.043.259-.062.388-.094.305-.075.6-.178.911-.244.463-.078.921-.196 1.394-.26.074-.033.785-.067 1.272-.08.53 0 1.063.01 1.602.069.676.065 1.359.19 2.037.376.34.082.676.227 1.013.341.189.067.279.107.412.159.126.043.248.091.377.13.085.027.171.053.259.07.355.077.697.168 1.042.289.307.108.636.15.979.165.626.026 1.28.028 1.914-.015.451-.029.907-.063 1.362-.123a16.663 16.663 0 0 0 2.144-.432c.42-.114.529-.15.717-.267.086-.054.166-.116.239-.187.043-.041.058-.056.118-.126l.188-.225 2.403-2.817c.71-.854 1.447-1.689 2.171-2.533l.282-.329c.044-.063.094-.12.13-.186a1.557 1.557 0 0 0-.007-1.652c-.032-.06-.094-.107-.106-.166-.141-.28-.33-.549-.628-.728-.034-.02-.078-.09-.118-.138l-.317-.38-1.77-2.077-.775-.885-1.061-1.253-.124-.143c-.027-.029-.05-.06-.08-.088a1.679 1.679 0 0 0-.594-.39 1.748 1.748 0 0 0-1.023-.076c-.617.13-1.239.228-1.867.29-1.502.144-3.047.086-4.566-.266-.471-.105-.935-.252-1.395-.417l-.66-.27-.535-.208c-.354-.145-.743-.227-1.116-.335-.39-.07-.77-.17-1.172-.206a16.368 16.368 0 0 0-3.52-.056c-.732.058-1.463.175-2.19.313-.48.088-.957.197-1.428.315l-.351.093-.185.052-.054.016-.028.007-.014.004.087-.027c.01 0 .018-.009.025-.01.061-.035.031-.035.011.022a.51.51 0 0 0-.028.18l.007.585.017 1.191.035 2.383.048 3.278c.019.823.036 1.65.053 2.473.014.908 0 1.82.034 2.724.03.805.037 1.604.03 2.41-.028 2.29.006 4.583-.035 6.873l-.046 3.897-.102 4.199-.022.817-.01.41-.013.17-.047.675-.071 1.171c-.019.306-.037.61-.054.917-.022.288-.08.572-.154.853-.014.052-.052.097-.082.153-.105-.059-.151-.169-.275-.163-.167.008-.27-.088-.343-.227-.035-.068-.083-.131-.112-.2-.142-.356-.327-.692-.425-1.068-.095-.37-.238-.726-.28-1.11l-.1-.772-.05-.387-.04-.934C.48 33.196.412 32.254.432 31.3c.002-.127.023-.289-.066-.41-.003.29-.002.543.013.804.018.337 0 .453-.093.831a51.476 51.476 0 0 1 .033-3.402c.028-.635-.004-1.284.077-1.906.01-.07 0-.167-.013-.239a2.38 2.38 0 0 1-.004-.666c.012-.135.006-.283.007-.425l.009-1.36c.006-.287.01-.578.017-.865l.04-3.71c.001-.185-.004-.374.096-.456.022-.017.041-.128.045-.199.01-.208.004-.412-.048-.596-.113-.41-.13-.878-.137-1.346-.002-.108.023-.272.057-.32.142-.19.127-.445.077-.741-.015-.087-.017-.187-.031-.36l-.022.568c-.001.03-.023.07-.036.07-.013 0-.033-.032-.04-.061a.923.923 0 0 1-.021-.175l-.03-2.662c-.001-.043.021-.087.036-.142l.075.205c-.018.31-.017.31.036.706z" fill="#333" mask="url(#b)"/></g><path d="M130.009 157.005c-.002.099-.013.198-.007.296l.072 1.11.01.133.009.057.018.114.036.23c.002.015.023.029.04.043a.068.068 0 0 0 .037.012c.027-.004.076-.012.075-.018a1.564 1.564 0 0 0-.01-.247l-.025-.16-.008-.046-.008-.096-.017-.195-.066-.656-.096-.582-.06.005zM130.002 156.496c.01.074.02.191.043.287.012.049.054.09.078.08.026-.01.068-.075.07-.126a4.06 4.06 0 0 0-.003-.552c-.007-.082-.067-.181-.104-.185-.026-.002-.061.138-.078.228-.013.063-.005.152-.006.268" fill="#333"/><path d="M130 156.043c.006.028.01.075.019.081.008.007.029-.018.032-.039.003-.021-.01-.057-.016-.085l-.035.043z" fill="#333"/></g></svg>
