<svg width="200" height="200" xmlns="http://www.w3.org/2000/svg" xmlns:xlink="http://www.w3.org/1999/xlink"><defs><path id="a" d="M.458.467h9.291v.5H.458z"/><path id="c" d="M0 .077h1v2.57H0z"/><path id="e" d="M.489.288h.393v7.26H.49z"/><path id="g" d="M.02.114h.363v1.867H.019z"/></defs><g fill="none" fill-rule="evenodd"><path d="M128.721 93.69c-.16.824-.175 1.697-.184 2.579.01.362-.066.717-.113 1.075l-.173 1.072c-.098.561-.303 1.1-.45 1.648v.002c-.139.187-.245.401-.372.625a6.368 6.368 0 0 0-.168.31 20.128 20.128 0 0 0 1.084-6.427l.179-3.715c.003-.059.054-.104.09-.167l.147 2.555c.007.142-.01.313-.04.444zm-2.465 10.155c-.02.033-.049.053-.074.078.008-.04.013-.1.026-.115.033-.039.07-.06.106-.089-.019.043-.035.091-.058.126zm-1.525 2.33l-.051-.072c.261-.309.471-.654.711-.98l.102.067c-.257.329-.48.678-.762.985zm-51.394 9.404c-.408.027-.828.055-1.236.041-1.3-.042-2.58.045-3.868.07-.205.004-.41-.015-.614-.023l-.06-.079 5.504-.276.156-.002c.213.006.44.023.4.137-.017.05-.17.125-.282.132zm-11.308.312l1.888-.138c.495-.035.994-.082 1.473.044-1.008.158-2.015.188-3.361.094zm-3.621.183c-.667-.02-1.357-.031-2.008.021-1.333.107-2.652.157-4.004.078-.506-.03-1.03-.005-1.786-.005 2.78-.203 8.737-.29 10.69-.154a27.876 27.876 0 0 1-2.892.06zM28.02 43l.06-.027-.08.088.02-.061zm.754-1.246l.207-.083-.1.218c-.069.03-.175.099-.197.078-.02-.017.056-.138.09-.213zm2.04-1.66c.039-.023.1-.067.11-.062.018.006-.002.05-.008.078l-.171.096.07-.113zm7.363-3.556l.128.065c-.125.075-.238.162-.375.222-.437.17-.837.421-1.264.618-.42.206-.845.401-1.26.616l-1.205.718c-.824.449-1.546 1.048-2.32 1.578 1.862-1.592 4.013-2.855 6.296-3.817zm-4.897 1.534c.036-.018.073-.023.11-.035-.031.029-.069.073-.094.084-.05.02-.093.022-.14.032.042-.027.083-.06.124-.08zm4.399-2.247l.092-.01-.11.052.018-.042zm1.488-.633c.21-.048.372-.06.531-.08-.102.07-.19.159-.31.203-.143.056-.32.067-.48.098l.259-.221zm2.238.297c.19-.047.378-.1.567-.142l.576-.097 1.505-.267c.502-.088 1.012-.098 1.521-.139l.72-.042c.238-.013.493-.03.687-.027l1.242-.011 2.485-.016 5.755-.032 12.232-.137c-.23.036-.458.09-.693.096-1.447.045-2.893.094-4.342.11-2.122.023-4.245-.002-6.365.032l-10.401.213c-2.395.066-4.856.384-7.186 1.088-.027.006-.06-.01-.175-.031.26-.127.494-.223.742-.297l1.13-.301zm-.268-.743c.232-.097.472-.209.72-.288.003 0 .082.023.075.04-.056.137-.366.214-.654.295-.05.014-.105.011-.159.016.005-.021-.01-.051.018-.063zm1.833-.444c.58-.127 1.169-.299 1.776-.327.34-.03.7-.008 1.24-.006-.323.09-.46.16-.596.164-.4.017-.798.034-1.18.079-.381.073-.749.167-1.091.296-.042.015-.275 0-.274-.02 0-.06.038-.165.125-.186zm5.47-.45c.075.007.139.054.19.086.017.012-.008.047-.039.056-.48.142-.978.205-1.662.047a3.7 3.7 0 0 1 1.511-.188zm2.889.052l-.305.014c.068-.016.136-.032.208-.043.021-.003.063.018.097.029zm3.894-.244a.407.407 0 0 1 .143-.018l3.977.04c.452 0 .904-.055 1.357-.056.142 0 .284.095.426.146-.106.036-.21.103-.318.104l-2.616.005v.016l-2.308-.004c-.242-.003-.483-.048-.721-.078-.033-.004-.073-.038-.063-.051a.372.372 0 0 1 .123-.104zm8.46.023c.296-.017.601-.003.96-.003-.797.2-.797.2-2.283.112.441-.038.878-.084 1.323-.11zm2.65-.102c1.428-.064 2.861-.156 4.26.08-.153.05-.297.134-.46.141-1.335.06-2.655-.032-4.134-.056.179-.09.247-.161.333-.165zm5.195.035l-.902.043c.12-.028.236-.06.364-.078.074-.01.168.01.538.035zm.913.048c.34-.166.842-.15 1.29-.158.191-.004.396.098.595.156l-1.619.176a.55.55 0 0 1-.255-.058c-.044-.029-.057-.093-.011-.116zm1.912-.002l1.186-.137c-.444.305-.447.307-1.186.137zm4.311-.104a1.54 1.54 0 0 1-.869-.024l.87.024zm2.27-.109c.036.005.063.021.095.032-.037.01-.089.03-.105.026-.049-.012-.08-.034-.12-.052.043-.002.09-.01.13-.006zm47.74 55.623l.011.104-.033-.014.023-.09zM86.814 33.619c-.45 0-.9-.012-1.347.004-.41.015-.812.066-1.221.088-.363.02-.725.014-.871-.238 1.2.035 2.343-.13 3.44.146zm6.514-.084l-.018.051-.09-.036.108-.015zm37.66 24.248c-.023-.778-.012-1.56-.143-2.332-.103-.774-.178-1.556-.389-2.313-.633-2.84-1.856-5.552-3.51-7.967-1.96-2.842-4.524-5.298-7.552-7.074-1.858-1.056-3.846-1.933-5.945-2.438-1.035-.316-2.109-.443-3.174-.619-.534-.082-1.075-.084-1.613-.127-.529-.03-1.115-.074-1.548-.07-4.815-.075-9.641-.083-14.463-.058-1.294.006-2.587-.044-3.881-.056-2.178-.02-4.356-.05-6.535-.046l-9.804.048c-1.225.002-2.462-.004-3.657-.154.552-.03 1.101-.075 1.652-.085 4.042-.075 8.088-.05 12.132-.11 4.504-.067 9.025-.127 13.53.06.463.018.934.007 1.4 0 .107 0 .212-.04.357-.071l-.59-.16 2.115-.049c-.144-.076-.19-.128-.265-.137a22.917 22.917 0 0 0-2.908-.158c-.603.01-1.218-.06-1.814-.116-.098-.01-.183-.14-.175-.212.007-.05.2-.093.287-.145.244-.148.152-.244-.254-.26-.31-.012-.62-.01-.931-.013-1.5-.013-3.008.067-4.49-.105-.335-.038-.722.002-1.084.011-1.342.033-2.684.09-4.028.099l-5.597-.014-9.624.1c-3.262.01-6.518.127-9.781.072-1.801.143-3.624.057-5.434.098l-4.264.115-2.132.056c-.819.043-1.719.109-2.571.17-4.081.458-8.052 1.895-11.408 4.178-1.98 1.4-3.856 2.982-5.399 4.851-1.633 2.032-2.892 4.315-3.835 6.714-.624 1.668-1.12 3.39-1.364 5.148l-.183 1.319c-.054.44-.048.885-.072 1.326L22 58.584l.02 1.12.085 2.6c.05 1.481.15 2.966.132 4.443-.023 1.891.087 3.76.09 5.645.005 2.454.057 4.909.093 7.362.005.355.025.715.058 1.063.124 1.36.197 2.727.192 4.12-.002.51.04 1.019.053 1.53l.054 2.453.048 2.143.112 2.982c.007.464.073 1.09.115 1.64.058.567.07 1.135.195 1.693l.321 1.718c.145.564.318 1.121.478 1.68.144.565.373 1.1.59 1.64.225.535.412 1.084.702 1.59l.728 1.38c.26.45.562.874.844 1.309l.482.714.544.67c.374.436.703.907 1.116 1.307l1.202 1.235c.369.342.764.654 1.146.978l.578.48c.197.153.41.288.615.432l1.234.854 1.299.756c.236.136.47.277.709.404l.742.336c.5.212.984.458 1.497.629l1.542.495c.254.09.517.153.781.205l.79.173c.402.078.795.201 1.202.26l1.221.18c.811.147 1.637.129 2.441.082.29-.023.686.064.976.08.729.057 1.431.05 2.14-.065.318-.052.7-.034 1.052-.047.297-.012.597-.015.889-.036.56-.04 1.112-.12 1.672-.128.873-.01 1.773.087 2.619.029.87-.06 1.729-.119 2.611-.122.622-.002 1.247-.01 1.865-.037 2.319-.103 4.636-.213 6.973-.229.984-.006 1.967-.048 2.949-.08 1.083-.038 2.178-.142 3.244-.105 1.054.038 2.056-.047 3.082-.056 1.068-.009 1.985-.236 2.983-.344.067-.007.16-.077.139-.1a.47.47 0 0 0-.265-.137c-.19-.02-.406-.003-.609.004l-3.388.11c-.112.002-.283-.103-.34-.17-.025-.033.14-.126.252-.138.804-.085 1.643-.109 2.388-.29h1.513c.268.03.535.062.805.084.19.016.517.026.576-.014.043-.029.082-.05.122-.07h.656c.08.037.158.079.239.117l-1.145.177c-.054.01-.088.08-.062.114.024.031.143.075.211.072l2.901-.12a.389.389 0 0 0 .138-.025.593.593 0 0 0 .174-.151c.007-.01-.152-.056-.237-.057-.555-.01-1.114.101-1.668-.008l.005-.002h-.004c.012-.042.02-.081.027-.117h26.025c2.937 0 5.735-.613 8.275-1.712.657-.265 1.33-.505 1.97-.795 1.745-.753 3.346-1.846 4.798-3.159.327-.34.67-.664 1.012-.99l.456-.435.413-.473.83-.952c.27-.324.496-.68.746-1.022.234-.351.512-.682.705-1.06 1.312-2.138 2.183-4.56 2.62-7.06.17-.701.191-1.419.269-2.134.08-.736.094-1.392.125-2.07l.167-4.053.299-8.424.01-.15c.128-2.08.248-4.158.249-6.264 0-.305.017-.613.036-.916.207-3.304.26-6.633.333-9.96l.027-1.383.064-2.067c.02-.692.057-1.347.024-2.162z" fill="#F1EBB2"/><path d="M55.492 117.256c-1.111.01-2.227.02-3.332.065-1.203.049-2.39.118-3.615.131l-1.866.032-2.07-.042c-1.375-.097-2.761-.235-4.108-.551a25.407 25.407 0 0 1-7.489-2.907c-.703-.456-1.354-.733-2.012-.984.132.172.182.251.263.308 1.89 1.493 4.14 2.594 6.462 3.372l1.772.528 1.817.372c.6.145 1.224.171 1.835.252l.921.101c.306.035.617.024.926.037l1.374.026.342.004.302-.01.603-.021 2.411-.09 4.82-.195c.26-.012.529-.031.765-.071.242-.042.475-.124.354-.237-.063-.057-.313-.122-.475-.12M72.914 117.011c-.78.058-1.551.12-2.345.045-.186-.017-.392.022-.59.029-1.877.065-3.752.153-5.632.19-2.282.043-4.536.194-6.798.319-.142.008-.308.027-.405.07-.09.04-.166.126-.138.178.029.056.234.144.284.133.636-.132 1.249-.003 1.869.024.048.003.098-.003.147-.005l3.398-.176 6.64-.355 3.987-.228c.227-.015.446-.056.669-.083l-.066-.144c-.34 0-.687-.02-1.02.003M61.171 33.746c.396.01.8.033 1.188-.017.989-.126 1.967-.245 2.956.013.18.047.398.018.594-.004 1.68-.193 3.365-.204 5.056-.13.399.018.798.029 1.195.01 1.527-.075 3.034-.44 4.584-.194.067.01.187-.067.231-.127.039-.051.03-.185-.009-.201a1.154 1.154 0 0 0-.42-.096l-3.288.005c-1.89.035-3.776.007-5.669.159-1.616.129-3.265-.006-4.9-.022l-.002.055c-.349 0-.698-.019-1.044.008-.188.016-.374.098-.543.176-.064.029-.11.137-.098.201.01.062.107.162.17.164M96.16 33.465c.985.052 1.995.209 2.952.1 1.091-.125 2.075.01 3.082.243l-.01.007 4.38-.221 1.27-.008c.254.012.514.004.76-.023.252-.028.508-.104.364-.311-.063-.09-.298-.195-.456-.208l-.684-.044-.559.012-1.102.032c-.735.02-1.469.03-2.2.005a49.135 49.135 0 0 0-4.242.041c-.411.02-.827-.039-1.241-.035l-2.333.053c-.054.002-.145.121-.14.181.003.063.097.172.159.176" fill="#F1EBB2"/><g transform="translate(80 32)"><mask id="b" fill="#fff"><use xlink:href="#a"/></mask><path d="M.72.813c.506.113 1.058.095 1.628.073C3.29.848 4.28.758 5.171.826 6.593.932 7.938.883 9.309.777c.125-.01.224-.063.44-.128C8.821.488 8 .408 7.094.515l.008-.003c-.574.116-1.189.08-1.806.073L.776.572c-.115 0-.31.069-.318.109C.45.723.597.786.72.813" fill="#F1EBB2" mask="url(#b)"/></g><path d="M107.318 33.135c.114.001.292.01.454.016l.489.022 1.953.098 1.932.205c.658.06 1.3.17 1.946.264.633.1 1.287.155 1.908.26-.083-.083-.217-.16-.416-.23a6.077 6.077 0 0 0-.829-.175c-.855-.124-1.698-.28-2.573-.341l-1.304-.118-.652-.054-.657-.023-1.314-.04-.657-.016c-.234-.006-.36-.001-.546-.002l-2.052.002v.078l1.544.036.774.018z" fill="#F1EBB2"/><path fill="#F1EBB2" d="M105 33.006h.007V33zM132.336 53.86c.13.618.19 1.257.253 1.874.039.478.063.713.11.994.033.283.103.608.242 1.272.023-.192.063-.348.059-.511.01-.988-.173-1.965-.287-2.948-.049-.495-.18-.975-.288-1.459l-.353-1.45a46.098 46.098 0 0 0-.748-2.09c-.262-.693-.626-1.342-.941-2.01-.066-.134-.174-.246-.383-.532l.473 1.346-.012-.011c.321.42.573.925.745 1.49.219.663.462 1.32.653 1.993l.477 2.042zM132.95 72.457c.01-.146-.07-.305-.109-.457-.062.032-.124.045-.127.07-.132 1.39-.465 2.748-.344 4.178.058.691.012 1.35-.22 1.985-.32.878-.06 1.688.167 2.767.467-1.165.44-2.177.433-3.181-.003-.339-.1-.73-.013-1.005.46-1.424.117-2.91.212-4.357M125.119 40.283c.151.18.304.41.448.513.281.21.568.414.81.66.245.246.479.501.704.761.453.52.881 1.055 1.244 1.643.524.793 1.12 1.45 1.675 2.14a3.05 3.05 0 0 0-.279-.615c-.378-.663-.878-1.27-1.267-1.907l-.306-.465c-.112-.147-.232-.288-.35-.429a25.53 25.53 0 0 0-.737-.828c-.487-.556-1.05-1.033-1.606-1.517a1.448 1.448 0 0 0-.293-.202c-.259-.116-.154.065-.05.243l.007.003zM46.149 33.492l.66-.02 1.287-.027 2.575-.058c.088-.002.176-.045.256-.083.03-.015.037-.066.073-.134-.095-.058-.2-.174-.298-.17l-2.653.072c-.923.042-1.725.022-3.049.297.263.16.303.212.344.208l.805-.085zM117.179 114.356l-1.006.428c-.065.028-.185.14-.172.15.043.036.129.086.21.058.563-.2 1.138-.393 1.672-.673.54-.27 1.114-.502 1.62-.845.173-.106.332-.312.497-.474-.616.239-1.21.574-1.86.863a30.27 30.27 0 0 0-.961.493M121 113.025c.012-.004.023-.01.036-.016l.003-.009-.028.013-.011.012M60.857 33.353c.063-.008.148-.123.143-.182-.007-.054-.115-.11-.19-.152-.034-.02-.095-.02-.143-.018l-4.58.258c-.02 0-.035.069-.087.168 1.198.02 2.37.037 3.541.057.44 0 .88-.072 1.316-.131M104 33.433v-.238c-.472-.062-.942-.146-1.417-.179a10.346 10.346 0 0 0-1.294.01c-.1.006-.193.13-.289.2.07.081.123.2.215.241.931.414 1.86.233 2.784-.034M104 33v.001V33zM25.385 44.717l.896-1.049.453-.523.502-.49.045.02c.55-.522 1.074-1.069 1.69-1.538.04-.032.03-.1.019-.134-.005-.012-.083.016-.126.042-.199.125-.414.246-.592.387-.557.5-1.094 1.015-1.63 1.528-.502.536-.968 1.094-1.442 1.644-.16.173-.275.4-.142.396.045 0 .23-.18.327-.283M133.191 63.117c-.063.062-.118.133-.178.201l.007-.008c.012.437.064.878.025 1.308-.058.684-.067 1.358.015 2.382.207-.491.346-.678.36-.877.068-.98.125-1.964.134-2.947.002-.25-.222-.199-.363-.06M22.553 89.86L22.329 87c-.135.124-.229.17-.232.22-.043.7-.089 1.401-.097 2.102-.002.192.112.389.196.571.026.058.129.112.191.107.062-.006.169-.096.166-.14"/><g transform="translate(21 62)"><mask id="d" fill="#fff"><use xlink:href="#c"/></mask><path d="M.512.294C.488.193.334.076.242.077.164.077.028.23.017.33c-.084.812.148 1.56.44 2.319.15-.787.245-1.573.055-2.354" fill="#F1EBB2" mask="url(#d)"/></g><path d="M118.837 35.54c.44.239.732.34 1.163.46a13.248 13.248 0 0 0-1.41-.978c-.237-.144-.473-.287-.71-.417l-.727-.339c-.164-.078-.36-.027-.54-.035l.001.001L116 34c.207.198.443.34.74.382 1.079.514 1.655.921 2.097 1.158M132.82 57.936c.165-.884.069-1.791-.82-2.936.17 1.133.469 1.978.532 2.855.008.054.13.108.202.143.024.01.082-.03.086-.062M35.06 35.999l.783-.303c.35-.219.699-.337 1.018-.506.072-.035.107-.109.138-.16.01-.018-.038-.036-.074-.028-.35.083-.698.177-1.02.327a5.173 5.173 0 0 0-.892.575c-.037.03.013.106.046.095M131.09 78.836c.014.076.118.166.178.164.057-.001.16-.116.161-.183l.008-2.817c-.469 1.138-.517 1.966-.348 2.836M115.087 34.535c-.232-.072-.47-.127-.705-.19L113 34c.4.207.825.383 1.28.533.232.077.472.143.717.213.24.082.488.159.743.23.094.027.27.03.26.016-.048-.066-.13-.175-.228-.21l-.685-.247z" fill="#F1EBB2"/><path d="M113 34.003l.068.018c-.013-.008-.028-.014-.042-.021l-.026.003zM132.193 60.998c.06.014.158-.042.196-.11.15-.268.203-.532.183-.828a2.628 2.628 0 0 0-.083-.472 5.719 5.719 0 0 0-.193-.588c-.055.237-.12.4-.168.556-.048.16-.081.306-.102.448-.041.282-.031.54.014.803.013.079.093.178.153.19M99 33v.008a.128.128 0 0 0 .019.001L99 33zM99.578 33.55c.4.021.445-.198.414-.409-.471-.051-.94-.123-1.414-.139-.256-.009-.632-.003-.572.343.518.07 1.04.174 1.572.205M23.947 47.022a2.907 2.907 0 0 0-.464.582c-.236.416-.501.853-.482 1.396.242-.545.511-.89.716-1.266.243-.418.358-.835.23-.712M123.011 112.023l.013-.023-.024.029.011-.006M121 113c.206-.106.409-.224.567-.406.161-.176.304-.378.433-.594l-.566.41c-.28.205-.42.385-.434.59M33 37a5.936 5.936 0 0 0-.551.37c-.17.152-.338.315-.502.487-.328.344-.643.727-.947 1.143.117-.102.242-.19.347-.304.548-.571 1.061-1.208 1.653-1.696M122.96 37.996c.023.012.047-.004.038-.025-.184-.435-.579-.745-.998-.971.288.341.511.764.96.996M133.009 59.615c-.035.077.043.247.102.35.024.04.177.047.199.012.124-.214.227-.443.349-.692l-.266-.285c-.131.202-.284.393-.384.615M24.162 105.027a.167.167 0 0 0-.124-.023c-.026.01-.05.045-.031.075.093.133.186.267.277.394l.574.506c.03.022.1.027.122.014.024-.011.026-.046.009-.083a2.216 2.216 0 0 0-.827-.883M21.06 59c-.103.736-.077 1.373.104 2 .197-1.25.197-1.25-.104-2M21 74v1.969l.243.031c.001-.673.068-1.355-.243-2M21.169 65c-.061.002-.17.103-.169.157.006.282.039.562.063.843l.229-.013c.022-.282.054-.564.056-.845.002-.05-.117-.144-.179-.142M121 37a.04.04 0 0 0 .01.008l.013-.002L121 37zM121.482 37.628c.173.176.415.492.518.325l-.78-.953-.22.061c.16.19.313.397.482.567M22.145 51.966c.17-.108.364-.289.467-.444.093-.165.173-.33.251-.496L22.684 51c-.168.164-.39.32-.489.492-.253.366-.25.6-.05.474M117 35.03c.156.195.287.404.466.61.074.082.271.088.534.163-.269-.335-.439-.58-.643-.776-.076-.06-.236-.002-.357.003M133.278 70c-.085.1-.175.19-.254.302-.022.032-.03.13-.02.185l.12.513c.094-.166.19-.326.278-.5.02-.04.003-.125.003-.186-.044-.106-.085-.21-.127-.314M132.17 67.014c-.214.18-.183.462-.135.733.015.082.093.145.166.253.075-.14.19-.262.195-.39.004-.195-.064-.396-.11-.59-.004-.02-.086-.03-.115-.006M132.012 63.143c-.02.264-.009.533-.009.857.16-.097.285-.147.283-.174-.018-.278-.057-.551-.092-.826-.063.047-.178.084-.182.143M125 41c.283.229.517.505 1 1-.34-.582-.64-.856-1-1M132.198 75.074c-.085.188-.141.415-.198.597.088.16.131.302.19.325.056.021.161-.05.191-.132.054-.159.086-.352.096-.538.006-.102-.033-.264-.081-.305-.05-.045-.168-.014-.198.053M127.04 44.002c-.064.061-.03.24-.037.372l.688.626c-.119-.315-.163-.503-.279-.701-.056-.095-.349-.323-.373-.297M21.101 55.99c.07-.088.172-.207.187-.302.04-.234.053-.47.042-.681 0-.03-.159.047-.162.058l-.168.9c-.003.018.08.052.101.025M39.575 34.625c-.169.081-.324.21-.575.375 1.027-.358 1.022-.356 2-1-.687.293-1.059.448-1.425.625M54 33.241c-.113-.134-.168-.243-.208-.241-.266.015-.529.054-.792.087.07.085.141.243.213.243.25.002.499-.052.787-.089M130 49c.294.337.46.625.673.9a.412.412 0 0 0 .144.1c.009-.073.039-.17-.006-.24-.198-.274-.328-.636-.811-.76M126 108.788c.112-.116.262-.23.323-.35.075-.147.119-.36.089-.43-.019-.045-.195.117-.38.236l-.032.544M132.182 85l.051-1c-.301.559-.302.563-.051 1M21.274 78.735c0-.235-.044-.47-.073-.735-.094.142-.205.252-.2.314.017.236.073.458.114.686.055-.089.16-.175.16-.265M21 72.004l.069.99c.001.013.064.001.151.001l-.057-.978c-.003-.03-.106-.011-.163-.013M132 70.698c-.006.06.087.146.187.302.028-.305.062-.543.064-.782.001-.071-.088-.144-.137-.218-.04.233-.093.46-.114.698M21.168 57.857c.019-.255.013-.519.017-.857-.083.201-.157.306-.174.442-.023.172-.002.371 0 .558.055-.047.153-.087.157-.143M123 38l.422.623.578.125c-.118-.14-.228-.321-.352-.406-.213-.148-.433-.235-.648-.342M130.346 47.891l-.033-.403L130 47c.009.172-.005.329.039.526.012.054.201.24.307.365M22.18 85.117c-.008-.057-.084-.126-.086-.116-.037.109-.106.303-.092.34.085.238.188.445.286.659l-.108-.883zM22.017 86.042L22 86l.007.065.01-.023zM22.107 81c-.031.136-.062.271-.107.477l.144.523c.043-.11.134-.247.123-.322-.033-.24-.104-.454-.16-.678M132 69.363c-.008.086.085.228.131.344l.151-.354-.136-.353c-.052.118-.132.222-.146.363M27.01 110.214c.107.161.26.31.396.464.022-.07.094-.154.058-.207-.11-.162-.26-.313-.397-.471-.023.072-.094.157-.057.214M24.264 46l-.153.092c-.039.131-.084.267-.11.387-.004.015.093-.054.145-.086l.118-.393zM23.001 100.113l.155.479c.018-.04.055-.088.047-.118-.045-.162-.1-.316-.154-.474-.016.039-.056.086-.048.113M24 104.151l.249.455c.018-.051.055-.137.048-.151L24.05 104c-.02.05-.056.139-.05.151M131.044 81.003c-.021.017-.03.126-.044.193.029.034.064.106.086.088.021-.017.029-.125.044-.195-.029-.032-.065-.105-.086-.086M132.096 72.288c.023-.019.034-.121.052-.187L132 72l.004.221c.03.025.068.086.092.067M119.241 36.136l-.025-.111L119 36zM133 69.163l.014.263.17-.096-.111-.33-.073.163M21 70.426c-.001.009.06.052.091.077l.055-.429c0-.008-.06-.048-.092-.074l-.054.426zM130 91.133l.074.03-.019-.163zM23 102l.097.244-.009-.235zM131.006 83.198l.067-.124L131 83zM132.087 73.238c.002-.072.015-.159.003-.215-.007-.029-.054-.015-.082-.023-.002.072-.015.156-.003.213.007.032.053.017.082.025M22.003 96.05c.004-.006.003-.011.008-.017l.053-.012L22 96l.003.05zM22.24 97l-.064-1c-.32.348-.145.679.063 1M116.069 34.03c-.009-.007-.021-.013-.029-.021-.013-.003-.027-.005-.04-.009l.01.013.059.017zM124.055 40l-.055.059.199.123zM131 53l.086.221-.002-.207zM22.012 94.604l-.002-.568.008-.036c-.005.007-.009.017-.013.027l-.005.598.117.056-.105-.077z" fill="#F1EBB2"/><path d="M22.079 94l-.079.364c.026-.047.056-.09.072-.152.014-.054.005-.14.007-.212M22.029 97.154l-.017-.128c-.004-.009-.007-.018-.012-.026l.003.051.026.103z" fill="#F1EBB2"/><path d="M22.075 97.293L22 97c.005.045.009.094.017.134.013.062.038.108.058.159M131 82.158l.075.025-.029-.183zM132.001 85.127l.003-.111L132 85v.026l.001.101zM132.476 86.233c-.536.46-.57 1.074-.346 1.767.142-.579.319-1.147.354-1.76l-.004-.24-.005.088v.145zM104.575 33.005V33h-.007l-.561.001-.007.001v.003h.575zM22.205 96l-.205.05.174.055.001-.002.078.104z" fill="#F1EBB2"/><path d="M168.024 144.371l-.013-.034c.028-.02.059-.039.085-.062-.021.035-.048.064-.072.096zm-2.221 2.27c-.35.336-.67.707-1.059.997a2.37 2.37 0 0 1-.431.27c-.438.202-.824.485-1.237.738-.417.247-.826.52-1.241.789-.332.232-.698.408-1.065.582l-1.1.522c-.586.256-1.208.423-1.81.636l-.002.001c-.353.024-.745.048-1.163.107a22.17 22.17 0 0 0 6.506-3.012h.001c.584-.41 1.187-.799 1.765-1.222.546-.46 1.112-.904 1.648-1.382.047-.046.118-.048.193-.077-.299.388-.672.699-1.005 1.052zm-12.426 5.494c-.043.002-.078-.009-.118-.015.043-.016.102-.047.124-.045.056.004.098.021.147.033-.052.01-.106.025-.153.027zm-1.73.126c-.466-.016-.93-.018-1.389-.066l.034-.085c.451.035.902.023 1.356.028v.123zm-44.429.879l-.624.02c-.207.003-.454 0-.676-.011-1.443-.08-2.867-.026-4.3-.037-.226 0-.454-.025-.68-.039l-.065-.081 6.099-.13.165.003c.225.012.46.035.394.149-.03.05-.2.12-.313.126zm-12.496.005l2.1-.087c.551-.022 1.106-.057 1.636.084-1.123.133-2.242.135-3.736.003zm-4.026.085c-.74-.039-1.507-.069-2.23-.034-1.49.057-3.082.068-4.62-.307-.585-.095-1.18-.24-2.039-.46 1.576.415 4.153.613 6.51.631 2.312.027 4.51.094 5.593.19a33.836 33.836 0 0 1-3.214-.02zm-9.755-86.893l.071.009-.127.033.056-.042zm1.476-.673c.08.014.159.023.239.04-.078.04-.153.089-.23.133-.08-.011-.22-.008-.227-.038-.006-.026.139-.089.218-.135zm2.912-.261c.049.006.134.008.14.02.011.015-.036.037-.06.056-.072-.009-.144-.024-.217-.028.046-.02.092-.032.137-.048zm1.813.767c.328-.021.706-.06.986-.06l1.796-.052 3.591-.102.094.106c-.14.028-.273.071-.42.08-.454.027-.912.055-1.37.057l-2.741-.001c-.468.001-.892-.016-1.396-.004l-1.558.052 1.018-.076zm1.563-1.06c.038.003.069.018.104.027-.039.009-.091.026-.116.022-.05-.008-.085-.029-.127-.045.047-.002.096-.008.139-.005zm4.62-.002l.083.022-.112.012.03-.034zm1.502-.09c.199.03.346.053.493.077-.11.04-.213.11-.332.113-.145.007-.304-.043-.456-.068l.295-.122zm3.083.862l2.93-.072 5.529-.042 6.4-.032 13.6-.138c-.257.036-.51.09-.77.097-1.608.046-3.217.095-4.829.111l-7.077.032-11.567.216c-2.357.035-4.718.022-7.078.029-.027 0-.054-.03-.154-.088.277-.034.52-.085.768-.09l2.248-.023zm-1.21-.782l.711-.116c.002 0 .07.036.06.052-.076.137-.374.138-.653.145-.047.001-.098-.015-.147-.024.008-.02.001-.053.03-.057zm1.75-.099a28.83 28.83 0 0 1 1.668-.114c.315-.01.644.031 1.143.06-.3.075-.431.137-.559.136-.745-.01-1.475-.009-2.144.146-.04.01-.254-.042-.25-.062.01-.058.06-.158.143-.166zm5.397-.137c.082.006.153.053.21.087.019.01-.009.046-.043.056a3.715 3.715 0 0 1-1.848.047 4.513 4.513 0 0 1 1.68-.19zm3.21.051l-.338.014c.077-.015.152-.031.232-.043.024-.002.07.02.107.03zm4.332-.246a.495.495 0 0 1 .16-.018l4.421.04c.503 0 1.006-.055 1.51-.056.158 0 .316.095.474.147-.119.036-.235.104-.354.105l-2.91.006v.015l-2.566-.003c-.27-.003-.537-.049-.802-.079-.036-.004-.081-.038-.07-.052a.41.41 0 0 1 .137-.105zm9.407.023c.33-.017.67-.003 1.067-.003-.886.202-.886.202-2.538.113.49-.037.977-.084 1.47-.11zm2.946-.103c1.589-.065 3.183-.157 4.737.082-.17.05-.329.134-.51.142-1.485.06-2.952-.033-4.598-.057.199-.092.276-.163.37-.167zm5.778.035l-1.003.044c.134-.028.263-.06.405-.08.081-.008.188.01.598.036zm1.014.05c.38-.169.938-.152 1.435-.16.214-.004.442.1.663.157-.6.06-1.199.12-1.801.178a.652.652 0 0 1-.284-.059c-.049-.029-.063-.094-.013-.117zm2.126-.003c.422-.043.845-.088 1.32-.138-.493.308-.497.31-1.32.138zm4.795-.105c-.35.089-.666.055-.967-.023l.967.023zm2.524-.11c.04.005.07.02.106.032-.041.01-.099.03-.117.026-.054-.012-.09-.034-.133-.052.048-.003.1-.01.144-.006zm6.538.172c-.5 0-1.003-.012-1.499.004-.456.014-.902.067-1.358.089-.403.02-.806.014-.969-.24 1.336.035 2.606-.133 3.826.147zm7.862.187l-.032.045-.115-.053.147.008zm21.271 21.802c-.427-2.309-1.104-4.6-2.196-6.699l-.385-.797-.454-.76c-.311-.502-.597-1.023-.936-1.507l-1.056-1.425-.265-.355-.295-.333-.592-.661a25.064 25.064 0 0 0-7.277-5.554 25.269 25.269 0 0 0-8.848-2.59l-2.481-.146c-.751-.024-1.448-.031-2.174-.04-2.422-.022-4.845-.05-7.266-.048l-10.903.049c-1.362.002-2.736-.004-4.064-.155.612-.031 1.222-.076 1.835-.086 4.495-.077 8.993-.052 13.49-.112 2.505-.034 5.013-.065 7.522-.065l.942.001.47.002.546.026c.735.041 1.47.077 2.201.143.727.115 1.453.239 2.175.37.72.137 1.42.375 2.124.57.583.15 1.156.359 1.728.56.13.046.273.054.461.09l-.668-.415 1.344.466c.43.14.816.352 1.24.534-.137-.151-.17-.226-.255-.276-.536-.338-1.117-.587-1.71-.833-.595-.233-1.188-.511-1.841-.648-.78-.18-1.547-.49-2.322-.679-.126-.03-.215-.178-.19-.247.018-.049.284-.05.41-.083.355-.095.255-.21-.293-.313-.414-.078-.836-.141-1.256-.206-1.01-.198-2.042-.17-3.063-.237-.243-.01-.542-.032-.737-.033l-.624-.019c-.415-.017-.83-.044-1.241-.087-.37-.04-.803.001-1.205.01-1.492.034-2.984.09-4.479.1l-6.224-.014-10.702.101c-3.627.01-7.248.129-10.876.074-2.003.143-4.03.057-6.042.098l-9.485.22c-3.745.06-7.493.06-11.237.154-.514.001-1.225.047-1.895.085-.67.051-1.348.045-2.012.171l-2 .314c-.656.158-1.307.334-1.956.512-2.772.844-5.353 2.173-7.686 3.82-3.203 2.306-5.892 5.285-7.799 8.704-.31.482-.51 1.022-.758 1.536-.223.525-.499 1.025-.665 1.573l-.467 1.385c-.073.232-.16.46-.219.695l-.165.71-.33 1.417c-.116.47-.157.953-.246 1.428l-.143.916-.065.457-.022.46-.062 1.839c-.014.325 0 .566.004.832l.018.785.02 1.574c.004 2.738.056 5.476.092 8.212.005.397.026.798.058 1.187.126 1.516.198 3.041.194 4.594-.001.57.04 1.138.053 1.708l.055 2.737.05 2.39.222 6.654.196 6.835.046 1.535c.002.244.025.534.049.822l.068.858.083.95c.024.316.106.626.157.94.125.621.218 1.249.376 1.862l.528 1.833c.153.533.4 1.035.598 1.551.21.513.41 1.029.687 1.51l.77 1.468.884 1.4c1.333 1.995 2.935 3.785 4.812 5.24.174.143.34.296.518.434l.548.402 1.097.803c.759.49 1.554.934 2.367 1.289.31.111.655.34.977.521.388.209.764.434 1.172.572.408.141.821.259 1.243.35.38.078.8.272 1.22.349.35.078.7.164 1.047.231.333.059.66.129.993.16.335.026.669.054 1 .102.518.06 1.04.204 1.56.237.52.043 1.04.08 1.542.075.532 0 .998-.024 1.482-.033.482-.011.965-.014 1.455-.005a54.85 54.85 0 0 0 2.071.016c2.578-.042 5.153-.089 7.749-.04 1.093.02 2.186.005 3.277-.001l1.81-.036.903-.007.442.008.361.017c.888.059 1.766.004 2.665.011l.065.131c.413.852.948 1.445 1.465 2.28.034.056.137.107.15.079a.474.474 0 0 0 .011-.304c-.064-.185-.174-.373-.267-.555l-1.097-2.126-.996.003c-.112 0-.238-.11-.27-.178-.015-.032.198-.121.322-.13l1.187-.064c.232.4.478.777.751 1.115l.716 1.517c.1.28.196.56.303.84.075.195.22.528.284.568.048.03.085.062.123.092l.31.655c.003.095.001.192.004.289l-.704-1.067c-.034-.05-.115-.053-.134-.014-.018.038-.001.176.034.243l1.478 2.844a.492.492 0 0 0 .091.131.602.602 0 0 0 .224.112c.012 0-.024-.182-.064-.269-.254-.558-.618-1.07-.78-1.667l.004.003-.001-.003c.045-.007.084-.015.12-.025l3.119 6.598c1.38 2.917 4.827 2.917 6.207 0l5.747-12.16 9.348-.384c.828.012 1.653.03 2.464.068l1.567.063 1.573.1c1.05.059 2.107.1 3.173.119.516.01 1.03.042 1.541.073l2.724.17c.908.054 1.877.037 2.824.03 2.8-.165 5.59-.887 8.17-2.077a23.626 23.626 0 0 0 7.743-5.698 23.634 23.634 0 0 0 4.911-8.813l.057-.175c.425-1.194.637-2.448.857-3.704.058-.633.11-1.27.155-1.909.028-.332.03-.62.034-.91l.005-.88c0-.34.018-.685.037-1.023.209-3.685.263-7.399.336-11.11l.027-1.543.246-9.225.142-8.568.116-5.05c.007-.43.029-.819.022-1.283l-.044-1.439c.005-.964-.175-1.914-.305-2.869z" fill="#EAEBEC"/><path d="M87.415 154.578c-.643-.031-1.287-.044-1.931-.091l-1.936-.25c-1.39-.242-2.772-.522-4.122-1.052-2.742-1.039-5.335-2.51-7.584-4.435a24.71 24.71 0 0 1-5.512-6.707c-.212-.411-.425-.775-.648-1.107-.221-.333-.468-.629-.682-.936.042.24.036.353.081.452.986 2.495 2.506 4.76 4.292 6.695.467.468.893.977 1.399 1.404l1.498 1.29 1.606 1.145c.262.198.544.366.83.528l.854.494.634.364c.213.12.442.209.661.314l1.332.598c.439.209.916.328 1.371.492.463.146.916.32 1.386.436 1.874.456 3.805.788 5.697.786a7.73 7.73 0 0 0 .902-.03c.287-.03.559-.107.42-.234-.073-.065-.36-.148-.548-.156M107.095 154.056a13.5 13.5 0 0 1-1.234.064 7.231 7.231 0 0 1-1.345-.106c-.211-.038-.449.015-.674.017-2.147.012-4.29.062-6.44.026-2.608-.045-5.187.09-7.772.181-.163.006-.352.03-.464.097-.104.062-.19.2-.16.289.033.094.266.253.324.238.728-.188 1.426.059 2.133.136.056.006.113-.001.17-.002l3.882-.118 7.594-.25 2.28-.082 1.14-.046.892-.059c.19-.013.383-.073.579-.111l-.016-.241c-.296-.013-.597-.06-.89-.033M118.193 64.745c.445.01.9.034 1.335-.016 1.113-.126 2.213-.245 3.326.013.201.047.448.018.668-.004 1.89-.193 3.787-.204 5.688-.131.449.019.899.03 1.346.011 1.717-.075 3.412-.44 5.156-.194.075.01.21-.068.26-.127.043-.052.034-.186-.01-.201a1.388 1.388 0 0 0-.473-.096l-3.7.004c-2.125.036-4.247.008-6.376.159-1.818.13-3.674-.005-5.513-.022l-.002.056c-.392 0-.785-.019-1.175.008-.21.016-.42.098-.61.176-.073.029-.125.137-.11.201.011.062.12.162.19.163M157.18 67.215c.639.17 1.245.474 1.86.729.61.266 1.23.493 1.807.781.666.307 1.294.62 1.878.985.566.396 1.104.812 1.636 1.243l-.014-.004c.426.248.807.565 1.202.862l1.176.909c.746.654 1.474 1.339 2.185 2.044.382.429.751.88 1.13 1.318.185.218.39.426.578.625.186.215.396.413.381.204-.008-.09-.122-.344-.232-.483-.67-.776-1.315-1.58-2.035-2.3l-1.098-1.058-.547-.528-.581-.484c-.756-.622-1.494-1.265-2.323-1.764l-1.222-.78c-.408-.256-.851-.446-1.277-.667-.505-.241-.986-.553-1.503-.775l-1.475-.575-.739-.276c-.248-.09-.505-.144-.757-.215-.071-.02-.206.014-.21.05-.004.038.101.135.18.159M140.282 64.693c.545.226 1.14.19 1.753.146 1.013-.076 2.078-.255 3.038-.121 1.531.215 2.979.117 4.453-.094.136-.021.242-.128.474-.258-.999-.322-1.884-.482-2.857-.27l.009-.005c-.618.232-1.28.159-1.945.147l-4.865-.027c-.122 0-.333.137-.342.218-.008.084.15.21.282.264M172.163 74.058c.912 1.094 1.841 2.17 2.578 3.357l.596.887c.188.3.352.612.534.915.34.608.749 1.184 1.085 1.783.123-.317-.014-.755-.387-1.414-1.809-3.255-4.362-6.189-7.474-8.586l-.095.091c1.165.901 2.158 1.945 3.163 2.967M169 71l.007.007.004-.004L169 71zM178.548 101c-.13.523-.22.88-.31 1.234l-.009-.013c.206.453.187.942.153 1.454-.063 1.22-.128 2.442-.19 3.663-.032.553-.052 1.111-.124 1.656-.11.84-.127.835.264 2.006.063-.166.153-.3.16-.442.1-1.716.211-3.43.265-5.151.042-1.279.007-2.562-.006-3.843 0-.13-.09-.26-.203-.564M177.98 126.46c.005-.147-.042-.306-.066-.46-.037.032-.074.045-.076.07-.079 1.402-.279 2.772-.206 4.215.026.315-.006.782-.043 1.172a8.854 8.854 0 0 1-.197 1.18c-.07.263-.1.523-.144.783a8.592 8.592 0 0 0-.117.792c-.057.542-.082 1.123-.131 1.788.511-1.362.765-2.61.78-3.85.022-.418-.011-.901.058-1.24l.06-.325.037-.272c.02-.18.035-.363.045-.546.02-.365.023-.732.018-1.101-.01-.736-.048-1.476-.019-2.205" fill="#EAEBEC"/><g transform="translate(177 92)"><mask id="f" fill="#fff"><use xlink:href="#e"/></mask><path d="M.84.737A1.303 1.303 0 0 0 .798.411C.717.16.657.342.6.526l.002.007C.573.749.51.999.53 1.163.686 2.466.59 3.739.51 5.02c-.056.886.014 1.714.146 2.527.053-.206.07-.41.077-.618.029-.705.029-1.43.086-2.115C.932 3.451.866 2.097.84.737" fill="#EAEBEC" mask="url(#f)"/></g><path d="M106.657 64.387c.091-.002.184-.046.268-.084.03-.014.038-.064.075-.134-.1-.057-.209-.173-.31-.169-1.827.072-3.663.038-5.69.254.215.188.248.242.282.242l5.375-.109zM138 154.141c.03.102.095.26.191.271l2.022.219c.675.065 1.351.125 2.03.252.225.035.502-.105.757-.166-1.425-.771-3.102-.686-4.75-.717-.081 0-.259.112-.25.141M143 154.002l.038.01c.002-.003.005-.004.008-.006l-.031-.006-.015.002M116.857 64.353c.063-.008.148-.123.143-.182-.007-.055-.116-.11-.19-.152-.035-.02-.096-.02-.143-.018l-4.579.258c-.02 0-.037.068-.088.168 1.199.019 2.37.037 3.541.057.439 0 .88-.073 1.316-.131M166.147 68.998c.299.236.597.47.906.692.609.45 1.268.835 1.861 1.31l.086-.097c-.538-.569-1.151-1.048-1.764-1.543a27.725 27.725 0 0 0-.853-.646l-.918-.556c-.142-.084-.31-.107-.465-.158.078.1.118.2.235.299.297.248.6.48.912.699M78.491 66.889l1.446-.633c.48-.215.988-.341 1.483-.512l.024.045c.402-.126.805-.26 1.212-.374l1.235-.26c.055-.012.093-.087.109-.13.004-.014-.079-.028-.132-.024-.249.018-.508.024-.75.072a22.764 22.764 0 0 0-4.697 1.596c-.243.107-.507.247-.394.325.038.026.318-.042.464-.105M178.191 116.117c-.063.062-.118.133-.178.2l.007-.007c.012.437.064.877.025 1.308-.058.685-.067 1.358.015 2.382.207-.49.346-.677.36-.877.068-.98.125-1.963.134-2.947.002-.25-.222-.2-.363-.06M62.553 114.812L62.328 111c-.134.165-.228.226-.231.294-.044.934-.089 1.867-.097 2.803-.002.255.112.517.196.76.025.077.128.15.191.143.061-.009.168-.128.166-.188M63.97 81.294c.04-.117.039-.276.002-.293-.03-.015-.16.128-.214.239-.236.44-.347.918-.477 1.374-.111.464-.233.913-.281 1.386.145-.46.35-.897.506-1.35.17-.446.293-.912.464-1.356M176.497 84.047c.066.35.12.62.17.846.102.45.19.721.333 1.107a19.485 19.485 0 0 0-.241-1.545c-.05-.25-.095-.5-.155-.74l-.193-.714c-.043-.161-.15-.286-.227-.426L176 82c.016.25.067.498.183.744.13.537.248.951.314 1.303M177.244 108c-.2 1.119-.27 1.975-.235 2.85.002.055.117.112.184.148.024.012.086-.028.093-.06.194-.874.45-1.75-.042-2.938M92.03 64.391c.257.065.525.11.765.156.372-.043.708-.07 1.034-.124.073-.012.126-.114.168-.179.014-.025-.021-.087-.055-.097-.65-.198-1.294-.212-1.915.053-.042.017-.03.183.002.191M176.128 133.178c-.058.216-.098.43-.127.648-.01.076.064.173.123.174.058.003.196-.105.22-.172l.205-.612c.057-.21.063-.426.098-.654l.167-1.562c-.29.572-.472 1.06-.576 1.514-.056.228-.072.447-.11.664M175 80l.035.07c-.004-.015-.011-.032-.014-.049L175 80zM175.514 81.308L175 80c.086.447.203.896.352 1.351.075.232.158.465.25.7.087.235.16.486.252.733.033.092.121.23.124.215.015-.083.037-.218.007-.319-.07-.232-.132-.47-.213-.698l-.258-.674zM177.39 113.885c.301-.546.208-1.083-.075-1.885-.313.753-.366 1.264-.276 1.803.014.08.094.181.154.195.06.015.158-.043.196-.113M163 65.878c-.443-.264-.883-.536-1.364-.722-.257-.11-.637-.257-.636-.057.502.255 1.02.475 1.516.773.38.21.47.125.484.006M163.003 67c0 .003-.002.005-.003.008a.485.485 0 0 1 .023.012l-.02-.02zM74.954 69.004a4.02 4.02 0 0 0-.714.23c-.435.201-.916.396-1.24.766.527-.275.949-.414 1.336-.596.446-.198.793-.438.618-.4M143 154.401c.668.316 1.334.27 2 .003l-1.005-.345c-.504-.152-.82-.003-.995.342M145.013 154.01l.025-.01c-.012.004-.025.004-.038.007l.013.003M87.882 64.248L89 64.186a3.837 3.837 0 0 0-.646-.152L88.03 64c-.116-.003-.263.012-.393.023A7.4 7.4 0 0 0 86 64.39c.18.01.362.052.537.03l1.345-.17z" fill="#EAEBEC"/><g transform="translate(178 88)"><mask id="h" fill="#fff"><use xlink:href="#g"/></mask><path d="M.184 1.969c.1-.264.114-.567.088-.884A5.042 5.042 0 0 0 .208.602L.08.114C.07.693-.08 1.257.13 1.942c.01.035.043.052.053.027" fill="#EAEBEC" mask="url(#h)"/></g><path d="M178.009 112.616c-.035.077.043.247.102.35.024.04.177.046.199.011.124-.214.227-.444.349-.692l-.266-.285c-.131.202-.284.393-.384.616M62.193 129c-.036.002-.095.026-.104.055l-.089.375.111.53c.007.023.07.044.105.04.036-.005.083-.032.098-.065.13-.297.182-.6-.012-.891-.019-.03-.072-.046-.109-.044M64 79c.71-1.196.736-1.17 1-2-.433.692-.79 1.312-1 2M62 97v1.969l.243.031c0-.673.067-1.354-.243-2M62.699 86.157c.031-.049-.026-.152-.088-.157a.477.477 0 0 0-.261.142c-.19.28-.27.567-.35.855l.23.003c.121-.284.273-.565.469-.843M177.13 88.06c.084.362.107.915.511.94l-.164-1.74L177 87c.042.354.048.709.13 1.06" fill="#EAEBEC"/><path d="M177 87a.07.07 0 0 1 .001.014l.011.009L177 87zM71.065 71.982c.14-.08.34-.238.489-.393.154-.164.298-.336.446-.51L71.95 71c-.18.147-.376.268-.536.44-.352.36-.514.635-.35.542M176.595 85c-.064-.313-.067-.524-.172-.74-.045-.074-.276-.173-.423-.26.031.182.046.347.096.55.024.083.251.23.499.45M178.278 124c-.085.1-.175.19-.254.302-.022.033-.03.13-.02.185l.12.513c.094-.166.19-.326.278-.5.02-.04.003-.125.003-.185l-.127-.315M177.17 121.014c-.214.18-.183.462-.135.732.015.083.093.146.166.254.075-.14.19-.262.195-.389.004-.196-.064-.397-.11-.592-.004-.018-.086-.03-.115-.005M177.194 116c-.062.046-.178.084-.182.143-.02.264-.008.534-.008.857.16-.096.285-.146.283-.174-.02-.278-.058-.551-.093-.826M177 96c.415-.943.316-1.503.062-2L177 96M177.198 129.074c-.085.188-.141.415-.198.598.088.16.131.301.19.324.056.021.161-.049.191-.131.054-.16.086-.353.096-.538.006-.103-.033-.265-.081-.306-.05-.045-.168-.014-.198.053M177.374 97.385c.015-.091-.075-.39-.112-.385-.089.01-.175.145-.262.232l.155.768c.103-.275.187-.423.219-.615M69.05 73.996c.118-.07.281-.16.368-.256.216-.239.415-.49.58-.723.022-.033-.143-.01-.155.001l-.839.913c-.014.019.011.086.047.065M98 64.004c-.68 0-1.045-.012-1.41.004-.168.008-.331.068-.59.123 1.004.107 1.004.107 2-.127M111 64.241c-.112-.133-.168-.243-.208-.241-.267.016-.53.055-.792.088.07.085.14.243.213.243.25.002.499-.052.787-.09M177 103l.051.889c.004.044.071.115.076.11.053-.06.14-.135.14-.203-.006-.268.061-.594-.267-.796M151.481 154l-.481.259c.162.032.337.104.478.091.181-.022.402-.106.448-.171.031-.041-.224-.095-.445-.179M175 143c.27-.536.563-1.065 1-2-.7 1.059-.72 1.049-1 2M62.273 100.735c0-.235-.043-.47-.072-.735-.094.141-.205.25-.2.313.017.238.072.459.114.687.054-.089.158-.175.158-.265M62 94.003l.07.99c0 .014.063.002.151.002l-.057-.978c-.004-.03-.107-.011-.164-.014M177 124.698c-.006.06.087.146.187.302.028-.306.062-.543.064-.783.001-.07-.088-.144-.137-.217-.04.233-.093.46-.114.698M66.809 75c-.204.152-.335.218-.44.341-.134.158-.247.364-.369.549.077-.016.187-.004.226-.057.186-.241.354-.502.583-.833M177 90.571l.303.429c.026-.144.089-.302.069-.422-.034-.207-.12-.388-.185-.578l-.187.571M177.264 101.521l-.066-.521c-.069.141-.15.261-.197.439-.012.049.075.277.116.422l.147-.34zM62.017 109.043L62 109l.007.068.01-.025zM62.18 109.117c-.007-.056-.083-.125-.085-.116-.037.11-.106.304-.093.34.086.238.189.445.287.659l-.108-.883zM62.106 103l-.106.477.143.523c.044-.109.135-.246.124-.322-.034-.239-.104-.454-.161-.678M177.146 122c-.052.132-.132.247-.146.401-.007.095.085.252.131.38l.152-.39-.137-.391zM63 134.175c.022.212.09.437.14.655.051-.054.155-.096.147-.167-.024-.214-.088-.436-.138-.663-.052.059-.156.102-.149.175M76.184 68.281L76.53 68h-.192c-.115.094-.24.189-.338.281-.011.012.118.002.183 0M62.075 124c-.025.033-.076.07-.075.096l.033.472c.027-.033.075-.069.074-.097-.004-.16-.019-.314-.032-.471M63.171 128.488L63.1 128c-.036.039-.102.103-.1.116l.073.488c.035-.038.099-.1.098-.116M176 136.24c.024.048.034.146.062.128.03-.017.059-.152.087-.238-.022-.047-.042-.147-.066-.127-.024.017-.056.154-.083.237M177.096 126.318c.023-.021.034-.134.052-.205L177 126l.004.244c.03.027.068.094.092.074M177.125 86.199L177 86l.059.298zM178 123.18l.014.29.17-.105-.111-.365-.073.18M62 91.562c-.002.013.056.07.086.104l.081-.565c.002-.012-.056-.066-.087-.101l-.08.562M168.029 148.161l.122-.161-.151.083zM62.032 126.247l.051-.215L62 126zM175 139.241l.118-.126-.036-.115zM177.087 128.263c.002-.079.015-.175.003-.236-.007-.035-.054-.019-.082-.027-.002.08-.015.173-.003.235.007.036.053.019.082.028M62.203 120l-.003-1c-.34.341-.184.67.003 1M62 119.046c.004-.005.004-.01.009-.016l.053-.009L62 119v.046zM176.027 82.077l-.006-.039c-.006-.014-.014-.025-.019-.038-.002.005-.001.011-.002.015l.027.062zM177.041 92.208l.039-.205L177 92zM177.077 107.03L177 107l.028.214zM62.012 117.667l-.002-.627.008-.04-.014.03-.004.66.117.062-.105-.085z" fill="#EAEBEC"/><path d="M62.078 117l-.078.401c.025-.051.055-.098.072-.168.014-.059.004-.154.006-.233M62.061 121.278L62 121c.003.044.004.089.011.126.011.059.033.103.05.152" fill="#EAEBEC"/><path d="M62.021 121.146c-.002-.041-.007-.08-.01-.12L62 121v.049l.021.097zM176.063 137.237l.032-.237-.095.185zM172.907 143.25c-.167.198-.333.44-.486.733-.152.292-.29.636-.421 1.017l.47-.836c.152-.286.318-.57.437-.904L173 143l-.036.093-.057.157zM175 142.155l.068-.134.006-.021a.423.423 0 0 0-.014.031c-.021.041-.04.083-.06.124M169.591 71.537l.004-.004a.043.043 0 0 1-.007-.006l-.577-.521-.008-.006-.003.004.591.533zM62.209 119l-.209.043.172.055.001-.002.073.099z" fill="#EAEBEC"/><path d="M99.345 144.047l5.974 12.672c1.433 3.041 5.017 3.041 6.45 0l5.975-12.672 23.225-.577c12.667 0 23.031-10.302 23.031-22.892V82.892C164 70.302 153.636 60 140.969 60H70.03C57.364 60 47 70.301 47 82.892v37.686c0 12.59 10.364 22.892 23.03 22.892h15.335l13.98.577z" fill="#FFF"/><path d="M156.892 70.15l-.035-.021.091.118-.056-.096zm4.785 42.204l.03.594c.014-.132.04-.272.038-.39-.001-.184-.021-.352-.036-.565-.015.16-.034.285-.032.361zM47.53 86.584c.014-.123.03-.232.041-.382.002-.035-.017-.21-.027-.32l-.03.28.016.421zm112.995 41.934l.281-.758c.061-.244.12-.47.173-.685.106-.43.195-.814.268-1.187.148-.61.221-1.24.325-1.855.117-.587.095-1.187.13-1.78l.038-.893c.01-.301-.002-.621 0-.932l-.008-5.314-.14.146-.004-5.126c0-.211.026-.421.04-.63l-.002.01.053-1.535-.001.034c.036-.563.006-.828-.049-.982l-.009-.074c-.035-1.35-.09-2.621.015-4.03.062-.838.042-2.028-.009-3.568l-.095 2.842-.055-4.708c-.006-.59.03-.92.083-1.11l.023.945c.006.144.034.197.052.291.001-.221.012-.517.001-.652-.019-.238-.051-.38-.077-.56l-.035-.348c-.072-.96-.074-.986.014-1.885.066-.68.008-.96-.036-1.314l.002.02c.046-1.152.12-2.263.023-3.536a14.72 14.72 0 0 1-.011-1.203c.024-.82-.01-1.228-.08-1.591-.034-.171-.03-.543.002-.832.017-.153.043-.46.038-.555-.055-.806-.033-1.715-.101-2.512l-.066-1.236c-.013-.412-.118-.812-.175-1.211l-.127-.787-.062-.402-.101-.397-.395-1.596a14.05 14.05 0 0 0-1.156-3.088l-.396-.832c-.147-.26-.307-.5-.456-.734-.311-.46-.57-.904-.886-1.245-.636-.691-1.15-1.52-1.827-2.228-.056-.061-.131-.189-.101-.172.245.138-.158-.276-.325-.42-.297-.277-.66-.496-1.001-.803-.36-.287-.692-.674-1.152-1.043.16.119.335.219.481.352-.044-.044-.097-.102-.136-.124l-.332-.216-.383-.288.011.01c-.383-.291-.735-.63-1.145-.885l-1.206-.794a3.542 3.542 0 0 0-.7-.378 4.98 4.98 0 0 0-.573-.212 5.5 5.5 0 0 1-.686-.29c-.382-.228-.787-.336-1.166-.483-.386-.13-.76-.267-1.153-.373a9.531 9.531 0 0 1-.863-.218c-.415-.149-.804-.3-1.217-.379a12.912 12.912 0 0 0-1.313-.133 6.165 6.165 0 0 1-.588-.083c-.246-.036-.523-.04-.753-.057-.535-.028-1.136-.085-1.592-.082-1.52.068-2.714.044-3.737-.095-.278-.038-.87-.045-1.034.004-.361.109-1.103.112-1.982.111l-4.984.004-3.429-.05-.314-.028c-.094.005-.186.01-.278.013l-.057.008-2.412.05c-1.481.017-2.942.038-4.31-.07a15.61 15.61 0 0 0-2.54.01c-.28.025-.736.042-1.119.044-1.485.007-2.96.041-4.466-.006-.687-.021-1.482-.006-2.228-.005l-2.748.004c-3.741-.008-7.48-.016-11.22-.026l-7.258-.02c-2.89-.015-5.747-.066-8.674-.053l-7.743-.022c-.786.049-1.578.053-2.317.11-.735.095-1.427.152-2.03.183l-1.25.427a9.812 9.812 0 0 1-.654.185c-.228.065-.465.152-.731.22l.271-.121-.152.058-.128.065c-.425.171-.849.354-1.279.51l-1.328.637c-.22.108-.446.206-.662.324l-.63.382c-.417.262-.853.494-1.254.778l-1.185.881c-.147.109-.42.278-.42.278-.044-.098-.492.32-.89.705-.253.254-.522.471-.756.726l-.712.776c-.234.263-.493.508-.706.793l-.64.856c-.204.292-.444.56-.622.872l-.554.916c-.137.302-.328.592-.465.922-.143.326-.297.658-.456.994-.348.656-.59 1.38-.841 2.075-.094.285-.218.552-.282.83l-.216.802c-.074.257-.15.506-.23.745l-.122.35-.093.345a8.56 8.56 0 0 0-.235 1.135c-.03.208-.056.422-.076.638-.006.218.008.44.018.658.02.335.02.687.01 1.054l-.021.562v.614l-.021 7.787c-.002.844-.006 1.68-.063 2.39-.038.482-.028.908.01 1.362.014.178.021.456.022.692.009 1.92.016 3.846.023 5.758a105.7 105.7 0 0 1-.076 4.148c-.066 1.52-.088 3.214.033 4.791.05.638.064 1.546.083 2.355.024 1.023-.148 1.147-.124 1.982.023.771.149 1.191.093 2.329-.014.298-.022.653-.022.977l.021 1.477.002-.017a9.658 9.658 0 0 0 .03 1.873c.055.526.099 1.04.127 1.563.08.517.15 1.042.197 1.598.026.203.032.499.114.782.073.284.151.57.216.774.102.324.197.657.287.996.1.335.238.662.353.997l.36.993c.128.324.304.624.458.924.114.21.27.573.374.826.278.65.67 1.166 1.043 1.78.23.405.56.748.831 1.126.295.36.536.757.848 1.079.603.656 1.094 1.344 1.571 1.872.057.07.163.18.263.281.327.32.738.762.975.844.68.295 1.542 1.015 2.71 1.71.261.159.516.35.802.487.286.138.574.279.858.418.826.448 1.752.72 2.324 1.056.113.06.526.24.829.303.689.172 1.374.411 2.073.525.983.142 1.986.355 2.917.267.428-.019 1.319.057 2.063.03.737.1 1.784.077 2.773.075.85-.002 1.673.005 2.395.058.875.064 2 .053 2.545-.007.697-.076 1.276-.05 2.004-.051 1.298-.002 2.127.08 3.02.156l.05.026-.073-.024c.42-.074 1.06-.11 1.901-.09l4.52.198 2.258.118 1.126.068.561.036.276.018.028.006c.092.018.195.023.297.017.156-.01.288.02.414.06.012.005.016.02.027.033l-.231.1c.153.006.249.014.348.012a.116.116 0 0 0 .113-.076.11.11 0 0 1 .139-.07.539.539 0 0 1 .182.095.325.325 0 0 0 .188.087c.428.043.844.106 1.229.208.038.01.086.012.131.009.225-.011.39.052.544.129l.507.253c.02.01.045.013.069.017l.46.08c.059.01.117.022.132.077-.04.008-.062.014-.078.014l-.214-.004-.01-.014.013.013c.007.027.065.035.006.089-.027.003-.057.011-.083.011-.07 0-.142 0-.207-.008-.108-.013-.122.132-.223.122l.051.094v-.002c.054.02.102.048.164.058l.552.079c.035.005.061.021.096.033a.883.883 0 0 1-.493.15l-.478.013c-.096.005-.159-.017-.197-.07a.585.585 0 0 1-.302.097 3.405 3.405 0 0 0-.374.025l-.742.108c-.134.017-.26.01-.39.017-.305.013-.622.07-.926.084-.448.018-.907.074-1.354.107l-.152.01-.038.003-.29-.003-.698-.011-2.79-.054-2.786-.075-1.393-.045c-.461-.019-.97 0-1.453 0l-7.374.044-3.688.02-1.843.01c-.613.004-1.22.014-1.888-.028l-1.317-.05c-.446.005-.88-.09-1.318-.144l-1.304-.2c-.855-.186-1.694-.441-2.53-.686a98.61 98.61 0 0 0-2.183-.844c-.707-.34-1.424-.681-2.157-1.032a24.079 24.079 0 0 1-6.961-5.61c-1.351-1.636-2.583-3.414-3.457-5.368a24.345 24.345 0 0 1-2.348-9.843l-.03-.634v-.6l-.001-1.197-.003-2.395-.009-4.79.002-15.105.01-13.604c.037-2.486.376-5.002 1.1-7.4a24.749 24.749 0 0 1 5.32-9.192c.36-.388.754-.875 1.096-1.126l1.591-1.328c.553-.41 1.094-.838 1.638-1.314.122-.103.44-.273.665-.412l.91-.547.455-.273c.156-.083.318-.155.477-.234 3.473-1.773 7.376-2.72 11.255-2.693l4.745.005 13.263.068c4.676.014 9.354.028 14.031.044l16.78.073 20.815.037c.615-.012 1.277.027 1.935.063.656.037 1.315.05 1.963.177.648.112 1.305.177 1.944.334l1.909.5c2.508.8 4.881 2.005 7.01 3.55a24.435 24.435 0 0 1 6.533 7.145c2.271 3.67 3.363 8.005 3.44 12.302l.053 19.405.037 13.344.023 5.034c-.021.864-.073 1.76-.114 2.638-.137.873-.236 1.755-.413 2.621-.834 3.808-2.6 7.41-5.04 10.412a23.979 23.979 0 0 1-8.044 6.333c-1.085.576-2.256.953-3.407 1.37l-1.78.463-.445.114-.453.071-.909.141-.908.14c-.303.04-.607.04-.91.06l-1.816.09-3.477.09-13.91.322-3.942.08-.986.021-.494.011-.06.001h-.047c-.961.632 1.304-.858 1.071-.703l-.001.003-.004.008-.053.112-.105.224-.843 1.795-3.378 7.175-.913 1.93-.458.966-.228.482-.314.576c-.459.755-1.12 1.446-1.97 1.887-.839.45-1.865.601-2.81.393-.949-.196-1.79-.725-2.4-1.394-.618-.65-1.018-1.544-1.259-2.09l-1.684-3.733-1.298-2.924-.646-1.469-.066-.177-.241-.652-.429-1.13-.34-.886a7.37 7.37 0 0 1-.261-.915c-.015-.06-.012-.135-.018-.212.084-.033.156.03.224-.08.091-.147.192-.146.294-.075.05.034.105.053.153.095.239.216.5.384.73.663.226.275.48.503.686.84l.423.666.212.336 1.734 3.522 2.608 5.393c.107.228.22.468.304.604.047.08.087.167.136.243l.16.217c.095.158.238.254.348.39.137.093.253.225.4.29.273.178.58.264.881.294.305.039.615-.012.908-.128.31-.117.717-.36.868-.703-.555.623-1.217.836-1.861.775-.425-.053-.693-.219-.946-.409-.253-.194-.477-.48-.72-.987.41.764 1.072 1.22 1.738 1.293.335.035.675-.018.994-.171.318-.157.608-.407.858-.722l.181-.248.153-.28c.05-.08.113-.215.174-.347l.184-.39.739-1.559 1.484-3.104c1.117-2.323 2.207-4.731 3.35-6.986l.102-.208.053-.113.027-.058.006-.015.003-.007.002-.003c.444-.293-.995.653.997-.656h.034c.17-.01.339-.02.488-.027a37.652 37.652 0 0 1 2.7-.071c.548 0 1.145-.021 1.721-.035l5.509-.124 3.505-.068 7.516-.173c.622-.017 1.264-.022 1.869-.049l1.797-.088c1.183-.155 2.371-.296 3.517-.638l.999-.255c.296-.098.549-.167.714-.175.074-.002.48-.132.742-.225.19-.069.38-.131.565-.207.178-.09.354-.177.53-.264.345-.177.678-.355.987-.533.354-.182.68-.44 1.034-.671l1.08-.71c.347-.27.7-.543 1.053-.819l.537-.409c.173-.144.333-.304.502-.455.306-.283.794-.692.951-.788.333-.187.622-.513.962-.86.325-.36.706-.745 1.01-1.239.19-.28.42-.592.814-1.141-.587.746-.936 1.279-1.363 1.741-.074.08-.195.18-.206.174-.013-.006.055-.111.128-.202.135-.154.28-.347.41-.535a22.538 22.538 0 0 0 4.313-9.239c.024-.164.072-.328.118-.534-.022.315-.018.56-.068.796-.16.581-.24.87-.32 1.204-.04.166-.08.342-.133.574-.053.23-.159.498-.274.865z" fill="#333"/><path d="M104 151.964l-.513-1.086-1.986-4.039-.232-.465-.029-.05-.057-.099-.115-.198c-.007-.013-.022-.02-.033-.026-.005-.002-.015-.001-.018.004-.007.014-.02.039-.017.045.036.076.073.152.114.223l.08.14.01.016.005.009.02.039.174.349.349.7 1.178 2.372 1.054 2.102.016-.036zM105.525 155.49c-.099-.1-.247-.254-.377-.388-.069-.066-.144-.115-.148-.099-.005.018.049.116.11.186l.333.382c.06.07.109.117.154.157l.139.128a.584.584 0 0 0 .263.144c.016-.004-.13-.123-.195-.218-.056-.072-.128-.113-.28-.292M108.185 157.087c-.062-.032-.162-.086-.18-.087-.019 0 .022.047.067.078.046.03.124.067.187.096l-.074-.087z" fill="#333"/><path d="M149.274 105.13l.144-.068c.056-.026.1-.022.14.027.013.017.05.02.077.03.034-.072.083-.076.15-.03.052.037.093.06.055.135-.03.063.087.065.128.104.019.018.038.063.03.068-.029.021-.074.046-.104.04-.08-.018-.156-.05-.257-.084.114.212.114.212.113.366-.154-.022-.3-.142-.464-.04.008.07.078.052.125.062.158.032.236.128.287.246.03.072-.037.135-.123.115-.102-.022-.201-.088-.318-.005.027.015.054.025.075.04.083.058.095.117.016.155-.132.064-.27.126-.416.16-.117.029-.24.021-.296.14-.01.017-.062.035-.086.029-.185-.046-.336.069-.514.072-.128.002-.253.05-.39.014-.043-.013-.103.014-.156.023-.053.008-.11.025-.159.019a2.75 2.75 0 0 0-.949.029c-.022.004-.045.011-.065.008-.264-.058-.526.01-.79.008-.434-.004-.853.03-1.298.054-.18.006-.352.02-.513-.024a1.46 1.46 0 0 0-.679-.01c-.245.051-.486.046-.747.028-.385-.026-.777-.03-1.167-.041a.974.974 0 0 0-.229.02c-.185.043-.371.03-.569.03-.722-.002-1.446.01-2.17.021l-1.17.026c-.822.006-1.647.025-2.465.001-.55-.016-1.089.029-1.636.016-.527-.014-1.059.018-1.584.001-.471-.015-.934-.034-1.4.02-.11.013-.233-.003-.35-.002l-1.055.012-1.524.004-2.395.017c-.135 0-.271-.027-.404-.024-.348.009-.698-.038-1.044.022a1.622 1.622 0 0 1-.349.008 23.304 23.304 0 0 0-2.405.002c-.153.007-.335.017-.464-.013-.271-.062-.527-.045-.791-.01-.176.022-.34-.01-.508-.013-.145-.003-.292.05-.442.059a2.8 2.8 0 0 1-.465-.017 4.096 4.096 0 0 0-.813-.021c-.86.063-1.722.02-2.583.016l-2.114.004-4.643-.025-.645.008c-.197.004-.392.018-.587.017l-3.996-.03-1.232.014c-.271 0-.544-.018-.816-.027-.194-.006-.4-.033-.58-.013-.508.058-1.014.032-1.523.031l-.996.013h-1.583l-1.525-.03a47.735 47.735 0 0 0-1.702.008c-.373.01-.742.006-1.113.003l-2.643-.006-2.117-.012-2.466.012c-1.157-.004-2.315-.04-3.469-.019-1.921.038-3.84-.03-5.76 0-.565.009-1.132-.016-1.699-.025l-1.289-.02a2.58 2.58 0 0 1-.447-.044 1.408 1.408 0 0 0-.567-.005c-.264.05-.511.064-.785-.012-.155-.044-.378-.04-.571-.044l-3.175-.037c-.273-.004-.546-.02-.82-.029-.197-.01-.397-.018-.593-.027l-2.646-.072a1.663 1.663 0 0 1-.833-.235c-.08-.049-.168-.086-.254-.127-.121-.056-.143-.089-.096-.202.068-.167.132-.333.122-.512-.005-.096.118-.1.17-.166-.056-.1-.165-.195-.078-.33.014-.022-.07-.084-.096-.132-.043-.082.002-.15.108-.162.065-.008.133 0 .198-.01a.812.812 0 0 0 .22-.054c.106-.05.206-.106.335-.106a.18.18 0 0 0 .064-.013c.365-.143.365-.143.669-.146.088 0 .179.002.264-.013.392-.07.792-.046 1.187-.08.032-.003.07-.013.098-.005.23.07.458.014.688-.003.111-.014.505-.05.798.013.077.016.19-.006.285-.011.136-.009.272-.024.408-.026l2.699-.042 1.875-.022h.177c.957.022 1.914.012 2.871-.004l2.17-.015 3.813-.009c.038 0 .079.003.117.001 1.095-.061 2.192-.004 3.288-.018l1.407-.02.705.005.704-.01 1.348-.016.702.008.646-.005 1.932.006 2.222.01c.311 0 .625-.007.933-.024.392-.022.778-.042 1.168.009.11.013.238.018.348.005.485-.055.976-.025 1.464-.03l1.46-.014 1.11-.007 2.52.016 2.7-.04 1.41-.001c.135 0 .27.019.405.024.174.006.347.01.52.008.117-.001.233-.024.349-.022 1.037.016 2.07-.062 3.109-.017.252.011.509-.004.763-.006h.757l.408-.005.638.02c.212.007.442-.007.635.026.401.07.758.03 1.132-.04.14-.025.313-.032.462-.02.292.022.583.012.874.016.546.006 1.092.034 1.63.074.32.025.624-.009.934-.011.222-.002.466-.079.662.036.016.01.079.01.107.004.387-.093.786-.062 1.186-.031a.3.3 0 0 0 .11-.01c.27-.108.545-.062.832-.02.358.052.71.072 1.086-.004a2.33 2.33 0 0 1 1.026.008c.245.064.495.066.733.01.266-.062.524-.067.795-.018.054.01.115.023.17.02.424-.026.863.01 1.272-.031.399-.04.77-.034 1.159-.007.289.021.59.04.876.021.242-.015.46-.051.726-.029.22.019.46-.007.688.035.074.013.195-.001.266-.024a1.2 1.2 0 0 1 .711-.011c.173.046.365.05.57.032.846-.078 1.705-.053 2.56-.051.115 0 .229.02.345.03.075.006.195.024.22.008.188-.115.443-.036.66-.054.246-.02.504-.002.758.003l.703.019c.455.016.908.065 1.363-.013.098-.016.232-.005.338.01.248.04.49.068.739.007.017-.004.04-.01.054-.009.526.077 1.028-.062 1.559-.032.46.026.934-.006 1.401-.003.253.001.506.014.756.032.28.024.58.05.861.076.085.005.133 0 .158-.021.124-.097.255-.1.399-.043a.47.47 0 0 0 .345-.001c.183-.06.383-.077.583-.028.105.025.218.028.326.05.08.014.152.011.22-.028.114-.065.23-.05.348-.007.133.048.27.087.413.022.362.02.727.01 1.084.077a.261.261 0 0 1 .127.081c.045.048.084.086.163.055.063-.023.068-.063.064-.114-.001-.017.033-.05.054-.052.026-.003.06.016.082.033.012.01.012.034.014.052.005.027-.006.07.012.08.124.072.157.166.115.283.113.082.04.142-.03.205-.013.011-.01.034-.02.072.192.02.381.046.573.062.136.01.154.022.125.126-.01.037-.025.07-.039.107-.011.032-.027.065-.032.098-.001.01.027.023.041.034.01-.011.033-.025.03-.034-.01-.034-.027-.067-.041-.1M140.282 116.131l.142-.069c.055-.026.1-.022.139.027.013.017.05.02.076.03.033-.072.082-.075.15-.029.05.036.09.059.053.134-.03.063.086.065.126.104.019.019.038.064.03.069-.029.02-.074.045-.103.039-.08-.017-.155-.05-.254-.083.112.21.112.21.111.365-.152-.022-.295-.141-.458-.04.007.07.077.052.124.062.155.032.234.129.283.246.03.072-.036.135-.12.116-.103-.022-.2-.089-.316-.005.027.014.053.025.074.04.082.058.094.116.015.154-.13.064-.266.126-.41.161-.116.028-.238.02-.293.138-.009.018-.062.037-.085.03-.183-.046-.332.07-.509.072-.126.002-.25.05-.384.014-.044-.012-.102.015-.155.023-.052.008-.108.026-.157.019a2.69 2.69 0 0 0-.939.029c-.021.004-.045.012-.064.008-.262-.058-.52.01-.782.009-.427-.005-.845.029-1.281.053-.157.007-.308.02-.45-.024a1.111 1.111 0 0 0-.593-.009 2.08 2.08 0 0 1-.653.027c-.338-.026-.68-.03-1.021-.041a.75.75 0 0 0-.2.02c-.163.043-.326.03-.499.03-.632-.002-1.265.011-1.898.021l-1.025.026c-.72.006-1.44.026-2.156.002-.482-.016-.953.028-1.432.015-.46-.013-.926.018-1.385.001-.413-.014-.818-.034-1.225.02-.097.013-.204-.003-.307-.002l-.923.012-1.333.005-2.096.016c-.118 0-.237-.028-.354-.024-.304.009-.61-.038-.913.022a1.295 1.295 0 0 1-.305.008 17.74 17.74 0 0 0-2.104.001c-.135.008-.294.018-.407-.012-.236-.062-.46-.045-.692-.01-.154.022-.297-.01-.444-.013-.127-.003-.255.05-.387.059-.133.008-.277 0-.407-.017a3.171 3.171 0 0 0-.711-.022c-.752.064-1.507.022-2.26.016l-1.85.005-4.063-.025-.564.008c-.172.004-.342.018-.513.016l-3.496-.029-1.078.014c-.238 0-.476-.019-.714-.027-.17-.007-.35-.033-.508-.013-.444.057-.887.031-1.332.03l-.872.013H92.74l-1.334-.03a37.378 37.378 0 0 0-1.49.008c-.326.011-.649.006-.974.003l-2.312-.006-1.852-.013-2.159.012c-1.01-.003-2.025-.04-3.034-.017-1.681.038-3.36-.03-5.04-.001-.494.008-.99-.015-1.487-.024l-1.127-.022a1.98 1.98 0 0 1-.392-.043 1.076 1.076 0 0 0-.496-.005c-.23.05-.447.064-.687-.012-.136-.044-.33-.04-.5-.044l-2.777-.037c-.24-.004-.478-.02-.717-.03l-.553-.026-2.616-.072a1.629 1.629 0 0 1-.825-.235c-.078-.049-.166-.087-.25-.127-.12-.057-.142-.089-.096-.203.068-.166.13-.332.122-.512-.005-.095.116-.099.168-.165-.056-.1-.163-.195-.078-.33.015-.023-.07-.084-.095-.133-.043-.082.002-.149.107-.162.065-.007.132 0 .197-.009.073-.011.152-.023.216-.054.106-.05.205-.107.332-.106a.165.165 0 0 0 .063-.014c.361-.143.361-.142.662-.145.087 0 .176.001.261-.013.388-.07.783-.046 1.173-.081.033-.002.07-.012.097-.004.229.07.453.013.68-.004.128-.012.46-.05.718.014.068.016.166-.006.25-.012.119-.008.237-.023.357-.025l2.362-.042 1.64-.022h.155a54.48 54.48 0 0 0 2.512-.004l1.898-.015 3.337-.009c.033 0 .069.003.102.001.959-.062 1.919-.004 2.878-.018l1.23-.021.618.006.615-.01 1.18-.016.614.008.565-.004 1.69.005 1.945.01c.272 0 .546-.007.817-.024.342-.022.68-.041 1.02.009.097.014.21.018.305.005.425-.054.854-.025 1.281-.03l1.279-.014.97-.007 2.206.017 2.361-.04 1.233-.002c.12 0 .237.02.356.025.151.006.303.01.455.007.102-.001.203-.023.305-.021.907.015 1.811-.063 2.72-.017.22.01.445-.004.668-.006h.662l.356-.006.56.02c.185.007.386-.006.555.027.35.07.664.03.99-.04.123-.026.274-.032.404-.021.257.022.51.013.766.016.476.006.955.034 1.426.075.28.025.545-.01.817-.012.194-.001.407-.077.579.037.014.01.069.01.093.004.339-.093.688-.063 1.039-.031.03.002.075 0 .097-.01.234-.108.475-.062.726-.02.314.051.622.071.95-.004a1.78 1.78 0 0 1 .899.008c.214.063.432.065.641.01.233-.062.458-.067.695-.018.048.01.101.023.148.02.372-.026.756.01 1.114-.031.349-.04.672-.035 1.014-.006.252.02.516.038.767.02.212-.016.403-.051.635-.029.192.019.401-.007.603.035a.51.51 0 0 0 .231-.024.924.924 0 0 1 .623-.011c.15.046.319.051.498.032.74-.078 1.492-.053 2.24-.05.101 0 .2.02.302.029.065.005.17.023.193.008.165-.114.387-.037.577-.054.215-.02.442-.001.664.003l.615.02c.398.015.794.064 1.192-.013a.902.902 0 0 1 .295.01c.217.038.429.068.647.006.015-.004.035-.01.048-.009.46.077.899-.062 1.363-.032.403.026.818-.005 1.227-.003.221.001.442.014.66.032l.755.076c.072.005.12 0 .146-.021.122-.096.252-.1.394-.043.114.047.216.041.342-.001.18-.06.378-.077.576-.028.104.026.216.029.323.05.079.014.15.011.218-.028.112-.065.226-.05.343-.007.132.048.267.088.409.022.358.02.719.01 1.072.077.047.009.093.047.125.082.045.048.083.085.162.055.06-.024.066-.064.063-.115-.002-.018.032-.05.053-.052.026-.002.06.016.08.033.013.01.013.034.015.052.005.028-.006.07.012.08.123.073.155.166.113.284.112.08.04.141-.03.204-.012.011-.01.034-.019.072.19.02.378.046.567.062.135.01.153.022.124.126-.01.037-.026.071-.039.106-.011.033-.026.066-.032.1-.001.009.027.022.041.033.01-.01.032-.025.03-.033-.01-.034-.027-.068-.041-.1M126.275 127.131l.143-.069c.056-.026.1-.021.14.027.013.017.05.02.077.03.034-.072.084-.075.15-.029.052.036.093.06.056.135-.03.063.086.065.127.103.018.02.038.064.03.07-.03.02-.074.044-.105.038-.08-.017-.155-.049-.256-.083.114.212.114.212.112.366-.153-.022-.298-.142-.462-.04.007.07.077.052.125.061.157.033.236.13.286.247.03.072-.036.135-.122.115-.103-.022-.202-.088-.319-.005.028.015.054.025.076.04.082.058.094.117.015.155-.132.064-.27.127-.415.161-.116.028-.24.02-.296.139-.009.017-.062.035-.086.029-.185-.046-.335.069-.513.072-.128.002-.253.05-.389.014-.044-.012-.103.015-.156.023-.053.008-.11.026-.16.018a2.743 2.743 0 0 0-.947.03c-.022.004-.046.012-.065.008-.264-.058-.526.011-.79.008-.426-.004-.853.03-1.279.054h-.012c-.127.007-.25.02-.364-.024a.738.738 0 0 0-.482-.009c-.174.05-.345.045-.53.027-.273-.026-.55-.031-.827-.041a.485.485 0 0 0-.162.02c-.132.043-.265.03-.405.03-.512-.003-1.025.01-1.538.02-.276.01-.557.019-.831.027-.583.006-1.168.025-1.749.001-.39-.016-.772.029-1.16.015-.373-.013-.75.018-1.124.002-.334-.015-.662-.034-.992.02-.079.012-.166-.003-.25-.002l-.747.012-1.081.004-1.7.016c-.095 0-.192-.027-.287-.024-.246.009-.494-.038-.74.022a.818.818 0 0 1-.247.008c-.57-.042-1.137-.04-1.705.002-.11.007-.239.017-.33-.012-.193-.063-.375-.046-.562-.011-.125.022-.241-.009-.36-.013-.103-.003-.206.05-.314.059a1.41 1.41 0 0 1-.33-.017 2.123 2.123 0 0 0-.576-.022c-.61.064-1.22.022-1.832.016l-1.5.005-3.294-.025-.457.008c-.14.004-.278.018-.417.016l-2.834-.03-.874.014c-.193 0-.385-.018-.579-.027-.138-.006-.283-.032-.412-.012-.36.058-.719.03-1.08.03l-.706.013h-1.123l-1.082-.03a24.006 24.006 0 0 0-1.207.008c-.265.01-.526.006-.79.002l-1.875-.006-1.501-.012-1.75.012c-.82-.003-1.643-.04-2.46-.018-1.364.038-2.724-.031-4.087-.002-.4.01-.803-.015-1.205-.024l-.915-.022a1.295 1.295 0 0 1-.317-.042.712.712 0 0 0-.402-.005c-.187.049-.362.064-.556-.013-.111-.043-.269-.04-.406-.043l-2.252-.038c-.193-.003-.387-.02-.581-.029l-.505-.026-2.643-.073c-.301-.01-.585-.08-.833-.235-.079-.048-.168-.086-.254-.126-.12-.057-.142-.09-.096-.203.069-.167.132-.333.122-.513-.004-.095.118-.099.17-.165-.056-.1-.165-.196-.078-.33.015-.022-.07-.084-.096-.133-.043-.082.002-.149.109-.162.065-.007.133 0 .197-.01.075-.01.154-.023.219-.053.107-.05.207-.107.336-.106a.18.18 0 0 0 .064-.014c.364-.143.364-.142.668-.145.088-.001.179.002.263-.014.393-.07.792-.046 1.186-.08.033-.003.07-.013.099-.004.23.069.457.013.686-.004.152-.013.402-.05.616.014.054.015.135-.006.203-.012.095-.009.191-.023.288-.026l1.915-.041 1.33-.022h.126c.679.022 1.357.012 2.037-.004.512-.013 1.026-.013 1.538-.015l2.705-.009c.028 0 .057.003.084.001.777-.062 1.555-.004 2.332-.018l.999-.02.5.005a92.4 92.4 0 0 0 .499-.01l.956-.015.498.008.459-.005 1.37.005 1.576.01c.22 0 .443-.006.662-.023.278-.022.551-.042.828.008.078.014.17.018.247.006.344-.055.692-.025 1.039-.03l1.036-.014.787-.007c.596.004 1.191.02 1.787.016l1.916-.04 1-.001c.096 0 .191.019.288.024.122.006.246.01.368.008.083-.001.165-.023.248-.022.735.016 1.468-.062 2.205-.016.179.01.36-.005.541-.006h.537c.097 0 .193-.009.29-.006l.452.02c.15.007.314-.007.45.027.286.07.54.03.803-.04a.977.977 0 0 1 .328-.021c.208.022.414.013.621.016.386.006.774.034 1.156.075.228.025.442-.01.662-.012.158 0 .33-.077.47.038.011.009.055.01.076.002.275-.092.557-.061.842-.03.025.002.06 0 .078-.01.19-.108.385-.062.59-.02.253.052.503.072.77-.004.23-.065.49-.08.728.008.173.063.35.066.52.01a.975.975 0 0 1 .563-.018c.04.01.082.023.12.02.302-.025.614.01.903-.031.283-.04.546-.034.822-.006.205.02.42.04.622.02.172-.015.327-.05.515-.028.156.018.326-.008.489.034a.35.35 0 0 0 .188-.023.617.617 0 0 1 .504-.012.83.83 0 0 0 .404.033c.6-.078 1.21-.053 1.816-.052.082 0 .163.021.245.03.053.006.139.024.156.009.134-.114.314-.037.468-.054.174-.02.359-.002.538.003l.5.019c.322.016.643.065.966-.013a.578.578 0 0 1 .24.01c.175.039.346.069.523.007.013-.004.028-.011.04-.009.372.077.729-.062 1.105-.032.326.026.662-.005.994-.003.18.001.359.014.536.032l.611.076c.054.005.107 0 .133-.021.123-.096.255-.1.398-.043.115.046.218.041.345-.001.182-.061.382-.077.582-.028.106.025.218.029.326.05.08.014.151.011.22-.028.114-.065.228-.05.347-.007.134.048.27.088.413.022.361.02.727.01 1.083.077a.261.261 0 0 1 .127.082c.044.047.083.085.163.055.062-.024.067-.064.063-.115-.001-.017.033-.05.055-.052.025-.003.06.016.08.033.014.01.013.034.015.052.005.027-.005.07.012.08.124.073.157.166.115.284.113.081.04.141-.03.204-.012.012-.01.035-.02.072.191.021.381.047.572.062.137.011.155.022.126.126-.01.037-.026.071-.039.107-.012.032-.027.065-.032.1-.002.008.027.022.041.033.01-.011.032-.025.03-.034-.01-.034-.028-.068-.041-.1" fill="#BBB"/><path d="M145.886 82.19c-.006-.03-.04-.087-.056-.092-.1-.03-.157-.16-.256-.253a.905.905 0 0 0-.405-.223c-.085-.02-.09.023-.044.097l.042.062c-.12-.017-.171-.095-.258-.145-.072-.042-.144-.012-.13.04a.41.41 0 0 0 .149.24c.025.022.075.038.05.08-.126-.003-.173-.111-.281-.152a.337.337 0 0 0-.01.164c-.055-.014-.107-.033-.166-.033h-.091c0-.006.008-.007.008-.013a.925.925 0 0 1 .07-.348c.028-.078.014-.1-.055-.139-.05-.027-.1-.053-.146-.085a.853.853 0 0 0-.48-.16l-1.524-.05-.377-.018-.568-.019-1.1-.013c-.25-.002-.202-.004-.246-.006-.026-.006-.065.008-.064-.034-.005-.02-.015-.044.007-.071l.02-.026a.562.562 0 0 0-.031-.116 1.515 1.515 0 0 0-.113-.243.96.96 0 0 1-.125-.369 1.774 1.774 0 0 0-.073-.3l-.277-.84c-.122-.37-.235-.743-.368-1.109l-.31-.873a1.761 1.761 0 0 0-.439-.677 1.687 1.687 0 0 0-2.109-.171 1.668 1.668 0 0 0-.504.546c-.148.25-.23.587-.341.882l-.2.596c-.246.754-.532 1.496-.795 2.246l-.136.394-.009.031c.002.019-.012.02-.027.019h-.001L132.83 81l-1.83-.004h-1.305a1.784 1.784 0 0 0-.882.245c-.211.122-.433.32-.582.576-.284.452-.293 1.071-.105 1.472.088.2.236.445.518.663l.883.62.607.417c.287.203.563.42.872.589.11.06.216.157.324.238.15.112.296.23.45.339l.35.24.077.053h.004l.007.003c.005.006.012.01.004.02l-.006.008-.005.01-.057.16-.462 1.296-.122.385-.14.42-.746 2.117c-.17.515-.084.86.008 1.125.107.3.386.65.743.83a1.586 1.586 0 0 0 .912.167c.15-.018.324-.057.517-.146.193-.087.393-.253.59-.384l1.114-.77c.245-.168.486-.342.715-.531.147-.12.302-.221.468-.31.092-.05.187-.111.27-.176.082-.064.143-.153.226-.209.096-.064.202-.112.292-.195.135-.123.273-.235.451-.308.126-.063.086-.043.091-.054-.001-.015.01-.035.018-.024.007.006 0 .002.017.019l.331.252c.063.049.133.102.2.134l.002.001c.218.104.398.269.596.401.076.052.143.12.219.174l1.36.943.704.494c.28.184.568.434.84.545a1.602 1.602 0 0 0 .922.098c.104-.017.226-.042.322-.093.42-.196.767-.625.868-.966.056-.183.1-.408.051-.717-.054-.31-.213-.658-.312-.985l-.179-.516-.104-.277c-.065-.175-.131-.35-.189-.53-.168-.537-.367-1.067-.556-1.6l-.28-.753-.036-.067c.012-.015.034-.03.054-.044l.136-.095a.947.947 0 0 0 .146-.129.685.685 0 0 1 .12-.101c.225-.149.448-.302.676-.44.154-.094.293-.187.412-.312.109-.115.235-.21.386-.265.109-.04.201-.116.3-.19.202-.164.384-.32.59-.46.124-.086.22-.21.368-.266.01-.004.019-.017.026-.026a1.603 1.603 0 0 1 .323-.272c.084-.058.165-.123.242-.195.048-.044.084-.11.119-.17.034-.06.056-.134.088-.182.1-.147.115-.315.134-.475.024-.23-.071-.406-.11-.629M122.857 82.156c-.1-.039-.159-.175-.257-.279a.935.935 0 0 0-.417-.247c-.09-.023-.095.022-.049.099l.043.066c-.123-.022-.177-.102-.267-.157-.075-.044-.151-.015-.135.04.022.092.06.174.15.25.028.023.078.043.052.085-.13-.006-.177-.119-.29-.162a.362.362 0 0 0-.012.168c-.056-.015-.11-.034-.17-.034h-.096c.002-.006.01-.007.01-.015a.963.963 0 0 1 .071-.359c.029-.08.016-.102-.056-.142-.052-.028-.104-.055-.151-.09a.884.884 0 0 0-.497-.164l-1.576-.05-.381-.02-.564-.02-1.092-.013-.086-.002-.023-.001-.044-.003-.041-.004c-.007-.01-.01-.028-.013-.042-.005-.02-.016-.044.008-.07.006-.023.027.009.012-.052a.972.972 0 0 0-.035-.128 1.432 1.432 0 0 0-.114-.24.917.917 0 0 1-.124-.367c-.011-.094-.04-.2-.072-.298l-.274-.833-.178-.552-.09-.275-.14-.398c-.111-.292-.2-.61-.329-.882a1.72 1.72 0 0 0-2.542-.644 1.739 1.739 0 0 0-.483.536c-.147.246-.228.58-.338.874l-.219.647c-.243.747-.527 1.484-.789 2.227l-.12.345-.003.02c.001.017-.013.017-.027.017h-.003l-1.28-.008-1.817-.005-.678-.003c-.248.002-.505-.006-.746.01a1.827 1.827 0 0 0-.81.277 1.674 1.674 0 0 0-.661 2.013c.077.192.209.427.465.648.272.214.58.413.868.62.231.16.466.32.698.478.284.201.557.416.865.583.11.06.215.156.321.236.149.113.294.23.446.338l.349.238c.082.057.058.037.065.042l.006.003c.006.006.013.01.005.019l-.006.01-.003.004-.048.135-.455 1.274-.12.38c-.048.14-.094.279-.14.418l-.768 2.182c-.156.502-.06.837.02 1.089a1.614 1.614 0 0 0 1.593 1.03c.27-.01.659-.108 1.055-.425l1.239-.856c.243-.168.481-.34.71-.528.145-.12.3-.22.464-.308.091-.048.186-.11.268-.173.08-.064.142-.153.224-.208.095-.064.2-.11.29-.194.134-.123.27-.234.448-.305.035-.012.105-.057.117-.064l-.002-.007c-.002-.013.008-.038.017-.027a.026.026 0 0 1 .01.014c.009.006-.016-.01.018.016l.083.062.162.127c.062.048.133.102.2.133l.06.03c.191.102.353.248.533.368.077.05.141.12.217.173l1.35.935.732.513c.278.183.563.426.836.55.388.164.641.157.902.132.097-.013.212-.026.308-.07.41-.161.802-.546.94-.896.076-.178.116-.36.116-.631.008-.264-.123-.612-.235-.937l-.177-.511-.169-.465a8.743 8.743 0 0 1-.188-.526c-.167-.532-.365-1.058-.553-1.585l-.28-.748-.028-.077-.004-.008-.008-.014-.017-.033c-.013-.024.026-.033.04-.049.012-.007-.002.005.03-.02a.907.907 0 0 0 .145-.127.632.632 0 0 1 .12-.103c.223-.146.445-.299.671-.436.153-.092.291-.184.408-.309a.96.96 0 0 1 .384-.263c.109-.038.2-.114.298-.187.209-.169.397-.33.61-.475.128-.09.228-.218.38-.275.01-.005.02-.017.028-.027.064-.07.132-.135.207-.193.088-.074.107-.06.33-.227a.765.765 0 0 0 .14-.168c.042-.06.071-.137.11-.184.117-.147.145-.323.176-.49.04-.241-.05-.432-.078-.667-.003-.032-.04-.093-.055-.099M99.852 81.146c-.1-.038-.159-.172-.257-.274a.923.923 0 0 0-.415-.243c-.09-.023-.094.022-.048.098l.043.066c-.122-.021-.176-.101-.265-.155-.075-.043-.15-.015-.135.04.023.092.06.172.15.248.028.023.078.041.052.084-.13-.006-.177-.117-.289-.16a.365.365 0 0 0-.012.168c-.055-.016-.11-.035-.17-.035h-.094c.002-.006.01-.007.009-.015a.96.96 0 0 1 .072-.357c.028-.079.015-.101-.056-.141-.052-.028-.104-.054-.15-.089a.879.879 0 0 0-.495-.163c-.523-.018-1.044-.034-1.567-.05a72.521 72.521 0 0 0-.38-.02l-.565-.02-1.093-.013c-.124-.001-.104-.002-.124-.003l-.045-.004-.041-.003c-.01-.007-.01-.028-.015-.04-.005-.02-.016-.044.008-.07.007-.02.025.001.015-.045a.984.984 0 0 0-.036-.129 1.507 1.507 0 0 0-.114-.24.925.925 0 0 1-.124-.367c-.011-.094-.04-.2-.071-.298a312.52 312.52 0 0 0-.276-.835l-.177-.553-.091-.274-.13-.373c-.111-.295-.204-.608-.327-.887a1.712 1.712 0 0 0-2.544-.677 1.71 1.71 0 0 0-.487.537c-.147.246-.228.581-.339.875l-.214.639c-.244.748-.53 1.486-.79 2.23l-.124.356-.004.019c.002.018-.012.018-.027.018h-.002l-1.28-.009-1.82-.005-.657-.002c-.249.001-.504-.004-.747.009a1.816 1.816 0 0 0-.824.271c-.199.124-.412.323-.556.576-.273.45-.28 1.059-.108 1.443.08.194.214.43.474.65.275.214.582.414.87.62l.683.469c.285.201.558.417.867.583.11.06.215.157.321.237.149.112.294.23.447.338l.348.24c.083.055.063.04.069.042l.006.004c.005.005.013.01.005.018l-.007.01-.003.003-.05.142-.456 1.276c-.039.125-.08.256-.121.382l-.14.418-.764 2.17c-.157.505-.063.842.02 1.096a1.61 1.61 0 0 0 1.603 1.024c.27-.01.668-.123 1.062-.442l1.219-.841a10.7 10.7 0 0 0 .71-.53c.146-.118.3-.22.465-.308.092-.048.186-.109.268-.174.081-.063.143-.152.225-.208.095-.063.2-.11.29-.193.134-.123.271-.234.449-.305.033-.011.109-.06.112-.062v-.006c-.003-.015.007-.039.016-.028a.042.042 0 0 1 .01.014l.276.214c.062.05.133.102.199.133l.05.025c.196.103.362.252.545.375.076.05.14.12.217.172l1.35.937.728.51c.279.183.564.427.837.55a1.659 1.659 0 0 0 .905.125c.098-.014.215-.028.31-.073.413-.167.798-.56.93-.909.073-.174.113-.368.106-.644.001-.27-.143-.621-.25-.946l-.178-.513-.158-.433a9.362 9.362 0 0 1-.188-.526c-.167-.533-.365-1.06-.553-1.588l-.28-.75c-.03-.08-.025-.067-.029-.072l-.008-.015-.017-.033c-.008-.022.027-.032.043-.047l.008-.005.04-.028a.914.914 0 0 0 .145-.129.634.634 0 0 1 .12-.1c.223-.149.445-.301.672-.438a1.85 1.85 0 0 0 .408-.31.984.984 0 0 1 .384-.263c.11-.038.2-.114.3-.188.206-.167.394-.327.605-.472.129-.088.227-.217.378-.273.011-.005.02-.017.028-.027a1.61 1.61 0 0 1 .206-.192c.078-.067.122-.068.336-.236.055-.043.097-.109.137-.169.04-.06.069-.136.106-.183.114-.147.14-.322.17-.487.037-.24-.055-.428-.085-.662-.003-.031-.04-.091-.055-.097M77.857 81.156c-.1-.039-.159-.175-.257-.278a.943.943 0 0 0-.418-.248c-.09-.023-.094.022-.048.099l.043.067c-.123-.023-.177-.102-.267-.158-.075-.044-.151-.014-.135.04.022.093.06.174.15.25.028.023.078.043.052.085-.13-.006-.178-.118-.29-.162a.362.362 0 0 0-.013.168c-.055-.015-.11-.034-.17-.034h-.095c.002-.006.01-.007.009-.015a.963.963 0 0 1 .072-.36c.028-.079.015-.1-.056-.14-.052-.029-.105-.056-.151-.09a.884.884 0 0 0-.498-.165l-1.575-.05a52.96 52.96 0 0 1-.382-.02l-.563-.02-1.092-.013-.086-.002-.023-.001-.044-.004-.042-.003c-.007-.01-.008-.028-.013-.041-.005-.02-.015-.044.008-.07.006-.024.028.007.013-.053a.996.996 0 0 0-.035-.128 1.427 1.427 0 0 0-.114-.24.92.92 0 0 1-.124-.366c-.011-.095-.04-.2-.072-.299l-.274-.833-.178-.551-.091-.275-.139-.399c-.112-.292-.2-.61-.329-.881a1.721 1.721 0 0 0-2.542-.645c-.183.14-.333.284-.483.537-.146.245-.228.58-.338.873l-.219.647c-.243.747-.527 1.484-.789 2.227l-.12.346-.003.018c.001.018-.013.018-.026.018h-.004l-1.28-.008-1.817-.005-.678-.003c-.248.003-.505-.006-.746.01-.361.036-.62.159-.81.277a1.67 1.67 0 0 0-.552.577c-.272.447-.279 1.055-.11 1.436.078.193.21.427.466.648.271.213.58.413.868.62l.697.478c.285.2.558.416.866.583.11.06.214.157.321.237.149.112.294.23.446.337l.349.238c.083.056.058.038.065.042l.006.003c.006.007.013.01.005.018l-.006.01-.003.004-.048.136-.455 1.274-.121.38-.14.417-.767 2.183c-.156.502-.06.837.02 1.089a1.61 1.61 0 0 0 1.593 1.03c.269-.011.659-.108 1.055-.425l1.239-.856c.243-.168.481-.341.71-.528.145-.12.3-.22.464-.308.091-.048.186-.11.268-.174.081-.064.141-.153.224-.207.095-.064.2-.111.29-.193.133-.124.27-.235.448-.306a.772.772 0 0 0 .116-.065v-.006c-.003-.013.007-.038.016-.027a.033.033 0 0 1 .01.013c.008.007-.016-.008.018.017l.082.062.163.126c.062.049.133.103.2.133.021.012.04.021.06.03.191.103.353.25.533.37.076.05.141.119.217.172l1.35.935.732.512c.278.184.563.427.836.552.388.162.641.156.902.13.096-.013.213-.025.308-.07.41-.16.801-.545.94-.895.076-.178.116-.361.116-.631.008-.264-.124-.612-.235-.937l-.177-.512-.17-.464a9.015 9.015 0 0 1-.187-.526c-.167-.532-.364-1.058-.553-1.585l-.28-.748-.028-.078-.004-.007-.009-.015-.016-.033c-.013-.023.026-.031.04-.047.012-.008-.002.004.03-.02a.908.908 0 0 0 .145-.129.611.611 0 0 1 .12-.101c.223-.148.444-.3.672-.437a1.83 1.83 0 0 0 .407-.31.96.96 0 0 1 .384-.261c.108-.04.2-.114.298-.189.208-.168.396-.329.61-.474.128-.09.228-.218.38-.275.01-.004.019-.017.028-.027a1.7 1.7 0 0 1 .207-.193c.088-.074.108-.06.33-.227a.73.73 0 0 0 .14-.168c.042-.06.07-.137.109-.184.117-.147.146-.323.177-.49.04-.241-.05-.432-.078-.667-.003-.032-.04-.093-.055-.099" fill="#F7CC2F"/></g></svg>
