<svg width="48" height="48" xmlns="http://www.w3.org/2000/svg" xmlns:xlink="http://www.w3.org/1999/xlink"><defs><path id="a" d="M0 .557h31.245V39H0z"/></defs><g fill="none" fill-rule="evenodd"><path d="M30 10l.002.001h.001L30 10zM41.557 19.778c-.007.065-.005.121-.007.183-.22.166-.403.407-.569.674-.093.024-.005-.094.024-.161l.003-.006c.07-.095.152-.189.212-.283l.292-.5c.13-.083.05.042.045.093zm-.525.631c-.003.009-.003.018-.008.027l-.013.023.02-.05zm-2.513 3.356a.584.584 0 0 1 .189-.3c.005-.005.028.012.024.025-.027.118-.101.19-.213.275zm-1.655 1.161c-.033.041-.068.081-.096.125-.407.636-.9 1.2-1.355 1.8-.167.218-.34.432-.526.655-.026-.066.032-.116.064-.157l.684-.874.843-1.094.946-1.267c.036-.05.08-.091.122-.135a8.02 8.02 0 0 1-.682.947zm.585.65c-.048-.03-.02-.112-.032-.159.084.016.085.017.032.16zm-.093-.13a.917.917 0 0 1 .017-.024c.012-.003.023-.003.035-.004l-.052.028zm-.26.508c-.044.012-.084.017-.127.024v-.146l.185.057c-.032.036-.05.062-.059.065zm-.232.093c.01-.016.023-.044.03-.048.025-.01.046-.01.069-.016l-.075.06c-.008.004-.016.003-.024.004zm-1.785 2.446c-.023.027-.069.05-.104.075.013-.025.019-.052.038-.075.031-.037.071-.072.141-.143-.034.07-.045.109-.075.143zm-.912.548c-.039.007-.099.02-.23.049.133-.04.19-.058.242-.075a.814.814 0 0 0 .054-.008c-.021.01-.043.027-.066.034zm-1.423.237c-.018.002-.032-.01-.048-.014l.062-.027.045.016c-.02.009-.04.023-.06.025zm-.636.238c-.015-.006-.045-.01-.043-.018.002-.01.023-.026.04-.032.016-.005.042 0 .076.003l-.073.047zm-1.215.159c.017.003.043.005.047.012.01.017.01.038.013.057l-.076-.051c-.004-.003.01-.011.016-.018zm-4.646-17.26c.03.009.07.019.11.027-.136-.017-.274-.042-.41-.066.022-.001.048.002.071-.002.053-.01.154.021.229.041zm.65.085a10.115 10.115 0 0 1-.16-.017.15.15 0 0 1 .16.017zm12.081 4.864c-.003-.005-.001-.016-.002-.024.017.013.036.025.052.04.005.004.002.022.002.033l-.052-.05zm.685.79c.066.085.172.177.176.27 0 .005-.015.002-.025-.002-.07-.035-.105-.082-.21-.314.042.032.052.038.06.046zm-11.036-5.872l.015.014-.036-.004.021-.01zm.873-.08c.01 0 .02.006.03.007-.011.003-.023.007-.033.007-.01 0-.02-.005-.029-.007.01-.002.022-.007.032-.007zm2.99-.834c.039-.01.067-.02.098-.028l-.087.044c-.01.004-.024.005-.036.008.008-.008.013-.02.024-.024zm2.461 1.44l-.148-.167.01-.01.15.167-.012.01zm.256.333l-.006.012a3.621 3.621 0 0 0-.034-.058c.024.026.03.032.04.046zm1.634 2.167c-.299-.373-.6-.745-.851-1.142.316.364.588.75.851 1.142zm3.472 4.588l-.022.033-.015.003.037-.036zm-1.894-4.484l-.034-.057.025.025.035.058c-.008-.009-.02-.016-.026-.026zm-.618-.808c-.006-.008-.009-.02-.012-.029l.027.025.012.028c-.009-.007-.02-.014-.027-.024zM42 19.394c-.11-.126-.192-.192-.223-.141-.01.015-.047.015-.083-.01-.137-.096-.275-.188-.41-.302-.076-.063-.156-.18-.233-.272.038-.003.08-.002.116-.01.013-.004.01-.027.015-.048l-.217-.342c-.08-.006-.075.087-.262-.12l-.36-.405a5.286 5.286 0 0 1-.236-.28c-.101-.133-.208-.27-.261-.423l.159.002c.017.016.033.039.05.052.014.01.029.008.042.012-.012-.02-.025-.042-.04-.054-.016-.015-.036-.021-.054-.031-.043-.095-.073-.197-.183-.262-.023-.013-.047-.007-.07-.01l.046.093c.004.009.014.02.022.028-.081.036-.172-.024-.265-.146-.34-.439-.68-.882-1.019-1.322L37.13 13.62c-.12-.147-.234-.326-.414-.387-.035-.012-.092-.088-.135-.139-.098-.111-.186-.213-.29-.333-.062-.066-.135-.122-.205-.175-.023-.017-.064-.025-.074-.013-.01.01.003.057.02.081.128.172.25.346.387.508.22.263.368.572.64.801.035.03.073.083.095.125.055.103.112.189.216.266.064.048.128.131.184.204.192.259.395.533.592.796.094.127.23.26.278.377.073.18.22.245.313.376.028.038.064.1.058.12-.03.098.054.2.135.308l.648.874.326.437c.15.192.295.38.439.562.287.363.525.709.716 1.032l-.07.08.025-.08-.18-.144c.044.068.055.092.075.116l.028.032c-.099.158-.161.317-.336.486-.089.086-.216.264-.19.373a2.572 2.572 0 0 0-.547.608c-.1.17-.19.333-.334.461-.015.014-.028.044-.038.067-.098.221-.097.225-.2.3a.223.223 0 0 0-.096.145.34.34 0 0 1-.17.23.283.283 0 0 0-.138.163.436.436 0 0 1-.067.132c-.118.13-.245.246-.33.414-.116.076-.191.204-.265.327-.121.195-.27.342-.424.488.055-.105.119-.202.187-.296l.729-.988c.242-.327.443-.69.72-.985.043-.047.077-.108.116-.161l.259-.348.498-.71c.05-.072.07-.151.101-.225v.002l.38-.476-.088-.133c-.214-.043-.21-.037-.424-.334.106-.065.109-.088-.013-.267l-.259-.358-.35-.475-.73-.985a2.104 2.104 0 0 0-.18-.21c-.043-.044-.098-.1-.128-.038.115.175.242.367.133.474a.493.493 0 0 1-.176-.303c-.036-.187-.165-.347-.328-.495-.038-.034-.082-.06-.117-.097-.118-.122-.234-.244-.306-.4a1.312 1.312 0 0 0-.17-.254c-.036-.045-.043-.015-.026.025.006.01.013.023.015.031 0 .005-.01.005-.022.009l-.41-.577c-.03-.045-.031-.1-.045-.15v-.004.005c-.097-.073-.19-.133-.272-.257a9.508 9.508 0 0 0-.49-.67 61.412 61.412 0 0 0-1.327-1.596c-.044-.051-.086-.105-.135-.15-.231-.21-.417-.45-.655-.694-.072-.064-.087-.1-.21-.189-.067-.025.007-.055-.325-.13-.246-.013-.323.064-.236.057a.644.644 0 0 1 .44.06l.071.054a.788.788 0 0 1 .106.094c.048.05.1.103.136.15l.23.29c.207.277.4.555.593.834.067.1.139.193.241.245l-.002-.001c.095.112.16.232.236.35.069.106.193.203.282.321l.624.817.757 1.011.811 1.117 1.026 1.385-1.098-1.338c-.009-.012-.01-.024-.02-.036-.099-.142-.208-.295-.317-.449l-.79-1.12c-.037-.055-.076-.114-.12-.156-.2-.184-.33-.408-.488-.617a11.64 11.64 0 0 0-.37-.46c-.028-.035-.07-.057-.166-.13l.26.42-.431-.544c-.047-.065-.129-.147-.084-.207.007-.01-.018-.06-.038-.087-.21-.302-.433-.597-.713-.85l-.235-.233c.01-.036.03-.063.021-.076-.157-.191-.332-.322-.559-.473.24.276.406.53.597.794l.245.35c.128.173.26.346.388.52-.801-.924-1.403-1.575-1.488-1.544-.044.025-3.14 1.024-6.62.74.019-.086-.017-.12-.168-.142-.14-.02-.287-.022-.43-.036-.056-.005-.135.013-.16-.05.294.018.592.039.863.056.103.004.188.028.219.101.034.08.055.076.228.034a.662.662 0 0 1 .181-.01c.21.023.425.051.63.037.364-.022.747.011 1.094-.09.502-.004.952-.158 1.422-.256.054-.009.13-.048.136-.075.011-.041-.073-.042-.138-.039-.226.022-.443.04-.66.061-.067.005-.13.01-.195.013.203-.055.404-.1.605-.14.368-.068.716-.185 1.09-.248a4.48 4.48 0 0 0 .56-.143c.17-.05.334-.113.498-.174.068-.025.155-.04.166-.115l-.385.036.192-.094c.056-.025.117-.045.168-.073.051-.026.143-.021.169-.09l-.194.036-.479.107c-.161.028-.319.06-.442-.008-.046-.026-.157-.021-.24-.015l-.782.067c-.406.038-.813.08-1.218.097.21-.045.422-.06.632-.089.218-.028.4-.141.635-.13.017.001.055-.014.061-.023.045-.074.136-.08.242-.091.21-.024.416-.069.624-.11.076-.016.177-.033.175-.108l-.101-.002c-.268.007-.533.073-.803.11-.11.016-.225.043-.338.005.25-.052.25-.052.392-.132l-.363.06c-.131.027-.259.039-.335.131-.032.039-.103.008-.144-.015-.147.02-.29.084-.442.05h.002c-.033-.006-.066-.02-.098-.018-.374.024-.749.102-1.12.051-.498.01-.991.003-1.48-.033-.14-.01-.28-.045-.413-.08-.088-.025-.163-.064-.263-.04-.013.003-.055-.01-.057-.016-.026-.137-.212-.122-.343-.149-.33-.057-.66-.108-.965-.228-.112-.043-.245-.053-.36-.085-.132-.03-.251-.055-.345-.156-.045-.048-.144-.085-.224-.116l-.475-.163a15.63 15.63 0 0 0-1.137-.357c-.349-.104-.696-.204-1.051-.221a2.6 2.6 0 0 1-.69-.137c-.156-.055-.337-.077-.51-.099-.307-.03-.62-.071-.925-.078-.086-.003-.183-.002-.257-.021a3.19 3.19 0 0 0-.819-.071c-.856.001-1.707.033-2.544.12-.242.02-.483.048-.723.078-.606.07-1.21.149-1.806.265-.473.089-.935.219-1.401.337-.384.112-1.205.216-1.671.57a.872.872 0 0 1-.122.076c-.322.182-.559.463-.744.769-.113.18-.21.372-.283.575-.167.434-.2.91-.178 1.4l.026.872.032.708c.004.131-.003.265.008.394.037.442.066.884.08 1.331.014.497.03 1.004.046 1.498.006.235-.026.49.012.703.046.265.034.518.04.778l.023.51c.004.079.018.16.013.235-.025.302-.008.602.008.904.012.236.023.473-.051.69a.583.583 0 0 0-.015.19c.002.045.023.087.036.13l.078-.088c.006.048.014.085.015.124l.03 1.101c.003.193-.02.387-.035.58-.002.035-.022.065-.033.098l-.004-.032c-.002-.007-.007-.011-.01-.015l.014.048c-.055.255-.058.505.005.764.021.09.021.202.026.304l-.001.236.036.59.035.95c.005.128.017.255.034.379.075.488.27.88.499 1.314a.782.782 0 0 0 .114.141c.45.5 1.155.783 1.766.7.504-.05 1.157-.256 1.585-.353.313-.074.63-.137.952-.179.111-.017.223-.046.335-.068.357-.075.71-.155 1.083-.176.263-.016.53-.043.792-.076l.519-.071c.222-.022.456-.07.668-.042.203.02.4.017.597.017.737.025 1.469.033 2.183.09.208.02.411.02.59.127.088.052.195.077.286.029.089-.046.204-.02.337.019l-.136.044c.26.126.473.21.723.167-.011.04-.023.088.069.113.23.054.577.227.892.273.153.026.304.056.446.134.328.17.704.253 1.068.28.221.015.411.015.589.127.025.016.079.025.12.032.451.074.904.13 1.355.162.27.02.538.021.807.022.324 0 .646-.006.97-.024.166-.007.332-.03.496-.032.172-.002.334-.008.495-.049.09-.023.19-.033.288-.044.137-.015.119.03.1.073l.315-.126c.028.028.047.06.086.081.03.016.096.033.13.026.152-.032.327-.062.38-.16.207-.076.436-.096.658-.136-.027.032-.045.067-.086.093-.034.023-.099.031-.144.051-.017.007-.03.027-.025.038.005.01.035.023.052.02l.4-.067-.003.003c.025-.009.058-.025.076-.024.253.026.506-.111.76-.105.028 0 .073-.027.11-.042l.54-.232c.065-.025.155-.026.233-.038l.001.001h.003l-.006-.001c.096-.02.199-.04.285-.056.186-.05.354-.095.543-.144l.227-.064c.438-.213.711-.553.758-.835a.49.49 0 0 1 .204-.345c.072-.053.143-.162.205-.246.046-.063.04-.1.023-.14-.026-.065.002-.11.08-.132.163-.045.347-.247.502-.246.05 0 .142-.154.181-.282l-.143.101c.072-.13.15-.237.236-.334a.51.51 0 0 1 .164-.136c.044-.015.072.03.1.045.285-.304.452-.672.711-.97.024-.028.041-.066.06-.1.05-.093.043-.147-.022-.16-.014 0-.039.013-.05.007-.023-.012-.04-.034-.059-.052.03-.037.057-.077.09-.11.033-.036.092-.077.066-.11-.053-.068.022-.146.082-.184.068-.044.131-.079.19-.158.044-.06.079-.116-.001-.095-.057.015-.039-.038-.009-.08a.301.301 0 0 1 .1-.1c.076-.023.126-.057.16-.165a.858.858 0 0 1 .083-.171c.045-.075.098-.135.138-.084.034.045.082.024.138-.056.111-.163.219-.322.333-.493a.438.438 0 0 0 .073-.167c.01-.104.048-.177.135-.285a.568.568 0 0 1 .238-.187l-.002.002c.176-.156.176-.156.071-.22-.005-.003-.003-.016-.005-.035l.203-.221c.089-.09.021.059.082.032.047-.073.127-.167.153-.246.052-.166.159-.291.258-.428l-.021.16c.083-.11.131-.19.189-.25.065-.068.138-.122.216-.189.014-.073-.035-.147.118-.368l.169.038c.54-.618.557-.644.776-1.083l.152-.228c.042-.018.096-.028.122-.062a1.9 1.9 0 0 0 .176-.28z" fill="#FFE5E5"/><path d="M38.009 22.939c-.01.019-.012.053-.002.055.02.007.05.01.079-.004a.292.292 0 0 0 .085-.084c.149-.235.299-.464.515-.656.069-.063.124-.155.105-.25l-.294.311c-.185.195-.354.4-.488.628M35.134 27.193l-.134.355c.113-.105.187-.164.254-.236.099-.107.17-.145.218-.074.009.014.052-.015.079-.024.01-.035.036-.094.025-.102a.644.644 0 0 0-.209-.11c-.068-.019-.184.081-.233.191M38.004 14.005v-.004L38 14l.004.005" fill="#FFE5E5"/><path d="M38.514 14.728c.008.008.046-.017.046-.041a.217.217 0 0 0-.047-.109L38 14c.008.046.007.091.029.138.111.236.297.417.485.59" fill="#FFE5E5"/><path d="M38.272 14.305l.064.028.039-.03v.004-.005h.09l-.08-.085c-.008-.009-.021-.01-.031-.016l-.001-.003v.003c-.021-.02-.042-.045-.064-.062-.184-.138-.318-.18-.283-.095a.481.481 0 0 0 .266.261M38.108 23.05a.824.824 0 0 0-.104.186.102.102 0 0 0 .023.097c.01.008.057-.038.095-.065.03-.065.063-.13.084-.193.01-.03.003-.072-.013-.075-.019-.004-.066.024-.085.05M36.043 26.322c.063.002.096-.08.13-.143l.09-.179c-.1.051-.167.066-.218.119-.06.061-.059.202-.003.203M36.301 13.342L36.02 13l-.02.031c.074.114.155.236.219.332.02.028.061.046.092.069-.002-.03.007-.069-.01-.09M33 29.137c-.001.024.043.054.083.055a.473.473 0 0 0 .168-.047c.019-.009.02-.049.004-.065-.028-.03-.073-.053-.111-.08-.099.037-.141.089-.144.137M39.041 22.091a.265.265 0 0 0-.041.112c0 .026.024.039.045.045.008.002.037-.033.061-.056.011-.034.029-.076.032-.109.004-.032-.009-.055-.014-.083-.028.03-.062.057-.083.091M9.028 17c-.011.003-.029.041-.028.06l.034.3.048-.015-.016-.304c-.002-.019-.026-.044-.038-.04M37 24.38l.215-.289c.016-.023.009-.061.013-.091-.02.011-.046.019-.059.035a.863.863 0 0 0-.169.345M35.005 28h-.001a.014.014 0 0 1-.004.003l.005-.003zM35.073 27.08a.347.347 0 0 0-.073.12c-.005.03.04.02.062.026.03-.025.051-.033.071-.054.061-.065.1-.14.065-.17-.013-.012-.085.04-.125.078M36 14.003c.01.025.014.053.029.071l.197.234a.275.275 0 0 0-.077-.205c-.045-.053-.098-.119-.149-.1M37 14v.004l.003.004.002-.002L37 14zM39 18l.394.494c-.101-.258-.114-.272-.394-.494M33.027 10c-.009.015-.032.037-.026.042l.001.001c.015-.019.06-.044.025-.043M33.03 11.062c-.014-.027-.02-.045-.03-.062a.412.412 0 0 0 .027.057l.003.005" fill="#FFE5E5"/><path d="M33.023 11.069h.007l.017-.002.038.001c.053-.05-.042-.043-.046-.068l-.005.005-.026.033c-.015-.024-.006-.003.01.031 0-.002.009.012.005 0M33.162 11.307a7.996 7.996 0 0 1-.025-.044l.025.044M33 11a.233.233 0 0 0 0 0M37.333 14.373L37.036 14l-.036.029.309.364zM39.085 16.049l-.08-.049-.005.064c.027.013.057.033.081.037.008.001.003-.033.004-.052M37.118 15.104c-.009-.022-.018-.061-.028-.066-.03-.019-.059-.027-.09-.038l.035.082.083.022zM33.118 10.034L33.04 10c-.018.033-.037.054-.04.073-.002.007.041.017.053.012.025-.013.044-.033.065-.051M37 26.081c.016-.006.039-.008.046-.02.012-.015.014-.04.019-.061-.016.007-.039.008-.047.019-.012.017-.013.041-.018.062" fill="#FFE5E5"/><path d="M39.086 16.056L39.015 16l-.015.075c.019.013.05.041.055.037.015-.011.021-.035.031-.056M39 22.062c.009-.002.02 0 .028-.008l.056-.054c-.017 0-.034-.002-.052.007-.009.004-.021.035-.032.055M39.004 22.005V22l-.004.005h.004zM36.069 13.142c0-.016.009-.033 0-.048-.019-.032-.045-.062-.069-.094.005.031.007.06.018.091.006.015.033.034.051.051M35.008 13.014l-.001-.006L35 13l.003.007.005.007M39.022 17.001L39 17l.027.058.022.001-.027-.058zM38.006 16l-.006.021.026.022c.002-.007.008-.014.005-.021-.004-.006-.017-.014-.025-.022M30 29.035c.015-.002.031-.002.042-.007l.063-.028c-.026.004-.053.005-.077.011-.013.003-.019.016-.028.024M30 29.005l.011-.001.001-.004-.005.003-.007.002" fill="#FFE5E5"/><path d="M35.05 13.097l-.024-.063c-.005-.011-.016-.022-.024-.034 0 .013-.006.027.001.037.012.021.03.04.046.06M40.061 18.122c.001-.013.011-.023.002-.038-.016-.027-.041-.056-.063-.084l.03.078c.006.013.021.029.031.044" fill="#FFE5E5"/><path d="M40.009 18.014l-.002-.006L40 18l.003.006.006.008M40.071 17.08l-.008-.034c-.024-.019-.05-.042-.063-.046l.001.026.07.054M40 22.028c-.002.009.004.017.006.025.01-.008.024-.018.028-.027.003-.009-.004-.018-.006-.026-.01.009-.024.018-.027.028M35 28.045c-.003.008.016.004.025.005.014-.015.034-.036.037-.045.003-.009-.015-.003-.023-.003l-.039.043" fill="#FFE5E5"/><path d="M6.001 11.006v-.001L6 11l.001.006z" fill="#333"/><g transform="translate(6 5)"><mask id="b" fill="#fff"><use xlink:href="#a"/></mask><path d="M28.724 14.964c-.03.025-.06.039-.089.055l.06-.09.066-.04c-.013.025-.03.07-.037.075zm-1.132-1.797l-2.25 2.647c-.823.98-1.682 1.953-2.512 2.878l-.188.202-.08.082-.204.068a16.453 16.453 0 0 1-3.392.686c-.482.051-.963.06-1.443.072a15.71 15.71 0 0 1-2.017-.1 4.163 4.163 0 0 1-1.022-.232 20.12 20.12 0 0 0-1.082-.38c-.1-.037-.19-.07-.276-.1-1.354-.555-2.76-.78-4.13-.83a16.74 16.74 0 0 0-1.626.024l-.802.067c-.342.042-.347.05-.442.067-.373.067-.734.181-1.102.254-.247.057-.48.154-.724.214-.103.028-.21.046-.31.084-.182.067-.355.15-.534.226a2.408 2.408 0 0 1-.282.096.275.275 0 0 0-.174.14.26.26 0 0 0-.205-.007l-.369.125c-.1.044-.16.066-.265.177l.002-.537c.007-.833-.001-1.658-.026-2.49-.027-.935-.017-1.878-.029-2.817l-.045-2.556-.041-3.388-.008-.587V5.937h-.017l-.007-.56-.014-1.232-.004-.308c.001-.077.001-.106.01-.159a.525.525 0 0 1 .08-.215c.02-.029.037-.04.042-.045l.143-.04c.245-.07.492-.134.74-.192a23.784 23.784 0 0 1 3.809-.595c1.246-.079 2.493-.039 3.69.169.832.135 1.625.384 2.377.69.896.382 1.863.664 2.826.816 1.562.235 3.128.199 4.653-.035a17.603 17.603 0 0 0 1.895-.411l.143-.043c.092.1.187.203.277.303l.428.48 1.805 2.075.807.914c.613.714 1.23 1.43 1.846 2.149l.33.393c.04.05.09.121.123.143.295.206.483.47.66.764.053.089.158.196.241.294l.139.16-.283.334-1.16 1.381zm-4.958 5.786c.042-.017.089-.033.187-.06l-.187.06zM4.889.851l-.01.012-.032-.005.042-.007zM6.367.64l-.091.026c-.013.003-.037 0-.054 0L6.367.64zm16.97 2.739l-.037.033c-.014.012-.037.023-.053.035l.09-.068zm-.16.114l.003-.002a.937.937 0 0 1-.16.079l.103-.049.053-.028zM.3 13.803c.035.2.032.413.03.716-.043-.402-.044-.413-.03-.716zm-.05-3.36c-.01-.05-.02-.098-.025-.152-.002-.018.014-.05.025-.091.012.054.029.096.03.143.001.03-.02.066-.03.1zM.178 6.55C.163 6.528.14 6.513.135 6.477c-.01-.07-.012-.15-.017-.227.02.042.045.078.06.135.008.035 0 .11 0 .166zM31.23 10.88v-.001l-.002-.002-.003-.003-.006-.007-.024-.027-.048-.054-.096-.109-.19-.216c-.123-.144-.244-.284-.374-.438-.124-.15-.237-.29-.377-.424-.108-.105-.22-.227-.153-.272.008-.005-.036-.084-.067-.12l-1.043-1.222c-.082-.094-.18-.176-.27-.263-.012-.006-.023-.011-.035-.02-.01-.007-.021-.022-.03-.032l.064.05c-.137-.276-.339-.368-.541-.527-.126-.317-.408-.647-.689-.974-.434-.504-.862-1.017-1.312-1.507-.47-.509-.896-1.034-1.349-1.553l-.123-.142-.643-.706-.37-.38-.092-.081-.048-.041-.028-.023a1.203 1.203 0 0 0-1.283-.1l-.017.013c-.005-.017.003-.012.004-.016l.018-.01c.05-.027.109-.046.067-.032l-.186.061a15.22 15.22 0 0 1-2.635.551l-.658.07c-.178.012-.368.034-.533.028-.36-.033-.712.013-1.061-.01a1.04 1.04 0 0 0-.267.022c-.207.059-.433.009-.595-.052a5.196 5.196 0 0 0-.978-.222l-.543-.106-.015.001-.064-.007-.063-.04c-.247-.084-.472-.215-.716-.305-.392-.147-.886-.353-1.332-.482-.243-.069-.45-.122-.571-.069-.055.025-.216-.024-.286-.074-.257-.161-.591-.243-1.025-.271-.135-.003-.314-.039-.474-.06-.137-.018-.327-.06-.403-.047-.287.036-.512.033-.77-.059A1.118 1.118 0 0 0 8.73.56c-.244.01-.472.048-.733.006a.648.648 0 0 0-.22.031c-.105.047-.23.06-.408.055L6.523.623h.004l-.139.012-.005.002a1.38 1.38 0 0 0-.804.135c-.06.03-.224.067-.156-.012.009-.01-.036-.027-.06-.025-.282.025-.57.026-.824.143-.252.11-.566.182-.924.243-.325.05-.66.167-.942.138-.307.069-.628.13-.917.228-.058.02-.11.036-.163.053l-.064.021-.11.035-.046.019-.09.038a2.029 2.029 0 0 0-.602.419 1.985 1.985 0 0 0-.548 1.05c-.006.04-.06.165-.08.226-.05.117-.066.274-.041.347.05.185.082.221.062.45-.009.094-.008.234.01.306.078.323.02.604-.015.897.035.088.08.159.028.329-.07.228-.067.234-.01.478l.028.087c-.041.05-.069.13-.063.277L.1 7.715l.073-.722c.043.391.06.693.01.906-.081.357-.035.68-.007 1.023l.008.019c.043.038.067.106.039.248l.001-.008-.04.39v-.003c-.01.053-.031.107-.031.16l.008 1.3c.04-.011.076-.024.112-.036l.011 1.35.027.95c.003.163-.007.328-.011.493l-.06-.208c-.011.057-.03.102-.03.147l.028 2.751c0 .061.008.127.018.18.005.032.02.064.032.064.01 0 .027-.041.028-.07l.017-.59c.013.18.013.283.026.372.041.307.053.57-.062.768-.027.048-.047.218-.046.33.006.484.022.968.113 1.391.04.191.046.401.037.617-.004.073-.02.186-.037.205-.08.084-.076.28-.078.471l-.032 3.835-.014.895-.005 1.404c0 .148.004.3-.006.44-.018.234-.028.457.005.689.01.074.018.174.01.247-.064.642-.039 1.314-.06 1.97-.032.963-.03 1.935-.02 2.91l-.015.023c.003.016.005.04.009.044.002.001.003-.006.006-.009 0 .143-.006.282-.004.426l-.001-.003c-.011 0-.027.076-.034.126-.006.034-.002.081-.003.144.006.04.008.104.02.157.005.027.023.049.033.045.011-.006.03-.042.03-.07.004-.1.006-.205-.001-.3a.178.178 0 0 0-.026-.078c.056-.307.069-.444.056-.759-.012-.27-.013-.53-.011-.83.072.125.055.292.053.423-.015.985.04 1.96.066 2.935.011.315.023.636.033.965l.04.31.081.622c.035.309.15.595.228.892.078.303.228.573.344.859.022.056.061.107.09.16.058.113.142.19.277.184.1-.005.138.084.223.131.024-.045.055-.081.065-.123a3.71 3.71 0 0 0 .125-.686l.044-.738.058-.942.038-.542.01-.14.008-.422.017-.845.08-4.34c.01-1.354.022-2.669.033-4.028l.026-6.486a8.57 8.57 0 0 1 .581-.103c.055-.009.112.001.168.004l-.002-.001.105.058c-.083.015.007.126-.083.14-.055.009-.108.027-.16.044-.02.006-.036.02-.053.028-.005.052.04.047.066.063l-.157.048c-.012.004-.022.013-.047.03.052.036.103.03.153.024l.389-.048c.02-.002.04-.005.061-.002l.529.081c.155.025.31.04.464-.009a.338.338 0 0 1 .1-.019c.332.002.663-.012.99-.049a.343.343 0 0 1 .175.04c.054.026.114.042.172.048.042.005.08-.017.069-.073-.009-.044.014-.07.048-.077.071-.013.144-.023.257-.038l-.126.11c.014.008.023.02.034.022.107.011.212.023.32-.003a.762.762 0 0 1 .218-.021c.63-.03 1.419-.077 2.113-.054.2.009.357-.002.464-.056.219.062.41.16.725.189.177.016.313.052.486.027.136-.021.409.018.606.103.156.086.342.143.538.194.23.049.463.128.594.26.168.057.344.129.49.16.276.043.55.167.829.255.194.064.392.13.597.196.086.027.212.064.244.088.164.13.448.18.72.23l.547.104c.391.083.724.107.94 0 .071-.034.241-.013.372.016.04.008.083.017.108.028.4.189.97.154 1.507.101.209-.023.393-.046.598-.034.08.005.194.007.263-.008.382-.082.813-.075 1.19-.19.117-.039.331-.072.451-.071.325-.003.608-.08.892-.188.164-.066.33-.113.504-.123h-.005l.383-.122c.086-.025.18-.047.261-.059.298-.045.42-.19.55-.253.28-.116.452-.25.568-.31a.637.637 0 0 0 .248-.185c.152-.178.291-.356.38-.508.203-.368.505-.685.802-.947.272-.237.51-.503.746-.769.327-.368.634-.755.948-1.135a.835.835 0 0 0 .1-.147.696.696 0 0 1 .22-.27c.153-.11.294-.273.435-.437l1.301-1.515c.139-.162.267-.316.337-.489.093-.226.24-.418.415-.515.237-.13.425-.355.627-.608.249-.313.55-.617.706-.948l.012-.015h.001l-.014-1.121z" fill="#333" mask="url(#b)"/></g><path d="M6.132 41.651l-.017-.346-.033-.693L6.033 40l-.03.005-.003.311.037 1.172.005.138.005.047.008.093.018.188c.001.013.013.026.021.036.003.005.014.01.018.01.014-.003.038-.01.038-.014l-.005-.204-.013-.13z" fill="#333"/></g></svg>
