<svg width="48" height="48" xmlns="http://www.w3.org/2000/svg" xmlns:xlink="http://www.w3.org/1999/xlink"><defs><path id="a" d="M.074.37h6.051v3.27H.075z"/><path id="c" d="M.096.295h1.012v.592H.096z"/></defs><g fill="none" fill-rule="evenodd"><path d="M8.284 9.788l15.473-6.874 15.475 6.874v12.03c0 6.873-6.878 15.466-15.475 18.902-8.596-3.436-15.473-12.029-15.473-18.903V9.788z" fill="#CAF1EF"/><path d="M40.755 29.076l-.03.02.01-.04.02.02zm1.129-3.953l.007-.042.018.026-.025.016zm-16.002 18.74l-.056.036v-.044l.056.007zM8.057 22.612l.027.004-.017.033-.01-.037zm33.294 4.917c.013-.014.034-.02.05-.03-.004.017-.005.035-.013.049-.008.011-.023.017-.034.027-.002-.016-.009-.038-.003-.046zm.232-1.017c-.014 0-.025-.02-.036-.032l.051-.053.018.05c-.012.013-.025.037-.033.035zM8.166 17.505c-.01.017-.03.028-.045.043-.002-.016-.008-.033-.004-.047.004-.013.018-.024.027-.034.008.012.025.032.022.038zm.524-5.008l-.032.007.034-.087c0 .046.002.064-.002.08zm5.986-4.755l-.032-.024.048-.01-.016.034zM9.171 23.713l.02-.053.007.043-.027.01zm4.485-15.396c-.012.004-.03-.002-.044-.004.012-.01.023-.025.037-.03.012-.003.028.003.042.005-.011.01-.022.025-.035.03zM11.341 16.2c-.005-.016-.014-.032-.013-.047.002-.014.014-.027.023-.04l.014.047-.024.04zm19.31 25.097c.02-.003.04.006.061.01-.012.01-.025.025-.038.031-.013.006-.03 0-.044 0 .008-.015.013-.04.021-.041zm-19.416-23.76c-.005-.016-.014-.032-.011-.047.005-.03.015-.058.024-.087l.01.047-.023.086zm6.847 17.16c.026.007.063.004.076.021.013.017.002.053 0 .08l-.08-.023.004-.077zM9.228 20.015c.002.009-.033.025-.052.037-.008-.032-.017-.063-.02-.095 0-.008.02-.017.033-.025.014.027.033.054.039.083zm7.897 13.49c-.01-.01-.013-.027-.02-.04.022.003.054 0 .067.012.03.03.05.066.112.15l-.159-.123zM41.877 25.6c.03-.016.066-.051.09-.045.02.006.028.057.042.089l-.095.049-.037-.093zm-22.941 9.375c-.001.029.008.068-.005.08a.095.095 0 0 1-.082.019c-.017-.008-.022-.046-.039-.087l.126-.012zM40.46 29.72c-.013-.05-.048-.108-.033-.148.017-.048.078-.081.12-.121l.044.138-.131.13zM8.758 11.65l.038-.001v.294l-.038.001v-.294zm7.765 21.25c.026.016.024.075.035.113-.031.002-.07.017-.093.004-.036-.02-.06-.057-.117-.116.089-.003.144-.02.175 0zm23.72-2.747c-.014.093-.026.178-.04.26 0 0-.037.008-.046 0-.084-.077-.035-.167.007-.255.008-.014.028-.024.043-.036.013.01.037.02.037.031zM8.208 16.561l.068.01-.06.41-.099-.001.09-.419zm1.024 4.776c-.006.125.056.267-.086.36-.008.006-.035-.005-.046-.015-.084-.083-.077-.131.09-.444.03.069.043.084.042.099zm3.03 5.95c0-.01.065-.04.081-.033.15.067.17.19.146.377-.185-.08-.237-.2-.227-.345zm23.323 9.71c-.07.09-.158.165-.253.262.096-.333.094-.331.54-.683-.096.14-.183.285-.287.421zm3.55-4.607c-.02.021-.066.02-.1.022-.011 0-.03-.024-.03-.038.004-.218.065-.404.32-.553.007.243-.05.418-.19.57zm.432-1.016c.136-.22.262-.444.266-.708.001-.016.074-.06.088-.05.04.025.102.08.093.109a4.227 4.227 0 0 1-.209.553c-.048.1-.134.184-.24.323 0-.123-.02-.189.002-.227zM22.051 2.891a612.1 612.1 0 0 0-.605.393c-.14.094-.278.197-.467.168.25-.255.55-.413 1.072-.56zm7.081 39.246c.128-.092.234-.209.36-.306.108-.085.228-.153.385-.007-.406.216-.711.565-1.184.584.147-.089.299-.17.44-.27zM40.01 28.68c.047-.15.092-.3.157-.441l.7-1.762c-.233.794-.446 1.616-.767 2.367l-.092-.008c0-.052-.012-.108.002-.156zM18.783 4.864l-.046.024c-.067.024-.143.042-.17-.05-.01-.04.012-.116.044-.138a1.73 1.73 0 0 1 .366-.2c.413-.145.778-.385 1.165-.58.06-.03.13-.045.195-.066l.045.05-1.599.96zm18.65 29.815c.06-.072.142-.122.217-.18.01-.006.042-.001.048.009a.27.27 0 0 1 .038.091c.004.014-.01.038-.021.052-.317.4-.676.755-1.005 1.14-.113.13-.194.29-.307.42-.035.04-.126.031-.195.04.006-.048-.01-.116.017-.148l.647-.752-.01-.008.571-.664zM23.313 2.165c.148-.054.298-.113.444-.185.096.04.19.072.285.094.486.121.994.301 1.472.584.172.104.385.176.642.29-.61-.166-1.59-.53-2.4-.872-.623.29-1.167.516-1.476.602.37-.232.7-.39 1.033-.513zM12.18 30.538c.03.06.055.126.096.178.63.735 1.055 1.613 1.68 2.359.218.282.435.564.682.844-.146.073-.186-.023-.231-.073-.33-.348-.6-.749-.895-1.126-.373-.467-.673-.987-1.004-1.48-.38-.563-.696-1.166-1.033-1.75-.035-.075-.043-.163-.064-.245l-.005-.002c.31.4.557.834.774 1.295zm21.444 8.423c-.016.023-.05.04-.175.11.136-.13.185-.2.244-.26.016-.07.011-.16.053-.205.34-.377.763-.652 1.187-1.019.005.103.023.16.002.185-.365.405-.722.832-1.246 1.04-.021.05-.036.102-.065.15zm-.639.25c.019-.023.075-.031.106-.024.028.008.066.046.064.07-.013.188-.172.298-.3.409-.056.049-.172.03-.26.041l-.287.377c-.02-.306-.022-.306.287-.372l.39-.501zm-19.052-8.886c.15-.15.239-.238.336-.337.024.051.05.08.041.096-.033.076-.076.148-.115.223l.01.138c.001.014-.012.03-.02.044-.016-.017-.05-.037-.046-.05.013-.046.04-.089.063-.132l-.27.018zm.17-.828c-.119.088-.227.037-.326.063l-.026.107c-.007-.01-.021-.024-.018-.03.013-.026.034-.051.05-.076.143-.151.144-.15.32-.064zM31.33 40.765c.057-.131.164-.17.29-.177l.003-.005-.293.182zm7.412-7.892l-.132.194-.07.105c-.006.034-.01.07-.02.103-.003.008-.027.011-.041.016l.067-.12.064-.099.135-.2h-.003zm-24.258-2.188l-.002-.001h.002zm-.41-19.344c.05.003.107.025.151.01.504-.174.93-.546 1.486-.592l1.96-.858c.19-.08.397-.132.6-.159.14-.018.28.01.374-.128.012-.018.08-.024.087-.012.205.3.404.07.594-.002.47-.179.909-.436 1.406-.556.18-.043.35-.156.507-.264.177-.12.331-.232.574-.154.117.037.273-.02.401-.065.181-.062.351-.155.528-.228l.627-.267c.084-.034.254-.106.268-.105a.07.07 0 0 1 .03.018c.038.038.05.057.061-.043.007-.042.019-.058.028-.036.006.019.011.05.013.094.005.084.005.109.009.118.006.014.019-.002.03-.001.012.005-.018-.013.028.009a.39.39 0 0 1 .126.086c.233.258.548.368.851.496l2.846 1.183.82.34c.688.293 1.366.607 2.061.876.551.214 1.127.365 1.685.562.425.15.813.4 1.272.461a.2.2 0 0 1 .092.048c.208.18.472.214.722.287l.222.073c.058.02.031.004.05.008a2.2 2.2 0 0 1 .27-.002l.172-.002c.011.017-.008.052.017.061.09.031.16.108.188.209l.025.085.014.044.007.027.007.125.05.993c.013.315-.07.652.023.936.113.35.08.687.094 1.032.01.226.033.453.053.678.008.104.045.211.03.31-.065.402-.026.802.01 1.203.029.312.053.627-.136.914-.044.068-.048.17-.041.254.005.059.06.115.09.173l.2-.118c.015.064.033.114.036.165.027.487.066.974.069 1.462 0 .25-.055.528-.1.757-.01.031-.06.058-.093.085v.001c-.163.224-.184.431-.038.677.059.085.028.192.022.29-.005.074-.041.145-.045.22a6.82 6.82 0 0 1-.138 1.408c-.037.31-.05.68-.344.912-.032.025-.038.075-.05.114-.123.443-.354.874-.51 1.323-.304.68-.58 1.398-1.074 2.003-.082.105-.128.24-.19.36-.206.387-.413.781-.723 1.108-.214.233-.42.489-.612.749-.128.17-.218.375-.34.553-.153.232-.316.478-.54.628-.213.141-.382.315-.557.488-.683.617-1.308 1.289-1.94 1.972-.18.205-.347.407-.654.42-.148.009-.264.092-.247.293.018.193-.107.282-.263.372.006-.098.01-.16.018-.248-.408.053-.65.248-.746.644l-.078.047-.001.006.085-.051c-.062-.09-.135-.198-.238-.122-.286.21-.623.338-.855.634-.113.13-.246.233-.436.238-.515.05-.578.12-.71.317-.073.113-.156.25-.28.068-.018-.026-.042-.015-.061-.008l-.267.1-.324-.154c-.116-.053-.243-.068-.366-.111l-.242-.09-.488-.215c-.167-.072-.355-.112-.499-.227a1.126 1.126 0 0 0-.5-.24c-.106-.019-.207-.071-.305-.12-.14-.074-.051-.158.028-.237l.001.006-.449.019c.02-.08.053-.164.056-.242.002-.06-.021-.152-.059-.165-.164-.06-.33-.166-.527-.013l-.023.173c-.002.01-.027.015-.042.023-.006-.023-.023-.05-.016-.066.022-.045.054-.086.081-.13-.271-.032-.464-.215-.682-.35v.002c.072-.035.143-.088.216-.101.057-.012.118.032.18.038.022.002.065-.028.078-.053.013-.024.013-.078-.001-.09l-.373-.248.005-.001c-.028-.011-.076-.013-.084-.034-.107-.308-.48-.32-.605-.605-.014-.031-.084-.03-.13-.042-.225-.063-.469-.1-.678-.197-.075-.033-.112-.143-.166-.216l.001.007c-.07-.084-.136-.17-.212-.249-.15-.157-.328-.293-.455-.468-.222-.312-.458-.495-.904-.334-.168.059-.325.03-.373-.195-.024-.113-.147-.198-.235-.289-.062-.067-.128-.049-.22-.002-.141.07-.191.029-.145-.113.094-.297-.059-.587.12-.88.057-.093-.107-.224-.29-.266l.016.24a.955.955 0 0 1-.322-.359c-.038-.081-.065-.195-.036-.28.027-.077.14-.135.203-.19-.168-.47-.621-.706-.78-1.144-.015-.04-.059-.069-.092-.1-.092-.081-.195-.068-.304.045-.024.024-.032.066-.058.085-.054.04-.115.07-.173.103-.024-.05-.055-.098-.07-.152-.015-.058-.007-.157-.1-.115-.195.091-.226-.04-.21-.142.017-.116.046-.223-.011-.322-.044-.076-.096-.137-.172-.003-.054.095-.124.063-.153.01-.026-.05-.047-.13-.02-.177.068-.127.083-.213-.05-.28a.556.556 0 0 1-.174-.153c-.064-.082-.086-.175.062-.232.13-.05.167-.128.114-.224a12.313 12.313 0 0 1-.324-.595c-.034-.062-.098-.128-.168-.145-.162-.038-.223-.114-.266-.268-.043-.154-.006-.264.071-.39l-.001.004c.027-.29.044-.29-.25-.163-.013.005-.032-.002-.065-.006-.005-.114-.017-.232-.014-.351.004-.15.133-.007.195-.098-.04-.087-.052-.224-.141-.285-.183-.13-.221-.316-.246-.495l-.002.002.218.092c-.023-.145-.057-.235-.046-.329.011-.105.062-.213.101-.33-.093-.058-.301-.02-.344-.194.14-.043.267-.085.392-.125.13-.523.17-.503-.055-.772-.21.157-.216.348-.159.529-.156.07-.151-.023-.194-.063l-.041-.037c.009.004.02.006.026.012.006.009.007.02.011.03.004-.078.03-.16.01-.23-.036-.122-.103-.238-.156-.352.142-.084.172.006.236.031.086.034.181.057.27.084l-.028-.155-.038-.021.034.025c.057-.023.16-.046.163-.07.008-.06-.026-.12-.05-.18-.033-.083-.082-.121-.227-.075-.042.014-.115.02-.148.005-.12-.06-.25-.123-.34-.21-.05-.05-.027-.143-.038-.214h.248c.031-.002.062-.018.106-.032.032-.073.067-.151.102-.235-.15-.018-.285.039-.337-.124a3.542 3.542 0 0 1-.076-.867c.012-.218.019-.447.165-.65.12.052.216.092.314.133l.029-.022c.069-.133.175-.264.062-.42-.025-.033-.082-.045-.123-.067l-.06.132c-.006.014-.001.034-.002.05l.002-.001c-.22-.03-.303-.167-.29-.37l.138-2.195.167-2.982c.011-.248.084-.525-.164-.735-.05-.042-.033-.166-.035-.253-.006-.193.009-.386-.01-.577a1.156 1.156 0 0 0-.102-.345c-.016-.037-.081-.079-.12-.075-.037.002-.092.06-.098.098-.04.277-.093.555-.096.832-.008.45-.231.885-.077 1.344a.332.332 0 0 1-.02.205c-.063.151-.09.286-.015.45.048.103.036.242.025.361l-.137 1.304c-.021.208.03.456-.068.617-.149.245.035.433.006.643-.007.061-.038.156-.08.171-.22.076-.22.252-.235.428-.08.948-.211 1.932-.23 2.85.022.398-.08.764-.183 1.164l.004-.005a2.464 2.464 0 0 1-.213-.232c-.019.079-.036.108-.03.136.037.188.185.343.084.57-.048.108-.026.321.198.366l.005-.04-.01.038c-.159.252-.207.529-.098.788.096.221.196.424.142.68-.005.026.017.06.04.083.208.24.215.238.167.41-.028.096-.007.15.08.199.132.077.17.195.095.339-.056.107-.038.19.042.266.043.044.106.093.116.147.037.219.038.45.192.634-.053.202.052.36.145.513.15.246.205.51.23.798a1.541 1.541 0 0 1-.249-.37c-.224-.471-.394-.964-.584-1.443-.158-.484-.424-.94-.45-1.459.004-.08-.036-.159-.051-.24l-.098-.526a9.4 9.4 0 0 1-.158-.855c-.015-.085-.098-.158-.151-.238l.002.001c.017-.254.01-.507.046-.754-.358-.033-.358-.037-.33-.432.313-.061.353-.086.388-.295.026-.142.022-.266.04-.424l.074-.677c.051-.542.1-1.084.151-1.618.01-.121.002-.246-.016-.366-.011-.079-.029-.183-.188-.144-.06.276-.12.577-.51.6-.065-.184.007-.326.146-.459.231-.221.237-.494.156-.78-.018-.066-.063-.128-.073-.195-.033-.224-.064-.444.05-.666a.952.952 0 0 0 .08-.402c.002-.074-.061-.05-.09.006-.01.015-.014.033-.025.045-.006.005-.027-.005-.058-.012.045-.31.082-.62.14-.929.014-.072.104-.13.158-.196l-.004.006c-.07-.156-.151-.293-.11-.49a6.87 6.87 0 0 0 .145-1.09l.1-2.722c.002-.087.012-.178-.003-.262-.078-.402-.015-.802.008-1.203l.02-.26c.003-.066.007-.147-.132-.123l-.196.906-.31 1.327c-.038.157-.056.31.053.451l-.002-.003c-.004.193-.079.368-.127.55-.043.165.035.368.012.563l-.132 1.354-.175 1.667-.225 1.82-.221 2.293c-.037.435-.105.865-.13 1.302 0 .02-.041.038-.07.06-.066-.3-.095-.586-.134-.876a.27.27 0 0 1 .032-.152c.147-.282.1-.574.075-.872-.02-.24-.016-.486-.011-.729.004-.192.024-.382.037-.575l-.034-.04.031.042a.902.902 0 0 0 .23-.519l.101-.726.281-1.805c.013-.086.036-.178.016-.26-.091-.353.028-.691.065-1.035.027-.26.034-.52.038-.78.002-.059-.044-.117-.107-.272l-.198.667c.022.652-.084 1.289-.214 1.923.028-.645.045-1.29.22-1.919.021-.313.032-.628.068-.94.012-.105-.006-.259.178-.28.031-.004.068-.076.077-.121.092-.482.161-.966.065-1.458-.03-.15-.03-.306-.043-.43.083-.026.17-.036.172-.056.048-.316-.069-.609-.145-.912-.133.419-.236.838-.339 1.259-.045.185-.1.37-.131.558-.091.531-.141 1.072-.266 1.596a10.32 10.32 0 0 0-.283 1.913c-.008.157-.035.313-.06.468-.088.552-.194 1.1-.265 1.655l-.271 2.447c-.083.947-.233 1.776-.23 2.858-.021 1.074.132 2.133.355 3.165a.995.995 0 0 1 .007.057c.045.4.15.771.25 1.15.108.376.207.765.385 1.112.049.103.084.212.119.32.092.297.195.59.303.883.12.284.256.561.39.84.26.565.573 1.094.895 1.619l.266.439c.542.86 1.094 1.724 1.735 2.515.566.761 1.238 1.428 1.877 2.125l1.178 1.19c.413.375.83.75 1.258 1.114.533.427 1.093.824 1.644 1.234l1.737 1.119.804.456c.356.195.742.41 1.136.584l2.38 1.067 2.147-.96c.308-.14.623-.264.92-.412l.777-.376c.737-.345 1.418-.777 2.109-1.196a32.758 32.758 0 0 0 2.89-2.18c.363-.278.696-.596 1.115-.798.047-.083.08-.179.143-.244.378-.379.726-.787 1.087-1.181a23.36 23.36 0 0 0 1.562-1.757c.793-1.011 1.479-2.107 2.136-3.22.377-.7.805-1.369 1.142-2.103.004-.008.03-.005.086-.016-.015.099-.015.192-.048.27-.093.244-.23.459-.343.686-.151.296-.286.602-.442.896-.302.55-.657 1.056-.99 1.583-.409.589-.846 1.156-1.275 1.724-.957 1.18-1.952 2.332-3.065 3.36-.138.159-.265.326-.414.473-.543.519-1.136.982-1.716 1.46-.614.436-1.207.9-1.837 1.32-.7.465-1.4.94-2.164 1.32l-.751.389c-.277.132-.563.25-.847.366-.569.235-1.137.457-1.698.663a7.1 7.1 0 0 0-.523.225l-.17-.07c-.053-.023-.106-.01-.18-.015l.294.274c-.395-.16-.72-.29-1.078-.433.064.096.084.152.122.177.326.21.664.407 1.012.582.163-.063.33-.133.499-.212.313-.147.642-.23.968-.323.053-.016.117.074.124.136.005.042-.094.124-.135.19-.114.183-.054.243.179.154l.527-.22 1.261-.57c.2-.103.404-.204.61-.296.214-.097.295-.115.458-.16.13-.033.248-.134.369-.206.456-.26.857-.596 1.302-.866.618-.375 1.217-.77 1.798-1.193.51-.354.97-.764 1.441-1.162.477-.39.925-.812 1.375-1.232.468-.415.898-.87 1.315-1.339.43-.453.847-.919 1.268-1.387.374-.592.867-1.094 1.258-1.682.319-.446.609-.919.882-1.405.28-.478.561-.953.812-1.46.31-.584.626-1.166.888-1.793.135-.309.275-.613.4-.927l.325-.979a22.53 22.53 0 0 0 .678-2.42c.067-.463.118-.928.164-1.39.046-.46.018-.956.032-1.429l.006-.494-.018-.386-.034-.76c-.02-.505-.043-1.01-.066-1.518-.013-.295-.046-.59-.069-.886-.04-.506-.12-1.012-.107-1.516.019-.645-.07-1.283-.073-1.926l-.028-1.256-.047-1.622a4.596 4.596 0 0 0-.047-.57 14.678 14.678 0 0 1-.157-2.15c.001-.272-.031-.524-.041-.787l-.016-.393-.834-.34-1.053-.423-2.822-1.056-1.968-.702-.887-.308-.99-.328-.491-.176c-.577-.2-1.164-.372-1.728-.603-.613-.251-1.246-.437-1.872-.647-.477-.159-.912-.434-1.425-.494-.094-.011-.18-.1-.266-.16a1.257 1.257 0 0 0-.679-.243c-.115-.004-.226-.07-.34-.107l-.314-.107c-.237-.07-.477-.103-.7-.196-.341-.143-.684-.383-1.027-.482-.24-.07-.472-.137-.705-.22-.106.057-.213.11-.322.16-.241.109-.484.223-.72.353l-1.3.71c-.374.203-.698.375-1.061.545-.3.138-.588.304-.879.463-.32.175-.621.405-.962.52-.336.116-.616.318-.928.464-.324.153-.531.448-.801.666-.02.015-.025.08-.01.094.034.033.089.075.128.069.065-.012.124-.054.184-.087l1.005-.545c.033-.017.12.039.16.081.02.02 0 .114-.03.138-.24.19-.521.325-.687.61-.042.071-.18.094-.28.118-.135.033-.276.04-.41.07-.064.014-.169.051-.173.09-.036.29-.188.17-.327.102h-.004l-.048.02-.046.024v-.002c.093.3.161.363.379.285.178-.063.338-.173.51-.253.066-.031.133-.13.234-.01-.34.186-.668.379-1.008.546-.122.06-.249.057-.366-.093-.128-.165-.145-.143-.298.068a.441.441 0 0 1-.2.138c-.26.094-.554.129-.783.272-.41.255-.924.322-1.262.706-.633.19-1.079.69-1.628 1.02-.062.036-.129.147-.116.21.02.101.136.092.218.063.281-.1.555-.2.831-.3l.24-.094a3.5 3.5 0 0 1-.679.499c-.43.26-.818.586-1.29.779-.238.098-.46.24-.68.377-.204.129-.395.279-.593.419-.08.057-.196.09-.165.27l.547-.07.103-.114c.011-.01.03-.014.046-.021-.006.019-.005.047-.019.056-.041.03-.088.052-.132.077l-.221.221c-.063.06-.14.108-.198.17-.06.061-.2.04-.196.206.105-.028.19-.044.269-.073.214-.08.418-.159.635-.241.213-.076.418-.153.648.005.084.058.24.037.354.012.356-.079.715-.158 1.06-.272.539-.176 1.067-.38 1.599-.571a3.94 3.94 0 0 1-.788.415c-.281.117-.431.458-.78.461-.024 0-.068.044-.068.068-.004.184-.129.214-.27.263-.279.095-.551.212-.82.334-.1.045-.239.09-.18.271.05.001.102.007.152.002.388-.04.732-.217 1.086-.36.145-.058.29-.143.483-.072-.32.17-.32.17-.459.393l.476-.212c.17-.084.339-.156.368-.4.012-.103.142-.044.219.002l-.004-.001c.193-.084.338-.277.577-.253l-.003-.001zM32.44 4.014c-.25.082-.475.084-.713 0l-2.268-.785c-.773-.268-1.557-.514-2.312-.825a6.806 6.806 0 0 0-.565-.2l-.333-.11-.38-.132c-.462-.162-.913-.353-1.364-.543a.437.437 0 0 1-.183-.197c-.041-.127.061-.161.168-.152.104.007.221.04.335.08l1.053.374c.342.12.77.278.975.339.505.163 1.008.33 1.509.509l2.024.7c.672.23 1.347.475 1.972.828.027.014.039.052.081.114" fill="#CAF1EF"/><g transform="translate(17.961 .517)"><mask id="b" fill="#fff"><use xlink:href="#a"/></mask><path d="M.074 3.548c.063-.05.121-.111.19-.152.407-.245.81-.486 1.208-.727l1.01-.596c.344-.202.625-.374 1.147-.656l1.473-.8c.022-.011.043-.026.066-.033.212-.078.42-.104.628-.214.068.025.135.04.206.045.022.002.11.115.121.165.01.048-.026.103-.065.118-.043.017-.114.001-.175-.02L5.796.65c-.918.51-1.857 1.045-2.665 1.44-.591.293-1.165.62-1.747.934-.061.032-.115.088-.18.102-.277.062-.506.215-.738.366-.1.063-.218.1-.326.148l-.066-.091z" fill="#CAF1EF" mask="url(#b)"/></g><path d="M36.408 37.647c-.466.48-.984.906-1.44 1.38-.517.579-1.117 1.063-1.713 1.549-.342.287-.694.565-1.067.814a.45.45 0 0 1-.165.065c-.017.003-.054-.043-.055-.07 0-.032.019-.089.044-.1.588-.267.958-.792 1.42-1.2.12-.108.249-.205.379-.3a9.413 9.413 0 0 0 1.488-1.402c.052-.06.108-.13.175-.164.361-.202.603-.525.842-.85.094-.127.216-.236.33-.35.018-.017.077-.014.1.002.025.016.048.062.038.09a.636.636 0 0 1-.098.211c-.09.11-.195.206-.295.307l.017.018zM21.085 43.639c.503.335 1.034.635 1.63.838.342.118.69.291 1.042.473l.553-.208c.035-.013.089.016.093.044.004.029-.042.106-.072.12l-.574.269-.715-.306c-.23-.1-.457-.228-.686-.32-.777-.324-1.592-.628-2.33-1.04a17.3 17.3 0 0 0-.89-.466c-.249-.127-.511-.237-.748-.386-.042-.025-.084-.095-.083-.138.004-.098.093-.095.171-.074.074.021.149.051.218.09l.422.22.817.378c.375.185.76.357 1.16.506h-.008zM29.153 43.46c-.248.24-.552.32-.92.353.043-.089.053-.147.09-.177.4-.317.814-.577 1.296-.774.307-.118.573-.376.845-.583.163-.128.33-.238.533-.264.05-.006.124.01.142.043.018.032-.008.123-.042.146-.458.305-.934.586-1.409.864-.197.111-.398.208-.536.395l.001-.003zM16.185 41.714c.374.14.7.368 1.03.593.638.456 1.266.93 1.948 1.34v-.004l-.05.096.001-.002c-.948-.468-1.822-1.043-2.714-1.591-.176-.12-.243-.253-.208-.433l-.007.001zM11.34 37.341c.06.12.122.239.212.415-.112-.044-.172-.05-.206-.083-.322-.332-.673-.638-.96-1.005-.39-.492-.77-.983-1.124-1.5-.03-.044-.028-.107-.043-.172.393.231.387.23.547.49.104.169.229.328.349.487.271.346.529.712.817 1.042.117.142.235.274.414.326h-.007zM6.447 30.184c-.038-.042-.095-.08-.115-.13-.187-.504-.577-.927-.587-1.504-.002-.112-.094-.233-.141-.352-.137-.353-.285-.71-.24-1.184.236.348.448.586.432.941-.012.26.057.498.175.729.268.453.347.962.516 1.451.003.01-.02.026-.04.05M13.646 39.647c.016.077.03.157-.083.159a.207.207 0 0 1-.11-.04c-.36-.282-.735-.55-1.008-.932-.137-.193-.318-.357-.475-.535a.439.439 0 0 1-.098-.198c.269.116.524.245.707.483.268.341.53.693.943.88.053.025.084.125.125.19l-.056-.009.055.002zM12.342 25.78c.18.003.237.093.242.19.006.306.168.545.335.777.023.031.03.086.014.126a.276.276 0 0 1-.102.105c-.02.012-.072.004-.086-.012-.18-.217-.276-.478-.332-.751-.027-.137-.06-.272-.071-.435M40.454 31.942c-.363.786-.813 1.417-1.226 2.064-.024.036-.093.042-.138.06-.016-.031-.032-.046-.03-.06.009-.039.016-.08.038-.11a44.66 44.66 0 0 0 1.204-1.906c.007-.012.035-.012.152-.048M15.995 32.03a2.604 2.604 0 0 1-.408-.124c-.12-.052-.16-.218-.067-.334.107-.134.238-.251.368-.368.02-.02.084.008.126.013-.011.042-.012.106-.039.122-.153.099-.164.203-.099.338.046.09.058.2.119.353M7.12 14.362c-.027-.079-.091-.166-.075-.237.094-.418.204-.834.317-1.248.008-.03.08-.049.127-.058.013-.002.055.053.054.078-.07.51-.107 1.03-.43 1.469l.006-.004zM38.284 35.12c.022.044.041.068.036.074-.353.515-.743.994-1.12 1.491a.12.12 0 0 1-.043.04c-.033.01-.081.026-.102.012-.019-.016-.034-.077-.02-.098.097-.15.19-.307.306-.44.305-.363.64-.695.943-1.08M19.27 43.703c.087.011.27.077.435.139.165.062.325.13.482.205.326.138.643.299.948.537.06.046.083.114.125.172-.077 0-.16.023-.233-.006-.315-.13-.634-.257-.936-.41l-.473-.287c-.155-.097-.33-.207-.395-.257h-.001l.05-.094h-.002zM42.737 25.47c.06-.35.086-.722.132-1.08.007-.054.06-.146.091-.15.096-.012.1.092.09.184a11.173 11.173 0 0 1-.288 1.678c-.017.082-.07.158-.111.234-.008.016-.037.036-.046.032-.028-.016-.075-.047-.072-.065l.164-.838.04.005zM8.133 33.072l-.019.114c-.02.083-.09.158-.147.07a17.821 17.821 0 0 1-.626-1.053c-.041-.071-.024-.176-.05-.4.238.36.405.575.533.83.084.158.203.296.308.444v-.005zM11.828 16.883l.07.882c.003.043-.034.104-.073.13-.032.022-.131.016-.135.003-.08-.287-.145-.578-.007-.866.03-.058.098-.097.15-.145l-.005-.004zM42.347 8.04c-.006-.096-.012-.19-.016-.277l-1.586-.612c-.028-.011-.045-.072-.027-.093.019-.022.09-.04.134-.034.145.024.31.043.432.098.4.181.788.372 1.17.56l-.006.143c0 .035-.042.094-.101.215M16.247 6.144c-.206-.007-.342.152-.516.221-.026.011-.09-.001-.092-.01-.007-.045-.001-.092.003-.138.003-.015.021-.03.034-.038l.852-.485c.02-.013.07.004.09.025.018.021.03.079.017.093l-.292.29h-.004l-.093.043v-.001zM42.915 17.674c.129.278.231.553.194.85-.004.038-.065.093-.1.093-.04 0-.108-.042-.118-.079-.085-.287-.042-.576.024-.864M15.994 41.618c-.074.008-.168.05-.215.018-.272-.188-.575-.345-.805-.623.334.011.428.064 1.01.528l.01.077zM10.548 35.431c-.454-.196-.592-.51-.718-.83-.005-.01.008-.04.018-.043.032-.008.085-.024.098-.008.205.257.4.504.602.881M41.58 29.125c.056-.072.117-.154.185-.23.008-.009.077.016.077.033.01.257-.099.476-.282.658-.01.01-.04.01-.047 0-.02-.027-.053-.064-.046-.09.03-.12.072-.238.114-.371M6.512 28.295l-.364-.969c-.009-.023.02-.078.043-.087.025-.01.08.006.096.03.18.272.267.557.225 1.026M17.184 41.737c-.271-.16-.519-.352-.771-.537-.027-.02-.02-.095-.016-.142.001-.009.072-.018.102-.005.316.146.536.38.68.685l.005-.001zM9.637 34.264c-.274-.153-.426-.285-.438-.522-.002-.031.02-.073.045-.084.024-.012.074-.004.097.015.149.13.24.29.296.59" fill="#CAF1EF"/><path d="M11.937 16.884h-.11l.005.002-.075-.073c-.117-.123-.187-.261-.09-.42.063-.1.23.033.351.286.013.03.016.067.024.101l.004-.004-.114.113.005-.005zM13.194 27.419c-.01.055-.007.125-.03.134-.053.025-.136.045-.175.023a.37.37 0 0 1-.14-.16c-.013-.028.009-.095.039-.12.026-.022.099-.026.13-.009.065.034.118.086.176.132" fill="#CAF1EF"/><g transform="translate(22.382 44.876)"><mask id="d" fill="#fff"><use xlink:href="#c"/></mask><path d="M.102.437C.097.332.13.237.33.337c.262.13.517.293.774.441C1.131.956.94.876.811.814.568.7.33.56.096.43l.006.007z" fill="#CAF1EF" mask="url(#d)"/></g><path d="M43.065 22.325c.165.218.157.43.133.628a.625.625 0 0 1-.119.29c-.049.064-.123-.121-.103-.32.019-.176.053-.35.089-.598M15.234 30.332l.171.111c.06.042.15.076.084.176-.059.09-.275.121-.308.039-.028-.07.025-.178.053-.326M7.118 14.997c-.123-.212-.144-.423.001-.634l-.005.003c.155.056.222.154.154.312l-.154.314.004.005zM42.46 26.912c.002.399-.122.723-.354 1.01l.268-.847c.014-.058.057-.108.086-.163M14.507 40.55c-.202-.073-.42-.131-.42-.387 0-.012.023-.03.035-.03.26.019.31.228.385.418M9.888 14.36c0 .168.006.335-.005.501-.003.032-.072.058-.11.087-.022-.043-.065-.088-.06-.128.024-.15.063-.299.096-.448l.079-.011zM17.844 33.768c.03-.08.053-.163.092-.238.021-.039.084-.096.105-.09.052.017.115.056.128.104.014.043-.018.132-.056.166-.079.07-.176.102-.27.05l.001.008zM8.784 34.554c-.022-.118-.047-.225-.058-.331-.002-.018.054-.057.074-.049.046.02.118.057.126.092.023.103.019.21.025.314l-.167-.026M35.15 4.851l.115.094c.01.009.006.036 0 .051-.005.016-.021.035-.034.038-.137.033-.234-.035-.315-.134-.009-.012-.01-.035-.005-.05s.024-.037.033-.036l.205.037M12.351 25.48c-.005.034.002.075-.015.084-.039.023-.094.047-.13.04a.152.152 0 0 1-.098-.078c-.016-.033-.002-.08 0-.12.045.001.098-.006.138.007.042.013.073.045.105.066M43.016 18.987c.081.173.092.348.047.551-.133-.206-.133-.206-.047-.55M35.16 14.122c-.026-.113-.055-.227-.073-.342-.003-.02.038-.065.062-.068.028-.003.08.026.083.046.018.115.023.231.034.346l-.106.018zM13.796 28.804a.438.438 0 0 1-.31-.248c-.011-.019.01-.056.017-.084.042.005.107-.005.123.017.056.082.097.175.17.315M4.842 24.713c-.035-.286-.002-.562.015-.836.15.304.185.581-.01.839l-.005-.003zM42.742 13.751v.596c-.136-.195-.107-.402-.107-.606l.107.01zM42.958 16.92c.01.097.025.194.027.29 0 .02-.048.054-.075.055-.026 0-.08-.031-.079-.049.001-.097.015-.193.025-.291l.102-.004zM16.41 32.39c-.03.039-.058.103-.093.11-.035.009-.096-.03-.11-.065-.023-.052-.04-.15-.012-.176.078-.069.155-.033.198.043.015.025.012.062.018.093v-.005zM15.134 40.29l-.28-.382c.116-.129.2 0 .271.064.07.06.12.148.178.224l-.174.094h.005zM43.082 21.8c-.025-.064-.07-.127-.072-.19-.001-.063.03-.136.072-.183.05-.053.117.032.115.174 0 .067-.02.133-.03.2h-.085zM15.825 40.731c.095-.002.175-.023.192-.001.04.051.049.123.071.187-.047.01-.119.042-.135.025-.049-.05-.075-.12-.128-.21M6.713 30.902c-.009-.017-.028-.036-.026-.051l.03-.194.125.114c.013.012.025.04.022.054-.015.047-.035.09-.053.136l-.098-.059zM7.908 31.5c.047.018.089.02.108.042.065.075.132.154.088.257-.007.014-.04.03-.045.025-.056-.047-.122-.092-.154-.156-.022-.04 0-.106.003-.167M8.711 32.69c.055.081.104.147.14.218.01.016-.026.054-.04.082-.06-.06-.12-.12-.174-.186-.005-.006.032-.05.074-.114M13.795 38.929c-.178-.01-.327-.085-.405-.404.199.2.302.301.405.404M6.771 28.552c0 .06.006.132-.003.199-.004.024-.048.053-.074.05-.024-.002-.06-.04-.071-.069a.453.453 0 0 1-.03-.165c0-.028.034-.065.06-.07.026-.003.062.028.118.055M12.83 38.088l.166.056c-.014.04-.019.088-.044.118-.01.013-.083 0-.093-.017-.02-.038-.017-.085-.029-.157M43.078 20.885a.527.527 0 0 1-.062-.173c-.004-.024.026-.057.046-.08.006-.008.046-.001.047.003l.033.232s-.06.025-.064.018M41.337 30.057c-.016.09-.016.152-.037.204-.05.112-.099.23-.212.424.069-.338.057-.347.25-.628M9.69 15.943l-.007-.356c.001-.027.031-.053.05-.082.115.02.113.116.116.194.006.114-.068.187-.165.239l.005.005zM9.815 22.092c-.008-.142-.02-.275-.015-.513.175.303.185.282.01.51l.005.003zM38.576 34.713c.045-.086.077-.166.128-.232.014-.02.084.005.128.009-.042.078-.082.158-.128.233-.008.011-.059-.004-.128-.01M11.625 36.68c-.152.053-.204-.045-.269-.107-.015-.015-.005-.06-.001-.09 0 0 .038-.005.05.003l.22.194M6.967 16.713c-.041.035-.07.074-.088.07a.112.112 0 0 1-.067-.07c-.004-.023.027-.053.042-.08l.113.08M9.18 11.637c.06.045.113.078.154.12.011.013-.01.057-.016.086-.055-.026-.113-.05-.164-.084-.008-.005.011-.057.027-.122" fill="#CAF1EF"/><path fill="#CAF1EF" d="M9.577 15.942h.112l-.005-.004-.016.547H9.6l-.017-.547zM11.837 18.783l.067.101c-.027.016-.066.05-.08.042-.034-.02-.058-.06-.086-.09l.099-.053M9.826 16.799l.057-.097c.035.032.075.06.101.098.007.012-.03.051-.047.078l-.111-.08zM4.867 24.85c.165.241.148.25.102.601-.064-.268-.072-.442-.1-.604l-.002.003zM42.592 13.098c-.013-.049-.032-.092-.032-.135 0-.02.046-.053.07-.079.017.084.043.11.051.156.002.012-.048.032-.09.058M42.746 15.085h.067l.03.189c-.024 0-.07.003-.072-.003-.011-.06-.017-.122-.025-.186M9.944 12.714l-.132-.077c.023-.034.04-.077.073-.102.011-.01.075.013.078.028.004.04-.008.082-.019.151M7.401 30.367c.061.019.11.02.116.037.025.064.037.132.054.2-.028-.009-.073-.008-.083-.026-.033-.06-.055-.128-.087-.21M43.006 20.15c-.008-.056-.018-.098-.016-.141 0-.009.043-.017.066-.025.005.031.02.063.015.092-.005.02-.034.04-.065.073M14.557 39.483l.034.157c-.048-.01-.098-.01-.14-.031-.024-.014-.031-.06-.046-.093l.152-.033M11.903 37.132l.002-.091c.032.006.09.01.09.02.009.04 0 .08-.003.12l-.089-.049zM42.433 8.955c.047.05.094.098.134.162a.488.488 0 0 1-.041.13s-.035-.004-.038-.02l-.05-.28-.005.008zM42.66 11.805l-.048.175c-.025-.076-.055-.147-.07-.23-.006-.025.034-.079.054-.12l.063.175M7.688 31.122l.02-.099c.031.01.08.017.087.034.01.028-.01.065-.018.1l-.089-.035zM34.05 4.628c-.033-.007-.07-.009-.095-.025-.01-.005.006-.05.01-.078.032.007.069.007.096.024.008.005-.007.051-.011.079M14.945 29.836c.025.006.059.005.071.02.01.01-.014.046-.022.07-.025-.005-.06-.003-.072-.02-.01-.01.014-.045.023-.07M11.914 19.693c-.047.012-.089.029-.13.028-.016 0-.029-.047-.042-.073l.127-.055.045.1M12.042 16.78c.012.013.03.023.032.038l.018.132-.155-.066-.005.005.114-.112-.004.003zM12.754 25.185c-.002.028-.002.055-.01.083-.003.012-.02.022-.032.034-.01-.018-.035-.04-.027-.05.015-.026.048-.044.074-.066h-.005zM43.049 23.798l-.032-.083a.883.883 0 0 1 .04-.023c.013.024.022.053.034.08l-.042.026zM10.113 13.21c-.005.046-.003.096-.017.141-.006.019-.046.028-.07.041-.005-.027-.023-.065-.012-.08.027-.039.07-.066.105-.099l-.006-.004zM9.868 20.754l.038.017-.034.071-.035-.017.031-.07M9.654 18.45l.039-.014c.005.012.016.028.013.037-.005.01-.025.01-.038.014l-.014-.037zM36.723 5.56c.025.005.052.01.077.018l.001.036c-.026-.005-.053-.01-.077-.018-.005-.001-.001-.023-.001-.037M35.666 5.202c-.029 0-.058 0-.087-.004V5.15l.088.004-.001.048M6.118 26.798c.001-.017-.003-.04.005-.046.009-.007.026.003.042.006 0 .015.004.039-.004.045-.007.006-.028-.003-.043-.005M7.208 29.782l.021.042-.067.01c0-.016-.004-.038.004-.047.008-.008.027-.004.042-.005M21.062 36.059c.03-.004.062-.008.089-.013.012 0 .026.01.039.014-.018.011-.038.031-.051.029-.028-.006-.053-.023-.078-.036v.006zM15.593 40.473l-.048.006.015-.039zM7.055 31.38l-.01.047-.078-.038.056-.056.032.047"/><path d="M10.118 13.213c.002-.032-.002-.066.008-.095.004-.016.034-.024.052-.034-.003.016-.001.034-.008.046-.017.028-.037.053-.057.08l.005.003zM42.82 15.99l-.041-.015.024-.078.04.014-.023.078M9.81 22.089c.001.03.007.06-.002.087-.003.013-.035.021-.053.031 0-.014-.002-.031.004-.043.016-.025.036-.048.056-.072l-.005-.003zM11.736 20.446c.02.025.05.048.059.076.009.026-.005.058-.008.088-.023-.015-.054-.026-.065-.046-.013-.028-.01-.063-.015-.096l.03-.022zM6.179 22.294l-.022.03-.01-.036zM11.759 21.358l.033-.021c.017.016.03.037.045.056a3.126 3.126 0 0 0-.034.022c-.017-.017-.03-.039-.044-.057M36.31 5.382l.043.003-.02.032zM12.43 25.031c.016 0 .039-.004.047.002.007.006-.001.024-.004.037-.016 0-.037.006-.045-.001-.008-.006 0-.024.003-.038M5.919 25.625l.014.04-.035-.006zM6.974 29.272c.012-.003.03-.016.035-.01.01.008.013.027.018.041-.012.005-.03.015-.034.01-.01-.007-.014-.027-.019-.04M17.074 32.537c.007-.013.012-.034.021-.037.01-.004.025.008.037.013-.007.014-.011.034-.022.038-.01.004-.024-.008-.036-.014M38.079 5.999c.139-.032.281-.055.303.132h.01l-.317-.139.004.007zM16.191 41.712l-.199-.095-.008-.076c.115.004.173.071.2.173l.007-.002zM14.123 39.251l-.024.028-.02-.038zM10.785 35.704l.035.022-.029.018zM39.377 6.45l-.048.037.05-.03zM39.535 6.526l.085.08c-.02-.01-.045-.017-.056-.028-.014-.016-.016-.035-.024-.053l-.005.001z" fill="#CAF1EF"/><path d="M38.075 5.992l-.107-.009c.015-.002.03-.006.046-.003.02.003.043.012.065.018l-.004-.006zM6.062 26.318l-.022-.035.033-.004zM35.569 21.932l-.034-.043c.01.005.022.008.027.014.005.008.004.02.007.029zM4.87 24.847l-.027-.134.004.002.012.068.008.066zM21.092 43.639h-.007.007zM39.38 6.458l.156.068h.004l-.164-.075zM42.438 8.946l-.005.009.005-.009zM19.163 43.646l.107.056h.003l-.11-.058zM38.382 6.131l-.046.107-.015-.025.07-.082z" fill="#CAF1EF"/><path fill="#CAF1EF" d="M38.336 6.237l-.056-.006.041-.018zM7.114 14.993l.004.004-.004-.004zM11.346 37.342h-.007.007zM17.18 41.738l.004-.001h-.005zM15.129 40.29h.005-.005zM8.132 33.077v-.005.005zM19.506 34.855h-.005.005zM13.5 11.595l.004.002-.005-.002zM12.759 25.187l-.006-.001h.006z"/><path d="M39.352 20.933l.014.011-.003-.045-.01.034zM36.865 8.596c-.058-.014-.112-.02-.168-.029.031.023.063.055.096.064.05.014.102.014.163.02-.04-.025-.07-.05-.09-.055zM14.355 39.3c.02.032.038.062.067.097.007.008.056.027.087.042l-.05-.071-.104-.068zM32.291 7.237c.33.11.56.187.79.22l.534.185 1.03.302 1.454.455c-.002-.04-.005-.08-.006-.122l1.401.441c.057.019.109.057.162.086l-.003-.002.406.174-.009-.003c.145.076.226.076.281.047l.022-.001.14.033.035.009.01.001h.001v.001l.679.928v.007l.002.018.004.071.015.286c.005.19-.006.383-.05.585-.049.242-.034.583.008 1.026l.078-.817.045 1.354c.005.168-.024.263-.068.318-.006-.091-.008-.188-.019-.271-.005-.042-.027-.057-.042-.085-.001.064-.01.15-.001.188.016.069.041.11.064.161.008.034.02.072.028.1.058.276.06.283-.012.542-.054.196-.007.275.03.378l-.002-.006c-.038.331-.098.65-.019 1.016.019.082.019.24.01.346-.022.236.007.353.065.458.027.048.024.155-.003.238a.543.543 0 0 0-.03.16c.075.47.04.995.066 1.489.017.32-.005.664-.008.998-.096.284-.055.66-.066 1.01-.012.385.008.729.082 1.012.074.286.037.585.026.885 0 .025-.024.07-.033.06-.073-.083-.056.094-.032.161.086.25.13.51.057.871l-.015-.183c-.001.02-.006.043-.004.056.006.035.013.08.022.122l-.002.147.002-.004c-.03.304-.038.574-.088.906-.03.204-.022.347.02.472.016.047.026.2.017.254-.06.296-.038.563-.067.835a1.377 1.377 0 0 1-.047.295c-.125.28-.175.53-.155.856.013.088-.073.286-.113.434-.049.172-.12.361-.143.51-.068.473-.198.824-.425 1.075-.058.07-.128.237-.109.298.044.135-.035.35-.131.603-.19.475-.42.928-.636 1.388-.145.32-.345.604-.526.9l-.068.071-.033.08-.003.017-.327.657c-.226.388-.464.762-.762 1.058-.161.152-.322.396-.43.634-.035.08-.107.197-.175.29-.269.357-.51.736-.826 1.061-.148.146-.294.334-.441.503l-.538.628c-.77.817-1.565 1.609-2.414 2.34-.529.496-1.123.917-1.684 1.37-.708.5-1.417.98-2.157 1.448-.649.415-1.318.808-2.017 1.143-.447.227-.891.465-1.292.497-.246.161-.423.342-.774.406l.08-.051a1.12 1.12 0 0 0-.047.021c-.016.01-.024.02-.036.031-.128.068-.255.146-.388.203l-.108.047-.012.006h-.004l-.002.002h-.765l-.007-.003-.027-.012-.053-.024-.213-.096-.425-.194-.848-.391c-.052-.025-.137-.082-.13-.092.042-.07-.128-.155-.286-.225-.206-.09-.386-.192-.582-.304-.383-.218-.789-.41-1.161-.654-.399-.133-.8-.424-1.198-.658-.315-.207-.59-.406-.77-.653-.13-.184-.363-.335-.629-.429-.206-.069-.38-.222-.574-.375a24.308 24.308 0 0 1-1.748-1.501c-.183-.169-.365-.337-.489-.512a1.067 1.067 0 0 0-.292-.277 1.044 1.044 0 0 1-.157-.132c-.396-.406-.829-.782-1.19-1.22a11.574 11.574 0 0 1-.757-.97c-.252-.376-.526-.795-.893-1.104a3.856 3.856 0 0 1-.471-.523c-.185-.243-.09-.353-.243-.549-.143-.18-.298-.228-.447-.536a2.396 2.396 0 0 0-.146-.251c-.07-.114-.155-.248-.234-.374l.001.004a1.757 1.757 0 0 0-.28-.496c-.197-.271-.39-.53-.477-.882a2.134 2.134 0 0 0-.211-.46c-.238-.364-.386-.81-.573-1.2a1.43 1.43 0 0 1-.087-.277c-.05-.222-.14-.406-.233-.617-.218-.554-.408-1.164-.368-1.635v-.126c-.005-.149-.027-.34-.083-.405-.167-.202-.24-.566-.283-1.006-.002-.202-.015-.415-.027-.623-.018-.306-.056-.626.024-.837.017-.04.02-.18.023-.277.007-.224.017-.45.013-.672-.004-.312.014-.63-.057-.926-.033-.138-.017-.423-.024-.641.08-.212.065-.528.064-.825 0-.256.009-.502.052-.71.052-.253.044-.591 0-.764-.06-.222-.037-.391-.035-.61 0-.389.069-.621.13-.87l.02-.01-.018.016c-.06-.142-.075-.341-.072-.588l.013-1.304c.004-.215.008-.43.014-.649l.024-.583c.012-.076.013-.16.005-.243a.89.89 0 0 1 .034-.337c.003-.01.015-.012.026-.02l.083.192v-.284a.104.104 0 0 0-.063-.095.1.1 0 0 1-.058-.116.401.401 0 0 1 .067-.146.245.245 0 0 0 .062-.15c.021-.35.057-.687.125-.999a.365.365 0 0 0 .002-.108.839.839 0 0 1 .082-.44l.18-.41c.007-.014.009-.035.011-.054l.047-.375c.006-.048.014-.095.056-.107.007.035.013.052.014.066l.004.174-.011.008.009-.01c.021-.005.025-.053.068-.003.004.022.011.047.012.068.002.058.005.117.001.17-.007.089.105.103.101.185v.001l.07-.04-.001.001c.014-.044.034-.083.04-.133l.042-.451c.004-.029.015-.05.023-.078.103.156.12.284.132.409l.026.392c.008.079-.008.13-.047.16.052.085.08.167.085.25.006.102.015.204.031.31l.11.611c.017.111.016.214.026.321l.096.765c.03.37.09.749.13 1.118.01.096.018.095.033.45l.036.818.064 1.628.107 4.063.016.34c.03.46.029.908-.015 1.36-.034.396.012.768.048 1.167.121.724.253 1.46.493 2.178.134.513.33 1.017.525 1.52.642 1.59 1.515 3.11 2.538 4.526.835 1.094 1.682 2.193 2.687 3.152a30.13 30.13 0 0 0 2.792 2.487c.5.414 1.052.755 1.57 1.14.777.496 1.545 1.014 2.367 1.429.12.066.266.134.354.201.288.236.592.41.97.475.041.007.122.055.185.084l.497.234.172.078.087.04.042.02.022.01.01.005h.003-.842.003l.005-.003.348-.148.698-.297c.472-.185.92-.424 1.37-.657.39-.198.777-.402 1.147-.637a26.187 26.187 0 0 0 3.054-2.047 19.032 19.032 0 0 0 1.498-1.25c.498-.422.954-.886 1.412-1.349 1.09-1.11 2.108-2.298 2.966-3.593 1.077-1.591 1.963-3.317 2.514-5.123l.276-.983.178-.996c.08-.331.057-.665.093-.998.03-.323.041-.671.035-1.043l-.003-2.681.007-3.547-.041-5.577v-.066l-.007-.943V9.993c.293.402-.658-.902.659.9l-.008-.001-.028-.01-.056-.017-.113-.034-.224-.07-.448-.139-1.795-.554-2.76-.839c-1.012-.311-2.021-.647-3.034-.943a87.845 87.845 0 0 1-2.685-.834l-3.819-1.218-.955-.303-.478-.152-.239-.076-.118-.038-.015-.006h-.003l.649-.009-.004.002-.008.003-.028.01-.057.02c-.607.2-1.214.402-1.832.608l-4.17 1.359-4.553 1.415-.894.274-.449.138-.142.037-.553.144-.96.26-.752.206c-.24.063-.501.107-.77.144-.051.006-.113 0-.177 0-.023-.066.031-.118-.055-.176-.117-.08-.111-.156-.048-.229.03-.036.05-.077.086-.11.189-.168.337-.356.577-.513.235-.154.431-.332.717-.466.184-.09.374-.186.562-.279l.285-.139 1.03-.402c1.048-.4 2.084-.827 3.177-1.2.147-.05.34-.101.434-.209-.33.116-.62.219-.909.334-.374.149-.515.184-.995.28a83.47 83.47 0 0 1 3.899-1.36c.735-.235 1.467-.519 2.207-.707.083-.02.19-.066.267-.104.242-.119.493-.195.759-.268.158-.043.324-.106.487-.162l1.553-.528.496-.162.122-.04.063-.02h.002l.002-.001.568-.008.005.001.007.003.016.005.029.01.24.08 4.115 1.334c.206.067.418.13.483.237.015.024.133.077.212.106.227.081.456.147.673.172.484.057 1.01.21 1.53.37.122.038.298.116.341.16.176.18.463.26.806.325.099.02.21.053.407.103l-.627-.22c-.03-.01-.07-.042-.068-.052.002-.011.043-.015.078-.01.062.01.134.025.2.045l2.964.925c.048.015.091.047.148.08-.097-.007-.172-.011-.246-.015-.34-.125-.34-.124-.793-.223zM10.213 7.542l-.346.123-1.268.49-.194.079-.09.04-.18.08c-.01.005-.016.016-.022.025-.003.004-.002.012.003.014.012.007.034.019.04.017l.2-.077.126-.056.368-.146.741-.297.646-.275-.024-.017z" fill="#333"/><path d="M11.16 7.19l-.16.077c-.026.015-.038.037-.025.043a.181.181 0 0 0 .096-.003c.113-.038.23-.078.33-.12.047-.02.09-.062.081-.076-.006-.01-.1.01-.159.023-.042.01-.093.031-.162.056M11.983 6.923c-.016.008-.041.019-.043.024-.002.004.02.006.033.003.014-.005.03-.016.047-.024l-.037-.003zM21.332 24.09l-.005.01h.012l-.007-.01zm3.332-.495c.013-.008.022-.024.033-.038-.013-.005-.03-.018-.037-.014-.013.007-.02.025-.031.04.016.007.03.016.035.012zm-7.608-7.332c-.013.005-.026.008-.038.017l.012.029.027-.012v-.034zm8.674 6.658c-.074.052-.13.084-.164.142-.045.022-.093.04-.134.066l-.234.163c-.113.067-.237.118-.359.18l.051.089c-.122.061-.24.115-.363.153-.015.006-.037-.007-.056-.011h.002l-.124.002.003.001c-.05-.011-.06.016-.06.058l-.003.009c-.089.06-.174.128-.299.077-.074-.028-.157.007-.264.072l.23.016-.348.124c-.045.012-.075-.01-.097-.047.024-.009.05-.014.07-.027.01-.007.01-.027.015-.041-.018.001-.041-.003-.05.007-.016.016-.022.04-.032.062l-.023.03c-.065.062-.068.064-.146.01-.06-.04-.074.005-.097.042v-.002c-.092-.024-.18-.058-.273.015-.02.017-.064.02-.092.012-.066-.014-.096.013-.121.066-.012.026-.042.024-.066 0-.012-.01-.037-.028-.044-.025-.126.078-.27.042-.406.057-.088.011-.182-.013-.272-.02-.07-.088-.174-.07-.267-.092a.357.357 0 0 0-.285.033c-.09.057-.165.003-.243-.025-.007-.003-.013-.027-.01-.034.037-.058-.013-.055-.036-.039-.082.06-.164.082-.245-.006l.053-.002-.015-.007-.037.012-.039-.01h.001a1.919 1.919 0 0 1-.212-.137c-.044-.03-.081-.03-.126.002-.015.012-.058.017-.069.006-.058-.058-.128-.057-.203-.056-.026 0-.065-.008-.072-.025-.042-.094-.098-.126-.2-.096-.026.008-.068-.032-.104-.05-.04-.02-.08-.057-.122-.06-.134-.003-.206-.076-.228-.203-.005-.035-.042-.063-.071-.04-.065.055-.118.026-.178-.01a2.604 2.604 0 0 1-.332-.222c-.071-.057-.133-.128-.199-.192l-.006-.031-.024-.007-.007.002a1.056 1.056 0 0 1-.169-.096c-.095-.07-.194-.139-.219-.27a.164.164 0 0 0-.148-.136.156.156 0 0 1-.084-.042c-.083-.085-.182-.157-.235-.27-.025-.049-.075-.09-.11-.139l-.133-.174c-.181-.239-.317-.507-.463-.767-.08-.176-.161-.352-.23-.531l-.186-.664a3.557 3.557 0 0 1-.115-.6c-.014-.13-.026-.265.068-.373-.056-.07-.144-.123-.074-.22l.016.023a.193.193 0 0 1-.002-.013l-.013-.011c-.01-.037-.03-.074-.032-.112-.002-.162-.008-.325.015-.486.001-.015.02-.04.029-.04.073.005.072-.044.063-.09a.47.47 0 0 1 .006-.169l.044-.34c-.068-.118-.02-.241-.005-.36.015-.097.036-.184.141-.235.078-.037.086-.107.035-.193-.04-.067-.02-.126.002-.185.074-.185.131-.378.224-.554.028-.059.058-.117.118-.149.04-.02.048-.053.038-.096a.091.091 0 0 1 .007-.055c.052-.139.123-.27.2-.393.061-.087.112-.181.215-.239.109-.066.195-.157.195-.308a.409.409 0 0 1 .064-.18c.039-.07.141.004.17-.054.025-.054-.021-.14.068-.178a.177.177 0 0 0 .06-.044c.027-.028.044-.062.066-.094h-.001c.054-.013.086-.049.106-.1.036-.085.086-.154.189-.173a.153.153 0 0 0 .1-.082c.044-.118.181-.137.24-.24.012-.018.044-.027.07-.031.061-.01.093-.055.134-.099.101-.118.23-.22.403-.148a.087.087 0 0 0 .037.004c.041-.003.086-.017.084-.06-.009-.133.069-.186.18-.21.05-.01.097-.034.143-.055.07-.032.135-.08.213-.028.016.011.05-.002.072-.01.056-.016.113-.024.164-.047.074-.031.154-.042.203-.129.024-.04.096-.052.147-.076.075.055.146.021.219 0a.286.286 0 0 1 .187 0c.074.03.152 0 .185-.05.042-.062.089-.05.143-.058.098-.016.168.034.24.08l.007.018-.007-.017c.023-.061.07-.084.132-.092.21-.01.422-.042.633-.01l.024.003a1 1 0 0 0 .241.011.716.716 0 0 1 .342.06c.01.003.017.017.03.028l-.157.066.273.034c.037.003.067-.014.07-.055.006-.053.052-.063.094-.047.06.022.116.054.162.097a.386.386 0 0 0 .16.101c.334.093.655.24.932.44.027.02.061.035.094.046.162.048.276.163.374.29.112.137.217.274.307.425.011.016.025.03.04.044.089.089.185.168.263.268.03.036.06.075.058.134-.025-.012-.038-.015-.048-.022a8.343 8.343 0 0 0-.117-.101l-.004-.018.006.017c-.002.029.029.064-.016.087-.015-.008-.033-.015-.047-.026-.04-.032-.084-.058-.121-.091-.063-.055-.093.072-.15.024l.014.107v-.002c.029.04.05.083.084.116l.274.316c.017.02.027.047.042.073-.133.033-.216-.019-.295-.076-.084-.062-.16-.136-.254-.185a.19.19 0 0 1-.095-.138.208.208 0 0 1-.183-.024 1.307 1.307 0 0 0-.219-.097c-.143-.055-.293-.083-.442-.114-.081-.017-.152-.063-.233-.08-.19-.046-.379-.066-.568-.087-.277-.05-.561-.033-.834-.007l-.12.008c-.178.028-.352.052-.522.092a4.413 4.413 0 0 0-.746.225.375.375 0 0 0-.057.034.382.382 0 0 1-.249.073.374.374 0 0 0-.216.088c-.124.08-.234.184-.354.266-.087.055-.165.125-.25.183a3.855 3.855 0 0 0-.698.692c-.15.21-.308.414-.422.646-.094.213-.197.42-.269.642-.04.115-.056.236-.09.352a5.192 5.192 0 0 0-.093.51c-.003.027.004.058-.015.077-.06.066-.094.134-.018.205.008.008-.003.025-.002.038l-.006.105c-.01.193.001.387.023.581.002.084.038.162.05.245.033.232.095.461.177.683.085.236.206.457.333.674.16.254.334.509.553.724.258.282.584.486.908.682.243.13.496.24.76.322.166.038.33.09.5.105.222.043.448.058.673.061a4.056 4.056 0 0 0 1.044-.179c.23-.072.46-.153.669-.271.164-.077.307-.19.458-.287.16-.117.334-.22.465-.37l.361-.38c.35-.36.578-.807.792-1.256.125-.255.201-.533.261-.813.077-.302.112-.613.133-.931.004-.23-.01-.532-.063-.822a4.657 4.657 0 0 0-.205-.739c-.085-.182-.157-.374-.26-.548a10.44 10.44 0 0 1-.248-.53c-.015-.034-.014-.078-.02-.122.083-.02.158.018.226-.044.091-.085.194-.081.303-.03.054.023.111.039.162.069.24.162.512.312.712.558.205.234.417.475.545.78.18.382.32.88.382 1.232.038.287.101.581.055.876-.005.04-.024.088.04.132.008-.09.013-.17.01-.251-.005-.107.01-.141.076-.26a3.15 3.15 0 0 1-.133 1.064c-.047.194-.092.395-.197.566a.125.125 0 0 0-.011.075c.011.076-.026.137-.065.198-.024.036-.036.08-.052.122-.051.132-.102.264-.17.388l-.13.236a6.083 6.083 0 0 1-.64.953c-.034.046-.07.093-.144.064-.015-.008-.049.008-.065.023a.257.257 0 0 0-.095.158.627.627 0 0 1-.218.366c-.024.023-.075.043-.102.035-.116-.04-.164.018-.208.107-.013.027-.034.048-.067.091l.14-.103c.008-.005.027-.001.033.006.007.007.01.025.007.035a.142.142 0 0 1-.03.048 5.77 5.77 0 0 1-.657.505c-.012.007-.033 0-.053-.001l.025-.079c.09-.036.09-.038.166-.142zM28.418 17.895c0-.033.004-.065 0-.096-.046-.23-.07-.476-.157-.76-.003-.013-.014-.024-.024-.035-.003-.005-.016-.008-.016-.008-.01.006-.027.017-.026.022l.048.219.054.268.048.207c.018.062.036.123.05.186l.023-.003z" fill="#333"/><path d="M28.43 18.16c-.005-.012-.008-.031-.017-.047-.004-.008-.022-.015-.032-.013-.01.001-.026.013-.027.021a.263.263 0 0 0 .002.091c.003.015.026.031.042.032.01 0 .023-.023.03-.038.005-.01.002-.026.003-.045M28.403 18.384a.498.498 0 0 0-.006-.014l-.013.007.004.014.015-.007zM24.762 28.523l-.002.012.007-.002-.005-.01zm1.983-.143c.01-.004.019-.013.027-.021-.002-.012-.005-.034-.01-.033-.008 0-.017.015-.027.026l.01.028zm-8.294-.115c.006.011.011.025.018.033l.015-.022-.013-.025-.02.014zm8.963.173c-.045-.023-.078-.03-.12-.003-.024-.01-.046-.028-.072-.033l-.152-.014c-.068-.014-.136-.03-.209-.036l-.014.113-.197-.026c-.01-.001-.014-.024-.021-.037v.002l-.054-.053.001.002c-.02-.033-.031-.011-.042.033l-.004.007c-.055.026-.107.07-.158-.018-.029-.054-.079-.04-.14 0l.107.083-.182.035c-.022.003-.034-.027-.042-.071.013-.005.026-.006.037-.016.006-.006.008-.028.012-.042-.008-.002-.02-.011-.025-.003-.01.015-.015.041-.022.062l-.015.028c-.047.06-.048.061-.091-.01-.033-.056-.046-.008-.063.029v-.002c-.055-.037-.108-.098-.17-.019-.013.018-.04.018-.057.01-.04-.021-.06.007-.077.065-.01.027-.026.025-.04-.002-.008-.014-.022-.036-.027-.031-.078.075-.167.04-.249.066-.054.016-.111-.004-.168-.008-.047-.095-.11-.055-.168-.066-.064-.012-.123.008-.17.082-.047.074-.098.038-.148.027 0 0-.012-.025-.01-.034.013-.072-.016-.056-.027-.032-.041.086-.085.13-.146.058l.03-.016-.008-.004-.021.022-.024-.001c-.05-.024-.097-.048-.149-.075-.03-.016-.053-.002-.071.047-.007.02-.03.04-.04.033-.044-.04-.085-.012-.127.016-.014.01-.038.017-.045.004-.046-.075-.085-.082-.134-.004-.012.02-.045 0-.07 0-.027-.002-.058-.02-.082-.002-.073.055-.13.035-.18-.078-.014-.03-.042-.036-.05.004-.019.088-.054.09-.097.09-.079-.001-.16.01-.24.003-.056-.003-.111-.027-.167-.04l-.014-.023-.014.01-.003.007c-.039.014-.078.035-.117.04-.071.014-.142.032-.208-.057-.035-.046-.082-.058-.123.008a.077.077 0 0 1-.053.036c-.073.007-.143.034-.217-.005-.032-.017-.071-.004-.108-.003l-.133.003-.542-.021c-.118-.005-.234-.005-.35-.016-.14-.013-.279-.055-.42-.044-.125.01-.25-.011-.375-.02-.081-.007-.163-.015-.224-.136-.047.05-.084.143-.14.06l.016-.015h-.01l-.006.014c-.024.01-.048.03-.07.03l-.302-.025c-.01 0-.026-.02-.026-.03.002-.083-.03-.079-.058-.067-.037.017-.07.01-.106.003-.072-.012-.145-.004-.217-.005-.066.096-.147.057-.222.067-.061.008-.116.01-.163-.092-.035-.075-.08-.064-.123.013-.034.06-.072.06-.112.059a5.265 5.265 0 0 0-.337-.008c-.032 0-.065-.001-.096-.046-.022-.03-.038-.022-.054.01-.007.012-.017.019-.026.02-.076.008-.148.04-.223.044a.251.251 0 0 1-.172-.036c-.07-.045-.144-.053-.181.063-.017.046-.048.066-.074.09-.035.028-.074-.107-.102-.08-.025.026-.012.13-.069.096-.014-.008-.03-.011-.042-.008a.15.15 0 0 0-.05.033v.002c-.033-.028-.056-.01-.07.024-.028.056-.06.088-.123.047-.023-.015-.055-.008-.064.016-.031.075-.115.03-.143.104-.006.012-.026.008-.04.001-.04-.016-.057.013-.078.037-.056.063-.106.13-.241.005a.058.058 0 0 0-.026-.014c-.026-.009-.055-.005-.042.038.04.13.003.159-.057.166-.03.003-.051.018-.073.031-.034.02-.059.055-.132-.006-.013-.012-.032-.005-.044.002-.028.012-.058.022-.079.044-.03.03-.076.04-.065.122.008.038-.032.05-.05.072-.073-.046-.098-.008-.127.02a.095.095 0 0 1-.102.029c-.06-.015-.088.024-.072.075.02.064-.011.063-.031.084-.038.036-.11.01-.18-.007l-.017-.014.016.012c.034.058.03.09.006.115-.08.092-.143.177-.257.258a.632.632 0 0 0-.117.16c-.046.088-.121.148-.19.216-.008.007-.023.005-.038.009a7.665 7.665 0 0 0-.015-.162l-.12.208c-.014.03-.006.062.035.082.052.028.048.069.02.094a.818.818 0 0 1-.133.097.261.261 0 0 0-.126.108c-.15.265-.283.54-.424.82a.27.27 0 0 0-.026.091.932.932 0 0 1-.161.413c-.1.146-.16.303-.244.466-.01.017-.012.039-.017.06-.03.128-.026.185.017.282.018.033.035.064.034.124-.025-.006-.04-.008-.047-.016a.41.41 0 0 1-.097-.113l.006-.017-.004.017c-.014.026.009.07-.046.083-.014-.014-.033-.027-.043-.047a.378.378 0 0 1-.057-.172c.001-.097-.13-.037-.123-.125h-.001c-.03.028-.06.058-.084.106l.001-.001a.567.567 0 0 0 .01.252.811.811 0 0 0 .562.524c.053.014.101.034.163.045-.148.13-.423.092-.621-.054-.22-.15-.37-.4-.42-.666-.03-.19.007-.22.054-.29a.303.303 0 0 1-.087-.227l-.005-.334c.002-.214-.031-.437-.001-.653.012-.12.046-.24.069-.361.076-.274.102-.568.222-.837.155-.403.334-.805.573-1.177a6.06 6.06 0 0 1 .233-.357l.202-.28c.192-.215.384-.437.609-.623a.43.43 0 0 0 .05-.055.404.404 0 0 1 .247-.161.42.42 0 0 0 .231-.126 2.22 2.22 0 0 1 .404-.305c.102-.062.212-.11.32-.164.347-.153.706-.28 1.075-.378.288-.087.591-.095.886-.145a6.2 6.2 0 0 1 .763-.02l.34.001.485.022c.024.002.053-.006.072.014.063.064.124.097.19.008.007-.01.023 0 .035.002l.097.013c.18.013.362.026.533.04l.23.004.64.055.68.036.811.06 1.005.03.729.02.448-.002.594.006c.318-.006.598-.035.99-.024.254-.006.505.036.759.061.192.02.38.062.57.1.21.042.402.143.612.19.186.047.354.135.522.222.463.274.943.543 1.304.95.214.218.41.453.59.696.183.274.338.56.467.859.025.057.055.112.073.173l.032.089.062.152c.09.202.15.413.211.623.103.365.175.738.204 1.113.017.146.026.292.022.439v.219l-.002.109v.055c-.003.04-.009.11-.018.162a.972.972 0 0 1-.582.702 1.33 1.33 0 0 1-.562.106c-.068 0-.133-.027-.21-.052.086-.084.202-.142.179-.241-.028-.137.048-.234.134-.328.042-.046.07-.102.1-.147.039-.056.06-.119.048-.16a.048.048 0 0 0-.034-.038h-.006c-.043-.01-.027-.033-.044-.048a3.166 3.166 0 0 1-.18-.413c-.115-.274-.272-.511-.383-.768-.069-.174-.17-.336-.26-.495-.054-.08-.107-.158-.153-.23-.035-.042-.062-.084-.099-.123-.106-.118-.214-.228-.294-.36-.01-.018-.012-.05-.082-.021a.385.385 0 0 0 .082.098c.046.034.039.063.005.154a2.323 2.323 0 0 1-.284-.454c-.05-.09-.137-.15-.153-.273-.003-.014-.017-.02-.033-.022-.048-.003-.066-.032-.08-.07-.008-.023-.029-.036-.046-.052-.05-.053-.1-.101-.153-.156-.033-.034-.066-.068-.1-.098a3.606 3.606 0 0 0-.484-.358c-.025-.016-.053-.028-.026-.107.007-.018 0-.042-.01-.05-.028-.022-.062-.03-.108-.007-.103.054-.175.033-.245.004-.017-.007-.03-.037-.026-.068.019-.124-.028-.126-.089-.105-.017.007-.033.003-.064.003l.08.05c.004.003.004.021 0 .031a.066.066 0 0 1-.023.028c-.01.005-.023.009-.033.006-.138-.037-.268-.097-.408-.122-.006 0-.008-.02-.012-.034l.047-.052c.045.03.046.024.12.005z" fill="#333"/><path d="M29.597 30.486c.008.014.012.03.021.042.04.045.078.091.11.142l.157.256c.006.009.02.014.029.02.004.003.014.004.017.002.01-.007.029-.02.027-.025a1.26 1.26 0 0 0-.078-.154 1.402 1.402 0 0 0-.102-.157.375.375 0 0 0-.074-.08l-.085-.06-.022.014zM29.524 30.379c.007.003.015.009.027.01a.09.09 0 0 0 .032-.012.127.127 0 0 0 .022-.026c-.004-.015-.01-.03-.025-.04-.005-.004-.032.003-.046.013-.01.005-.017.024-.02.035-.002.007.005.011.01.02M29.493 30.268h.01l.01-.01-.009-.003z" fill="#333"/></g></svg>
