<svg width="48" height="48" viewBox="0 0 48 48" fill="none" xmlns="http://www.w3.org/2000/svg">
<path d="M34 32.5032C34 33.8839 32.8807 35.0032 31.5 35.0032H30.5C29.1193 35.0032 28 33.8839 28 32.5032V27.0032H34V32.5032Z" fill="#EDFFE9"/>
<path d="M21.5 16.5032C21.5 17.8839 20.3807 19.0032 19 19.0032H18C16.6193 19.0032 15.5 17.8839 15.5 16.5032V11.0032H21.5V16.5032Z" fill="#EDFFE9"/>
<path d="M31 25.0032C33.2091 25.0032 35 26.7941 35 29.0032V31.0032H39L39.1025 31.0081C39.6067 31.0594 40 31.4855 40 32.0032C40 32.5209 39.6067 32.947 39.1025 32.9983L39 33.0032H35V35.0032C35 37.2123 33.2091 39.0032 31 39.0032H29C26.7909 39.0032 25 37.2123 25 35.0032V29.0032C25 26.7941 26.7909 25.0032 29 25.0032H31ZM29 27.0032C27.8954 27.0032 27 27.8986 27 29.0032V35.0032C27 36.1078 27.8954 37.0032 29 37.0032H31C32.1046 37.0032 33 36.1078 33 35.0032V29.0032C33 27.8986 32.1046 27.0032 31 27.0032H29Z" fill="#007782"/>
<path d="M21.1025 31.0081C21.6067 31.0594 22 31.4855 22 32.0032C22 32.5209 21.6067 32.947 21.1025 32.9983L21 33.0032H9C8.44772 33.0032 8 32.5555 8 32.0032C8 31.4509 8.44772 31.0032 9 31.0032H21L21.1025 31.0081Z" fill="#007782"/>
<path d="M18.5 9.0032C20.7091 9.0032 22.5 10.7941 22.5 13.0032V15.0032H39C39.5523 15.0032 40 15.4509 40 16.0032C40 16.5555 39.5523 17.0032 39 17.0032H22.5V19.0032C22.5 21.2123 20.7091 23.0032 18.5 23.0032H16.5C14.2909 23.0032 12.5 21.2123 12.5 19.0032V17.0032H9C8.44772 17.0032 8 16.5555 8 16.0032C8 15.4509 8.44772 15.0032 9 15.0032H12.5V13.0032C12.5 10.7941 14.2909 9.0032 16.5 9.0032H18.5ZM16.5 11.0032C15.3954 11.0032 14.5 11.8986 14.5 13.0032V19.0032C14.5 20.1078 15.3954 21.0032 16.5 21.0032H18.5C19.6046 21.0032 20.5 20.1078 20.5 19.0032V13.0032C20.5 11.8986 19.6046 11.0032 18.5 11.0032H16.5Z" fill="#007782"/>
</svg>
