<svg width="148" height="149" viewBox="0 0 148 149" fill="none" xmlns="http://www.w3.org/2000/svg">
<g clip-path="url(#clip0_46_11412)">
<path d="M115.183 28.0244C108.291 27.1764 101.495 25.5269 94.4667 25.4344C85.1363 25.3264 75.8608 25.974 66.5716 25.311C57.6797 27.716 50.6237 34.6227 46.8423 42.3927C42.6498 50.9952 41.814 60.569 41.2797 69.9423C40.1562 89.7527 40.1836 109.625 41.7044 129.404C41.8414 131.177 42.0332 133.074 43.2663 134.461C44.9241 136.326 47.8699 136.696 50.5141 136.881C68.3801 138.161 86.3694 138.161 104.235 136.912C112.209 131.64 119.937 126.09 126.198 118.767C126.39 118.551 126.582 118.381 126.801 118.227C126.883 116.485 126.965 114.743 127.034 113.001C127.856 91.726 128.678 70.4664 129.5 49.1915C124.842 42.1306 120.238 34.746 115.183 28.0244Z" fill="#C9F0EE"/>
<path d="M30.4634 40.6658C32.4984 39.972 34.5334 39.602 36.5684 39.2783C38.6034 38.9854 40.6384 38.8312 42.6734 38.7695C46.7434 38.6925 50.8134 38.677 54.8834 38.6308L52.8484 40.6658L52.6017 15.4441L52.5863 13.1625L54.8988 13.147L82.7105 13.0237C91.9759 12.962 101.257 13.0237 110.522 13.0545L112.912 13.0699V15.4441C112.896 27.5154 112.773 39.5866 112.65 51.6579L112.465 69.757C112.434 72.7787 112.326 75.785 112.017 78.8066C111.74 81.8283 111.308 84.8345 110.522 87.8562C109.736 84.8345 109.32 81.8283 109.027 78.8066C108.718 75.785 108.61 72.7787 108.58 69.757L108.395 51.6579C108.271 39.5866 108.148 27.5154 108.133 15.4441L110.507 17.8183C101.241 17.8491 91.9605 17.9262 82.6951 17.8491L54.8834 17.7258L57.1651 15.4441L56.9184 40.6658L56.903 42.7316L54.8834 42.7008C50.8134 42.6545 46.7434 42.6391 42.6734 42.562C40.6384 42.5004 38.6034 42.3462 36.5684 42.0533C34.5334 41.7295 32.4984 41.3595 30.4634 40.6658Z" fill="#15191A"/>
<path d="M110.522 104.383C111.401 107.667 111.817 110.95 112.125 114.234C112.418 117.518 112.465 120.802 112.48 124.085V126.012L110.522 126.028L68.0492 126.367L25.5762 126.521L23.125 126.537V124.085L23.2329 82.0286L23.5412 39.972V39.1549L24.0808 38.5845L29.8775 32.4949C31.82 30.4753 33.7317 28.4249 35.7358 26.467C37.7246 24.4936 39.8058 22.5974 41.9025 20.732C44.0454 18.8974 46.2192 17.0936 48.5625 15.4595C47.0825 17.9107 45.4021 20.1924 43.7063 22.4432C41.9796 24.6632 40.2221 26.8524 38.3721 28.9645C36.5375 31.092 34.6258 33.127 32.7142 35.1928L27.01 41.3595L27.565 39.972L27.8734 82.0286L27.9812 124.085L25.5454 121.649L68.0183 121.804L110.522 122.127L108.58 124.07C108.58 120.786 108.641 117.502 108.934 114.219C109.227 110.95 109.628 107.667 110.522 104.383Z" fill="#15191A"/>
<path d="M59.3079 51.9815C60.6645 49.5765 62.0058 50.1469 63.3625 49.9619L67.417 49.7461C70.1149 49.6073 72.8283 49.5457 75.5262 49.5457C78.2241 49.5611 80.9374 49.6227 83.6354 49.7923L87.6899 50.0082C89.0466 50.0236 90.3879 50.1469 91.7445 51.9815C90.3879 53.8161 89.0466 53.9394 87.6899 53.9548L83.6354 54.1707C80.9374 54.3402 78.2241 54.4019 75.5262 54.4173C72.8283 54.4173 70.1149 54.3557 67.417 54.2169L63.3625 54.0011C62.0212 53.8161 60.6645 54.3865 59.3079 51.9815Z" fill="#007782"/>
<path d="M59.3079 69.1712C60.6645 66.7662 62.0058 67.3366 63.3625 67.1516L67.417 66.9358C70.1149 66.797 72.8283 66.7354 75.5262 66.7354C78.2241 66.7508 80.9374 66.8124 83.6354 66.982L87.6899 67.1979C89.0466 67.2133 90.3879 67.3366 91.7445 69.1712C90.3879 71.0058 89.0466 71.1291 87.6899 71.1445L83.6354 71.3604C80.9374 71.5299 78.2241 71.5916 75.5262 71.607C72.8283 71.607 70.1149 71.5453 67.417 71.4066L63.3625 71.1908C62.0212 71.0212 60.6645 71.5762 59.3079 69.1712Z" fill="#007782"/>
<path d="M59.3079 86.376C60.6645 83.971 62.0058 84.5414 63.3625 84.3564L67.417 84.1406C70.1149 84.0018 72.8283 83.9402 75.5262 83.9402C78.2241 83.9556 80.9374 84.0173 83.6354 84.1868L87.6899 84.4027C89.0466 84.4181 90.3879 84.5414 91.7445 86.376C90.3879 88.2106 89.0466 88.3339 87.6899 88.3493L83.6354 88.5652C80.9374 88.7348 78.2241 88.7964 75.5262 88.8118C72.8283 88.8118 70.1149 88.7502 67.417 88.6114L63.3625 88.3956C62.0212 88.2106 60.6645 88.781 59.3079 86.376Z" fill="#007782"/>
<path d="M59.3079 103.566C60.6645 101.161 62.0058 101.731 63.3625 101.546L67.417 101.33C70.1149 101.192 72.8283 101.13 75.5262 101.13C78.2241 101.145 80.9374 101.207 83.6354 101.377L87.6899 101.592C89.0466 101.608 90.3879 101.731 91.7445 103.566C90.3879 105.4 89.0466 105.524 87.6899 105.539L83.6354 105.755C80.9374 105.924 78.2241 105.986 75.5262 106.002C72.8283 106.002 70.1149 105.94 67.417 105.801L63.3625 105.585C62.0212 105.4 60.6645 105.971 59.3079 103.566Z" fill="#007782"/>
<path d="M41.8562 51.9815C42.1491 49.5765 42.4266 50.1469 42.7195 49.9619C43.0124 49.8694 43.2899 49.7923 43.5829 49.7461C44.1533 49.6073 44.7237 49.5457 45.2941 49.5457C45.8646 49.5611 46.4349 49.6382 47.0054 49.7769C47.2983 49.8386 47.5758 49.9311 47.8687 50.0082C48.1616 50.0236 48.4392 50.1623 48.7321 51.9969C48.4392 53.8315 48.1616 53.9548 47.8687 53.9857C47.5758 54.0627 47.2983 54.1552 47.0054 54.2169C46.4349 54.3557 45.8646 54.4327 45.2941 54.4482C44.7237 54.4482 44.1533 54.3865 43.5829 54.2477C43.2899 54.1861 43.0124 54.109 42.7195 54.0319C42.4266 53.8161 42.1337 54.3865 41.8562 51.9815Z" fill="#007782"/>
<path d="M41.8562 69.1712C42.1491 66.7662 42.4266 67.3366 42.7195 67.1516C43.0124 67.0591 43.2899 66.982 43.5829 66.9358C44.1533 66.797 44.7237 66.7354 45.2941 66.7354C45.8646 66.7508 46.4349 66.8279 47.0054 66.9666C47.2983 67.0283 47.5758 67.1208 47.8687 67.1979C48.1616 67.2133 48.4392 67.352 48.7321 69.1866C48.4392 71.0212 48.1616 71.1445 47.8687 71.1753C47.5758 71.2524 47.2983 71.3449 47.0054 71.4066C46.4349 71.5454 45.8646 71.6224 45.2941 71.6379C44.7237 71.6379 44.1533 71.5762 43.5829 71.4374C43.2899 71.3758 43.0124 71.2987 42.7195 71.2216C42.4266 71.0212 42.1337 71.5762 41.8562 69.1712Z" fill="#007782"/>
<path d="M41.8562 86.376C42.1491 83.971 42.4266 84.5414 42.7195 84.3564C43.0124 84.2639 43.2899 84.1868 43.5829 84.1406C44.1533 84.0018 44.7237 83.9402 45.2941 83.9402C45.8646 83.9556 46.4349 84.0327 47.0054 84.1714C47.2983 84.2331 47.5758 84.3256 47.8687 84.4027C48.1616 84.4181 48.4392 84.5568 48.7321 86.3914C48.4392 88.226 48.1616 88.3493 47.8687 88.3802C47.5758 88.4573 47.2983 88.5498 47.0054 88.6114C46.4349 88.7502 45.8646 88.8273 45.2941 88.8427C44.7237 88.8427 44.1533 88.781 43.5829 88.6423C43.2899 88.5806 43.0124 88.5035 42.7195 88.4264C42.4266 88.2106 42.1337 88.7656 41.8562 86.376Z" fill="#007782"/>
<path d="M41.8562 103.566C42.1491 101.161 42.4266 101.731 42.7195 101.546C43.0124 101.454 43.2899 101.377 43.5829 101.33C44.1533 101.192 44.7237 101.13 45.2941 101.13C45.8646 101.145 46.4349 101.222 47.0054 101.361C47.2983 101.423 47.5758 101.515 47.8687 101.592C48.1616 101.608 48.4392 101.747 48.7321 103.581C48.4392 105.416 48.1616 105.539 47.8687 105.57C47.5758 105.647 47.2983 105.739 47.0054 105.801C46.4349 105.94 45.8646 106.017 45.2941 106.032C44.7237 106.032 44.1533 105.971 43.5829 105.832C43.2899 105.77 43.0124 105.693 42.7195 105.616C42.4266 105.4 42.1337 105.971 41.8562 103.566Z" fill="#007782"/>
</g>
<defs>
<clipPath id="clip0_46_11412">
<rect width="148" height="148" fill="white" transform="translate(0 0.664062)"/>
</clipPath>
</defs>
</svg>
