<svg width="200" height="200" xmlns="http://www.w3.org/2000/svg" xmlns:xlink="http://www.w3.org/1999/xlink"><defs><path id="a" d="M.262.051H65.96V109H.262z"/><path id="c" d="M.03.022h77.625V77.71H.031z"/><path id="e" d="M0 153h139V0H0z"/></defs><g transform="translate(31 20)" fill="none" fill-rule="evenodd"><path d="M1 67.013l.006-.011V67L1 67.013zM56 60.215l.008-.019.052-.196z" fill="#EAEBEC"/><g transform="translate(0 45)"><mask id="b" fill="#fff"><use xlink:href="#a"/></mask><path d="M59.566 69.689h-.041l.326-.01-.121.005-.164.005zm-.813 29.216l-.79-.107.85.04-.06.067zm-4.558 4.644l-.04-.115-.038-.107-.103-.554-.028-.153.15.015.015.12.033.27.063.226.098.57-.063.069-.183-.734.096.393zm-1.346.305l-.01-.022-.003-.017.017-.019.006.03-.01.028zM10.074 34.703c-.008-.115-.007-.229-.008-.343l.238 1.245c-.03-.047-.06-.095-.095-.14-.114-.153-.118-.504-.135-.762zm-.353-2.15l.105.549c-.23-.185-.195-.366-.105-.55zM30.58 5.954c-.018.003-.047-.032-.07-.05.065-.032.128-.073.2-.09.022-.007.068.05.103.077-.077.022-.154.048-.233.063zM34 5.442c.313-.024.654-.17.914.048.015.013-.009.062-.032.083-.187.17-.31.17-1.119-.032.165-.07.2-.096.237-.099zm6.271-.306l.02.047-.136-.035.116-.012zm15.215 8.547l.01-.204.078-1.511.039-.802.15-.918.147-1.05.021-1.294.035-1.218c.006-.207.062-.409.099-.612.059.504.08 1.006.08 1.508.003.521-.018.991-.043 1.622l-.161.922c-.034.175-.08.352-.092.53l-.039.522.007.523-.006.594c-.009.395-.025.79-.045 1.185l-.013.266-.056.135-.212.504-.116.44-.017 1.508.078.704.111.83.002.008-.012.634-.015.502.178.676.035.136.002.057.02.768c-.276-.109-.228-.365-.236-.537l-.01-.213-.002-.052-.025-.09-.204-.726.028-1.134-.18-1.463-.008-.073-.006-1.582.124-.489.21-.502.044-.104zm2.76 4.862a.917.917 0 0 1 .118-.217c.048-.068.09-.148.132-.232l.155.973a.463.463 0 0 0-.22-.164c-.132-.058-.203-.132-.214-.216-.005-.046.004-.078.03-.144zm1.03-6.445c-.022.157-.017.262-.045.288-.125.113-.259.204-.39.303v.003l-.374-.404.808-.19zm-.331-1.197c.041-.03.084-.049.127-.069l-.141.174c.004-.036.002-.097.014-.105zm.483-.089c.03.029.05.078.07.154l.032.135c.01.054.021.123.042.134-.251.032-.323-.284-.465-.418.175-.041.264-.062.321-.005zm-.623 4.301a4.691 4.691 0 0 1 .013-.427c.007-.087.019-.18.037-.27l-.05.697zm-.166-2.035c-.005-.066-.03-.169-.012-.191.06-.071.134-.12.205-.172-.04.1-.077.203-.121.3-.014.03-.047.043-.072.063zm.376 15.364c.027.065.076.134.074.195-.003.056-.059.101-.092.151l-.078-.21.096-.136zm.34-6.255c.015.089-.055.212-.087.32-.042-.063-.107-.116-.12-.19-.022-.118-.01-.252-.014-.502.114.18.203.262.221.372zm.082 2.57c-.005.121-.03.24-.07.542l-.018-.59c0-.041.019-.082.028-.125.022.058.061.117.06.173zm.167 5.721l.175.245c-.034.048-.069.14-.1.134-.046-.008-.107-.076-.126-.137-.014-.05.025-.13.051-.242zm.54 3.483c.08-.028.168-.042.253-.062l-.241.157c-.014.008-.05-.007-.076-.012.021-.03.034-.074.064-.083zM7.423 27.14l.05-.059.004.122-.054-.063zm-.7-2.763c-.015-.034-.037-.07-.042-.105-.004-.033.011-.068.02-.103.013.037.035.073.039.11.004.032-.01.065-.017.098zM3.06 14.274c-.037-.112-.063-.229-.09-.345.053.101.108.2.158.305.017.035.018.083.025.124-.031-.026-.08-.046-.093-.084zM21.09 8.52c-1.59.131-3.181.276-4.759.155 1.595-.207 3.178-.2 4.759-.155zm-9.168.318c.117-.013.16-.021.2-.02.011 0 .015.035.022.054l-.222-.034zm-1.915.098l-.011-.064.731-.082.01.065-.73.081zM52.058.794c-.022-.005-.031-.129.009-.155.349-.234.69-.185 1.145-.039-.423.26-.782.269-1.153.194zm-11.24.283l-.012.006c-.238-.005-.484-.042-.711-.002-.413.074-.814.197-1.196.295-.236-.244.067-.3.173-.416.136-.15.244-.313.364-.47.453.355 1.063.354 1.685.235.141.273-.156.273-.303.352zm-.14.075c.017-.015.031-.036.053-.045.017-.007.036-.01.055-.013l-.108.058zM24.06 3.066c-.074 0-.147-.011-.22-.018l.114-.03.219.016c-.038.01-.076.032-.113.032zm-3.345.19c-.035 0-.07-.019-.105-.029l.116-.038.105.03c-.04.014-.077.035-.116.036zm43.29 98.681a6.852 6.852 0 0 1-.133-.578 3.083 3.083 0 0 1 .017-.572l.015-.11.012-.179c.011-.19-.044-.447-.076-.669l-.018-.118-.199-.655c-.014-.057-.028-.156-.04-.181l-.016.033-.03.127-.014.062-.004.016s-.004.023.001-.013l.02-.14.143-1.117-.073-1.37-.026-.333.143-.71-.025-.46-.074-1.413c-.014-.467-.087-.955-.122-1.43-.087-.943-.14-1.822-.203-2.718l-.023-.276-.042-.347-.098-.659-.168-.522.001-.044.01-.162.021-.357-.001-.633.004-.454c.007-.304.024-.608.053-.916a14.1 14.1 0 0 0 .062-1.444c-.017-.475-.047-.95-.075-1.422-.017-.253-.03-.453-.057-.678l-.008-.078-.01-.02-.02-.042c-.015-.033-.028-.087-.04-.13a1.204 1.204 0 0 1-.011-.157c-.005-.051-.005-.167.039-.526l.096-.9c-.018-.336-.03-.67-.033-.997a5.065 5.065 0 0 1 .03-.666c.031-.25.05-.499.061-.746l.012-.37.003-.56-.041-.552.176-.891.058-1.064.027-.727a61.4 61.4 0 0 0 .02-1.446c.002-.08-.003-.063-.003-.11l.003-.18a11.2 11.2 0 0 0-.017-1.233 9.193 9.193 0 0 0-.05-.524c.049-.001.05-.001 0 0a2.916 2.916 0 0 0-.007-.055l-.006-.033-.002-.012-.001.005h-.018l-.036-.22-.099-.55c-.069-.366-.144-.729-.225-1.088l.052.392-.052-.265c-.054-.27-.108-.533-.146-.795l-.013-.098-.015-.144-.027-.308a8.309 8.309 0 0 1-.025-.616 6.591 6.591 0 0 1-.083-.944c-.007-.122-.001-.181-.003-.25a1.174 1.174 0 0 0-.027-.204c-.01-.056-.043-.1-.112-.138a.63.63 0 0 0-.19-.069c-.171.063-.312-.392-.392-.77a7.972 7.972 0 0 1-.195-.752c.08.05.163.152.24.242l.24.282c-.01-.19-.029-.393-.045-.563a4.24 4.24 0 0 0-.022-.353l-.24-2.354-.174-.06-.015-.243-.019-.26-.02-.218a7.984 7.984 0 0 0-.146-.918l-.06-.255c-.014-.061-.019-.051-.027-.068l-.025-.036-.003-.005a.567.567 0 0 1-.075-.134l-.02-.055c-.005-.019-.01-.03-.016-.085a2.228 2.228 0 0 1 .019-.671c.008-.045.02-.047.033-.072.027-.04.052-.081.074-.121a.53.53 0 0 0 .088-.216 7.448 7.448 0 0 0 .097-.982l.003-.245-.005-.282a7.677 7.677 0 0 0-.043-.62l-.045-.308-.025-.143-.008-.038.289-1.371c.099-.472.206-.958.257-1.371l.237-1.644.002-1.855a14.747 14.747 0 0 0 .108-1.073l.023-.444.009-.333v-.122l-.005-.247-.005-.128-.003-.021-.005-.043-.084-.687-.114-.926c-.044-.29-.096-.547-.144-.823l-.148-.813-.147-.76-.103-.474-.144-.71c-.1-.322-.197-.65-.272-.966l-.03-.127-.028-.098-.057-.195c-.012-.04-.026-.078-.039-.118a13.983 13.983 0 0 1-.089-.746c-.045-.496.15-.429.336-.359-.155-.355-.292-.729-.497-1.129.126-.098.268-.162.368-.3.074-.104.158-.333.128-.455l-.05-.21-.22-1.06c-.075-.112-.15-.227-.281-.304a.685.685 0 0 0-.316-.068.786.786 0 0 1-.17-.239.956.956 0 0 1-.042-.14l-.042-.306-.082-.797-.086-.448c.138.126.29.212.415.402a.24.24 0 0 1 .015.025c.088.155.123.548.186.644.025.054.112.094.158.08.047-.015.114-.111.11-.165l-.064-.64-.118-.619-.042-.205-.018-.081.008.002c-.012-.016-.034-.034-.05-.05-.01-.014-.016-.027-.008-.038.016-.02.03-.04.042-.06.012-.023.022-.027.025-.091.009-.1.01-.202.004-.303a5.437 5.437 0 0 0-.075-.61c-.067-.407-.14-.815-.054-1.218.019-.088-.073-.237-.117-.355l-.344-.884-.167-.444c-.054-.146-.108-.329-.143-.358-.03-.052-.018-.11 0-.17.024-.052.05-.103.068-.151l.004-.002c0-.001-.002-.001-.002-.003l-.009.006c.008-.036.014-.054.022-.105l.027-.238c.017-.159.034-.317.044-.478.034-.652.023-1.32.096-1.956.115-1.1.011-2.086-.74-2.657-.292-.214-.48-.585-.312-1.179.036-.127.042-.279.035-.442l-.015-.34-.168-.605c-.053-.193-.135-.4-.194-.591a.61.61 0 0 0-.046-.105c.053-.122.103-.256.15-.396.06-.323.107-.68.175-1.006.042-.123.093-.22.154-.316.06-.094.132-.185.228-.207.081-.032.1-.098.072-.176-.02-.099-.087-.129-.2-.406l-.057.141c-.018.045-.036.103-.056.113l-.117.131c-.024-.063-.038-.086-.054-.182-.009-.067-.013-.131-.019-.196a.813.813 0 0 1 .213-.265c.14-.096.334.015.478.031l.059-.159.002.003-.203.731c.088-.168.167-.339.238-.511l.047-.113c.021.02.042.038.065.055l.018-.255.128-.308.062-1.207c.02-.402.008-.8-.008-1.196l-.023-.59-.007-.167-.001-.106c.008-.052.018-.103.034-.153.004-.002.024-.11.039-.178l.052-.227c.033-.13.016-.286.009-.423-.004-.099-.018-.158-.035-.254a.72.72 0 0 0-.074-.25c-.069-.121-.172-.146-.31-.082-.061.03-.127.169-.182.168-.116.001-.226-.056-.338-.089.033-.219.057-.42.094-.617l.01-.105c.027-.244.124-.588-.048-.65-.368-.106-.296-.434-.18-.658.129-.246.265-.458.276-.773.007-.242-.013-.458-.246-.253-.166.146-.232-.028-.234-.197-.002-.154.035-.374.111-.45.206-.2.3-.386.157-.738a2.28 2.28 0 0 1-.13-.614l-.005-.104L58.598.05l-4.292.58c-.241.032-.44-.012-.407-.256.031-.243-.125-.35-.44-.318-.651.067-1.302.14-1.949.236-.203.03-.453.11-.574.222-.277.257-.543.325-1.001.329-.456.003-.716-.11-.985-.297l.008.005c-.772-.173-.77-.173-.697.369.004.025-.035.055-.075.112-.324-.026-.663-.041-.995-.083-.415-.053.101-.233-.1-.368-.283.043-.69.024-.944.16-.523.28-1.07.26-1.625.3l.44-.373c-.453.023-.753.072-1.028.043-.314-.034-.607-.138-.946-.22-.245.156-.257.527-.809.575a490.33 490.33 0 0 0-.164-.7C40.419.091 40.413.09 39.44.483l.003-.004-.526.06c-.06-.1-.105-.268-.185-.271-.204-.012-.425.05-.635.096-.302.065-.46.18-.322.417.042.072.048.198-.013.26-.234.233-.468.48-.771.661-.172.104-.479.089-.724.127.001-.145.012-.29 0-.433-.005-.054-.063-.103-.11-.176l-.842-.114c-.05.263.163.486-.39.614-.72.165-1.437.318-2.173.37-.547.04-1.115.09-1.647-.105l.272-.576c.08-.018.168-.023.235-.054.049-.023.069-.08.1-.123-.073.002-.156-.013-.218.009-.07.024-.12.08-.179.123-.345-.084-.689-.23-1.054.009-.08.052-.1.151-.145.23.112.022.224.048.34.066.035.006.079-.005.119-.009-.033.387-.359.565-.861.6l-5.485.368c-2.482.172-4.965.336-7.446.535-.62.05-1.321 0-1.797.488-.095.097-.408.102-.623.13-.477.062-.96.092-1.432.174-.29.05-.572.163-.838.272-.09.038-.181.163-.166.23.015.062.166.143.264.142.696-.007 1.396.006 2.087-.064 1.117-.11 2.244.154 3.354-.237a1.13 1.13 0 0 1 .515-.025c.387.069.728.08 1.122-.098.246-.112.593-.128.894-.143l3.264-.124c.523-.02 1.13-.179 1.55-.053.635.19 1.069-.18 1.597-.189.155-.003.395.022.44.093.23.356.667.308 1.108.286 2.393-.121 4.792-.175 7.18-.387 1.19-.105 2.297-.06 3.415.09l-.691.393c.223.015.306.034.385.024.529-.062 1.003-.322 1.607-.15.288.083.867.044 1.084-.343.644.253 1.354.414 2.104.264.638-.128 1.242-.27 1.876-.13.067.013.17-.025.249-.053.764-.277.773-.29 1.18-.149.227.079.377.06.572-.071.3-.202.638-.23.942-.053.228.133.447.13.71.017.146-.064.328-.146.472-.136.582.04 1.152.15 1.75-.023.444.186.93.086 1.394 0 .747-.136 1.438-.04 2.142.082-.382.103-.763.16-1.144.186l-4.05.263c-1.341.076-2.677.399-4.025.265-.207-.02-.434.036-.652.049l-1.433.076c-.782.054-1.567.1-2.346.188-.236.026-.459.173-.688.264l.004-.004-2.044-.058c-.132.638-.132.638-1.196.664-.172-.531-.243-.596-.835-.614-.39-.013-.783.009-1.175.02l-1.696.06-4.05.188c-.304.016-.612.065-.907.128-.195.043-.45.1-.323.365.698.026 1.458.046 1.585.712-.443.165-.81.08-1.165-.122-.595-.339-1.274-.274-1.968-.056-.163.052-.308.145-.474.182-.55.118-1.092.232-1.665.098-.306-.073-.676-.061-1.014-.028-.186.017-.11.12.031.155.04.01.088.013.116.03.015.01-.005.047-.015.102-.78.009-1.562.031-2.339.015-.177-.003-.336-.135-.502-.212l-.001-.009-.012.002.013.007c-.373.162-.7.342-1.194.325a24.77 24.77 0 0 0-2.74.05c-2.263.171-4.524.386-6.787.584-.217.019-.443.023-.65.075-.985.246-1.991.247-2.99.32-.219.017-.438.014-.656.035-.162.016-.363.03-.28.264l2.292.088 3.356.167c.4.021.784.012 1.112-.217l-.008.006c.482-.048.932.033 1.395.065.417.03.907-.162 1.395-.175 1.129-.03 2.26-.1 3.391-.147l4.177-.159c1.522-.046 3.044-.057 4.567-.113l5.687-.25-5.496.61a3.932 3.932 0 0 0-.317-.005c-.608.019-1.215.022-1.823.025l-4.543.014c-.215 0-.45-.013-.646.043-.864.254-1.726.143-2.59.176-.647.026-1.298.084-1.945.147-.146.014-.283.11-.654.262l1.64.15c-.763.05-1.527.114-2.29.138-.261.007-.639.083-.728-.23-.016-.052-.2-.097-.313-.098-1.217-.026-2.433-.012-3.638.29-.369.093-.755.138-1.063.192-.08-.134-.119-.281-.172-.281-.793.006-1.497.288-2.237.503 1.064.114 2.127.176 3.191.237.47.027.938.07 1.413.073.71.005 1.425-.01 2.138-.015l-7.053.785 4.164 21.798c-.396.037-.488.19-.418.703.066.473.215.938.314 1.41.037.182.19.413-.042.57-.238-.95-.49-1.878-.696-2.816-.074-.336-.037-.644.25-.818.319-.194.284-.252-.04-.767a1.566 1.566 0 0 1-.192-.58c-.098-.695-.086-1.428-.275-2.082-.34-1.171-.33-2.459-.91-3.544-.173-1.663-.926-3.09-1.359-4.646-.049-.177-.223-.42-.333-.433-.183-.023-.195.264-.166.48l.314 2.22.104.645c-.305-.65-.507-1.318-.695-1.99-.341-1.22-.81-2.388-1.028-3.663-.11-.643-.3-1.279-.484-1.906-.171-.584-.383-1.152-.576-1.727-.08-.237-.108-.537-.425-.587l-.014 1.355c-.11-.227-.224-.45-.326-.68-.088-.196-.15-.412-.243-.601-.091-.185-.022-.51-.308-.615.022.272.028.486.06.7l.26 1.702c.077.566.16 1.118-.169 1.56-.121.164-.124.554-.108.847.048.916.097 1.836.207 2.752.172 1.421.395 2.84.595 4.26-.245-.72-.394-1.455-.524-2.193-.133-.763-.685-1.366-.604-2.21.006-.058-.058-.192-.1-.21-.318-.14-.34-.464-.388-.838a34.518 34.518 0 0 0-.375-2.214c-.053-.274-.096-.64-.425-.628-.014.123-.037.243-.04.367-.026.965.195 1.918.354 2.873.065.394.176.802.005 1.22-.215-.894-.215-.894-.566-1.387.103.537.168.92.25 1.298.103.471.187.926.599 1.169.174.102.046.366-.053.52.098.525.394 1.01.294 1.572l.002-.008c-.019.12-.069.244-.053.361.175 1.34.713 2.63.656 4.004.335 1.778.683 3.554.998 5.336.092.514.13 1.05.126 1.561-.003.348-.084.666.13.992.028.041.022.208-.001.22-.568.28-.221.925-.144 1.43.195 1.264.53 2.504.615 3.79.03.465.184.952.33 1.407.164.513.32.963.126 1.495-.094.257-.032.674.013 1.016.063.48.182.954.264 1.433.195 1.133.436 2.265.559 3.4.115 1.06.273 2.09.615 3.093.23.672.34 1.344.29 2.063-.034.498.032 1.046.12 1.56.154.914.363 1.82.544 2.732.05.257.13.54.105.776-.086.84.119 1.66.285 2.475l1.591 7.656.461 2.205c.375 1.856.71 3.723 1.125 5.57.33 1.461.77 2.893 1.129 4.347.274 1.109.37 2.27.802 3.334.03.076.039.176.038.26-.008.682.241 1.293.423 1.926.11.377.194.765.282 1.15l1.155 5.028.139.579.072.288.11.492.478 2.165c.173.798.3 1.638.492 2.413.52 2.083 1.015 4.124 1.471 6.192l1.727.133 9.054.731.532.051.3.039.595.085c.395.053.782.087 1.144.042.892-.11 1.725.031 2.585.095.564.041 1.131.056 1.697.08.26.01.533-.027.777.025.99.213 1.99.242 2.994.28.782.03 1.57.068 2.254.465.16.092.414.126.624.135.148.006.297-.072.446-.114l-.26-.374c.162-.01.29-.03.417-.021 1.218.076 2.437.13 3.651.247.639.062 1.27.227 1.9.36.114.024.206.119.308.18-.035.003-.075-.001-.106.007-.024.007-.039.028-.058.043l.165-.05c.82.334 1.648.431 2.528.249.31-.064.677-.024 1.018-.01.26.013.52.078.777.086 1.567.05 3.133.06 4.7.143.45.024.91.005 1.366.015l8.124.181-1.953-7.063z" fill="#EAEBEC" mask="url(#b)"/></g><path fill="#EAEBEC" d="M56 60.365l.023-.087.003-.278zM56.055 65.341l.004-.119L56 65l.055.341zM51.861 45.63c.063-.026.15-.16.138-.217-.025-.128-.077-.28-.169-.345a.465.465 0 0 0-.374-.049c-.87.288-1.732.548-2.635.353-.288-.063-.626.063-.821.549l1.348.067c.847.044 1.688-.027 2.513-.358M61.738 63.065c.063.023.142-.167.218-.329.014-.048.029-.093.044-.13-.116-.213-.269-.615-.345-.606-.45.06-.907.128-1.316.355-.145.08-.238.28-.278.537a2.077 2.077 0 0 0-.061.25c.124.107.281.283.465.498-.013-.269-.017-.493-.017-.679L60.803 65c.076-.267.136-.48.172-.699.094-.914.287-1.398.763-1.236"/><path d="M60.046 64.04c.032.235.07.302.11.464l.133.496-.264-2c-.037.335-.035.704.02 1.04" fill="#EAEBEC"/><path d="M60.02 63.128l.015-.095L60 63l.02.128zM25.979 48.514c.034-.014.03-.286-.04-.366-.083-.093-.27-.169-.396-.143-.85.174-1.695.378-2.543.572.146.117.274.28.448.33.87.252 1.708-.052 2.531-.393M23.023 48.008L23.011 48l-.011.01v.003l.023-.005M22.134 47.953c.594.134 1.066-.035 1.47-.29l.231-.155-.027-.201.019.007-.019-.008L24 47c-.157.023-.314.043-.467.072-.047.009-.081.045-.12.069l-.015-.006.013.007c-.118.025-.248.04-.354.076-.866.299-1.294.65-.923.735M53.268 45.999c.196-.027.413-.096.575-.24.103-.092.153-.355.157-.536 0-.075-.184-.137-.312-.223-.188.125-.386.223-.553.38-.078.074-.155.288-.13.387.029.113.173.246.263.232M60.132 60.984c.255-.113.135-.36.083-.566-.028-.091-.054-.182-.123-.418l-.092.998a.264.264 0 0 0 .132-.014" fill="#EAEBEC"/><path d="M60.187 60.71c.002.161.004.295.023.29l.045-.876a.405.405 0 0 1-.206-.124l-.049.94a3.4 3.4 0 0 0 .187-.23M19 53.218c-.105-.076-.212-.223-.317-.218-.561.036-1.122.109-1.683.17l.059.171c.509.022 1.016.057 1.527.056.132-.001.276-.116.414-.179M60.235 73.348a.984.984 0 0 0 .663-.022.24.24 0 0 0 .062-.032c.07-.057.04-.146-.019-.213-.021-.043-.235-.111-.345-.066-.108.05-.208.06-.31.08l-.286.066c.034.09.121.153.235.187M46 45.913c.168.031.343.118.499.076a.787.787 0 0 0 .451-.332c.076-.136.053-.375.012-.545-.017-.068-.198-.071-.335-.112-.132.11-.306.213-.417.371-.105.15-.143.359-.21.542M26.264 151c-.102-.005-.266.096-.264.156.005.057.203.174.307.18.572.03 1.134.032 1.693.044l-.06-.25c-.558-.045-1.119-.101-1.676-.13M60.35 53.365c-.002-.125-.137-.245-.211-.365-.048.094-.133.186-.135.283-.013.514-.013 1.047.304 1.717.023-.72.054-1.181.043-1.635M60.009 66l-.005.001-.004.013.009-.014zM60.42 66c-.16 0-.35.321-.412.52-.04.136.07.391.21.458.138.066.396-.035.603-.065.063-.097.158-.188.172-.291.045-.326-.126-.622-.573-.622M21 53.004l.011.01.017-.002-.001-.012-.027.004M19.429 53.011c-.18.036-.4.068-.429.332.07.03.137.09.2.08.267-.034.534-.089.8-.138-.135-.195-.316-.326-.571-.274M34 50.407l2-.186c-.965-.324-.977-.315-2 .186M2.5 58.346c-.14-.188-.247-.379-.262-.341-.09.225-.161.503-.238.766.064.08.155.265.185.223.108-.158.196-.393.315-.648M22.981 53L21 53.157l.027.231L23 53.154 22.981 53zM26.471 47.164c.021-.032-.1-.108-.157-.164l-.314.19.196.202c.096-.075.217-.142.275-.228M23.526 52.004c-.21.07-.355.171-.526.261l.588.095.412-.28c-.163-.028-.407-.098-.474-.076M.427 59.595c-.046-.226-.136-.4-.209-.595L0 59.642c.153.173.247.322.34.358.031.013.106-.316.087-.405M61.24 60.228c0-.075-.064-.153-.1-.228-.05.053-.14.106-.14.158 0 .075.066.151.103.226.05-.051.137-.105.136-.156M29.439 47.285c-.006-.095-.073-.185-.121-.285l-.318.136.211.268c.08-.04.23-.087.228-.12M46.153 45.178c.035.021.154-.028.235-.044-.029-.03-.05-.077-.092-.087-.093-.024-.196-.033-.296-.047.046.063.081.136.153.178" fill="#EAEBEC"/><path d="M46.012 45l-.012.01a.3.3 0 0 0 .023.005L46.011 45M14 53.147c-.084-.05-.15-.135-.256-.141-.239-.015-.495.003-.744.01.18.066.346.144.557.189.097.02.291-.036.443-.058M13.052 53.01l-.016-.01c-.012 0-.024.002-.036.004l.024.008.028-.002M32.047 51l-.047.091c.08.016.16.034.24.044.005.001.031-.055.046-.084L32.047 51zM26.119 52.001c-.03-.007-.08.025-.119.04l.055.083.122-.046c-.019-.027-.028-.07-.058-.077M61.158 83.436c-.008-.059-.008-.128-.028-.175-.038-.092-.086-.175-.13-.261.008.109.013.22.038.319.014.054.079.078.12.117" fill="#EAEBEC"/><path d="M61.023 83.049l-.004-.042A.304.304 0 0 0 61 83l.01.022.013.027M13.402 53.095c-.082-.03-.162-.065-.248-.09-.044-.011-.103-.001-.154-.001.04.037.07.102.121.106.089.01.186-.005.281-.015M36.426 51.118c-.04-.04-.07-.11-.122-.115-.096-.01-.201.008-.304.018.088.034.173.072.265.097.045.013.108 0 .161 0M36.047 51.007L36.03 51l-.029.003.02.007.027-.003M33.255 46.069c.005-.005-.052-.045-.078-.069-.06.04-.123.078-.177.123-.005.004.052.043.08.066.06-.039.123-.077.175-.12M45.205 45.026c-.049-.01-.113-.035-.144-.022-.035.015-.04.067-.061.103.05.008.113.034.146.02.035-.014.04-.067.059-.101M61.135 68.153c-.014-.052-.018-.129-.041-.149-.02-.019-.062.028-.094.047.013.052.017.132.039.15.023.018.063-.03.096-.048" fill="#EAEBEC"/><g transform="translate(61)"><mask id="d" fill="#fff"><use xlink:href="#c"/></mask><path d="M72.951 36.384c-.041.016-.12-.065-.181-.102.047-.069.095-.196.142-.197.164-.003.328.038.492.065-.15.082-.295.173-.453.234m4.69-4.902c-.031-.101-.227-.227-.31-.2-.24.079-.438.099-.628-.16-.243-.33-.108-.555.062-.824.124-.195.249-.463.231-.698-.182-1.754-.806-3.443-1.428-5.11-.563-.527-.686-1.197-.746-1.9-.058-.62-.275-1.16-.815-1.51-.326-.213-.512-.512-.648-.891-.185-.507-.435-1.007-.618-1.51a4.963 4.963 0 0 0-.693-1.323A5.422 5.422 0 0 0 71 16.348c-.527-.398-.876-.768-1.046-1.367-.208-.741-.68-1.23-1.432-1.39-.163-.032-.363-.231-.453-.36-.405-.585-.75-1.225-1.194-1.794-.388-.489-.782-.99-1.256-1.408a21.066 21.066 0 0 0-1.363-1.114c-.473-.35-.926-.716-1.347-1.115-.496-.45-1.094-.735-1.69-1.007-.603-.265-1.168-.564-1.637-1.059-.027-.029-.093-.03-.14-.033-.701-.053-1.13-.5-1.598-.947-.196-.192-.471-.397-.729-.438a5.748 5.748 0 0 1-1.633-.561c-.255-.128-.502-.273-.753-.41-.254-.133-.508-.268-.766-.392l-.804-.378c-.27-.12-.548-.225-.824-.333-.598-.23-1.195-.526-1.825-.596-.546-.067-1.069-.626-1.671-.181-.08.058-.352-.096-.53-.167-.272-.108-.531-.271-.814-.337C45.392.524 43.233.15 41.11.44c-.512.077-.983.045-1.412-.193-.62-.332-1.19-.294-1.766.09-.171.115-.469.19-.653.143-.581-.164-1.167.007-1.72-.04-.67-.034-1.19.212-1.776.364-.69.188-1.438.244-2.167.267-.976.08-1.902.237-2.8.712-.927.454-2.013.64-2.966 1.11-.12.063-.284.057-.427.06-.714.026-1.318.275-1.792.83-.428.494-.992.718-1.67.723a2.705 2.705 0 0 0-1.288.317 3.396 3.396 0 0 0-.975.85c-.155.196-.32.364-.495.51-.171.153-.352.285-.541.399-.379.23-.8.386-1.24.528-.696.243-1.41.45-1.614 1.276-.018.078-.11.16-.188.204-.435.244-.879.483-1.257.795-.374.318-.695.693-.902 1.172-.03.07-.148.168-.208.16-.736-.084-.922.606-1.31.986-.54.547-.93 1.198-1.555 1.695-.508.433-1.028.871-1.499 1.357-.463.491-.938.981-1.338 1.527-.435.58-.828 1.182-1.305 1.741-.248.28-.455.662-.534 1.02-.172.977-.453 1.805-1.2 2.535-.365.349-.572.882-.814 1.35-.248.466-.52.922-.735 1.405-.136.308-.226.636-.347.95-.237.58-.442 1.172-.64 1.766-.208.597-.306 1.232-.529 1.815C.53 31.298.467 33.91.2 36.435c-.03.285.056.577.042.862-.009.426-.036.851-.077 1.275-.028.333-.142.664-.134.998.007.577.016 1.156.034 1.734.037.58.089 1.161.148 1.74.27 2.22.797 4.42 1.44 6.584.6 2.02 1.286 4.041 2.228 5.95.191.427.435.827.66 1.237.226.41.466.811.721 1.202.33.519.656 1.04 1.021 1.533.355.5.71 1 1.097 1.472.379.482.727.989 1.128 1.448.392.469.813.915 1.329 1.258.23.159.43.405.567.652.505.851 1.256 1.47 2.056 2.02.618.451 1.233.907 1.824 1.386 1.424 1.11 2.876 2.176 4.402 3.102.66.407 1.335.785 2.01 1.16.683.353 1.36.728 2.06 1.043.465.214.938.42 1.41.615.51.216 1.002.48 1.52.673l1.503.533 1.517.467c.528.16 1.067.276 1.592.434.527.161 1.049.33 1.583.461.532.134 1.069.237 1.605.337.537.104 1.074.201 1.611.282l1.876.331.936.168c.306.058.687.097 1.027.144l1.052.121c.351.037.705.037 1.058.048.353.007.706.007 1.058-.001.352-.012.704-.057 1.054-.098.098-.012.202 0 .3-.003 1.631-.032 3.247-.235 4.844-.497 1.585-.313 3.159-.686 4.671-1.214a29.477 29.477 0 0 0 4.977-2.151c2.085-1.152 4.04-2.46 5.948-3.825.12-.083.232-.173.34-.27 1.161-.994 2.291-2.024 3.314-3.149 1.484-1.605 2.84-3.32 4.004-5.155.188-.27.292-.592.439-.887.101-.209.157-.492.323-.607.34-.228.56-.536.733-.87.164-.312.336-.735.515-1.113.225-.517.394-1.056.613-1.568.22-.512.444-1.02.836-1.467.095-.112.124-.295.176-.448.573-1.845 1.29-3.686 1.406-5.63.015-.423.114-.852.196-1.275.15-.726.185-1.098.158-1.514-.04-.416-.115-.878-.404-1.786a.836.836 0 0 1-.041-.31c.06-.614-.18-1.11-.424-1.622-.143-.312-.193-.684-.24-1.033-.035-.303-.022-.621-.066-.926-.079-.496-.417-.688-.815-.47-.237.13-.53.517-.643.454-.675-.363-1.128.136-1.616.377-.307-.198-.366-.632-.729-.677a27.14 27.14 0 0 0-.03-.607c-.025-.395-.064-.787-.102-1.178.17-.085.38-.205.685-.38-.13.435-.261.76-.316 1.098-.021.128.117.305.227.422.028.03.246-.066.33-.151.175-.18.144-.678.465-.572.383.128.482-.054.64-.291.204-.31.167-.527-.198-.635.04-.117.034-.28.109-.346.22-.195.216-.393.056-.618l-.41-.557c.174.032.349.075.526.094.527.056.572-.03.545-.638-.074-.844-.076-1.703-.174-2.557.19.002.299-.032.364.011.372.245.737.515 1.018-.076.61.074 1.033-.164 1.253-.82.03-.092.246-.09.373-.142.085-.031.202-.054.235-.126.059-.121.112-.3.072-.42" fill="#C3F4C9" mask="url(#d)"/></g><mask id="f" fill="#fff"><use xlink:href="#e"/></mask><path fill="#FFF" mask="url(#f)" d="M43 126h52V41H43z"/><path d="M100.847 109.4c-.046-.706-.047-.719-.03-1.258.039.351.035.726.03 1.259zm-.072-7.142c-.01-.088-.022-.17-.026-.264-.002-.033.015-.09.028-.16.013.095.03.17.032.25.001.053-.022.115-.034.174zm-.064-6.817c-.016-.042-.041-.066-.047-.13-.012-.122-.014-.264-.019-.4.023.076.05.138.066.24.01.06 0 .192 0 .29zm-.187-13.021l-.003-.07.014.018-.011.052zm-.039-2.271l-.014-.237.019.15c.002.02-.003.058-.005.087zm-3.551-54.032c-.04-.049-.064-.09-.093-.133l.138.106.07.098c-.04-.025-.106-.06-.115-.071zm6.062 9.323a5.058 5.058 0 0 1-.058-.884c-.01-.317.001-.633.019-.96a3.252 3.252 0 0 0-.056-.725 13.077 13.077 0 0 0-1.477-4.703c-.576-1.003-1.221-1.98-2.036-2.811-1.509-1.654-3.464-2.898-5.593-3.617-.291-.116-.595-.189-.899-.264-.304-.071-.603-.167-.91-.216-.618-.092-1.233-.211-1.859-.22-.303-.013-.64-.04-.916-.038L88.364 21l-1.694.002-8.595.02-2.706.008c-1.273.017-2.548.036-3.81.072a21.74 21.74 0 0 1-2.01-.015 21.495 21.495 0 0 0-2.234-.02l-.56.015-6.66.075-2.647.04-1.322.026-.33.006-.14.003-.034.004-.136.013c-.4.04-.798.104-1.2.131-.27.02-.534.083-.804.104-.115.009-.232.005-.345.025-.206.035-.409.087-.615.125-.106.02-.214.03-.322.035a.296.296 0 0 0-.219.106.271.271 0 0 0-.212-.064l-.418.027c-.13.013-.26.034-.351.168.038.012.07.027.105.032l.529.06c.06.008.117.035.175.053l-.001-.002.094.092c-.093-.005-.028.14-.129.13-.06-.005-.122-.001-.184.002-.022 0-.044.01-.064.015-.023.055.029.062.05.087l-.182.005c-.014 0-.028.009-.06.019.044.055.1.064.157.072l.435.058c.023.003.047.005.068.014l.558.225c.166.067.334.12.518.097a.377.377 0 0 1 .115.002c.37.079.745.117 1.122.136a.384.384 0 0 1 .19.072.64.64 0 0 0 .189.08c.047.011.095-.009.09-.073-.002-.049.027-.074.067-.077.083-.006.166-.003.298-.005l-.16.103c.015.012.024.027.036.03.12.031.24.052.367.034a.964.964 0 0 1 .254.001l.025.004.12.003.245.005.49.008.98.005 1.96-.004c.366.001.656-.018.843-.085.402.066.775.137 1.358.136.328 0 .588.022.902-.045.245-.052.752-.063 1.146-.007.325.047.695.054 1.078.052.445-.002.917-.022 1.248.066.326-.008.755.007.957-.03.436-.077.916-.057 1.386-.064.335-.004.674.008 1.01.015.146.003.358.005.418.024.307.098.765.078 1.209.078.3 0 .608 0 .898.012.643.028 1.178.022 1.515-.118.111-.047.393-.035.608-.013.066.007.138.015.18.028.667.184 1.588.141 2.469.107.34-.014.644-.033.977 0 .13.013.316.028.43.018.637-.054 1.337.018 1.978-.046.202-.021.56-.017.753.007a6.74 6.74 0 0 0 1.503-.002c.289-.027.574-.038.856.003l-.007-.001.661-.019c.146 0 .305.007.44.02.51.048.697-.062 1.043-.082.375-.022.43.13.889.109.363-.017.77-.03 1.057-.073.706-.105 1.47-.089 2.146-.027.57.09 1.141.092 1.7.21l.584.091.575.142c.19.051.387.083.574.147l.56.195c.092.032.201.065.276.078.192.024.348.112.515.223.24.178.56.301.848.497l.682.417.638.48c.22.15.408.34.606.517.191.184.404.346.574.552.224.256.452.48.681.664.287.25.544.553.644.84.058.202.148.4.258.604.055.101.115.204.18.308l.167.338c.312.559.494 1.207.78 1.712l.234.892c.074.298.098.606.144.906.054.308.051.594.084.9.026.239.044.503-.045.49-.011-.001-.024.137-.028.227l-.026 2.787c0 .216.02.435.032.651.005.022.011.04.014.066.003.02.002.052.002.077l-.017-.14c-.09.52.012.867.064 1.304-.13.563-.139 1.314-.145 2.061-.012 1.155-.035 2.314-.024 3.464.012 1.308-.033 2.585-.047 3.877l-.017 3.244-.023 5.014.004 1.229c0 .333.014.688-.005.995-.041.674-.011 1.333-.005 1.997.002.17.017.375.04.5.072.38.058.814.008 1.135-.096.611-.077 1.265-.063 1.926.008.363.03.72.045 1.078l.007.026.011.124-.024.14c-.015.511-.04 1.02-.044 1.533l.003 2.227c0 .393.002.725.098.886.043.074.037.338.004.463-.122.457-.143.99-.083 1.67.018.214 0 .504-.003.759-.001.22-.022.528 0 .645.084.448.076.815-.005 1.234a2.53 2.53 0 0 0 .005.425c.03.39.06.76.016 1.18-.007.077.016.29.036.355.054.173.07.375.051.666l-.082 1.373.001-.007v.233a3.37 3.37 0 0 0 .065 1.334c.025.104.044.377-.036.25-.01-.016-.035.053-.036.092-.012.464-.052.927.029 1.37.08.438.102.969.089 1.566-.012.54.032 1.124-.072 1.562-.004.516-.026 1.047-.008 1.544.028.765-.01 1.578.071 2.305.005.042-.018.179-.033.246-.03.129-.032.294-.002.37.062.162.093.343.07.707-.009.164-.008.41.01.536.086.565.02 1.059-.02 1.57.039.155.088.28.03.578-.078.4-.076.411-.012.838.008.057.02.101.03.151-.046.085-.076.23-.071.487l.048 2.094.085-1.264c.045.685.062 1.214.007 1.586-.093.627-.044 1.193-.014 1.793l.01.033c.048.068.074.186.042.437l.001-.015-.046.682v-.004c-.012.093-.035.186-.035.28l.004 2.28.124-.066.007 2.364.026 1.666c.004.286-.008.575-.015.863l-.065-.362c-.013.098-.033.178-.033.255l.019 4.821c0 .107.008.22.019.316.005.055.023.113.036.111.011-.001.03-.073.032-.124l.02-1.032c.013.316.014.496.028.653.044.537.057.999-.071 1.344-.031.084-.055.381-.053.577.005.848.019 1.696.12 2.439.044.332.051.702.042 1.078-.003.13-.02.328-.04.36-.09.149-.084.492-.085.828l-.028 6.716-.018 1.566-.011 2.46c-.001.259.003.525-.01.77-.023.406-.067.74-.045 1.121.01.122.002.283-.03.397-.188 1.017-.468 2.057-.88 3.023l-.32.621-.158.311-.187.296-.374.592c-.135.19-.284.37-.425.558-.266.387-.614.707-.922 1.06-.11.115-.229.221-.348.327l-.004.002-.017.018c-.05.044-.1.088-.149.134-.128.117-.257.234-.392.345-.03.008-.112.052-.17.086-.048.027-.106.076-.188.135-.05.043-.129.106-.189.165-.031.03-.048.068-.035.072.014.006.072-.012.109-.038.13-.092.268-.19.388-.288a.416.416 0 0 0 .086-.098c.194-.114.323-.222.451-.318.154-.124.3-.245.498-.445l.432-.487c.15-.16.303-.326.442-.523a.936.936 0 0 1-.158.305c-.078.09-.164.177-.237.254-1.075 1.172-2.335 2.17-3.775 2.852l-2.382.954c-.316.088-.6.255-.909.389l-.913.445c-.063.028-.118.073-.18.108-.124.07-.21.167-.203.315.007.11-.096.157-.152.252.052.024.096.056.146.066.267.054.543.094.823.1.297.016.592-.016.886-.046.377-.042.761-.05 1.132-.137l.649-.12.17-.031c.26-.062.507-.167.761-.25.25-.093.512-.162.753-.278l.729-.336c1.227-.612 2.37-1.4 3.368-2.346a13.897 13.897 0 0 0 2.48-3.281c.622-1.12 1.015-2.353 1.288-3.601l.15-.948c.058-.315.05-.637.077-.956.05-.66.033-1.215.046-1.81.05-4.149.004-8.299.028-12.445.008-1.46.005-2.906-.02-4.364-.026-1.637-.011-3.288-.021-4.932l-.04-4.478-.032-5.934-.044-8.629.006-5.488-.003-4.15.022-6.725.033-9.303.065-7.5.038-6.271.06-5.928.005-2.12.044-4.928.012-.893c.002-.111.014-.262.004-.328z" fill="#333" mask="url(#f)"/><path d="M100.002 94.011v-.002L100 94l.002.011zM94.578 141.046l-.958.542c-.072.049-.179.086-.229.107l-.05.025-.1.05-.2.103c-.014.007-.024.028-.034.046-.005.007-.009.024-.006.031.007.02.02.052.026.05.074-.027.15-.055.221-.09l.142-.072c.017-.009.01-.007.048-.024.058-.025.117-.042.172-.08l.337-.194c.38-.223.767-.415 1.118-.718.318-.259.645-.472.935-.79l-.024-.032a3.86 3.86 0 0 1-.479.38c-.307.219-.608.46-.92.666M39 72v.003l.002.009L39 72z" fill="#333" mask="url(#f)"/><path d="M41.281 139.259l-.057-.104c.036.029.097.069.104.08.035.052.054.095.078.142l-.125-.118zm-3.107-75.713c-.001-.053.021-.115.033-.172.01.086.022.169.027.26.002.034-.015.09-.028.16-.013-.094-.031-.168-.032-.248zm-.038-7.256c.046.701.047.713.03 1.248-.039-.348-.034-.72-.03-1.248zm.135 13.843c.016.042.04.066.046.13.012.121.014.262.019.397-.023-.076-.05-.137-.066-.238-.009-.06 0-.19.001-.289zm.185 12.914l.002.07-.013-.018.01-.052zm.038 2.253l.014.235-.019-.148c-.002-.02.003-.058.005-.087zM85.374 144c-.059-.008-.116-.035-.173-.053l.002.002-.094-.092c.092.005.028-.139.127-.13.06.005.121.001.182-.001.022-.001.043-.01.064-.015.022-.056-.029-.063-.05-.088l.18-.005c.014 0 .028-.009.059-.018-.043-.055-.1-.065-.155-.073l-.43-.058c-.022-.003-.045-.005-.067-.014l-.55-.225c-.164-.067-.33-.12-.512-.097a.354.354 0 0 1-.114-.002 6.902 6.902 0 0 0-1.107-.136.38.38 0 0 1-.19-.072.63.63 0 0 0-.185-.079c-.046-.012-.093.008-.09.072.004.05-.025.074-.065.078-.082.006-.164.003-.294.004l.157-.103c-.014-.012-.023-.026-.034-.03a.9.9 0 0 0-.363-.034.94.94 0 0 1-.25-.001l-.026-.004-.118-.003-.24-.005-.48-.007-.958-.005-1.92.003c-.359 0-.642.019-.825.085-.394-.066-.76-.137-1.33-.135-.322 0-.577-.023-.884.044-.24.052-.736.063-1.122.007a7.284 7.284 0 0 0-1.056-.052c-.436.002-.897.022-1.222-.066-.32.008-.739-.007-.937.03-.427.077-.897.058-1.357.064-.328.004-.66-.008-.99-.015-.142-.003-.35-.005-.409-.024-.3-.097-.75-.078-1.184-.078-.293 0-.595 0-.88-.012-.63-.028-1.153-.022-1.483.118-.109.048-.384.035-.595.013a1.255 1.255 0 0 1-.177-.027c-.653-.185-1.555-.142-2.417-.108-.334.014-.63.033-.957 0a2.708 2.708 0 0 0-.42-.018c-.625.055-1.31-.018-1.939.047-.197.02-.547.016-.737-.008a6.463 6.463 0 0 0-1.472.002 3.462 3.462 0 0 1-.838-.003l.008.002-.649.018c-.142.001-.298-.007-.429-.02-.5-.048-.684.062-1.023.083-.367.021-.421-.13-.87-.109-.356.016-.755.03-1.035.072-.344.052-.71.079-1.056.073a10.49 10.49 0 0 1-.963-.096c-.277-.043-.548-.12-.823-.166l-.412-.072-.404-.111-.56-.146c-.188-.044-.365-.126-.549-.186l-.55-.192c-.178-.074-.35-.162-.527-.243a1.89 1.89 0 0 0-.262-.103 1.72 1.72 0 0 1-.257-.092 1.462 1.462 0 0 1-.23-.166c-.215-.2-.515-.356-.787-.562-.86-.6-1.607-1.346-2.28-2.146-.198-.271-.387-.522-.61-.713a2.18 2.18 0 0 1-.558-.884c-.058-.194-.111-.408-.203-.616-.08-.214-.212-.422-.294-.664l-.326-.896a5.293 5.293 0 0 0-.292-.86c-.081-.293-.101-.6-.157-.9-.02-.15-.053-.3-.062-.452l-.014-.454-.037-.921c-.013-.258-.017-.54.07-.528.012.002.033-.15.034-.234l.025-2.763c.001-.215-.02-.432-.03-.646-.006-.022-.012-.04-.015-.067-.003-.02-.002-.05-.002-.076l.017.139c.09-.515-.011-.86-.063-1.293.128-.558.137-1.303.144-2.044.01-1.145.033-2.294.023-3.435-.013-1.297.032-2.564.046-3.845l.017-3.217.023-4.973-.004-1.218c-.001-.33-.015-.683.004-.987.041-.668.011-1.322.005-1.98a3.272 3.272 0 0 0-.04-.496 3.543 3.543 0 0 1-.007-1.126c.094-.606.076-1.254.062-1.91-.007-.36-.03-.713-.045-1.07l-.006-.024-.011-.124.024-.14c.015-.506.04-1.01.043-1.52l-.003-2.208c0-.39-.002-.718-.096-.879-.043-.072-.037-.335-.005-.458.121-.454.142-.983.083-1.657-.018-.211 0-.5.002-.752.002-.219.023-.524 0-.64a3.09 3.09 0 0 1 .005-1.224 2.466 2.466 0 0 0-.004-.421c-.03-.386-.06-.754-.017-1.172a1.454 1.454 0 0 0-.035-.35c-.053-.172-.069-.373-.05-.661l.08-1.361v.006-.231a3.357 3.357 0 0 0-.064-1.323c-.025-.102-.044-.373.035-.248.01.016.035-.053.036-.091.011-.46.05-.92-.029-1.359-.079-.433-.1-.96-.088-1.553.012-.535-.031-1.114.071-1.549.004-.511.026-1.038.008-1.531-.027-.758.01-1.564-.07-2.285a1.252 1.252 0 0 1 .033-.245c.028-.128.031-.291.002-.367-.062-.16-.092-.34-.07-.702.01-.161.009-.404-.01-.53-.085-.561-.02-1.05.02-1.558-.038-.153-.087-.278-.03-.573.077-.396.075-.407.012-.83-.007-.057-.019-.101-.029-.15.045-.085.075-.23.07-.483l-.047-2.077-.084 1.253c-.044-.679-.062-1.203-.008-1.573.092-.622.044-1.183.014-1.778l-.009-.032c-.047-.068-.073-.185-.042-.433l-.001.015.046-.677-.001.004c.012-.092.035-.184.035-.278l-.004-2.26-.122.064-.007-2.344-.026-1.652c-.003-.284.009-.57.015-.857l.064.36c.013-.097.033-.176.033-.253l-.019-4.782c0-.106-.009-.218-.018-.313-.006-.054-.024-.111-.036-.11-.011.001-.03.073-.032.124l-.02 1.022c-.013-.312-.014-.49-.027-.646-.044-.533-.056-.991.07-1.334.03-.083.054-.378.053-.572-.006-.84-.02-1.682-.118-2.418a6.879 6.879 0 0 1-.043-1.07c.003-.129.02-.325.04-.358.088-.146.083-.487.084-.82l.027-6.66.018-1.553.011-2.44c.001-.256-.003-.521.009-.764.037-.38.07-.727.05-1.101-.012-.12.02-.278.042-.391.056-.252.107-.505.153-.76l.206-.756.102-.38.138-.368c.097-.243.175-.493.288-.726.221-.405.392-.835.658-1.215l.367-.586.42-.55.207-.278.234-.256.466-.516c.112-.11.23-.214.346-.321h.002l.008-.01.154-.142a6.48 6.48 0 0 1 .383-.338c.027-.005.111-.051.17-.086.046-.027.104-.075.184-.134.048-.042.126-.105.185-.164.03-.03.047-.067.034-.072-.014-.005-.07.012-.107.038-.128.092-.262.19-.38.285a.405.405 0 0 0-.083.097c-.191.112-.321.216-.445.313a7.08 7.08 0 0 0-.49.439l-.423.483c-.143.162-.303.319-.437.515.048-.215.247-.398.39-.552 1.058-1.157 2.294-2.144 3.705-2.82l2.34-.947c.312-.088.592-.256.898-.389l.902-.445c.062-.028.116-.074.176-.108.123-.07.21-.167.201-.316-.006-.109.095-.156.151-.251-.052-.025-.095-.057-.145-.066a4.512 4.512 0 0 0-.813-.1c-.293-.016-.583.016-.874.045-.372.043-.751.051-1.118.137l-.64.12-.168.032c-.255.06-.497.165-.746.247-.246.092-.5.162-.737.275l-.715.333a13.542 13.542 0 0 0-3.304 2.319 13.944 13.944 0 0 0-2.45 3.237c-.604 1.114-1.01 2.325-1.291 3.562-.094.627-.226 1.251-.236 1.886-.014.31-.045.65-.043.933l-.01.874c-.049 4.114-.003 8.23-.027 12.343-.008 1.446-.005 2.88.019 4.327.027 1.623.012 3.26.022 4.891l.038 4.44.033 5.886.044 8.557-.007 5.443.003 4.115-.022 6.669-.032 9.226-.065 7.438-.038 6.22-.058 5.879-.005 2.103c-.015 1.629-.03 3.257-.043 4.886l-.013.886c-.002.11-.014.26-.003.326.095.599.06 1.156-.009 1.74-.018.182.008.475.018.716.066 1.63.428 3.256 1.074 4.762.25.515.475 1.046.791 1.526.152.243.289.496.456.728l.513.69c.157.228.345.43.53.635.185.204.367.412.557.611l.609.562.305.279.329.252.66.497c.228.156.469.293.703.439.46.306.97.523 1.466.763 1.129.467 2.303.855 3.52 1.004.602.12 1.216.112 1.825.152.571.01 1.111.003 1.668.002l8.417-.02 2.65-.008c1.247-.017 2.496-.035 3.732-.072.674-.02 1.322-.026 1.967.015.726.047 1.45.05 2.189.02l.548-.015 6.522-.074 2.592-.042 1.295-.024.324-.007.136-.003.034-.003.134-.014c.395-.04.789-.103 1.185-.131.267-.02.528-.083.794-.103.114-.01.23-.006.341-.025.203-.036.403-.088.606-.126.105-.02.212-.029.319-.035a.29.29 0 0 0 .216-.106.265.265 0 0 0 .21.064l.412-.027c.129-.013.257-.034.347-.167-.037-.013-.07-.028-.103-.032l-.523-.061z" fill="#333" mask="url(#f)"/><path d="M44.421 24.957l.957-.542c.072-.049.178-.086.229-.107l.05-.026.1-.05.202-.104c.014-.007.024-.028.035-.046.004-.007.008-.024.005-.032-.007-.019-.02-.052-.026-.05-.075.027-.15.055-.223.09l-.142.074c-.018.008-.01.007-.049.024-.057.025-.117.042-.172.079l-.336.195c-.378.224-.766.414-1.117.716-.316.263-.645.47-.934.79l.024.032c.154-.145.315-.268.48-.378.306-.217.606-.462.917-.665M95.002 79.01v-.003A.044.044 0 0 1 95 79l.002.01z" fill="#333" mask="url(#f)"/><path d="M94.946 91.754c-.048-.544-.05-.553-.035-.968.04.27.038.558.035.968zm-.094-5.492c-.01-.067-.022-.131-.027-.202-.002-.026.015-.07.028-.124.013.073.031.13.033.193 0 .04-.022.088-.034.133zm-.085-5.24c-.016-.033-.04-.051-.046-.1-.012-.095-.014-.204-.02-.309.023.058.05.107.067.185.01.046 0 .147 0 .223zm-.224-10.012l-.003-.054.013.014-.01.04zm-.045-1.747l-.015-.182.02.115c.002.016-.004.045-.005.067zM80.45 42.247c-.051-.009-.089-.024-.131-.036l.145-.014.097.026c-.038.009-.098.026-.11.024zm15.182-2.122h-.026l-.035-.001-1.645-.005-.804-.008-3.016-.035-.693-.013c-.086-.001-.203-.013-.255-.003-.468.095-.903.06-1.36-.008-.137-.02-.34-.013-.513-.014l-3.475-.024-2.435-.001c-1.563-.003-3.128-.02-4.69-.01l-5.21-.001-6.608.018-2.08.01c-.979.016-1.96.034-2.93.07-.53.02-1.038.027-1.545-.015a12.79 12.79 0 0 0-1.718-.018c-.141.007-.286.012-.43.015l-5.12.073-2.036.041-1.016.025-.254.006-.109.003-.034.003-.135.014c-.398.04-.794.103-1.192.13-.27.02-.532.082-.8.102-.115.01-.231.007-.344.026-.205.035-.406.086-.61.124-.106.02-.214.03-.32.036a.291.291 0 0 0-.219.105.27.27 0 0 0-.21-.065l-.416.028c-.13.012-.258.033-.349.167.037.011.07.027.104.031l.526.06c.06.009.116.035.174.053l-.002-.002.095.091c-.093-.005-.028.14-.128.13-.06-.005-.122-.001-.183.002-.022 0-.044.01-.065.015-.022.054.03.062.051.087l-.181.004c-.015.001-.029.009-.06.019.044.054.1.064.155.072l.434.057c.022.003.046.006.067.014l.555.224c.164.066.332.12.515.097a.342.342 0 0 1 .114.001c.368.079.74.117 1.115.136a.38.38 0 0 1 .19.072.643.643 0 0 0 .187.078c.047.012.094-.008.09-.072-.003-.048.027-.074.067-.076.082-.006.164-.004.296-.005l-.159.102c.014.012.023.027.035.03.12.032.239.051.365.034a.942.942 0 0 1 .253.001l.025.004.093.003.188.005.376.007.754.005 1.506-.003c.282 0 .504-.019.649-.085.309.066.596.137 1.044.135.252 0 .452.022.693-.044.188-.052.578-.062.881-.007.25.046.535.053.83.051.341-.002.704-.022.959.066.25-.008.58.007.736-.029.335-.078.704-.058 1.065-.064.257-.004.519.007.777.014.112.004.275.006.321.024.237.097.589.077.93.078.23 0 .467 0 .69.012.495.028.906.022 1.165-.118.086-.047.302-.035.467-.012a.832.832 0 0 1 .14.026c.512.184 1.22.142 1.897.107.262-.013.495-.033.751.001.1.013.243.027.33.017.491-.054 1.029.018 1.522-.045.155-.021.43-.017.579.007.404.064.772.045 1.155-.002.222-.027.442-.037.658.002h-.006c.17-.007.34-.018.51-.02.111 0 .234.008.337.02.392.049.536-.061.803-.081.288-.021.33.129.683.108.279-.016.592-.03.812-.072.544-.105 1.128-.087 1.653-.029.475.053.953.06 1.43.067.659.007 1.323-.011 1.985-.02.082-.001.178-.008.239-.02.156-.033.303-.042.47-.008.244.05.533.052.824.054l2.685.019c.287.001.557 0 .798-.063.314-.082.64-.094.888-.014.336.108.731.107 1.168.099.538-.011 1.11.03 1.59-.072.518 0 1.039-.009 1.552.005.262.008.503.015.763-.003.202-.013.423-.017.413.07-.002.012.117.032.183.034l2.161.025c.167.001.337-.02.505-.031.017-.005.03-.011.052-.014.015-.003.039-.002.059-.002l-.109.017c.403.089.673-.012 1.012-.064.436.129 1.018.138 1.598.144l.595.009c.006.912-.024 1.809-.034 2.714l-.007 2.494-.008 3.856.008.944c.002.256.016.53-.002.766-.04.518-.007 1.024.001 1.535.002.132.018.288.041.384.072.292.06.626.011.873-.093.47-.072.973-.056 1.481.009.28.031.553.048.829l.006.02.012.095-.024.109c-.014.392-.036.783-.039 1.178l.01 1.713c0 .302.004.556.1.68.043.057.038.26.006.356-.12.352-.14.762-.078 1.285.019.163 0 .387 0 .583-.001.17-.021.406.001.495a1.86 1.86 0 0 1 0 .95c-.014.057-.006.227.005.327.032.299.062.584.02.907a.894.894 0 0 0 .037.273c.054.132.07.287.053.511l-.078 1.056.001-.005v.18c-.073.425-.024.732.07 1.024.024.08.044.29-.036.193-.009-.012-.035.04-.036.071-.01.357-.048.713.034 1.053.08.336.104.745.093 1.204-.01.415.035.863-.067 1.201-.002.397-.023.806-.003 1.188.03.587-.006 1.212.078 1.77a.772.772 0 0 1-.033.19c-.028.1-.03.227-.001.285.063.124.093.264.073.544-.01.126-.008.314.011.412.087.434.023.814-.015 1.207.039.12.088.215.031.444-.076.308-.074.316-.01.645.009.043.02.078.03.116-.045.065-.075.177-.068.374l.054 1.61.08-.972c.047.527.066.933.012 1.22-.09.482-.04.917-.008 1.379l.01.025c.048.052.074.142.043.335l.001-.011-.044.524.001-.003c-.012.072-.035.143-.034.216l.01 1.753.123-.05.014 1.816.031 1.281c.004.22-.007.442-.012.664l-.066-.279c-.013.076-.032.137-.032.197l.033 3.707c.001.082.01.169.02.243.006.042.024.086.036.084.011 0 .03-.056.031-.095l.018-.793c.014.242.016.38.029.502.046.412.06.767-.066 1.033-.031.065-.053.294-.051.444.007.652.024 1.304.126 1.875.045.255.054.54.045.83-.002.099-.018.25-.038.276-.089.115-.082.378-.082.636l-.007 5.165-.014 1.204-.004 1.892c0 .198.005.403-.006.592-.02.315-.03.615.006.928.012.1.02.235.012.332-.071.865-.041 1.77-.064 2.653-.034 1.304-.04 2.617-.027 3.937l-.007.013c.002.017.004.042.007.052.002.19 0 .377.003.566-.012-.002-.029.1-.037.168-.006.046-.002.11-.002.196.005.054.009.14.02.21.006.037.026.067.038.06.012-.007.033-.056.034-.093a4.59 4.59 0 0 0-.003-.404.316.316 0 0 0-.027-.108c.062-.418.074-.594.059-1.02a28.496 28.496 0 0 1-.013-1.116c.08.167.062.392.06.57-.016 1.326.046 2.638.076 3.951l.038 1.299.044.347.09.694c.038.345.166.665.252.997.086.338.252.64.38.959.025.063.068.12.1.18.064.126.157.211.306.204.11-.005.153.094.246.147.026-.05.06-.09.073-.138.065-.252.118-.507.137-.767l.048-.824.064-1.053.042-.606.01-.157.01-.569.017-1.139.082-5.845.031-5.428c.038-3.19-.02-6.38-.01-9.57.005-1.12-.003-2.233-.032-3.354-.032-1.259-.022-2.528-.036-3.792l-.053-3.443-.05-4.563-.07-6.635-.01-4.22-.016-3.19.002-5.17.005-7.154.042-5.767.02-4.822.019-2.28.011-1.14.006-.569.002-.285.001-.142.001-.07v-.01l-1.187-1.173z" fill="#333" mask="url(#f)"/><path d="M95.162 120.498l-.006-.158-.01-.317-.044-1.072-.062-.951-.037.01-.003.481.048 1.816.007.212.005.06.011.121.023.242c.001.016.015.032.025.046.005.006.017.013.023.012.017-.003.047-.012.047-.019.001-.087.001-.174-.006-.26l-.016-.169-.005-.054zM59.536 123.803l-.097-.026c.039-.009.099-.026.11-.024.052.009.09.024.132.036l-.145.014zM45.054 74.246c.049.544.05.553.034.968-.04-.27-.037-.558-.034-.968zm.094 5.492c.01.067.022.131.027.203.002.025-.015.069-.028.123-.013-.073-.031-.13-.033-.193 0-.04.021-.088.034-.133zm.085 5.241c.015.032.04.05.046.1.012.094.014.203.02.308-.023-.058-.05-.107-.067-.185-.01-.046 0-.147 0-.223zm.224 10.011l.003.054-.013-.014.01-.04zm.045 1.747l.015.182-.019-.115c-.003-.016.003-.045.004-.067zm46.506 29.043l.254-.007.109-.003.034-.003.135-.014c.398-.04.793-.102 1.192-.13.27-.02.532-.082.8-.103.115-.009.231-.006.343-.025.206-.035.407-.087.611-.124.105-.02.214-.03.32-.036a.292.292 0 0 0 .218-.104c.062.05.13.072.212.064l.415-.028c.13-.012.258-.034.349-.167-.038-.011-.07-.027-.104-.031l-.526-.06c-.06-.01-.116-.035-.174-.053v.002l-.093-.091c.093.005.028-.14.128-.13.06.005.122.001.183-.001.022-.001.044-.01.064-.015.022-.056-.029-.062-.05-.088l.181-.004c.015 0 .029-.009.06-.019-.044-.054-.1-.064-.155-.072l-.434-.057c-.023-.003-.046-.006-.067-.014l-.555-.224c-.165-.066-.332-.12-.515-.097a.333.333 0 0 1-.115-.002 7.111 7.111 0 0 0-1.115-.135.382.382 0 0 1-.19-.072.65.65 0 0 0-.187-.078c-.046-.012-.094.008-.09.072.003.048-.026.073-.066.076-.082.006-.165.004-.296.006l.159-.103c-.014-.012-.024-.026-.035-.03a.92.92 0 0 0-.365-.035.898.898 0 0 1-.253 0l-.025-.003-.093-.004-.188-.005-.377-.007-.753-.005-1.507.003c-.281 0-.504.019-.648.085-.309-.066-.596-.137-1.044-.135-.252 0-.453-.022-.693.044-.189.052-.578.062-.881.007a4.606 4.606 0 0 0-.83-.051c-.342.002-.704.022-.959-.066-.25.008-.58-.008-.736.029-.335.078-.705.058-1.066.064-.257.004-.518-.007-.776-.014-.112-.004-.275-.006-.321-.024-.237-.097-.589-.078-.93-.078-.23 0-.467 0-.69-.012-.495-.028-.906-.022-1.165.118-.086.047-.302.035-.468.012a.827.827 0 0 1-.138-.026c-.513-.184-1.221-.141-1.898-.107-.262.013-.495.032-.752-.001a1.625 1.625 0 0 0-.33-.017c-.49.053-1.028-.018-1.52.046-.156.02-.43.016-.58-.008a3.987 3.987 0 0 0-1.155.002 2.173 2.173 0 0 1-.658-.003l.006.002c-.17.006-.34.017-.51.018a2.84 2.84 0 0 1-.337-.02c-.392-.048-.537.062-.803.082-.288.022-.33-.129-.683-.108-.279.016-.593.03-.812.072-.544.106-1.128.087-1.653.029-.475-.053-.953-.06-1.43-.066-.66-.008-1.323.01-1.985.02-.082 0-.178.007-.24.02a1.117 1.117 0 0 1-.469.008c-.244-.05-.533-.053-.824-.055l-2.685-.019c-.287-.001-.557 0-.798.063-.314.082-.64.094-.888.014-.337-.108-.731-.107-1.169-.098-.538.01-1.11-.03-1.59.071-.517 0-1.038.009-1.55-.006-.264-.006-.504-.014-.764.003-.202.014-.424.017-.413-.07.002-.011-.117-.031-.183-.032-.721-.01-1.441-.018-2.16-.026-.169 0-.338.02-.506.03-.016.006-.03.012-.052.015-.015.003-.04.002-.059.002l.109-.017c-.403-.089-.672.012-1.012.064-.436-.128-1.018-.138-1.598-.144l-.595-.01c-.006-.91.024-1.807.034-2.713l.007-2.494.008-3.856-.008-.944c-.001-.257-.016-.53.002-.766.04-.518.007-1.024-.001-1.535a1.987 1.987 0 0 0-.041-.384 2.13 2.13 0 0 1-.011-.873c.093-.47.072-.972.056-1.482-.008-.278-.032-.552-.048-.828l-.006-.02-.012-.095.024-.108c.014-.393.036-.784.039-1.18l-.01-1.712c0-.302-.005-.557-.1-.68-.043-.056-.038-.26-.005-.356.12-.352.14-.762.078-1.284-.02-.164-.002-.388 0-.584 0-.17.02-.405-.002-.496a1.854 1.854 0 0 1 0-.95 1.516 1.516 0 0 0-.005-.326c-.032-.299-.062-.584-.02-.907a.89.89 0 0 0-.037-.272c-.054-.133-.07-.288-.053-.513l.078-1.055-.001.005v-.175-.005a2.016 2.016 0 0 0-.069-1.024c-.026-.08-.045-.29.034-.193.01.012.036-.04.036-.071.01-.357.048-.713-.033-1.053-.08-.336-.103-.745-.093-1.204.01-.415-.035-.864.067-1.201.002-.397.023-.805.004-1.188-.03-.587.005-1.212-.079-1.771a.791.791 0 0 1 .033-.19c.028-.099.031-.226.001-.285-.063-.123-.093-.263-.073-.543a1.97 1.97 0 0 0-.011-.411c-.087-.435-.024-.815.015-1.208-.039-.119-.088-.215-.031-.444.076-.308.074-.317.01-.645-.009-.043-.02-.077-.03-.116.045-.065.074-.177.068-.374l-.054-1.61-.08.972c-.047-.526-.066-.933-.012-1.22.09-.482.04-.917.008-1.378l-.01-.025c-.047-.053-.074-.143-.043-.336l-.001.011.044-.525v.004c.011-.072.034-.144.034-.216l-.011-1.752-.123.05-.014-1.817-.032-1.28c-.003-.22.008-.443.013-.665l.065.278c.013-.075.033-.136.033-.196l-.033-3.707c-.001-.082-.01-.17-.02-.243-.006-.042-.024-.086-.036-.085-.011.001-.03.057-.031.096l-.018.793c-.013-.243-.015-.38-.029-.502-.046-.412-.06-.767.066-1.033.031-.065.053-.294.051-.444-.007-.652-.024-1.304-.126-1.875a4.197 4.197 0 0 1-.046-.829c.003-.1.02-.252.04-.278.087-.114.08-.377.081-.635l.008-5.164.013-1.205.004-1.892c0-.199-.006-.404.006-.592.02-.315.03-.616-.006-.927-.012-.1-.02-.235-.012-.333.071-.865.04-1.77.064-2.653.034-1.304.04-2.617.027-3.937l.007-.013c-.002-.017-.004-.041-.007-.052-.002-.19 0-.377-.004-.566.013.002.03-.1.038-.168.006-.046.002-.11.002-.196-.005-.054-.009-.14-.02-.21-.007-.037-.026-.066-.038-.06-.013.007-.033.056-.034.094-.003.133-.005.275.003.403.002.039.014.08.028.108a4.415 4.415 0 0 0-.06 1.02c.013.362.014.715.013 1.117-.08-.168-.062-.393-.06-.57.015-1.327-.047-2.639-.076-3.953l-.038-1.298-.045-.347-.09-.694c-.037-.345-.165-.665-.25-.997-.088-.338-.253-.64-.381-.959-.025-.063-.068-.12-.1-.18-.064-.125-.157-.211-.307-.204-.11.005-.151-.094-.245-.147-.027.05-.06.09-.073.138a4.278 4.278 0 0 0-.137.767l-.048.824-.064 1.053-.042.606-.01.156-.01.57-.017 1.139-.082 5.846-.031 5.427c-.038 3.19.02 6.38.01 9.57-.005 1.12.004 2.233.032 3.354.031 1.259.022 2.529.036 3.793l.053 3.442.05 4.563.07 6.634.01 4.22.016 3.19-.002 5.171-.005 7.154-.042 5.767-.019 4.822-.02 2.28-.011 1.139-.006.57-.002.285-.001.142-.001.071v.009c.53.523-1.185-1.17 1.187 1.174h.062l1.644.005.804.008 3.017.035.692.013c.086.002.203.013.254.003.47-.095.904-.06 1.362.009.136.02.339.012.512.013l3.475.024 2.435.001c1.563.003 3.128.02 4.691.01l5.208.001 6.608-.018 2.081-.009c.979-.016 1.96-.035 2.93-.072.53-.02 1.038-.026 1.545.016.57.046 1.138.049 1.717.018.142-.007.287-.012.431-.015l5.12-.073 2.035-.041 1.017-.024z" fill="#333" mask="url(#f)"/><path d="M43 86v.002l.002.007L43 86zM43.13 44.421l-.011-.12-.023-.242c-.001-.016-.015-.032-.026-.047-.004-.006-.016-.013-.023-.012-.017.004-.047.013-.047.02 0 .086 0 .173.007.26l.016.168.005.054.005.159.011.316c.014.358.03.714.043 1.072l.063.951.036-.01.004-.481-.049-1.815-.006-.213-.005-.06z" fill="#333" mask="url(#f)"/><path d="M57.258 69c.095-.062.153-.08.15-.1-.053-.365-.001-.73.212-1.05a.156.156 0 0 0 .022-.116c-.087-.488.118-.924.174-1.389.015-.09.036-.179.06-.266.02.01.037.02.06.027.01.004.057-.005.055-.01-.011-.019-.034-.039-.053-.059l-.053.01c.06-.21.134-.415.187-.628.06-.26.086-.54.176-.793.139-.396.33-.763.515-1.132.327-.695.81-1.258 1.106-1.99.032-.075.11-.11.176-.152.352-.216.605-.508.79-.903.055-.118.1-.25.165-.41-.097-.023-.144-.048-.163-.036-.333.234-.678.465-.963.77a2.77 2.77 0 0 0-.454.68c-.114.245-.217.486-.467.618-.1.053-.16.152-.214.25-.395.754-.686 1.564-.98 2.357-.154.387-.28.788-.289 1.223-.007.273.006.553-.12.78-.167.314-.206.66-.18 1.013.007.124-.071.236-.098.357-.065.292-.186.598.186.949M67.456 60.616c.337.107.663.193.982.312.16.056.321.064.481.072.023.002.057-.133.08-.227a.658.658 0 0 0-.023-.2c-.244-.315-.52-.526-.803-.571-.137-.016-.274.087-.41.088-.236.007-.475-.045-.763-.035.078.207.115.366.149.393.104.077.207.14.307.168M67 60.813c-.135-.535-.29-.558-.427-.8l.001-.013c-.024.088-.053.277-.07.248-.264-.451-.382-.005-.504.342.359.245.698.65 1 .223M62 60c-.267.18-.733-.036-.92.321-.061.12-.18.21.088.679.372-.178.673-.44.832-1" fill="#EAEBEC" mask="url(#f)"/><path d="M66.34 60.447c.022-.039.022-.174.003-.264-.014-.066-.091-.193-.112-.182-.073.032-.133.113-.231.21.168.243.269.367.34.236M60.044 63.002c-.081.024-.055.113.118.208.075.04.166.042.283.07-.06-.081-.087-.155-.15-.198-.068-.045-.212-.092-.251-.08M60.062 64.258a.274.274 0 0 0 .085.059c.028.012.083.018.081.012L60.124 64c-.095.05-.19.103-.062.258M64.166 60.112a.377.377 0 0 0-.107-.11c-.072-.013-.084.064-.002.239.03.062.07.122.105.183.015-.022.038-.035.038-.076 0-.065-.014-.15-.034-.236M63.092 60.202c.01-.027.011-.066.016-.101L63 60c.011.049.019.097.036.148.005.014.053.06.056.053M60.075 75.155c.024-.016.071-.044.07-.047-.015-.037-.036-.07-.056-.108l-.089.06c.022.033.048.064.075.095M60.01 64l-.01.005.002.008.01-.005L60.01 64" fill="#EAEBEC" mask="url(#f)"/><path d="M60.172 64.053a.83.83 0 0 0-.172-.052c.01.065.036.136.057.206.057-.03.116-.06.166-.093.007-.005-.036-.054-.051-.06M58.133 69.038c-.012-.012-.019-.03-.041-.036-.023-.006-.06.002-.092.004l.069.057.064-.025zM60.081 76.047c.006-.017.024-.044.013-.047-.011-.002-.05.017-.077.027l-.017.05.081-.03zM60.143 63.08l-.077-.074c-.024-.001-.062-.012-.066 0-.004.012.022.043.035.067l.108.007zM73.031 60.119c.013-.003.034-.032.051-.05 0-.024.001-.073-.004-.069-.026.023-.052.059-.078.09.01.01.017.033.031.029M60.06 77.034L60.05 77l-.051.055zM60.061 62.106c-.008-.032-.027-.07-.043-.106l-.018.1c.021.003.063.015.061.006M60 62l.007.017.003-.015L60 62zM61.001 77.095c.007.008.04-.013.06-.021.01-.026.03-.065.023-.072-.007-.008-.04.013-.06.022-.009.024-.03.063-.023.071" fill="#EAEBEC" mask="url(#f)"/><path d="M61 77.1c.022-.021.059-.054.061-.063.004-.018-.014-.021-.032-.037l-.029.1" fill="#EAEBEC" mask="url(#f)"/><path d="M62.655 61.995c.083-.15.231-.231.36-.333.121-.094.235-.2.374-.27.15-.075.32-.115.48-.165l.324.275v.001l-.327.146c-.042.02-.083.043-.125.064l-.022-.08c-.014-.006-.04-.024-.04-.015.002.025.014.06.022.09l.028.011c-.08.04-.159.08-.238.123l-.045-.009c-.106-.025-.154-.003-.134.108-.08.044-.16.087-.24.134-.2.13-.405.268-.602.416-.043-.31.117-.367.185-.496zm1.359-.865l-.139.084.074-.176.065.092zM59.82 73.157c-.011.008-.043.012-.066.017l-.001-.03.095-.022c-.009.012-.011.025-.028.035zm-.978-2.502l.104.074c.01.008.004.02.006.031-.025-.006-.065-.01-.072-.018-.02-.028-.028-.057-.038-.087zm-.124-1.91l.02.026-.084-.02.064-.005zm2.397-4.799c.04-.138.083-.277.135-.411.222.204.039.23-.012.31-.042.071-.093.141-.142.211.006-.036.01-.075.02-.11zm.92-1.08a5.083 5.083 0 0 0-.473.503c-.048.057-.091.114-.279.08l.005-.013c.056-.12.12-.24.226-.32.142-.105.321-.177.523-.278l-.003.027zm-.632-1.07c-.058.004-.136-.012-.17.017a5.771 5.771 0 0 0-.445.403c-.017.015-.015.047-.02.073-.011.056.088.153.204.21a3.453 3.453 0 0 0-.201.254c.161.029.273.07.306.055.046-.02.088-.04.129-.063.01.211-.047.361-.256.427a.245.245 0 0 0-.109.067.281.281 0 0 0 .018-.188c-.293-.098-.369-.02-.534-.02l-.005-.006c.029.042.1.12.08.12-.31.001-.162.212-.06.393.19-.088.41-.144.493-.286-.073.085-.101.21-.156.308-.045.079-.05.184-.112.249-.127.145-.303.262-.413.424-.168.246-.371.487-.38.805-.002.03-.01.054-.013.082l-.031-.019a.586.586 0 0 0-.158-.06c-.072-.003-.171-.002-.18.02-.08.186-.133.38-.189.575l-.224-.089c-.006.046-.039.087-.01.14.027.049.097.12.174.16a6.27 6.27 0 0 0-.117.447c-.028-.022-.058-.038-.087-.038a.35.35 0 0 0-.233.072c-.045.044-.04.11-.035.17.002.016.076.056.125.073a.402.402 0 0 0 .157.023l.013-.007-.027.13c-.007.034-.011.067-.017.1l-.044-.019c-.01.006-.035.012-.03.02.007.009.04.021.063.032l.005-.002a7.82 7.82 0 0 0-.043.245c-.04-.04-.093-.081-.136-.118-.076-.006-.126-.012-.126-.008-.003.032-.023.067.015.1s.134.064.206.095a.388.388 0 0 1 .03-.015 7.447 7.447 0 0 0-.058.487c-.005.055-.016.11-.027.165l-.152.024.096.044.05-.042a.944.944 0 0 0-.027.35l.012.075-.107-.1c-.062.033-.094.06-.15.078-.452.149-.552.385-.472.657.107.378.114.747.177 1.114.058.377.056.758.163 1.126.142.555.428 1.065.604 1.589.295.802.66 1.596 1.29 2.202.191.181.345.38.503.577.16.194.315.392.48.58.37.4.752.783 1.17 1.125-.028-.002-.099.061-.149.094-.009.039-.034.098-.022.115.028.042.075.064.13.101.013.016.023.073.065.068.05-.007.128-.067.192-.104.004-.028.013-.063.019-.093.042.031.082.066.125.096.065.051.137.095.207.14a.28.28 0 0 0-.098.122c-.026.054-.013.125.01.15.083.088.207.107.447-.037l-.002-.018.107.061.115.06c-.004.027-.006.051.004.054a.19.19 0 0 0 .08-.01c.073.04.147.076.222.112.02.07.032.123.054.153.012.014.071-.019.091-.052.007-.01.01-.018.015-.028.043.018.083.04.127.056.053.023.108.043.161.065-.016.012-.032.024-.05.04.098.088.167.155.25.196.019.01.08-.067.12-.105l.002-.01c.094.035.188.07.282.1l.024.006-.118.067c.132.13.287.104.448.057l-.035-.044c.122.033.246.068.368.1-.003.001-.006.001-.01.004.06.217.205.25.348.271.038.005.088-.006.132-.142.027.006.052.015.08.02.512.097 1.03.121 1.535.135l.34.002a9.611 9.611 0 0 0 1.656-.149l.653-.13c.214-.052.425-.122.632-.196.387-.132.738-.374 1.086-.557.379-.23.864-.236 1.094-.74.043-.025.088-.046.13-.073.236-.14.468-.282.688-.438.217-.162.429-.328.637-.494.125-.095.259-.178.375-.286.385-.348.713-.746 1.025-1.14l.204-.268c.337-.445.62-.922.865-1.404l.283-.597c.022-.052.04-.106.06-.159.05-.062.102-.12.151-.182.027-.038.066-.075.044-.126-.014-.031-.03-.067-.053-.103l.016-.048a2.68 2.68 0 0 0 .078-.323c.158-.058.172-.155.046-.299l.02-.171c.003.004.008.008.01.012.054-.01.111-.012.114-.023.005-.023-.02-.05-.033-.075l-.082.008c.012-.11.025-.218.041-.324a1.69 1.69 0 0 1 .048-.259c.024-.034.049-.065.071-.1.1-.146.138-.303.048-.455a.865.865 0 0 0-.126-.515c-.017-.03 0-.054-.001-.081 0-.058-.005-.115-.008-.172.278-.267.255-.544.003-.764-.03.04-.05.08-.065.12-.015-.12-.03-.237-.043-.353-.09-.615-.26-1.196-.414-1.761-.076-.288-.138-.576-.224-.862a6.315 6.315 0 0 0-.283-.852c-.045-.116-.095-.231-.117-.36-.037-.227-.068-.465-.119-.7-.054-.232-.114-.47-.183-.708-.015-.044-.02-.098-.075-.11-.076-.016-.167-.047-.296.024-.234.129-.2.23-.31.35-.015.015-.042.034-.09.073-.048-.061-.126-.1-.14-.187a6.37 6.37 0 0 0-.155-.738 6.845 6.845 0 0 0-.23-.756c-.088-.248-.273-.406-.652-.257-.178.07-.2-.084-.353-.046-.074.019-.024-.186-.03-.293-.033-.43-.28-.594-.63-.521.093.291.37.297.33.741-.07.036-.126.051-.143.008-.072-.183-.218-.255-.44-.162-.043.017-.073 0-.102-.013-.146-.071-.288-.152-.441-.21-.025-.009-.093.047-.133.118-.007.012-.013.028-.02.042a.678.678 0 0 0-.278-.192c-.103-.03-.18-.156-.28-.212-.089-.05-.181-.108-.286-.082-.125.032-.216-.024-.3-.16-.213-.353-.514-.413-.852-.002.087.204.17.278.26.32.296.137.582.275.852.445.238.141.465.29.681.453-.186-.023-.39-.012-.58-.024-.072-.004-.136-.031-.201-.058-.06-.02-.104-.103-.175-.071a.512.512 0 0 0-.147.15l-.08-.037c.027-.524-.056-.613-.245-.277a2.48 2.48 0 0 1-.075.123 10.174 10.174 0 0 0-.42-.185 9.232 9.232 0 0 0-.879-.285 5.872 5.872 0 0 0-1.07-.143c-.081-.005-.156.001-.246-.201-.017-.036-.068-.031-.07.004-.024.366-.163.215-.264.222-.242.028-.498.01-.748.037-.52.07-1.038.194-1.551.355-.08.013-.16.032-.24.05-.051-.005-.106-.015-.16-.02l-.001-.004a.017.017 0 0 1-.003.003l.008.007c-.07.028-.138.065-.207.097-.078.02-.155.04-.235.059-.036.01-.07.027-.104.039-.082-.047-.173-.17-.272-.333.247-.149.5-.276.755-.395.063-.014.125-.03.19-.04.163-.025.326-.046.488-.062.035.037.07.076.104.11l-.004-.004a.22.22 0 0 0 .063-.118c.4-.031.79-.036 1.17-.008.06.006.112-.012.197-.021-.165-.29-.256-.318-.341-.336-.369-.077-.742-.098-1.142-.131h-.014c-.017-.018-.033-.03-.042-.029-.027.007-.053.018-.08.025-.236-.008-.48-.017-.726-.006a.41.41 0 0 0-.215.085c-.08.052-.117.177-.23.167-.227-.02-.435 0-.589.108-.086.063-.234.05-.338.096-.094.04-.196.08-.237.179-.048.118-.149.157-.31.142-.412-.04-.64.163-.508.677.058.014.108.022.153.026-.08.072-.167.137-.27.187a1.383 1.383 0 0 0-.068-.101.354.354 0 0 0-.126-.067c-.295.044-.55.15-.73.317a1.586 1.586 0 0 1-.023-.04l.05-.054-.005-.002-.05.05.004.007z" fill="#DDD" mask="url(#f)"/><path fill="#EAEBEC" mask="url(#f)" d="M62.09 60.01l-.004-.01-.086.052.009.008z"/><path d="M84.965 96.218c.014-.162.027-.324.035-.488l-.014-.492a11.737 11.737 0 0 0-.96-4.131l-.288-.639-.346-.62c-.22-.419-.522-.802-.796-1.2-.151-.19-.313-.376-.472-.563a5.543 5.543 0 0 0-.51-.542l-.546-.519-.603-.474c-.952-.7-2.042-1.295-3.24-1.642-.29-.103-.61-.153-.898-.223l-.22-.08-.22-.077c-.072-.025-.102-.041-.155-.061-.489-.198-.976-.413-1.469-.574-.458-.15-.928-.2-1.384-.362-.805-.285-1.653-.2-2.469-.383a2.07 2.07 0 0 0-.878-.022c-.34.068-.661-.026-.993-.025-.302.001-.609.046-.91.052-.402.009-.8-.002-1.199-.005-.58-.005-1.162.007-1.74-.02-.271-.018-.976-.106-1.526-.128-.438.005-.874.062-1.31.088l-1.051.143c-.349.058-.686.15-1.03.233-.473.118-.91.31-1.364.476-.427.202-.868.396-1.28.622-.326.187-.677.355-1.001.55-.32.2-.649.398-.952.623-.245.195-.482.4-.717.61-.238.207-.44.436-.668.653l-.321.309-.303.321c-.2.216-.407.433-.593.663-.128.166-.207.36-.328.532-.292.396-.545.807-.799 1.228-.045.076-.103.148-.155.222-.019.028-.081.051-.05.085.293.302.11.399-.209.474-.095.022-.089.106-.115.166-.089.204-.183.407-.262.614-.072.207-.143.417-.207.628-.089.297-.154.6-.204.902l-.178.87-.02.11-.003.014-.006.055-.012.112-.017.227a5.65 5.65 0 0 0 .556 2.793c.33.68.805 1.355 1.478 1.948a6 6 0 0 0 2.927 1.401l.19.031.148.02.084.014.166.024c.111.015.223.025.336.026.573.007 1.14.07 1.709.108.179.013.356.049.539.022.26-.036.52-.084.785-.198.145-.063.28-.073.391.101.126.197.271.224.434.121a.278.278 0 0 1 .117-.046c.45-.049.898-.077 1.35-.146.18-.028.36-.064.542-.106l.272-.067.069-.018c.02-.002.002-.008.053-.007l.136.002.54.004c1.594.011 3.19-.067 4.781-.007 1.077.04 2.143-.095 3.216-.062.457.013.915.075 1.369.047.826-.052 1.648-.167 2.474-.23.427-.032.858-.023 1.285-.001.358.019.653-.083.908-.318.221.226.48.336.81.339.553.006 1.105.064 1.658.069.516.005 1.035-.023 1.455-.506-.144-.06-.266-.135-.398-.166-.684-.157-1.375-.292-2.057-.459-.232-.057-.446-.184-.668-.279l.006.009-.332-.397.001-.002c.363.062.172-.528.563-.451.237.045.483.057.727.073.087.006.177-.02.261-.032a.253.253 0 0 0 .029-.084l2.046.218c.341.038.845-.099 1.04-.413.006.173-.042.369-.09.541-.067.264-.12.524.001.793.094.193-.027.402-.257.59-.227.188-.563.35-.921.491.596.157.994.223 1.509.12a3.21 3.21 0 0 0 1.119-.477 2.97 2.97 0 0 0 1.127-1.45c.076-.294.15-.587.226-.876.036-.157.073-.311.11-.465.079-.31.104-.632.136-.954" fill="#DDD" mask="url(#f)"/><path d="M61.994 76.77a1.385 1.385 0 0 1-.714-.843.15.15 0 0 0-.08-.09c-.456-.221-.673-.68-1.014-1.017-.225-.244-.38-.543-.583-.806-.172-.216-.382-.412-.528-.651-.228-.372-.4-.774-.576-1.173-.257-.542-.398-1.118-.617-1.676 0-.002.003-.004.004-.006 0-.004-.004-.009-.012-.012a5.273 5.273 0 0 0-.137-.315c.133-.143.03-.241-.004-.346-.013-.039-.044-.08-.126-.088l.007-.057c.016-.126.02-.248.018-.368.04-.02.08-.038.08-.057a.671.671 0 0 0-.047-.276c-.004-.015-.038-.027-.077-.039a2.321 2.321 0 0 0-.18-.546c-.06-.123-.138-.244-.224-.404-.083.076-.136.103-.137.129-.034.45-.077.91-.018 1.362.032.29.13.57.248.837.123.256.25.5.19.81-.023.127.017.243.06.351.22.52.485 1.013.762 1.496a.49.49 0 0 0 .07.28c.014.03.044.055.117.047l.314.534c.213.38.455.742.803 1.019.217.175.454.335.556.591.142.348.398.597.703.79.105.07.144.211.225.31.193.24.361.54.896.414.014-.125.039-.19.02-.2M57.439 67c.092-.335.102-.655-.126-1-.038.263-.397.5-.295.78.034.092.023.214.42.22M75.237 62c.323-.755.283-1.065-.13-.989-.096.536-.232.965.13.989M60.005 63.011c-.016.079.014.177.036.314.3.014.462.008.397-.129-.02-.04-.131-.124-.216-.163-.062-.03-.213-.045-.217-.022" fill="#EAEBEC" mask="url(#f)"/><path d="M75.121 61.162c.031-.064.073-.125.063-.137-.02-.023-.068-.019-.105-.025-.028.053-.086.132-.078.151.01.027.07.009.12.011M67.122 78.103c.002-.029.007-.083.004-.084-.038-.01-.078-.013-.12-.019l-.006.106c.04.004.081 0 .122-.003M61.087 77.067l.018-.067c-.017.002-.036-.004-.053.011-.018.016-.035.05-.052.077l.087-.021z" fill="#EAEBEC" mask="url(#f)"/><path d="M67 78.079l.03.044.023-.084c-.009-.014-.02-.045-.028-.038-.01.008-.017.05-.025.078M63.068 60.11c.005-.013-.006-.048-.01-.072-.02-.014-.058-.044-.058-.037.004.034.016.076.026.116.014-.002.036.006.042-.008M69.031 78.013L69 78l.013.073zM72.044 78.123c.01-.001.013-.04.019-.062-.016-.022-.035-.062-.045-.061-.01.001-.012.04-.018.062.015.022.034.062.044.06M71 78.01c.028.035.045.059.063.083-.005-.03-.008-.08-.014-.087-.013-.013-.026 0-.049.003M59.01 66l-.01.1.012-.002.008-.094z" fill="#EAEBEC" mask="url(#f)"/><path d="M90.985 98.208c-.027-.47-.122-.928-.205-1.382-.058-.309-.176-.596-.265-.891-.04-.126-.068-.256-.119-.376-.097-.218-.227-.421-.335-.629a3.184 3.184 0 0 1-.17-.327.322.322 0 0 0-.198-.185.307.307 0 0 0-.04-.244c-.084-.136-.149-.28-.247-.408-.086-.121-.182-.238-.356-.252.01.043.015.083.03.117.076.182.173.352.227.538.021.063.023.131.032.195l.002-.002-.046.13c-.038-.09-.15.034-.187-.065-.023-.06-.055-.116-.085-.173-.011-.02-.03-.036-.044-.054-.011.002-.016.005-.023.008a6.132 6.132 0 0 0-.274-.47c-.057-.088-.122-.17-.183-.256.112.044.226.05.336-.027.094-.067.196 0 .316-.003-.008-.061-.005-.119-.025-.17a2.983 2.983 0 0 0-.425-.795c-.185-.267-.419-.493-.636-.734l-.452-.43-.483-.396c-.24-.179-.483-.358-.738-.518-.183-.106-.364-.22-.552-.32a9.657 9.657 0 0 0-2.04-.797c-.664-.173-1.352-.24-2.042-.284-1.223-.059-2.45.218-3.59.639a3.84 3.84 0 0 0-.59.25c-.187.097-.382.184-.556.304-.198.133-.404.252-.605.378l-.581.409c-.33.272-.653.55-.946.858a7.82 7.82 0 0 0-.571.617c-.19.206-.353.434-.52.658a9.938 9.938 0 0 0-1.173 2.127c-.097.239-.176.488-.266.731-.078.248-.138.504-.204.756a8.238 8.238 0 0 0-.142 1.188 7.113 7.113 0 0 0 .15 1.94c.19.884.552 1.724 1.02 2.486.386.61.827 1.181 1.328 1.698.43.418.887.81 1.378 1.151.228.17.464.325.705.473.237.158.488.288.738.423.176.101.37.168.554.253.213.102.43.193.653.275l.33.127c.044.02.144.046.222.067l.25.062c.13.034.215.04.323.058.038.006.089.024.113.015.226-.073.383-.043.573.033.055.022.14.015.209.015.454-.007.894-.038 1.322-.094.297-.046.597-.092.886-.159.565-.11 1.121-.25 1.661-.44.6-.21 1.2-.43 1.776-.719a12.58 12.58 0 0 0 2.094-1.337c.202-.177.41-.348.6-.538.25-.297.512-.566.708-.912a3.46 3.46 0 0 1 .367-.497c.159-.17.291-.36.353-.582.017-.054.037-.108.06-.16.144-.304.232-.62.337-.933.073-.316.163-.631.197-.949.04-.252.065-.504.07-.756a5.435 5.435 0 0 0-.006-.715" fill="#00C06D" mask="url(#f)"/><path fill="#FFF" mask="url(#f)" d="M80.426 102L77 98.075l1.103-1.207 2.285 2.619L84.861 94 86 95.164z"/></g></svg>
